<?xml version="1.0" encoding="UTF-8"?>
<svg width="570px" height="165px" viewBox="0 0 570 165" version="1.1" xmlns="http://www.w3.org/2000/svg" xmlns:xlink="http://www.w3.org/1999/xlink">
    <!-- Generator: Sketch 52.3 (67297) - http://www.bohemiancoding.com/sketch -->
    <title>copy-main</title>
    <desc>Created with Sketch.</desc>
    <defs>
        <polygon id="path-1" points="0.115251466 0.119222079 3.70750035 0.119222079 3.70750035 26.7986047 0.115251466 26.7986047"></polygon>
    </defs>
    <g id="Page-1" stroke="none" stroke-width="1" fill="none" fill-rule="evenodd">
        <g id="0top" transform="translate(-814.000000, -735.000000)">
            <g id="Group-80" transform="translate(1102.284003, 809.079470) rotate(-7.000000) translate(-1102.284003, -809.079470) translate(820.784003, 711.579470)">
                <path d="M270.802388,168.407257 C270.213259,167.181729 269.771413,166.619133 268.539271,166.318126 C267.145479,165.956201 264.857216,167.006142 264.932654,167.712075 C265.047606,168.783516 266.944313,168.891018 268.133347,169.09169 C270.012093,169.41778 273.3457,169.600535 273.647449,171.840169 C273.992305,174.499064 271.872878,178.028728 268.183639,178.089646 C266.136057,178.139814 263.732842,177.709804 261.990602,176.817534 C262.080408,176.555944 262.303127,175.412835 262.820411,174.552815 C264.149543,175.538254 267.716646,177.161542 269.99054,175.964681 C271.790257,175.000742 271.610644,171.7255 268.991895,171.281157 C268.302183,171.15932 265.924114,170.729311 265.072751,170.528639 C264.077698,170.28855 261.44458,170.084296 261.821766,168.468175 C262.637207,165.017346 267.249654,164.802341 269.236168,164.938511 C271.272973,165.078264 272.742203,166.146122 273.395992,167.471986 L270.802388,168.407257 Z" id="Fill-1" fill="#000000"></path>
                <path d="M282.107195,170.708168 C280.896608,171.131011 279.172328,174.155414 280.64515,176.140626 C281.528843,177.290903 284.262545,176.753391 284.977402,176.126293 C285.541385,175.635365 286.295758,174.524506 285.800027,172.94422 C285.347404,171.510853 283.141763,170.367744 282.107195,170.708168 M281.280978,179.157862 C278.917278,178.874773 277.994071,175.83962 278.331742,173.058889 C278.762812,169.271219 281.902437,168.060024 283.148948,168.146026 C285.853911,168.32878 288.989944,170.356994 288.645088,175.291357 C288.501399,177.384072 286.626245,179.79571 281.280978,179.157862" id="Fill-3" fill="#000000"></path>
                <path d="M306.054923,170.35126 L306.73745,171.63054 C307.121821,172.332889 307.563667,173.232326 307.761241,173.852257 C308.300078,175.482711 309.316685,178.18819 309.862706,179.650224 C310.95475,178.159523 313.365149,172.859651 314.087191,170.756186 L315.437877,171.114528 C316.167103,171.311616 316.917883,171.580372 317.201671,171.723708 C316.228172,173.22516 315.265449,174.973866 314.604475,176.159977 C313.943501,177.392672 311.551063,181.338013 310.864944,181.897025 C310.089018,182.011695 308.92513,182.10128 307.980368,181.864775 L307.017645,179.77206 C306.493177,178.643284 305.882495,177.371171 305.616668,176.701073 C305.49094,176.42515 304.233652,174.067262 303.978603,173.228743 C303.367921,174.755278 302.710539,175.898388 302.067526,177.206334 C301.420922,178.514281 300.741987,179.653807 300.134897,180.456492 C299.355379,180.571162 298.209451,180.786166 297.307797,180.262988 L296.309151,178.356611 C295.730799,177.278003 295.148855,175.980806 294.760892,174.963116 C294.376522,173.97051 293.593411,172.418891 293.083312,169.989335 C293.769431,169.505574 295.935558,169.122149 296.438472,169.157983 L296.923426,171.196946 C297.18566,172.300638 297.50537,173.579918 297.771197,174.2536 C298.421394,175.962889 298.579453,176.819325 299.29431,178.320777 C300.892861,175.045535 302.103449,171.841961 303.321221,169.871083 C304.316274,169.770747 305.23589,170.003669 306.054923,170.35126" id="Fill-5" fill="#000000"></path>
                <path d="M335.615539,181.593152 C336.161561,181.704238 337.411663,181.356646 337.670305,180.453626 C337.925355,179.529104 337.523023,178.389578 337.077584,178.19249 C336.168745,177.787564 335.583209,178.256992 335.23476,178.787337 C335.044371,179.088344 334.871943,179.489687 334.742622,179.962698 C334.713884,180.396291 334.73903,181.413981 335.615539,181.593152 Z M332.457952,173.351296 C332.752516,172.573695 333.111741,171.896429 333.607472,171.305165 C334.422912,170.319726 335.676607,169.294869 337.591276,169.427456 C341.35236,169.685462 342.13547,172.932036 342.207315,174.290151 C342.408481,177.346804 341.898382,180.865718 341.546342,183.162688 L339.811285,183.549697 L340.02682,181.510733 C339.56342,181.962244 339.10002,182.363586 338.618659,182.696844 C337.835549,183.27019 336.689621,183.843537 335.759229,183.732451 C333.751162,183.495945 332.957275,182.087663 333.079411,180.356873 C333.197955,178.6225 334.505534,176.056775 336.700398,176.013774 C338.895262,175.970773 339.581382,179.206597 339.581382,179.231681 C339.581382,179.231681 339.857985,175.623181 339.897499,174.637742 C339.954975,173.164958 339.308371,172.398107 337.318265,171.968097 C336.086123,171.692174 335.216799,172.093517 334.631263,172.559361 C334.297183,172.824534 334.009803,173.143458 333.769123,173.537633 L332.457952,173.351296 Z" id="Fill-7" fill="#000000"></path>
                <path d="M366.917677,175.579464 C366.249519,175.14587 363.637954,174.991783 362.887174,177.138249 C361.953189,179.879562 364.406695,181.302178 365.30835,181.438348 C366.069906,181.563768 367.711564,180.804084 367.995352,178.456946 C368.157003,177.188417 367.589428,175.987973 366.917677,175.579464 Z M361.374837,186.146956 C362.675231,186.817055 366.860201,189.619286 367.646904,187.014143 C367.866031,186.254459 368.067197,185.061181 368.182149,184.079325 L368.379722,182.301951 C368.070789,182.595791 367.740302,182.839464 367.363116,183.075969 C366.73088,183.495229 365.818449,183.84282 364.783881,183.82132 C362.668047,183.771152 359.851724,181.739355 360.426483,177.912267 C361.004835,174.060095 363.706207,172.23972 365.972916,172.881152 C367.133212,173.200076 367.966614,173.644419 368.516228,174.045762 C368.83953,174.260767 369.112541,174.497272 369.313707,174.730194 L369.802253,172.515643 L371.106239,172.798733 C371.260706,176.095475 370.829636,182.68896 370.463227,186.265209 C370.236915,188.497677 369.173609,189.945377 366.712919,191.059819 C364.403103,192.10976 360.3259,188.805851 360.002598,188.250421 L361.374837,186.146956 Z" id="Fill-9" fill="#000000"></path>
                <path d="M379.290819,177.39733 C378.083823,177.820173 376.355952,180.844576 377.828774,182.833372 C378.712467,183.980065 381.446168,183.442552 382.164618,182.815455 C382.728601,182.324527 383.479381,181.213668 382.987243,179.633382 C382.531028,178.200015 380.325387,177.056906 379.290819,177.39733 M378.464602,185.847024 C376.100902,185.563935 375.177694,182.528782 375.518958,179.748051 C375.946435,175.960381 379.086061,174.749186 380.332571,174.835188 C383.037535,175.021526 386.173568,177.049739 385.832304,181.980519 C385.688614,184.076817 383.809868,186.484872 378.464602,185.847024" id="Fill-11" fill="#000000"></path>
                <path d="M393.978806,178.40857 C392.771811,178.831413 391.043939,181.855816 392.520353,183.844612 C393.400454,184.991305 396.134156,184.453792 396.852605,183.826695 C397.416589,183.335767 398.167369,182.224908 397.67523,180.644622 C397.219015,179.211255 395.013374,178.068146 393.978806,178.40857 M393.152589,186.858264 C390.788889,186.575174 389.865681,183.540021 390.206945,180.759291 C390.634423,176.971621 393.77764,175.760426 395.020559,175.846428 C397.725522,176.029182 400.861555,178.057396 400.520292,182.991759 C400.376602,185.084474 398.497855,187.496112 393.152589,186.858264" id="Fill-13" fill="#000000"></path>
                <path d="M410.245946,179.50402 C409.311961,179.439519 406.614183,180.51096 406.919524,183.40636 C407.15302,185.645995 409.40536,186.119006 410.483035,185.803665 C411.269737,185.592244 412.042071,184.510052 412.178576,183.237939 C412.437218,180.887219 411.039833,179.557772 410.245946,179.50402 Z M416.866461,169.373704 C416.844907,171.473586 416.539566,175.175254 416.435391,176.691039 C416.183934,180.274455 415.016453,188.871069 415.002084,189.064573 C414.736257,189.046656 413.489747,188.960654 413.256251,188.896153 L413.439455,186.588433 C413.033531,186.875106 412.580908,187.133112 412.110323,187.366034 C411.287698,187.77096 410.152548,188.150802 408.970698,188.215304 C406.603406,188.340723 404.408542,185.943418 404.67796,182.09483 C404.943787,178.221158 408.25584,176.637288 410.271092,177.063714 C411.291291,177.278719 412.070809,177.841316 412.613238,178.360911 C412.925764,178.672668 413.19159,179.005926 413.435863,179.3356 C413.514893,178.18174 413.755573,175.780852 413.945963,174.70941 C414.071691,173.917475 414.30878,172.580861 414.4848,171.455669 L414.818879,169.402372 L416.866461,169.373704 Z" id="Fill-15" fill="#000000"></path>
                <path d="M442.670662,180.238979 C442.081533,179.013451 441.639687,178.447271 440.407546,178.149848 C439.013753,177.787923 436.72549,178.837863 436.800928,179.543796 C436.91588,180.615238 438.812587,180.72274 440.001621,180.923411 C441.880368,181.245919 445.213975,181.428673 445.515723,183.671891 C445.860579,186.330785 443.741152,189.856866 440.051913,189.921368 C438.004331,189.971536 435.601117,189.541526 433.858876,188.645672 C433.948682,188.387666 434.174994,187.244556 434.688685,186.384537 C436.017817,187.369976 439.588513,188.993263 441.858814,187.796402 C443.658531,186.832464 443.478918,183.557222 440.860169,183.109295 C440.170457,182.991042 437.795981,182.561032 436.941025,182.356778 C435.945972,182.120272 433.316446,181.916017 433.69004,180.296314 C434.509073,176.849068 439.117928,176.634063 441.104442,176.770233 C443.141247,176.909986 444.610477,177.977844 445.264266,179.303707 L442.670662,180.238979 Z" id="Fill-17" fill="#000000"></path>
                <path d="M456.953803,180.518844 C455.538457,180.422091 454.751755,182.421637 454.56855,182.941233 L457.018464,183.063069 C458.239828,183.123987 459.443232,183.131154 459.468377,183.134737 C459.47197,183.084569 458.965462,180.658597 456.953803,180.518844 M456.716715,185.334954 C456.238946,185.281203 454.16981,184.922861 453.429807,184.86911 C453.390292,185.42454 452.675435,189.144125 455.973119,189.470216 C456.64487,189.538301 457.014871,189.36988 457.198076,189.165626 C457.302251,189.050956 457.359727,188.936287 457.39565,188.767866 L457.819535,188.846702 C458.106915,188.889703 458.484101,188.986455 459.033715,189.050956 C459.989253,189.190709 460.229934,189.179959 460.538867,189.226544 C460.456246,189.341213 459.576145,191.287008 455.229524,190.821164 C450.261443,190.258567 449.704645,185.772131 449.934549,184.242013 C450.476978,180.558261 453.839323,177.501608 459.303134,179.232397 C461.986544,180.092417 461.411784,184.958696 461.264502,185.671795 C460.204788,185.721963 459.10556,185.596544 456.716715,185.334954" id="Fill-19" fill="#000000"></path>
                <path d="M472.238463,181.572368 C470.823117,181.475616 470.036414,183.475162 469.856802,183.994757 L472.303123,184.11301 C473.524488,184.173928 474.727891,184.184678 474.753037,184.184678 C474.756629,184.138093 474.250122,181.712121 472.238463,181.572368 M472.001374,186.388478 C471.523605,186.334727 469.458062,185.976386 468.714467,185.922634 C468.674952,186.47448 467.960094,190.194066 471.257779,190.520157 C471.929529,190.591825 472.299531,190.423404 472.482736,190.21915 C472.586911,190.10448 472.644387,189.986228 472.680309,189.821391 L473.104195,189.896642 C473.391575,189.943227 473.768761,190.039979 474.321967,190.100897 C475.273913,190.24065 475.514594,190.233483 475.823527,190.280068 C475.744498,190.391154 474.860805,192.340532 470.517776,191.871104 C465.546103,191.312092 464.992897,186.825655 465.219209,185.295537 C465.761638,181.608202 469.127575,178.555132 474.587794,180.282338 C477.274796,181.145941 476.696444,186.01222 476.549162,186.72532 C475.489448,186.775487 474.39022,186.650068 472.001374,186.388478" id="Fill-21" fill="#000000"></path>
                <path d="M486.128612,184.726849 C485.194627,184.662347 482.496848,185.733788 482.802189,188.629188 C483.032093,190.868823 485.288025,191.341834 486.3657,191.026493 C487.14881,190.818655 487.924736,189.73288 488.061242,188.460768 C488.316291,186.110047 486.918906,184.7806 486.128612,184.726849 Z M492.749126,174.596533 C492.723981,176.696414 492.418639,180.398083 492.314464,181.913867 C492.066599,185.497283 490.895526,194.093897 490.881157,194.287402 C490.618923,194.269484 489.372412,194.183482 489.135324,194.118981 L489.318529,191.811261 C488.916197,192.097935 488.463573,192.355941 487.992989,192.588863 C487.170364,192.993789 486.035213,193.373631 484.853363,193.438132 C482.482479,193.563552 480.291207,191.166247 480.560626,187.317658 C480.826452,183.443986 484.134914,181.860116 486.150165,182.286543 C487.173956,182.501548 487.953474,183.064144 488.492311,183.587322 C488.808429,183.895496 489.074256,184.228754 489.318529,184.562012 C489.397558,183.404568 489.634647,181.00368 489.828628,179.932239 C489.954357,179.140304 490.191445,177.80369 490.367465,176.678497 L490.701544,174.6252 L492.749126,174.596533 Z" id="Fill-23" fill="#000000"></path>
                <path d="M50.0048229,160.340185 C50.7484184,157.115111 51.5961892,150.561043 51.7470636,148.661833 C51.8692001,147.206966 53.4461973,126.892583 53.4461973,126.892583 C53.7659075,122.918575 53.7982377,113.805949 53.8126067,109.91436 L53.8126067,109.900026 L63.0303174,110.806631 C62.7034227,113.11435 61.9059435,117.758457 61.1300177,122.273561 C60.1349648,128.060777 59.1973878,133.525486 59.0141831,135.335111 C58.565152,139.212366 57.3797099,149.561271 57.1677672,152.137746 L57.0959222,153.026433 L57.9329162,153.348941 C59.9445756,154.126542 63.7882819,154.975812 66.6656732,155.556325 C68.8641296,155.997085 71.0087021,156.384094 72.5856994,156.65285 C76.7491159,157.290698 84.5478882,157.957213 88.0000394,158.104133 C87.9425634,159.103906 87.7629509,160.626858 87.2205214,162.923827 C82.640404,162.991912 76.9897965,162.712406 69.9992802,162.271646 C63.8206121,161.891804 53.816199,160.84903 50.0048229,160.340185" id="Fill-25" fill="#000000"></path>
                <path d="M101.709857,115.552865 C101.580536,115.527781 101.099175,115.302025 100.226258,113.474484 C99.9137328,112.768551 99.5832459,111.969449 99.338973,111.041344 C99.3748955,109.550643 99.8023731,108.163862 100.549561,107.558264 C101.063252,107.135421 101.792479,107.027919 102.773163,107.225007 C103.563458,107.382677 104.479481,107.737435 105.506864,108.278531 C107.493378,109.328472 107.051531,112.456793 106.767744,113.750407 C106.440849,115.248274 103.617341,115.703368 101.720634,115.552865 L101.709857,115.552865 Z M96.9609042,160.184306 C96.8746902,155.651285 96.8782825,142.503733 99.2994582,128.359992 L104.202878,128.241739 C103.664041,135.265234 102.974329,147.12634 102.625881,159.786547 C99.5616924,160.091137 98.286444,160.152055 96.9609042,160.184306 Z" id="Fill-27" fill="#000000"></path>
                <path d="M122.353075,167.515975 C123.215214,160.822154 124.001917,138.673062 123.876188,136.411927 L123.825897,135.516073 C123.825897,135.516073 121.896859,135.08248 121.379575,134.978561 C120.111511,134.724138 118.84704,134.50555 117.535869,134.276211 C116.314504,134.06479 115.057217,133.846201 113.717308,133.584612 C113.753231,132.889429 113.7676,132.136912 113.778377,131.380811 C113.785561,130.477791 113.79993,129.556853 113.860998,128.721917 C114.464496,128.858087 115.028479,128.979923 115.563724,129.087425 C118.857817,129.750357 120.941321,129.918778 122.547056,129.997613 L123.710945,130.054948 L123.800751,128.901088 C123.962402,126.919459 124.705998,122.081848 125.151437,119.193615 L125.266389,118.462598 C126.379986,111.188264 132.461663,107.260841 141.140536,108.210446 C141.841025,108.285698 142.494814,108.386033 143.109089,108.507869 C146.09784,109.113467 148.123868,110.288827 149.129698,112.01245 C150.117566,113.707406 150.20378,116.054543 149.391932,118.992944 L145.397351,118.451848 L143.561712,118.229676 C143.885014,117.125984 144.057442,115.724869 143.450352,114.48859 C143.076758,113.718156 142.243357,112.721966 140.418494,112.352874 C140.037716,112.277623 139.610238,112.227455 139.136061,112.209538 C132.846034,111.987366 131.110977,116.226547 130.349421,119.433704 C129.875244,121.562253 129.548349,126.693704 129.56631,128.98709 L129.577087,129.965362 L130.536218,130.1517 C134.688857,130.961552 139.940725,131.409479 142.911515,131.642401 C142.670834,133.039933 142.55229,134.433881 142.541513,135.849331 C140.964516,135.82783 138.737322,135.530407 135.888668,134.95706 C134.333225,134.64172 132.846034,134.297712 131.653407,134.011038 L130.130294,133.64553 L130.169808,135.207899 C130.212915,136.591098 129.706408,145.646389 129.260969,153.640989 C128.941259,159.370871 128.632326,164.950249 128.499413,167.963901 C128.201256,167.953151 127.881546,167.942401 127.540282,167.931651 C126.060276,167.885066 124.267743,167.827732 122.353075,167.515975" id="Fill-29" fill="#000000"></path>
                <path d="M168.36655,136.946573 C168.061209,136.882071 167.734314,136.83907 167.396643,136.810403 C162.539922,136.41981 159.931949,142.543868 159.24583,144.432328 L158.7034,145.937362 L167.335574,146.460541 C170.327918,146.643295 173.284339,146.72213 174.160847,146.747214 L175.295998,146.779465 L175.644446,145.657856 C175.694738,145.080926 174.243469,138.1291 168.36655,136.946573 M160.528263,165.911321 C148.573258,163.503266 147.58539,152.308675 148.181703,148.57834 C148.961221,143.729978 151.454242,139.626967 155.20455,137.028991 C159.195538,134.266178 164.3576,133.424075 170.126752,134.585102 C171.29064,134.818024 172.486859,135.136948 173.729777,135.541874 C179.8833,137.580837 178.938538,148.435003 178.503876,151.695911 C175.863573,151.688744 172.835307,151.319653 166.983534,150.610136 C166.153725,150.506217 165.137118,150.33063 163.92653,150.129959 C161.537685,149.725033 158.563303,149.223354 157.122811,149.108685 L155.930184,149.011933 L155.829601,150.20521 L155.772125,150.685388 C154.500469,160.686701 159.13447,162.912002 163.103905,163.714687 C163.103905,163.714687 163.836724,163.84369 164.231871,163.886691 C166.793145,164.191281 167.971402,164.133947 168.628784,163.417264 C168.801212,163.23451 168.926941,163.144924 169.049077,162.940669 L170.805687,163.291844 C171.391223,163.406513 172.066566,163.531933 172.864045,163.632269 C173.744146,163.768438 174.415897,163.858024 174.951142,163.926109 C173.097542,165.484895 169.429856,167.040097 162.159144,166.17291 C161.598753,166.104825 161.052731,166.01524 160.528263,165.911321" id="Fill-31" fill="#000000"></path>
                <path d="M180.409564,98.4424133 C179.841989,98.4782475 179.820435,98.4889977 179.231307,98.3886621 L176.321585,95.3391754 C174.640413,93.6836374 172.75089,91.5658387 171.385835,89.7992148 C171.112824,89.4623738 170.807483,89.0968654 170.469812,88.6919394 C169.17301,87.1510707 167.427177,85.0798564 165.720859,82.0196195 C166.970961,81.1094319 169.532235,79.9627389 170.843405,79.5183954 L172.553316,82.5141309 C173.555553,84.2664211 174.999637,86.7425613 175.99469,87.9824231 C176.828092,89.0574478 177.46392,89.9533017 178.049457,90.7774873 C179.033733,92.171436 179.885096,93.3718802 181.343549,94.9485831 L182.503845,96.2027785 L182.909769,94.5508239 C183.595889,91.7808437 184.15628,89.0610312 184.68434,86.5168061 C185.467451,82.7327192 186.146386,79.4359768 187.026487,76.8774181 C187.83115,76.6373292 188.686106,76.4868258 189.576983,76.4294911 C190.33854,76.3793233 191.125243,76.393657 191.965829,76.479659 L193.837391,78.325118 C195.259921,79.6975662 196.45614,81.0162631 197.041677,81.8691161 C198.927607,84.5566778 202.210923,88.8424429 204.175883,91.404585 L205.411616,93.0135386 L206.047445,91.6303402 C207.563374,88.3156808 209.866005,77.8986915 210.519794,73.0180795 L212.768542,72.996579 C213.788741,72.9822453 214.787386,73.0216629 215.548943,73.0754141 C214.489229,75.9528969 213.54806,78.9988001 212.833203,81.2957696 L212.671551,81.8225316 C211.769897,84.9257696 208.989496,92.5799453 207.901045,94.2211497 C206.690457,94.6869937 204.60336,95.3821764 202.710245,95.5183462 L198.827024,91.2074972 C197.46197,89.7132129 196.096915,88.2189285 195.382058,87.326658 C195.252737,87.1833214 194.961764,86.8823145 194.559433,86.4702217 C193.366806,85.2518604 190.88097,82.7148021 190.180481,81.6684448 L188.883679,79.7262335 L188.510085,82.0267863 C188.143676,84.2807548 187.637169,86.1441309 187.105516,88.1221763 C186.889981,88.9105278 186.678039,89.706046 186.47328,90.5230648 C185.826676,93.0923738 185.039973,95.6079315 184.224533,97.3817223 C182.794817,97.947902 181.72792,98.3564113 180.409564,98.4424133" id="Fill-33" fill="#000000"></path>
                <path d="M221.388862,57.4029875 C221.255949,57.406571 220.850024,57.3026519 219.951962,56.2634614 C219.607106,55.8477852 219.244289,55.3747743 218.917395,54.8014278 C218.885064,54.518338 218.65516,53.2175581 219.219143,52.4865413 C219.538854,52.0708651 220.127982,51.8522767 220.979345,51.8343597 C221.586436,51.820026 222.315662,51.9096114 223.141879,52.0995324 C224.751207,52.4722076 224.909266,54.561339 224.905673,55.4428592 C224.898489,56.3996312 222.868868,57.1951494 221.410415,57.4029875 L221.388862,57.4029875 Z M224.902081,88.066275 C224.108194,85.0096215 222.074981,76.3305889 221.643911,66.555031 L225.293636,65.6770942 C226.008494,70.5003716 227.359179,78.4878051 229.072682,86.8873313 C226.834711,87.5860973 225.879173,87.8369364 224.902081,88.066275 Z" id="Fill-35" fill="#000000"></path>
                <path d="M234.375919,62.8637546 C235.234467,62.6953341 236.078645,62.5233301 236.955154,62.3298257 L237.655642,62.1757388 L237.680788,61.0541297 C237.720303,59.8895196 237.792148,57.6283844 237.357486,55.4460843 C238.542928,55.245413 239.627787,55.1558276 240.536626,55.0769925 C240.752161,55.0590754 240.960511,55.0411583 241.154493,55.0268246 C241.215561,55.8330932 241.276629,56.5856104 241.334105,57.2879599 C241.48498,59.090418 241.599932,60.5166174 241.58197,61.4662225 L241.556825,62.6272492 L242.691975,62.3799935 C244.746742,61.9284831 247.88996,61.4554723 249.851327,61.4268049 C249.915988,62.2689076 250.034532,63.0070912 250.145892,63.6126885 C248.479088,63.8635276 245.49393,64.4117902 242.713529,65.2753933 L242.023817,65.4903983 L242.070516,66.2070814 C242.196245,68.1851268 242.307605,70.0198356 242.350712,71.764959 C242.44411,74.9040311 242.709937,78.0968544 242.860811,79.368967 C243.191298,82.2177824 245.644804,84.2137449 248.831129,84.2244951 C249.017926,84.2244951 249.204723,84.2209117 249.398704,84.2065781 C250.81405,84.1098258 251.776773,83.6296481 252.254542,82.7803786 C252.606582,82.1496975 252.646097,81.3685129 252.387455,80.4798258 L256.026403,79.8957291 C256.529318,81.4222641 256.50058,82.6872098 255.940189,83.6511486 C255.189409,84.9519285 253.450761,85.7976146 250.763759,86.1667064 C249.969872,86.2777923 249.208315,86.3279601 248.486273,86.3243767 C244.0247,86.310043 240.917404,84.188661 240.173809,80.6482463 C239.832545,79.0177922 237.885546,67.3430241 237.723895,65.9490755 L237.623312,65.0711386 L236.736027,65.1463904 C235.514662,65.246726 233.901742,65.4438139 231.114157,66.1067458 C231.074642,65.6588188 231.049497,65.1750577 231.027943,64.6984634 C231.009982,64.3186214 230.995613,63.9423627 230.966875,63.5876046" id="Fill-37" fill="#000000"></path>
                <path d="M262.289489,85.8828999 C261.721914,83.3171743 261.34832,80.590195 260.985503,77.9456343 L260.809483,76.684272 C260.496957,74.261883 260.241907,69.6464437 260.05511,66.2744496 L259.785692,61.8417645 C259.555788,58.3766016 259.175009,52.7076381 259.110349,48.6906291 C260.069479,48.4433735 261.226184,48.335871 262.181722,48.249869 C262.393664,48.2283685 262.602015,48.2104514 262.795996,48.188951 C262.867841,48.8518828 262.968424,49.6223172 263.086968,50.5145877 C263.356387,52.6001356 263.701243,55.1981119 263.934739,58.4482699 C263.985031,59.3047062 264.078429,60.501567 264.150274,61.4260883 L264.243673,62.6838671 L264.329887,64.156651 L265.612319,63.4256342 C266.945044,62.6659501 268.540002,62.0352689 270.350496,61.5515078 C271.359918,61.3042521 272.940507,61.2074999 274.549835,61.2970853 C277.779266,61.4834229 280.570444,62.3219422 282.212101,63.6012215 C285.797166,66.3747852 284.996094,80.1100173 284.672792,84.6179542 C284.644054,85.0372138 284.615316,85.4027222 284.593762,85.7108959 L282.664725,85.9474014 C282.682686,84.4567005 282.671909,83.0018337 282.628802,81.6150519 C282.614433,79.0242424 282.384529,75.3727419 281.788216,73.7028702 C280.599182,70.2950419 277.678683,66.5575394 273.055459,66.2923667 C271.162344,66.1812808 269.100393,66.6578751 266.92349,67.700649 C264.416101,68.9118435 264.376586,73.348112 264.376586,73.3946964 C264.376586,78.1248051 264.868724,81.2495435 265.306978,84.0051901 C265.386008,84.4817844 265.457853,84.9512118 265.529698,85.4170559 C264.297556,85.7252296 263.165998,85.814815 262.289489,85.8828999" id="Fill-39" fill="#000000"></path>
                <path d="M334.892072,60.5872107 C334.231098,60.5692936 333.591678,60.5979609 332.991772,60.6517121 C326.069509,61.1569738 322.513182,67.2093627 320.79968,70.1155128 C320.558999,70.7784447 320.422494,71.1511199 320.278804,71.5452956 C319.535208,73.6129265 318.608408,76.1894023 317.469665,85.7356215 C317.074518,88.6238545 317.933065,97.7543975 319.359188,101.008139 C321.848616,106.426263 328.206897,112.532404 333.368959,112.66499 C337.500045,112.668573 344.192405,109.511584 346.257948,104.365799 C348.445627,98.8473393 349.659807,95.1707548 349.110193,83.8113273 C348.413297,68.6248119 343.628421,60.8129659 334.892072,60.5872107 M332.424197,122.583884 C318.827535,122.236293 314.301302,107.551456 314.114505,106.927942 C313.870232,105.97117 311.750805,93.8341408 312.580614,84.463509 C313.471492,75.2397971 315.583734,69.5815839 316.453059,67.5784545 C319.743559,60.1392837 323.874645,53.4848809 338.028105,53.8503893 C348.776114,54.1263123 354.186041,70.4953549 355.234978,76.203736 C356.449158,83.187813 356.201293,95.206589 354.681771,102.986184 C354.045943,106.343845 349.986702,123.038978 332.424197,122.583884" id="Fill-41" fill="#000000"></path>
                <path d="M384.580059,122.814298 C377.966729,122.642294 370.049412,122.183617 366.78765,121.89336 C367.42707,117.930102 368.037753,108.924979 368.102413,106.380754 C368.102413,106.380754 368.662804,81.7913559 368.756202,78.1756896 C368.889116,73.0299047 368.425715,61.2619678 368.228142,56.2380191 L368.213773,55.9011781 L378.48042,56.3777723 C378.275662,59.2552551 377.632649,65.5548997 377.01119,71.6753736 C376.281964,78.878039 375.527592,86.3243767 375.430601,88.6535969 C375.12526,94.293893 374.428363,107.179856 374.342149,110.455098 L374.320596,111.315117 L375.12526,111.619708 C378.516343,112.909737 386.832399,114.206934 391.214942,114.76953 C394.350976,115.120705 399.175366,115.339293 402.649071,115.428878 C404.879857,115.486213 406.794526,115.496963 408.102104,115.471879 C408.109289,116.81566 408.012298,118.969293 407.466276,122.416539 C402.512565,122.857299 396.348266,122.9218 388.707553,122.882383 C387.439489,122.875216 386.042104,122.850132 384.580059,122.814298" id="Fill-43" fill="#000000"></path>
                <path d="M419.311717,122.032038 C419.34764,120.770676 419.401523,118.943134 419.638612,116.814585 C420.77017,116.474161 422.196293,115.961732 422.692023,115.621308 C423.45358,115.359718 424.286982,115.112463 424.969509,114.911792 C425.939416,114.625118 426.700973,114.399363 427.336801,113.944269 L427.81457,113.603845 L427.843308,113.019748 C428.234863,105.329738 428.468359,95.3284251 428.56535,91.0605771 L428.59768,89.5985436 C428.615642,88.9857795 428.612049,87.9143382 428.612049,86.5347232 C428.608457,84.101584 428.601273,80.6973391 428.694671,77.2285928 L428.78807,73.91035 C428.924575,69.0404881 429.000012,66.2382571 428.831177,65.2492344 C428.888653,63.8803696 426.165728,62.823262 423.873873,62.2140814 C422.357944,61.8557398 420.996482,61.6514851 419.900846,61.6264012 C419.775117,61.6228178 419.652981,61.6192344 419.534436,61.6228178 C419.660165,60.0138642 419.933176,58.2078227 420.407353,56.9034594 L447.66893,59.0248415 C447.708444,59.9386124 447.66893,61.4078128 447.374365,62.9128474 C446.443973,62.995266 445.395036,63.0418504 444.349692,63.0848514 L442.208711,63.1959372 L439.633069,63.3966085 C437.833352,63.5220281 437.168786,64.5289679 437.143641,65.4284052 C437.143641,65.4284052 436.130626,101.696155 436.07315,104.036125 C436.030043,105.634328 436.188102,109.178327 436.50422,113.510676 L436.554512,114.24886 L437.237039,114.539116 C438.684715,115.166214 440.056954,115.764644 442.47813,115.915148 C443.390561,116.054901 444.403575,116.212571 445.545911,116.273489 L445.872805,120.634506 L419.308125,122.218376 C419.308125,122.161041 419.311717,122.09654 419.311717,122.032038" id="Fill-45" fill="#000000"></path>
                <path d="M487.292513,119.082171 C483.976867,118.999752 481.365302,118.232901 479.802674,117.777807 L479.720052,117.752723 C479.346458,116.824619 479.184807,116.340858 479.005194,115.817679 L478.699853,114.932575 C478.369366,114.051055 478.038879,113.094283 477.683247,112.07301 C477.040234,110.223967 476.325377,108.167087 475.456053,106.070788 L474.568767,103.960157 C472.521185,99.0759612 472.521185,99.0759612 470.868751,93.9086759 L469.959912,91.0670273 C469.442628,89.5261586 468.307477,86.6020914 467.125627,83.5561881 C465.721058,79.9476886 464.266197,76.2101861 463.716583,74.4435622 C463.659107,74.2823085 459.061029,60.6832462 455.856743,54.3370171 C457.175098,54.1542629 458.694619,53.9715087 459.912392,53.8245887 L460.882299,53.706336 C461.564826,53.6346677 462.462888,53.6024169 463.443572,53.6239174 C465.099599,53.6705018 466.66582,53.8675897 467.948252,54.1936805 C468.102719,55.3403735 468.239225,56.4763163 468.379322,57.6445098 C468.785246,61.0487546 469.252239,64.9009264 470.351467,69.9535424 C471.220791,73.8236313 472.30565,77.2027922 473.451578,80.7862079 C474.116144,82.8610055 474.816632,85.0504724 475.542266,87.5266126 C476.828292,91.8374616 480.722289,102.609209 482.292102,105.633612 L483.254825,107.486238 L484.389975,105.730364 C484.968328,104.84526 486.965618,101.369347 487.443387,99.9180639 C487.89601,99.0365436 488.434848,97.8575999 489.009608,96.6141547 C489.728057,95.0410352 490.493206,93.3604133 491.3302,91.7407094 C493.816037,86.9030983 497.099352,78.5250726 498.672757,74.4973134 C499.107419,73.3864546 499.409168,72.6267705 499.509751,72.3974319 C501.884228,66.7213015 504.693366,60.9950034 507.854545,55.3475403 C507.854545,55.3475403 509.316591,52.7137299 509.553679,52.2693863 C510.868442,52.0902155 511.849126,52.0257141 512.761557,52.0472146 C513.178258,52.0579648 513.591367,52.0902155 514.008068,52.1403834 L516.47235,52.4163064 C515.638949,54.3047664 514.61875,56.9063261 513.476415,59.8053094 L512.028738,63.4639767 C511.331842,65.1983499 509.801544,68.5810942 508.21377,72.096425 C506.320655,76.2746876 504.366472,80.58912 503.576177,82.6710845 C503.331904,83.2730983 502.67093,85.0146383 501.80879,87.2865238 C499.660626,92.9304034 496.068377,102.376287 494.767983,105.25377 C493.848367,107.350068 492.098942,111.81142 490.730295,115.323168 C490.137574,116.835369 489.616698,118.1684 489.264657,119.04992 C488.58213,119.089337 487.924748,119.100088 487.292513,119.082171" id="Fill-47" fill="#000000"></path>
                <path d="M523.676246,126.086315 C523.676246,125.731557 523.676246,125.251379 523.669062,124.59203 C523.679838,121.316789 523.76246,118.123965 523.845082,114.841557 L523.934888,111.455229 C524.189938,101.328496 524.430618,91.76436 525.23169,81.6483776 L526.833833,60.84665 C535.494745,61.0509046 542.524776,60.9756529 548.883057,60.6101445 L551.494622,60.5026421 C555.058132,60.3628888 558.445623,60.2267191 562.073795,59.7859589 C562.17797,60.5599767 562.246222,61.4271633 562.228261,62.0614279 C562.206708,62.9644486 562.070202,63.6882985 561.908551,64.4945671 C557.540376,64.3978148 553.125503,64.6737378 548.843542,64.942494 L546.612755,65.0822472 C544.14488,65.2220004 541.906909,65.6161762 539.54321,66.0318524 L536.25271,66.5872818 C536.25271,66.5872818 535.652804,69.486265 535.426492,70.5433726 C534.603867,74.3597103 533.74532,78.3086343 533.587261,82.2253076 L533.565707,82.6768179 L533.849495,83.0279927 C534.776295,84.1890193 553.897836,85.8911417 554.081041,85.8947252 L554.120555,85.8947252 C554.400751,86.8443303 554.443858,87.4965119 554.422304,88.385199 C554.407935,89.0194636 554.361236,89.617894 554.292983,90.2055742 C551.947245,90.16974 550.359471,90.2270747 548.768105,90.2808259 C546.982757,90.3453274 545.204594,90.4098288 542.312833,90.3345771 C542.251765,90.3345771 535.922223,90.2342415 534.215904,90.7180026 L533.551338,90.9079236 L533.375318,91.5780223 C532.67483,94.2512504 531.852205,100.525811 531.410358,103.894222 L531.191231,105.546176 C530.882297,108.093985 530.70987,112.229247 530.724239,114.608635 L530.673947,120.234597 L531.95638,120.173679 C536.31737,119.976591 539.471365,119.743669 543.232449,119.467746 L548.581308,119.087904 C552.169964,118.826315 558.34504,118.073797 562.27496,116.988023 C562.382728,117.61512 562.49768,118.285219 562.486903,118.682978 C562.425835,121.08745 562.005542,123.531339 561.236801,125.953728 C560.051358,126.276236 555.575416,126.906917 538.907381,126.476907 L523.676246,126.086315 Z" id="Fill-49" fill="#000000"></path>
                <path d="M6.48365001,20.3404364 C6.56627174,20.4766062 7.04044859,20.5661916 7.55414018,20.551858 C8.16123024,20.5303575 8.87608777,20.7525292 9.65201353,21.207623 C11.6026047,22.354316 12.141442,24.1209399 11.3583317,26.7905846 C10.6758045,29.1198047 8.78628155,30.5352539 5.97355067,30.8255106 C4.60490384,30.9688472 4.2636402,30.9150959 3.52722918,30.4456685 C3.06742132,30.148245 2.45673901,29.5139804 2.19450484,29.0553032 C1.22818989,27.3746813 1.64489076,23.3505056 2.93091586,21.9063891 C3.2865485,21.5086299 4.0948045,20.9603673 4.77014729,20.6665273 C6.1962701,20.0358461 6.28248407,20.0215124 6.48365001,20.3404364 M5.03956596,19.0468234 C3.38353922,19.5341679 2.20528159,20.2472676 1.56586129,21.1431215 C0.301389681,22.9240791 -0.424244593,27.131009 0.269059441,28.7041285 C0.861780507,30.0550762 1.72392024,31.0763496 2.86266314,31.7715323 C3.77509435,32.3269617 4.18461073,32.4201305 5.53170406,32.3735461 C7.61880066,32.3018778 8.56715436,31.9865372 10.3165796,30.7825096 C11.9330916,29.6680673 12.7521243,28.2633684 13.1975632,25.8481463 C13.5029043,24.1961916 13.0466887,22.1679784 12.1378498,21.1574552 C10.438716,19.2654118 7.37093549,18.3516408 5.03956596,19.0468234" id="Fill-51" fill="#000000"></path>
                <path d="M42.8045193,12.6468431 C42.6428681,12.8654314 41.9998555,14.6177217 41.3783964,16.534849 C39.6936317,21.7308017 39.7547,21.6627168 38.788385,19.2510781 C38.3321694,18.1043851 37.7107103,16.3520949 37.4053692,15.3523219 C37.1036203,14.3525489 36.8018714,13.3599428 36.7336186,13.1413545 C36.6689582,12.9263495 36.3097333,12.7973466 35.9433239,12.861848 C34.7004058,13.0696861 35.1997284,15.4275736 38.1022655,23.035165 C38.4614904,23.9740199 38.8099385,24.3825293 39.3559603,24.5079488 C39.7547,24.6011176 40.2288768,24.5473664 40.36179,24.4004463 C41.0479095,23.6120949 44.5790902,13.1485213 44.3491863,12.5823416 C44.2665645,12.3816703 43.9540389,12.2275835 43.6486977,12.2383337 C43.3433566,12.249084 42.9661705,12.4282547 42.8045193,12.6468431" id="Fill-53" fill="#000000"></path>
                <path d="M55.3141668,16.7186783 C55.6985374,17.4962795 55.0231946,18.3670495 54.0532874,18.345549 C53.5862951,18.3312153 52.921729,18.3562992 52.5625041,18.3885499 C52.2104637,18.4279675 51.5530822,18.3276319 51.1184201,18.173545 C50.5077378,17.9549567 50.3568633,17.7363683 50.4754075,17.2346901 C50.5616215,16.8763486 50.7735642,16.4427553 50.9459921,16.2779181 C51.7542481,15.4967335 54.8579512,15.8120741 55.3141668,16.7186783 M51.7183256,13.8806131 C51.1758961,13.9092804 50.439485,14.1314522 50.0802601,14.3751245 C49.3079266,14.9090534 48.029086,17.7542854 47.8386968,19.3704058 C47.5082099,22.2371383 49.3761794,24.6021926 52.5696886,25.3511265 C55.3716427,26.0068916 57.69942,25.2579577 59.1003971,23.2440781 C59.8691384,22.1403861 59.7937011,21.4308698 58.8812699,21.2122815 C58.3460248,21.0868619 57.9616542,21.3054503 57.3401951,22.1009685 C56.5355314,23.1401591 55.4506722,23.5665855 53.5898873,23.5809192 C52.2966777,23.588086 50.3317176,22.1583032 50.0515222,20.9972765 C49.7389965,19.7287474 49.7569577,19.7036635 50.6945347,20.0118372 C51.7183256,20.3486783 54.653193,20.3020939 55.6913529,19.9294187 C57.4371859,19.3023209 58.0191302,16.3746704 56.6397066,15.1778096 C55.8170816,14.4647098 53.2809539,13.7946111 51.7183256,13.8806131" id="Fill-55" fill="#000000"></path>
                <path d="M27.0076048,7.30683714 C26.7525551,8.05218759 27.1728482,8.75095363 27.790715,8.60761701 C28.1247942,8.52878186 28.2972221,8.21344129 28.2828531,7.72251335 C28.2541151,6.83740969 27.2770235,6.5184857 27.0076048,7.30683714" id="Fill-57" fill="#000000"></path>
                <path d="M27.5636849,13.6494828 C27.5026167,13.8537375 27.4882477,16.4660475 27.5349469,19.4331156 C27.6211609,25.1486635 27.7325206,25.5607563 28.9467007,24.661319 C29.844763,23.9983871 29.9597149,22.7764424 29.5609753,18.204004 C29.3023334,15.2441027 29.0688372,13.9648234 28.7275736,13.6530662 C28.1599982,13.1334709 27.7181516,13.1334709 27.5636849,13.6494828" id="Fill-59" fill="#000000"></path>
                <g id="Group-63" transform="translate(17.260451, 0.577647)">
                    <mask id="mask-2" fill="white">
                        <use xlink:href="#path-1"></use>
                    </mask>
                    <g id="Clip-62"></g>
                    <path d="M0.270083062,0.50013916 C0.173092342,0.697227019 0.424549764,5.67817473 0.834066136,11.5943939 C1.23999026,17.5141965 1.58484615,23.2476615 1.59921515,24.372854 C1.62076864,26.1502282 1.69979812,26.4440683 2.2350432,26.6734069 C3.2193194,27.0926665 3.64320476,26.4655688 3.56417529,24.691778 C3.3737861,20.2555095 1.91533305,0.78681241 1.7500896,0.453554757 C1.51659342,-0.0194561056 0.510763737,0.0163780506 0.270083062,0.50013916" id="Fill-61" fill="#000000" mask="url(#mask-2)"></path>
                </g>
                <path d="M99.4542842,12.0344374 C99.2710795,12.1526901 96.8858262,16.5352074 94.1449403,21.7992449 C91.4040544,27.0632825 88.7026832,32.137399 88.1279234,33.1049212 C87.2190845,34.6386231 87.1364627,34.9288798 87.4705419,35.4018906 C88.0920009,36.2726606 88.7817127,35.9537366 89.6438525,34.3985343 C91.7956095,30.5141117 100.707979,13.134546 100.740309,12.7618707 C100.787008,12.2386921 99.914092,11.7441807 99.4542842,12.0344374" id="Fill-64" fill="#000000"></path>
                <path d="M107.435184,15.8314246 C106.72751,16.5301906 101.073311,25.9545737 98.3252403,31.0071897 C96.6763981,34.0459262 95.0562938,36.9879104 94.711438,37.5684237 C94.1869696,38.4678611 94.1761929,38.6864494 94.6431852,39.0268739 C95.0095946,39.2920466 95.447849,39.2812964 95.9615406,39.00179 C96.6153299,38.6434484 97.4271781,37.2889173 101.522342,29.7314938 C104.159053,24.8652153 106.885569,19.8627671 107.586058,18.6193219 C108.800238,16.4549389 108.832568,16.3331027 108.293731,15.9425104 C107.995574,15.7275055 107.593242,15.6737543 107.435184,15.8314246" id="Fill-66" fill="#000000"></path>
                <path d="M117.467975,48.741872 C116.824963,49.5230566 115.926901,50.5049125 115.492239,50.8990882 C114.723497,51.6014377 114.658837,51.5978542 113.595531,50.8238365 C112.503487,50.0319016 112.499895,50.0104011 113.042325,49.0966301 C114.21699,47.1150013 117.130304,45.8285551 118.157687,46.8354949 C118.610311,47.2726716 118.560019,47.4160082 117.467975,48.741872 M117.787686,44.5922767 C116.095736,44.3486044 115.265927,44.5886933 113.480579,45.8249717 C111.53358,47.1723359 110.657072,48.3620299 110.538527,49.8133133 C110.46309,50.7521681 110.635518,51.139177 111.497658,51.9848631 C112.137078,52.6119609 112.905819,53.113639 113.476987,53.2713093 L114.403787,53.5293153 L113.071063,55.0952679 C111.580279,56.8511415 110.797169,57.2811514 109.338716,57.1413982 C107.474339,56.9622274 106.781035,55.897953 106.860064,53.3035601 C106.88521,52.5653765 106.788219,52.4435403 106.123653,52.3575383 C105.160931,52.2357022 104.722676,52.8484663 104.686754,54.3714179 C104.622093,57.320569 106.698413,59.2018622 109.931437,59.1337773 C112.388535,59.0800261 113.027956,58.5855147 116.235834,54.2173311 C117.758948,52.1461168 119.141963,50.4475778 119.332353,50.4189105 C119.950219,50.3221583 120.611193,49.0034613 120.568086,47.9499371 C120.532164,47.0182491 119.738277,45.2480418 119.195847,44.8932836 C119.084487,44.8216153 118.441475,44.6818621 117.787686,44.5922767" id="Fill-68" fill="#000000"></path>
                <path d="M108.750665,39.7535906 C107.234736,41.3338769 106.548616,41.6922184 104.695016,41.860639 C102.514521,42.0613102 102.406754,41.5560486 104.253169,39.8109252 C105.474534,38.6570654 106.243275,38.2091384 107.518524,37.9117149 C108.452508,37.6931266 109.386493,37.7002934 109.641543,37.9332154 C110.03669,38.2843902 109.910961,38.5423961 108.750665,39.7535906 M109.329017,35.6219124 C106.972502,35.5394938 104.759677,36.4496814 102.8486,38.2772233 C100.668105,40.3663546 100.190336,41.3016261 100.743542,42.3802342 C101.361409,43.577095 102.255879,43.9784376 104.31783,43.9927713 C105.876866,44.0035215 106.117547,44.0966903 106.178615,44.7381217 C106.272013,45.6590595 106.986871,46.3112412 107.576,46.0138177 C107.849011,45.8740645 108.402217,44.9137091 108.815326,43.8566015 C109.375716,42.430402 109.896592,41.6563843 110.895238,40.756947 C112.098641,39.6783388 112.22437,39.4346666 112.199224,38.248556 C112.163301,36.6001848 111.161064,35.6828304 109.329017,35.6219124" id="Fill-70" fill="#000000"></path>
                <path d="M87.0215108,15.8891176 C86.4467509,16.4266299 86.4934502,17.2400652 87.1077247,17.4049024 C87.4346194,17.4909043 87.7399605,17.2902331 87.9554955,16.8530564 C88.3434584,16.0539547 87.6286008,15.3157711 87.0215108,15.8891176" id="Fill-72" fill="#000000"></path>
                <path d="M84.5468105,21.7576773 C84.3959361,21.9081808 83.1637947,24.212317 81.8131091,26.8568777 C79.2159132,31.9524948 79.1225147,32.368171 80.613298,32.1388324 C81.7197106,31.9704118 82.3950534,30.9419716 84.1804011,26.7135411 C85.3371053,23.9758116 85.7322526,22.7323664 85.5777859,22.3023565 C85.3155518,21.5785065 84.9239966,21.3706684 84.5468105,21.7576773" id="Fill-74" fill="#000000"></path>
                <path d="M77.1428263,18.3545075 C76.9308837,18.522928 75.8603935,20.0530465 74.7647576,21.7480021 C71.8083367,26.3419409 71.883774,26.2917731 71.5676561,23.7152973 C71.4203739,22.4897691 71.2694994,20.6371433 71.2299847,19.5943693 C71.1940622,18.5480119 71.1545474,17.5124048 71.1473629,17.2830662 C71.1401785,17.0608945 70.8240605,16.8423061 70.4540589,16.8100554 C69.2039563,16.6953861 69.0818198,19.099858 69.9367751,27.1983773 C70.037358,28.1945668 70.2708542,28.6819113 70.7665846,28.9435007 C71.132994,29.1298383 71.6035786,29.2015066 71.7652298,29.0904207 C72.6381462,28.506324 78.7306003,19.2933624 78.6515709,18.6841817 C78.6264251,18.4691768 78.3605987,18.2398382 78.062442,18.1717533 C77.7642854,18.1036684 77.354769,18.186087 77.1428263,18.3545075" id="Fill-76" fill="#000000"></path>
                <path d="M127.892322,57.5724831 C127.604943,58.3895019 126.502122,58.511338 125.844741,57.7982383 C125.52503,57.4542304 125.050854,56.9919698 124.77425,56.7590478 C124.504832,56.5332926 124.120461,55.9921968 123.92648,55.5729372 C123.664246,54.985257 123.714537,54.7236677 124.156384,54.4584949 C124.472502,54.2757407 124.935902,54.1252373 125.176582,54.1324041 C126.300956,54.1718217 128.233586,56.6157111 127.892322,57.5724831 M127.439699,53.0179618 C127.044552,52.64887 126.369209,52.2761948 125.948916,52.1937763 C125.022116,52.0038552 122.087248,53.0681297 120.786854,54.0571524 C118.491407,55.8094426 118.085483,58.7908444 119.763063,61.6038257 C121.235885,64.0692156 123.394827,65.2159086 125.819595,64.8217329 C127.148727,64.606728 127.608535,64.0584654 127.134358,63.2521969 C126.85057,62.7827694 126.423093,62.6573499 125.420855,62.7684358 C124.113277,62.9117724 123.049971,62.4280113 121.749577,61.1021475 C120.84433,60.1847931 120.510251,57.7803212 121.149671,56.769798 C121.846568,55.666106 121.878898,55.6589392 122.306375,56.5476262 C122.77696,57.5151485 124.85328,59.5863627 125.841148,60.0737072 C127.507952,60.890726 130.022526,59.2746055 129.925535,57.450647 C129.864467,56.364872 128.585626,54.0822363 127.439699,53.0179618" id="Fill-78" fill="#000000"></path>
            </g>
        </g>
    </g>
</svg>