<?xml version="1.0" encoding="UTF-8"?>
<svg width="16px" height="232px" viewBox="0 0 16 232" version="1.1" xmlns="http://www.w3.org/2000/svg" xmlns:xlink="http://www.w3.org/1999/xlink">
    <!-- Generator: Sketch 52.4 (67378) - http://www.bohemiancoding.com/sketch -->
    <title>copy-product-jp</title>
    <desc>Created with Sketch.</desc>
    <g id="Page-1" stroke="none" stroke-width="1" fill="none" fill-rule="evenodd">
        <g id="0top" transform="translate(-322.000000, -1783.000000)" fill="#1B1B1B">
            <g id="Group-25" transform="translate(322.000000, 1783.000000)">
                <path d="M8.17360884,4.30950645 L10.3376441,4.30950645 L12.8981539,4.24585836 L12.8981539,5.56523034 L10.3376441,5.50158224 L8.17360884,5.50158224 L8.17360884,6.59951188 L12.0229926,6.59951188 L14.5835024,6.53586379 L14.5835024,7.85523577 L12.0229926,7.79158767 L7.22021341,7.79158767 C8.26908099,7.90297184 8.49184932,7.95203391 8.4772633,8.18938827 C8.4772633,8.3485085 8.38046515,8.39624458 8.0794627,8.50762874 C8.06222468,8.76222112 8.04631265,9.03272553 8.01581461,9.28731791 L11.6570161,9.28731791 L14.2016139,9.23958184 L14.2016139,10.5589538 L11.6570161,10.4966317 L8.92147396,10.4966317 C10.4012922,12.038772 12.261673,12.8012232 15.0449511,13.2467598 C14.6630626,13.6445604 14.297086,14.0582731 14.0424936,14.6456919 C11.5297199,14.2173933 9.23971444,13.0080795 7.60077598,10.9567544 C6.61555651,13.2785839 4.19825489,14.1537452 1.17762236,14.678842 C0.873967909,14.0741851 0.572965458,13.7082085 0.159252839,13.4217921 C2.81523482,13.1512877 5.23121044,12.4670707 6.20316989,10.4966317 L3.35491762,10.4966317 L0.795733792,10.5589538 L0.795733792,9.23958184 L3.35491762,9.28731791 L6.56782044,9.28731791 C6.58373246,9.04863755 6.61555651,8.82586922 6.63146853,8.58718886 C6.64738056,8.22121231 6.63146853,8.0780041 6.58373246,7.79158767 L2.99026708,7.79158767 L0.445669268,7.85523577 L0.445669268,6.53586379 L2.99026708,6.59951188 L6.72694068,6.59951188 L6.72694068,5.50158224 L4.6756156,5.50158224 L2.11510577,5.56523034 L2.11510577,4.24585836 L4.6756156,4.30950645 L6.72694068,4.30950645 L6.72694068,3.22881484 L3.65857208,3.22881484 L1.11397427,3.29113693 L1.11397427,1.97176495 L3.65857208,2.03541305 L4.72202567,2.03541305 C4.43693525,1.54214031 4.08687072,1.09660364 3.64133405,0.635154951 L4.94479401,0.0795601192 C5.45397877,0.619242928 5.88360341,1.20798781 6.31455406,2.03541305 L8.76235372,2.03541305 C8.98512206,1.55805233 9.16015432,1.08069162 9.28745051,0.651066975 C9.36701063,0.364650546 9.39883468,0.221442332 9.39883468,0 C11.0695972,0.444210665 11.3387756,0.525096786 11.3387756,0.762451142 C11.3387756,0.985219476 11.1955674,1.03295555 10.7500307,1.05019357 C10.5763244,1.41484412 10.4158782,1.7330846 10.2421719,2.03541305 L11.3546876,2.03541305 L13.8992854,1.97176495 L13.8992854,3.29113693 L11.3546876,3.22881484 L8.17360884,3.22881484 L8.17360884,4.30950645 Z" id="Fill-1"></path>
                <path d="M8.01554941,25.5980705 L5.45371357,25.6617186 L5.45371357,24.3105226 L8.01554941,24.3582587 L9.20762519,24.3582587 L9.20762519,21.7659248 L8.4769981,21.7659248 L5.91648826,21.8295729 L5.91648826,20.4611388 L8.4769981,20.5247869 L9.20762519,20.5247869 L9.20762519,19.6191276 C9.20762519,19.1258548 9.17580114,18.9030865 9.06441698,18.1552214 C10.7510915,18.1870454 11.09983,18.2666056 11.09983,18.5211979 C11.09983,18.6803182 10.9725338,18.7757903 10.5906453,18.8871745 L10.5906453,20.5247869 L11.7044869,20.5247869 L14.2490847,20.4611388 L14.2490847,21.8295729 L11.7044869,21.7659248 L10.5906453,21.7659248 L10.5906453,24.3582587 L12.2614078,24.3582587 L14.8060056,24.3105226 L14.8060056,25.6617186 L12.2614078,25.5980705 L11.0056839,25.5980705 C12.0227274,27.4902754 13.3434254,28.8905335 15.2515422,30.2258175 C14.8537416,30.6395301 14.5659992,31.0214187 14.2809088,31.5146914 C12.5478242,30.0826093 11.4339825,28.7155012 10.5429092,26.9346805 L10.6542934,32.9772716 L9.1453031,32.9772716 L9.25668726,26.9505926 C8.03146143,29.0178297 6.47208309,30.4644978 4.13434159,31.8011078 C3.86383719,31.3555712 3.59333278,31.0373307 3.16503414,30.6395301 C5.64598386,29.4792784 7.33133238,27.935812 8.6825284,25.5980705 L8.01554941,25.5980705 Z M2.0671045,26.2663755 L3.6742189,26.2663755 L3.6742189,21.1453559 L2.0671045,21.1453559 L2.0671045,26.2663755 Z M2.0671045,27.5220994 L2.0671045,29.224686 L0.620436329,29.224686 L0.684084425,26.9810906 L0.684084425,21.7977488 L0.620436329,19.905544 L0.698670446,19.8246579 L2.27396081,19.888306 L3.43553855,19.888306 L5.05723897,19.8246579 L5.13679909,19.921456 L5.08906302,21.7818368 L5.08906302,26.0436072 L5.13679909,28.604117 L3.6742189,28.604117 L3.6742189,27.5220994 L2.0671045,27.5220994 Z" id="Fill-3"></path>
                <path d="M13.5656633,47.378714 C11.33798,49.3504789 9.04930055,50.3211124 6.95023941,50.3211124 C4.51702577,50.3211124 3.4031841,49.3027428 3.4031841,46.758145 C3.4031841,44.738644 3.46683219,41.383859 3.53048029,38.027748 C3.19632779,37.8368037 3.0690316,37.7413315 3.0690316,37.6140353 C3.0690316,37.4390031 3.13267969,37.376681 3.48274422,37.376681 C3.78507267,37.376681 4.38840357,37.407179 5.24897886,37.4708271 C5.04079655,41.6861874 4.99306048,44.1034891 4.99306048,46.5685268 C4.99306048,48.2061392 5.36036303,48.747148 6.88659131,48.747148 C8.93791639,48.747148 10.9255934,47.8083386 12.8191242,45.8843097 C13.0246545,46.4094065 13.2474228,46.9172653 13.5656633,47.378714" id="Fill-5"></path>
                <path d="M10.7504285,58.8400121 C12.5312492,60.7958651 13.6132668,62.4984516 14.439366,64.7234829 L12.9449618,65.4872601 C12.1506866,63.2304047 11.100493,61.4641701 9.50929064,59.6674374 L10.7504285,58.8400121 Z M7.64890986,64.9634893 C6.77507455,67.3794649 5.85217717,68.095506 4.99292788,68.095506 C3.16437114,68.095506 1.62223083,65.1226095 1.62223083,61.5596422 C1.62223083,60.3516544 1.71770297,58.9195722 1.97229535,57.393344 C1.65405488,57.1864877 1.54267071,57.0432794 1.54267071,56.9318953 C1.54267071,56.8205111 1.62223083,56.756863 1.89140923,56.756863 C2.09959154,56.756863 2.48148012,56.8045991 3.76902805,57.0751035 C3.3394034,59.2378127 3.22801923,60.1607101 3.22801923,61.5437302 C3.22801923,64.8998412 4.59512728,66.4897176 4.94519181,66.4897176 C5.32708038,66.4897176 5.70896895,65.9487088 6.36003593,64.0405919 C6.69418843,64.3906564 7.22061122,64.740721 7.64890986,64.9634893 Z" id="Fill-7"></path>
                <path d="M8.11009335,82.2221213 C6.44065685,84.6235109 4.19838749,86.6589239 1.55831753,88.1546541 C1.27190111,87.6772934 0.969572652,87.2954049 0.557186035,86.8976043 C3.14951992,85.5132582 5.29631713,83.7324375 6.90210554,81.2833119 L4.08700332,81.2833119 L1.51058146,81.3310479 L1.51058146,79.7889076 L4.08700332,79.8525557 L8.03053323,79.8525557 L7.96821113,77.4829902 C7.60090858,77.3397819 7.45902637,77.1965737 7.45902637,77.0533655 C7.45902637,76.9260693 7.57041054,76.8305972 7.85682697,76.8305972 C8.06235728,76.8305972 8.61927811,76.9101573 9.71720775,77.1329256 L9.60582359,78.1658812 L9.65355966,79.8525557 L10.9888437,79.8525557 L13.5652655,79.7889076 L13.5652655,81.3310479 L10.9888437,81.2833119 L9.6840577,81.2833119 L9.82859192,86.6111878 C9.84450395,87.2158447 9.87632799,87.7091175 9.87632799,87.9000618 C9.87632799,88.8534572 9.30216913,89.42629 8.25330156,89.42629 C7.60090858,89.42629 7.06122578,89.362642 5.8055019,88.9648414 C5.85191197,88.4715686 5.86914999,88.2488003 5.86914999,87.9318858 L5.86914999,87.5181732 C7.06122578,87.8523257 7.52267447,87.9146478 7.88732501,87.9146478 C8.11009335,87.9146478 8.22147751,87.7727656 8.22147751,87.5659093 L8.11009335,82.2221213 Z" id="Fill-9"></path>
                <path d="M11.0210655,97.0859405 C10.002696,98.1361341 9.23891884,98.8349371 8.17413924,99.6782744 C8.45922967,99.7578345 8.72973408,99.8214826 8.96974043,99.9010427 L8.89018032,101.078533 L8.89018032,105.340303 L8.95250241,107.932637 L7.18759377,107.932637 L7.25124186,105.354889 L7.25124186,100.457964 L7.18759377,100.394315 C5.45450917,101.618215 4.05557707,102.397904 1.74965962,103.43086 C1.49374124,103.002561 1.11317867,102.541113 0.667642,102.159224 C4.26110738,100.648908 7.95269691,98.2952543 10.0517581,95.6551844 C9.82898972,95.432416 9.7481036,95.2892078 9.7481036,95.1937357 C9.7481036,95.0664395 9.8117517,94.9709674 9.98810996,94.9709674 C10.2095523,94.9709674 10.4959687,95.0664395 11.9280509,96.1166331 L11.0210655,97.0859405 Z" id="Fill-11"></path>
                <path d="M7.28399411,114.541431 C6.87028149,114.237776 6.77480935,114.159542 6.77480935,114.048158 C6.77480935,113.90495 6.85436947,113.841302 7.1407859,113.841302 C7.42587632,113.841302 7.85682697,113.90495 9.03299073,114.207278 L8.90569454,115.114264 L8.90569454,123.558244 C10.5910431,122.30252 12.1026853,120.218045 13.0574068,117.993014 C13.3902333,118.564521 13.7721218,118.978233 14.1685964,119.312386 C12.8346384,121.823834 11.3707322,123.68554 9.00116668,125.402713 C8.68292621,125.752777 8.60336609,125.84825 8.4760699,125.84825 C8.33286168,125.84825 8.20556549,125.784602 7.12487387,124.798056 L7.12487387,124.575288 L7.28399411,124.290197 L7.28399411,114.541431 Z M5.23134304,118.039424 C5.23134304,121.618303 4.23021154,123.987869 1.90838206,125.911898 C1.52649349,125.402713 1.22549104,125.100384 0.746804319,124.78347 C2.94266361,122.969499 3.59373058,121.252327 3.59373058,118.039424 L3.59373058,115.20841 C3.18001796,114.906081 3.08454582,114.827847 3.08454582,114.716463 C3.08454582,114.571929 3.16543194,114.509607 3.45052237,114.509607 C3.77008885,114.509607 4.10291535,114.557343 5.35996523,114.874257 L5.23134304,115.797155 L5.23134304,118.039424 Z" id="Fill-13"></path>
                <path d="M14.0745829,155.124986 L14.138231,157.446815 C14.138231,158.909396 13.7881665,159.211724 12.2287881,159.211724 L11.5299851,159.211724 C11.3708648,158.576569 11.1958326,158.225179 10.845768,157.715994 C11.5458971,157.779642 11.8946356,157.79688 12.2447001,157.79688 C12.6902368,157.79688 12.7379729,157.779642 12.7379729,157.414991 L12.7379729,150.400441 C12.7379729,149.940318 12.7074748,149.669814 12.5960907,149.319749 C14.2973512,149.447045 14.5837676,149.510693 14.5837676,149.765286 C14.5837676,149.924406 14.4246474,150.003966 14.0745829,150.0822 L14.0745829,155.124986 Z M11.6572813,154.361209 L11.7209294,156.317062 L10.2901732,156.317062 L10.3524953,154.361209 L10.3524953,151.402898 C10.3524953,150.989186 10.3206713,150.720007 10.2265251,150.290383 C11.8164015,150.368617 12.133316,150.449503 12.133316,150.686857 C12.133316,150.831391 12.0232578,150.942776 11.6572813,151.036922 L11.6572813,154.361209 Z M8.14205,152.866805 L7.4114229,153.551022 C7.10909445,153.135983 6.79085397,152.80183 6.37714135,152.469004 L6.37714135,154.91813 L7.02953433,154.313473 C7.44192095,154.614475 7.82380952,154.932716 8.14205,155.31593 L8.14205,152.866805 Z M8.14205,150.766417 L6.37714135,150.766417 L6.37714135,152.1985 L7.02953433,151.593843 C7.44192095,151.894845 7.82380952,152.214412 8.14205,152.5963 L8.14205,150.766417 Z M7.4114229,156.269326 C7.10909445,155.855613 6.79085397,155.522786 6.37714135,155.188634 L6.37714135,159.275372 L5.02594533,159.275372 L5.08959342,156.714862 L5.08959342,151.560693 L5.04185735,149.653902 L5.13732949,149.573016 L6.48852552,149.636664 L8.0797279,149.636664 L9.38318785,149.573016 L9.477334,149.653902 L9.43092393,151.560693 L9.43092393,156.078381 L9.46142197,157.891026 C9.46142197,158.766187 9.06494738,159.163988 8.11022595,159.163988 L7.31462476,159.163988 C7.22047861,158.670715 7.04412035,158.209267 6.77494195,157.749144 C7.23639064,157.79688 7.55330511,157.811466 7.84104754,157.811466 C8.11022595,157.811466 8.14205,157.779642 8.14205,157.510463 L8.14205,155.586435 L7.4114229,156.269326 Z M10.145639,147.347984 C10.4638795,146.616031 10.7184719,145.964964 10.8775921,145.374893 C10.9730642,145.026155 11.0062143,144.75565 11.0062143,144.501058 C12.7379729,144.978419 12.9448292,145.104389 12.9448292,145.327157 C12.9448292,145.519427 12.7379729,145.597662 12.3560843,145.630812 C12.1174039,146.234143 11.8800496,146.791063 11.6095452,147.347984 L12.1982901,147.347984 L14.7587999,147.284336 L14.7587999,148.61962 L12.1982901,148.555972 L7.20324059,148.555972 L4.78726497,148.61962 L4.78726497,147.284336 L7.28412671,147.347984 L7.39551088,147.347984 C7.12500647,146.600119 6.7431179,145.89999 6.26575718,145.233011 L7.45915897,144.644266 C7.98292976,145.312571 8.36481833,145.964964 8.71488285,146.775151 L7.53739309,147.347984 L10.145639,147.347984 Z M1.92442668,145.772694 C1.92442668,145.215773 1.89127663,144.930683 1.78121847,144.501058 C3.56203914,144.580618 3.86436759,144.67609 3.86436759,144.930683 C3.86436759,145.121627 3.65883728,145.215773 3.30744675,145.296659 L3.30744675,147.857169 L4.49952254,147.824019 L4.49952254,149.128805 L3.30744675,149.096981 L3.30744675,151.386986 C3.68933533,151.25969 4.13487199,151.10057 4.64405676,150.909626 C4.62814473,151.323338 4.62814473,151.737051 4.65864278,152.150763 C4.16669604,152.35762 3.72115937,152.548564 3.30744675,152.707684 L3.30744675,155.013602 L3.37109485,157.429577 C3.37109485,158.734363 2.94147021,159.10034 1.47889002,159.10034 L0.780086968,159.10034 C0.683288823,158.607067 0.46052049,158.067384 0.159518039,157.5582 C0.858321086,157.621848 1.25612168,157.63776 1.59027418,157.63776 C1.87669061,157.63776 1.92442668,157.621848 1.92442668,157.351343 L1.92442668,153.216869 C1.68574632,153.295103 1.43115394,153.390575 1.16064954,153.470135 C1.08108942,153.852024 0.969705252,153.97932 0.810585014,153.97932 C0.571904657,153.97932 0.445934468,153.692904 0.000397800596,152.246236 C0.46052049,152.1985 0.780086968,152.150763 1.24020966,152.023467 C1.47889002,151.959819 1.70165835,151.894845 1.92442668,151.832523 L1.92442668,149.081069 L1.65392228,149.081069 L0.159518039,149.128805 L0.159518039,147.824019 L1.65392228,147.871755 L1.92442668,147.871755 L1.92442668,145.772694 Z" id="Fill-15"></path>
                <path d="M3.83294134,167.570443 C6.72760368,166.87164 8.7471047,166.537487 10.2255969,166.537487 C12.8974909,166.537487 14.3282471,167.729563 14.3282471,169.940008 C14.3282471,172.676876 12.1655378,174.250841 7.15590232,174.790524 C7.0126941,174.362225 6.82307582,173.996248 6.50483534,173.5348 C11.2267284,173.011029 12.8656669,172.039069 12.8656669,169.87636 C12.8656669,168.461516 12.0236556,167.840947 10.1460368,167.840947 C8.6821306,167.840947 6.98087006,168.127364 4.18300587,168.954789 L3.83294134,167.570443 Z" id="Fill-17"></path>
                <path d="M13.247025,184.486117 C11.0060817,184.629326 10.0513603,185.043038 9.16028692,185.678193 C7.77594085,186.650153 6.98033966,188.080909 6.98033966,189.703935 C6.98033966,192.008527 8.55563001,193.05872 12.0390372,193.05872 C12.2445675,193.05872 12.4036878,193.042808 12.7073422,193.02557 L12.6596062,194.696333 L12.2618056,194.696333 C7.72953078,194.696333 5.45411137,192.995072 5.45411137,189.815319 C5.45411137,188.255941 6.0746803,186.903419 7.22034601,185.743167 C7.52267447,185.488575 7.98279716,185.186247 8.4124218,184.931654 L8.38059775,184.868006 L6.86895549,185.186247 C5.26316708,185.424927 3.24366606,185.727255 1.44693337,185.99776 L1.17642896,184.470205 C5.10404684,184.040581 8.76248632,183.548634 13.0083447,182.896241 L13.1515529,182.975801 L13.3424972,184.358821 L13.247025,184.486117 Z" id="Fill-19"></path>
                <path d="M5.48659842,210.069867 C4.54778901,210.069867 3.61030561,210.48358 3.61030561,210.991439 C3.61030561,211.468799 4.48414092,211.818864 5.59798258,211.818864 C6.56729004,211.818864 7.04465075,211.277855 7.0764748,210.467668 C6.53546599,210.227661 5.94804711,210.069867 5.48659842,210.069867 Z M1.89180703,202.3711 C3.6739537,202.229217 5.23200604,202.117833 6.91735456,202.054185 L6.91735456,200.575693 C6.51955396,200.383423 6.36043373,200.272039 6.36043373,200.130156 C6.36043373,199.955124 6.45590587,199.907388 6.83912044,199.907388 C7.12421087,199.907388 7.61748361,199.9233 8.49264492,199.955124 C8.45949487,200.909845 8.44358285,201.592736 8.42899682,202.006449 C9.43145433,201.990537 10.0666093,201.974625 10.6394421,201.974625 C11.244099,201.974625 11.8474299,201.974625 12.8180634,202.006449 L12.8644735,203.343059 C11.7837818,203.325821 11.0518288,203.309909 10.6540282,203.309909 C10.0825213,203.309909 9.36780623,203.309909 8.4130848,203.343059 L8.4130848,205.40897 C9.38239225,205.330736 10.575794,205.171616 11.9906382,204.901111 L12.3102046,206.220483 C10.8144744,206.475076 9.78019285,206.618284 8.45949487,206.761492 C8.49264492,207.652566 8.54038099,208.574137 8.57087904,209.46521 C9.93931309,210.022131 11.5451015,210.784582 13.0872418,211.691568 L12.2452305,213.042764 C11.0054187,212.232576 9.70063273,211.532447 8.54038099,210.991439 C8.33219868,212.391697 7.3469792,213.12365 5.59798258,213.12365 C3.61030561,213.12365 2.21004751,212.248488 2.21004751,211.023263 C2.21004751,209.829861 3.81583592,208.766407 5.58207056,208.766407 C5.94804711,208.766407 6.50496794,208.860553 7.06056278,209.035586 C7.02873873,208.367281 6.98100266,207.588917 6.96509063,206.872876 C6.48905592,206.888788 5.93213509,206.9047 5.43886235,206.9047 C4.02269223,206.9047 3.11703287,206.618284 2.28960763,206.077275 L3.14885692,205.027082 C3.86357199,205.44212 4.4059068,205.553504 5.42295032,205.553504 C5.90031104,205.553504 6.42408182,205.553504 6.91735456,205.505768 L6.91735456,203.389469 C5.26383008,203.454443 3.64080365,203.532677 1.97269315,203.691798 L1.89180703,202.3711 Z" id="Fill-21"></path>
                <path d="M6.75823432,224.184628 C6.0740173,224.184628 5.35930223,225.042551 5.35930223,225.933625 C5.35930223,226.538281 5.62848063,226.856522 6.37767175,226.856522 C7.26741909,226.856522 7.76069182,226.410985 7.85616397,225.409854 C7.66521968,224.582429 7.31515516,224.184628 6.75823432,224.184628 Z M9.12779987,220.432042 L9.7483688,220.432042 C11.196363,220.432042 12.4215888,220.432042 13.914667,220.478452 L13.882843,221.910535 C12.2134065,221.815062 11.0054187,221.767326 9.73245678,221.767326 L9.12779987,221.767326 L9.12779987,224.43922 C9.35056821,225.153935 9.4142163,225.632622 9.4142163,226.347337 C9.4142163,229.082879 8.09484432,230.847788 4.13407639,231.452445 C3.99086818,230.959172 3.76942585,230.546785 3.4034493,230.068099 C6.71182425,229.735272 7.6811317,228.653255 7.88798801,227.461179 C7.36289123,227.937214 6.95050461,228.065836 6.18540146,228.065836 C4.81829342,228.065836 4.02269223,227.349795 4.02269223,226.060921 C4.02269223,224.471044 5.43886235,222.911666 6.83912044,222.911666 C7.12421087,222.911666 7.39471528,222.992552 7.64930766,223.229906 C7.64930766,222.81752 7.63339563,222.196951 7.61748361,221.79915 C5.88439901,221.846886 3.78533787,221.958271 1.09620584,222.149215 L1.03388375,220.733045 C3.78533787,220.589837 5.90031104,220.49569 7.61748361,220.447954 C7.61748361,219.922858 7.58565956,219.190904 7.58565956,218.713544 C7.17194694,218.522599 7.06188878,218.396629 7.06188878,218.285245 C7.06188878,218.126125 7.15603492,218.062477 7.42653932,218.062477 C7.71295575,218.062477 8.22214052,218.062477 9.17553594,218.092975 L9.12779987,219.270465 L9.12779987,220.432042 Z" id="Fill-23"></path>
            </g>
        </g>
    </g>
</svg>