<?xml version="1.0" encoding="UTF-8"?>
<svg width="139px" height="59px" viewBox="0 0 139 59" version="1.1" xmlns="http://www.w3.org/2000/svg" xmlns:xlink="http://www.w3.org/1999/xlink">
    <!-- Generator: Sketch 52.3 (67297) - http://www.bohemiancoding.com/sketch -->
    <title>copy-product-en</title>
    <desc>Created with Sketch.</desc>
    <g id="Page-1" stroke="none" stroke-width="1" fill="none" fill-rule="evenodd">
        <g id="0top" transform="translate(-243.000000, -1608.000000)" fill="#000000">
            <g id="Group-46" transform="translate(242.000000, 1607.000000)">
                <g id="Group-31" transform="translate(30.674761, 9.738136) rotate(2.000000) translate(-30.674761, -9.738136) translate(0.674761, 1.738136)">
                    <path d="M7.33802968,3.40115165 C6.88509938,2.45914241 6.54540166,2.02669957 5.59811451,1.79532888 C4.52654771,1.51713317 2.76730015,2.32417617 2.82529733,2.86679553 C2.91367397,3.69036501 4.37188859,3.7729974 5.28603449,3.92724453 C6.73044026,4.17789611 9.29336291,4.31837117 9.5253516,6.03987928 C9.79048153,8.0836537 8.16103717,10.7967505 5.32469927,10.8435755 C3.75049031,10.8821373 1.90286611,10.5516077 0.563407609,9.8657589 C0.632451862,9.66468675 0.803681608,8.78602901 1.2013765,8.1249699 C2.22323144,8.88243347 4.96566916,10.1301825 6.71386963,9.21020861 C8.09751646,8.46927152 7.95942795,5.95173806 5.94609755,5.61019085 C5.41583769,5.51654081 3.58754588,5.18601125 2.93300636,5.03176413 C2.16799604,4.84721846 0.143618553,4.69021692 0.433604414,3.44797667 C1.06052623,0.795476975 4.60663904,0.630212196 6.13389791,0.734879889 C7.69982156,0.842301995 8.82938554,1.66311706 9.3320277,2.68224986 L7.33802968,3.40115165 Z" id="Fill-1"></path>
                    <path d="M16.0293202,5.16976022 C15.0986037,5.49478095 13.772954,7.8195055 14.9052798,9.34545029 C15.5846752,10.2296169 17.6863823,9.8164549 18.2359745,9.33443263 C18.6695724,8.95707806 19.2495441,8.10321003 18.8684199,6.88851391 C18.5204368,5.78674872 16.82471,4.90809099 16.0293202,5.16976022 M15.3941131,11.664666 C13.5768683,11.4470674 12.8670934,9.1140796 13.1266998,6.97665513 C13.4581122,4.06524062 15.8718993,3.13424903 16.8302335,3.20035494 C18.9098464,3.34083 21.3208717,4.89982775 21.0557418,8.69265441 C20.945271,10.3012316 19.503627,12.1549515 15.3941131,11.664666" id="Fill-3"></path>
                    <path d="M34.4406606,4.89542069 L34.9653969,5.87874612 C35.2609063,6.41861106 35.6006041,7.10996872 35.7525014,7.58648216 C36.1667669,8.83974006 36.9483479,10.9193219 37.3681369,12.0431224 C38.207715,10.8972866 40.0608628,6.82350977 40.6159786,5.20666935 L41.6544041,5.48211065 C42.2150435,5.63360336 42.7922534,5.84018434 43.0104333,5.95036085 C42.2619936,7.10445989 41.5218392,8.44861342 41.0136735,9.36032412 C40.5055078,10.3078422 38.6661689,13.3404509 38.1386708,13.7701393 C37.5421284,13.8582805 36.6473149,13.9271408 35.9209694,13.7453496 L35.180815,12.1367724 C34.7775966,11.2691323 34.3080956,10.2913157 34.1037247,9.77624048 C34.0070627,9.56415068 33.0404432,7.75174694 32.8443575,7.1072143 C32.3748566,8.28059423 31.8694526,9.15925197 31.3750958,10.1646127 C30.8779772,11.1699734 30.3560026,12.0458768 29.8892635,12.6628653 C29.2899594,12.7510065 28.4089547,12.9162713 27.7157504,12.514127 L26.9479783,11.0487793 C26.5033333,10.219701 26.0559266,9.22260347 25.7576554,8.44035018 C25.462146,7.67737779 24.8600801,6.48471697 24.4679088,4.61722498 C24.9954069,4.24537922 26.6607542,3.95065704 27.047402,3.97820117 L27.420241,5.54546215 C27.6218502,6.39382134 27.8676478,7.37714678 28.0720187,7.89497641 C28.5718991,9.2088314 28.693417,9.8671361 29.2430093,11.0212351 C30.471997,8.50370168 31.4027135,6.04125648 32.3389536,4.52632935 C33.1039639,4.44920578 33.810977,4.62824263 34.4406606,4.89542069" id="Fill-5"></path>
                    <path d="M54.1690943,13.6412636 C54.5888834,13.7266504 55.5499794,13.4594723 55.7488268,12.7653602 C55.9449125,12.0547217 55.6355943,11.1788184 55.2931348,11.0273256 C54.5944069,10.716077 54.1442384,11.0769051 53.8763467,11.4845582 C53.7299729,11.7159289 53.5974079,12.0244231 53.4979842,12.3880057 C53.47589,12.7212896 53.4952224,13.5035429 54.1690943,13.6412636 Z M51.7414984,7.30611372 C51.9679636,6.7084061 52.2441406,6.18782205 52.6252648,5.73334391 C53.2521867,4.97588034 54.2160444,4.18811823 55.6880679,4.29003151 C58.5796412,4.48834925 59.1817071,6.9838474 59.2369425,8.02776992 C59.3916016,10.3772842 58.9994302,13.0821177 58.7287768,14.8476964 L57.3948418,15.145173 L57.560548,13.5779121 C57.2042797,13.9249681 56.8480113,14.2334623 56.4779341,14.4896228 C55.8758683,14.9303288 54.9948636,15.3710349 54.2795651,15.2856481 C52.7357356,15.1038568 52.1253845,14.0213725 52.2192846,12.6909911 C52.3104231,11.3578552 53.3157074,9.38569551 55.0031489,9.35264256 C56.6905904,9.3195896 57.2180885,11.8068245 57.2180885,11.8261054 C57.2180885,11.8261054 57.4307448,9.05241154 57.4611243,8.29494797 C57.5053126,7.16288424 57.008194,6.57343987 55.4781734,6.24291031 C54.5308862,6.03082051 53.8625379,6.33931476 53.4123693,6.69738845 C53.1555247,6.90121501 52.9345831,7.14635776 52.7495445,7.44934319 L51.7414984,7.30611372 Z" id="Fill-7"></path>
                </g>
                <g id="Group-32" transform="translate(79.000000, 41.515625) rotate(-12.000000) translate(-79.000000, -41.515625) translate(18.000000, 28.515625)">
                    <path d="M6.6690696,4.88529833 C6.05906363,4.48952362 3.67479297,4.3488764 2.98935616,6.30812478 C2.13665964,8.81033682 4.3766278,10.1088704 5.1998079,10.2331633 C5.89508353,10.3476436 7.39386164,9.65422009 7.6529502,7.51180325 C7.80053229,6.3539169 7.28235517,5.25817699 6.6690696,4.88529833 Z M1.60864371,14.5310804 C2.79585964,15.1427322 6.61659597,17.700549 7.33482881,15.3226298 C7.53488453,14.6292064 7.71854224,13.5400082 7.8234895,12.6437911 L8.00386761,11.0214418 C7.72182184,11.2896528 7.42009846,11.5120716 7.07574025,11.7279488 C6.4985303,12.11064 5.66551139,12.427914 4.72098601,12.4082888 C2.78930043,12.3624966 0.218092465,10.507916 0.742828785,7.01463171 C1.27084471,3.4984514 3.73710541,1.83685177 5.80653427,2.42233668 C6.86584572,2.7134437 7.62671338,3.11903101 8.12849249,3.48536794 C8.42365667,3.68161986 8.67290642,3.89749698 8.85656413,4.11010323 L9.30259001,2.08870841 L10.4930855,2.34710677 C10.6341084,5.35630295 10.2405562,11.3746953 9.90603678,14.639019 C9.69942185,16.6767681 8.72865966,17.9981977 6.48213229,19.0154369 C4.3733482,19.9738004 0.650999929,16.9580625 0.355835749,16.4510784 L1.60864371,14.5310804 Z" id="Fill-9"></path>
                    <path d="M17.8829839,7.03551683 C16.7810376,7.42147895 15.2035491,10.1820894 16.5481859,11.9974197 C17.354968,13.0440966 19.8507451,12.5534668 20.5066655,11.9810653 C21.021563,11.5329568 21.7069998,10.5189885 21.2576944,9.07653685 C20.8411849,7.76819069 18.8275093,6.72478462 17.8829839,7.03551683 M17.1286754,14.7482175 C14.9706973,14.4898191 14.1278396,11.7193961 14.4394018,9.18120454 C14.8296744,5.72389981 17.6960466,4.6183473 18.8340685,4.69684807 C21.3036088,4.86693307 24.1667013,6.71824289 23.8551391,11.2189537 C23.7239551,13.13241 22.0087232,15.3304315 17.1286754,14.7482175" id="Fill-11"></path>
                    <path d="M31.2522382,8.42598233 C30.1502919,8.81194445 28.5728034,11.5725549 29.9207198,13.3878852 C30.7242223,14.4345621 33.2199994,13.9439323 33.8759198,13.3715308 C34.3908173,12.9234223 35.0762541,11.909454 34.6269487,10.4670023 C34.2104392,9.15865618 32.1967636,8.11525012 31.2522382,8.42598233 M30.4979297,16.138683 C28.3399516,15.8802846 27.4970939,13.1098616 27.8086561,10.57167 C28.1989287,7.1143653 31.0685805,6.0088128 32.2033228,6.08731357 C34.6728631,6.2541277 37.5359556,8.10543752 37.2243934,12.6094192 C37.0932094,14.5196046 35.3779775,16.720897 30.4979297,16.138683" id="Fill-13"></path>
                    <path d="M46.3015713,9.89203008 C45.4488748,9.8331545 42.9858937,10.8111433 43.2646598,13.4540025 C43.477834,15.4982934 45.5341444,15.9300476 46.518025,15.6422115 C47.2362579,15.4492304 47.9413723,14.461429 48.0659972,13.3002718 C48.3021285,11.1545841 47.0263633,9.94109306 46.3015713,9.89203008 Z M52.3458778,0.645293574 C52.3262002,2.5620207 52.047434,5.94082467 51.9523255,7.32440073 C51.7227534,10.5952661 50.6568827,18.4420722 50.6437643,18.618699 C50.4010738,18.6023447 49.2630519,18.5238439 49.0498778,18.4649683 L49.2171375,16.358531 C48.8465424,16.6202002 48.4333126,16.8557025 48.0036847,17.0683088 C47.2526559,17.4379166 46.2163016,17.7846283 45.1373126,17.8435039 C42.9760549,17.9579842 40.972218,15.7697752 41.2181882,12.2568658 C41.4608787,8.72106026 44.4846718,7.27533775 46.3245285,7.66457074 C47.2559355,7.86082266 47.9676091,8.37434853 48.462829,8.84862401 C48.7481544,9.1331893 48.9908449,9.43737979 49.2138579,9.7382994 C49.2860091,8.68508074 49.5057424,6.49360092 49.6795613,5.51561216 C49.7943474,4.79275091 50.0108011,3.57271811 50.1715016,2.54566638 L50.4765046,0.671460497 L52.3458778,0.645293574 Z" id="Fill-15"></path>
                    <path d="M75.6534184,11.4827399 C75.1155636,10.3641039 74.7121726,9.8473072 73.5872691,9.57582537 C72.3147835,9.24546797 70.225677,10.2038315 70.2945487,10.848192 C70.3994959,11.8261808 72.1311258,11.9243067 73.2166741,12.1074752 C74.9319059,12.4018531 77.9753766,12.5686672 78.2508631,14.616229 C78.5657049,17.0432111 76.6307397,20.2617427 73.2625885,20.3206182 C71.3932154,20.3664103 69.1991616,19.9739065 67.6085546,19.1561901 C67.6905447,18.9206878 67.8971596,17.8772818 68.3661427,17.0922741 C69.5795954,17.9917621 72.8395198,19.4734641 74.9122283,18.380995 C76.5553089,17.5011323 76.3913288,14.5115613 74.0004989,14.1027031 C73.3708154,13.9947645 71.2029984,13.6022607 70.4224532,13.4158214 C69.5140034,13.1999442 67.1133347,13.0135049 67.4544133,11.5350738 C68.2021626,8.38850123 72.409892,8.19224931 74.2235119,8.31654219 C76.0830462,8.44410594 77.4244034,9.41882383 78.021291,10.629044 L75.6534184,11.4827399 Z" id="Fill-17"></path>
                    <path d="M88.6208986,12.2544613 C87.3287354,12.166148 86.6105026,13.9912909 86.4432429,14.4655663 L88.6799314,14.5767758 C89.7949961,14.6323805 90.8936628,14.6389222 90.91662,14.6421931 C90.9198996,14.596401 90.4574757,12.3820251 88.6208986,12.2544613 M88.4044449,16.6505044 C87.9682578,16.6014414 86.079207,16.2743549 85.403609,16.2252919 C85.3675334,16.7322761 84.7148926,20.1274344 87.7255673,20.4250831 C88.3388528,20.4872295 88.6766518,20.3334989 88.8439115,20.1470595 C88.93902,20.0423919 88.9914936,19.9377242 89.0242896,19.7839935 L89.4112827,19.8559525 C89.6736508,19.8952029 90.0180091,19.9835163 90.5197882,20.0423919 C91.3921623,20.1699556 91.6118956,20.160143 91.8939414,20.2026643 C91.8185106,20.307332 91.0150081,22.0834119 87.0466896,21.6581994 C82.5110001,21.1446735 82.0026618,17.04955 82.2125563,15.6528905 C82.7077762,12.2904408 85.7774837,9.50039265 90.7657583,11.0802206 C93.215621,11.8652283 92.6908847,16.3070636 92.556421,16.9579658 C91.5889384,17.0037579 90.5853802,16.8892776 88.4044449,16.6505044" id="Fill-19"></path>
                    <path d="M102.533285,13.7025431 C101.241122,13.6142297 100.522889,15.4393726 100.358909,15.9136481 L102.592318,16.0215866 C103.707383,16.0771913 104.806049,16.0870039 104.829007,16.0870039 C104.832286,16.0444827 104.369862,13.8301068 102.533285,13.7025431 M102.316831,18.0985862 C101.880644,18.0495232 99.9948732,17.7224366 99.3159956,17.6733737 C99.2799199,18.1770869 98.6272791,21.5722452 101.637954,21.869894 C102.251239,21.9353113 102.589038,21.7815806 102.756298,21.5951413 C102.851407,21.4904736 102.90388,21.382535 102.936676,21.2320752 L103.323669,21.3007634 C103.586037,21.3432846 103.930396,21.431598 104.435454,21.4872027 C105.304549,21.6147665 105.524282,21.6082247 105.806328,21.650746 C105.734177,21.7521428 104.927395,23.5314936 100.962356,23.1030102 C96.4233866,22.5927552 95.9183279,18.4976317 96.1249428,17.1009722 C96.6201627,13.7352517 99.6931498,10.9484744 104.678145,12.5250315 C107.131287,13.3133101 106.603271,17.7551453 106.468808,18.4060475 C105.501325,18.4518396 104.497767,18.3373593 102.316831,18.0985862" id="Fill-21"></path>
                    <path d="M115.371306,17.0741895 C114.518609,17.0153139 112.055628,17.9933027 112.334394,20.636162 C112.544289,22.6804528 114.603879,23.1122071 115.587759,22.8243709 C116.302713,22.6346607 117.011107,21.6435885 117.135731,20.4824313 C117.368583,18.3367436 116.092818,17.1232525 115.371306,17.0741895 Z M121.415612,7.82745302 C121.392655,9.74418015 121.113889,13.1229841 121.01878,14.5065602 C120.792488,17.7774256 119.723337,25.6242317 119.710219,25.8008584 C119.470808,25.7845041 118.332786,25.7060033 118.116332,25.6471278 L118.283592,23.5406904 C117.916277,23.8023597 117.503047,24.037862 117.073419,24.2504682 C116.32239,24.620076 115.286036,24.9667878 114.207047,25.0256633 C112.04251,25.1401436 110.041952,22.9519347 110.287922,19.4390252 C110.530613,15.9032197 113.551126,14.4574972 115.390983,14.8467302 C116.32567,15.0429821 117.037343,15.556508 117.529284,16.0340543 C117.817889,16.3153488 118.060579,16.6195392 118.283592,16.9237297 C118.355743,15.8672402 118.572197,13.6757604 118.749296,12.6977716 C118.864082,11.9749104 119.080535,10.7548776 119.241236,9.72782582 L119.546239,7.85361995 L121.415612,7.82745302 Z" id="Fill-23"></path>
                </g>
            </g>
        </g>
    </g>
</svg>