<?xml version="1.0" encoding="UTF-8"?>
<svg width="122px" height="103px" viewBox="0 0 122 103" version="1.1" xmlns="http://www.w3.org/2000/svg" xmlns:xlink="http://www.w3.org/1999/xlink">
    <!-- Generator: Sketch 52.3 (67297) - http://www.bohemiancoding.com/sketch -->
    <title>copy-oliveoil</title>
    <desc>Created with Sketch.</desc>
    <defs>
        <polygon id="path-1" points="0.646585185 0.290152676 4.95856766 0.290152676 4.95856766 23.7913196 0.646585185 23.7913196"></polygon>
        <polygon id="path-3" points="0.209464732 0.290152676 4.52144721 0.290152676 4.52144721 23.7913196 0.209464732 23.7913196"></polygon>
        <polygon id="path-5" points="0.0115949386 0.690603942 4.32357741 0.690603942 4.32357741 24.1917708 0.0115949386 24.1917708"></polygon>
        <polygon id="path-7" points="0.611052412 0.690603942 4.92303489 0.690603942 4.92303489 24.1917708 0.611052412 24.1917708"></polygon>
        <polygon id="path-9" points="0.208820656 0.274293812 4.11654155 0.274293812 4.11654155 24.6759128 0.208820656 24.6759128"></polygon>
    </defs>
    <g id="Page-1" stroke="none" stroke-width="1" fill="none" fill-rule="evenodd">
        <g id="0top" transform="translate(-69.000000, -265.000000)">
            <g id="Group-52" transform="translate(68.000000, 262.000000)">
                <g id="Group-49" transform="translate(48.965280, 15.134379) rotate(-3.000000) translate(-48.965280, -15.134379) translate(2.165280, 2.984379)" fill="#000000">
                    <path d="M15.7176522,3.48048121 C13.7298283,3.48048121 11.7420044,3.65727249 9.75418045,3.79956791 C8.5123295,3.88580756 7.41708595,4.11865462 6.14936311,4.32131779 C5.83458839,5.86069554 5.37320626,7.51649681 5.34733437,9.11193032 C5.42926203,9.19816997 12.2292584,9.83634338 13.1218388,9.71991985 C13.3546858,10.2114859 13.4150536,10.5003887 13.4150536,10.9358989 C13.4150536,11.2851695 13.3848697,11.6042562 13.3245019,11.9233429 C11.0822711,11.9233429 10.5605212,12.0699503 8.31397831,12.0699503 C8.1673709,12.0699503 5.89495614,12.1001342 5.34733437,12.2424296 C5.05411956,13.2859294 4.73934484,16.1318378 4.65310519,16.7700112 C4.56686554,17.554792 4.53668166,18.8871946 4.56686554,19.6719754 L4.59704942,21.0906176 C6.99019969,20.9483222 8.43040183,20.8060268 10.9615355,20.5990516 C12.3499939,20.4826281 15.2002143,20.1376695 16.6145446,19.6719754 C16.6404165,19.9048225 16.8128958,20.4826281 16.8128958,20.745659 C16.8128958,21.6425514 16.6404165,22.5437557 16.3256417,23.4147762 C15.4330614,23.8761583 8.77536043,23.8761583 7.36534216,23.8761583 L1.05259982,23.8761583 C1.05259982,23.7899187 1.05259982,23.7899187 1.02241595,23.0094498 C0.992232068,21.9357662 0.992232068,20.8922664 0.992232068,19.8185828 C0.992232068,16.1318378 0.96204819,12.6477559 1.19489524,8.96532292 L1.62609349,1.79880805 C4.62723329,1.79880805 7.61974913,1.73844029 10.5044654,1.53577712 C12.4621054,1.41935359 14.1049708,1.36329782 15.9806831,1.10026689 C16.0669228,1.41935359 16.1531624,1.94541545 16.1531624,2.29037405 C16.1531624,2.72588428 16.0669228,3.04497098 15.9806831,3.48048121 L15.7176522,3.48048121 Z" id="Fill-1" transform="translate(8.901924, 12.488213) rotate(-3.000000) translate(-8.901924, -12.488213) "></path>
                    <path d="M23.1851356,8.56111712 C23.8750528,8.09542301 24.5951539,7.66422477 24.5951539,7.69009666 C24.5951539,7.77633631 28.5449298,12.0710709 28.6613533,12.0710709 C28.6872252,12.0710709 30.6233054,10.9973872 32.4903938,9.89783169 L36.2375065,7.69009666 C36.5307214,8.15579077 38.4279936,11.1138107 38.2856982,11.1138107 C38.1951466,11.1138107 31.1407433,15.6413923 31.1407433,15.7578159 C31.1407433,15.7836878 32.3480984,17.2928816 33.5597654,18.8020755 L35.9830996,21.7902793 L34.9137279,22.1999177 C34.3661062,22.3982689 33.8486683,22.605244 33.8486683,22.5190044 C33.8745402,22.5190044 32.5507615,21.2383456 31.2830387,20.0525504 L28.747593,17.6421522 L23.2972471,22.5190044 L21.9174128,20.7467796 C21.2533675,19.8757591 20.5332664,18.9788668 20.5893222,18.9788668 C20.7057457,19.0047387 26.6433455,14.9428512 26.6131617,14.9730351 C26.6131617,14.9730351 25.3756227,13.6104486 24.1682676,12.2435502 C23.4438545,11.4630813 22.6676977,10.5360051 21.7751173,9.48819335 C22.2925552,9.13892277 22.7496254,8.82414805 23.1851356,8.56111712" id="Fill-3" transform="translate(29.439776, 15.114053) rotate(-3.000000) translate(-29.439776, -15.114053) "></path>
                    <path d="M49.6791304,1.5654549 C49.5885788,3.62658252 49.5885788,5.22201604 49.4764672,6.14909227 C50.7441901,6.00248486 52.9346772,5.91624521 53.9997369,6.14909227 C53.9134972,7.16240815 53.9997369,7.97737284 54.0299207,8.52930659 C53.2494519,8.52930659 51.2314441,8.64573012 49.4462834,9.02087259 C49.3902276,10.2411636 49.3341718,11.370903 49.2436202,12.4445867 C49.1013248,14.3030511 49.045269,16.2477552 49.045269,17.0584079 C49.045269,18.5676018 50.1362006,19.8137647 51.8092498,19.9000044 C53.4521151,19.990556 53.2796358,18.7142092 52.9950449,17.8733726 L54.2325839,17.8130049 L56.0479285,17.7267652 C56.6516061,20.1630353 55.9616889,22.2241629 52.4172393,22.3104026 C48.9288455,22.4009542 46.7383584,20.5123059 46.5098233,17.6965813 C46.4192717,16.6228977 46.1044969,9.3399593 46.1044969,8.52930659 C45.2981562,8.49912272 44.2891523,8.52930659 42.5341755,8.78802554 C42.4436238,8.00755671 42.6161031,6.9036892 42.5859192,6.11890839 C44.0045615,5.91624521 45.1213649,5.86018944 46.3632159,5.71358204 C46.4494555,5.01935286 46.7383584,3.21694419 46.5098233,1.59132679 C47.8637858,1.44903137 49.0150851,1.59132679 49.6791304,1.5654549" id="Fill-5" transform="translate(49.375146, 11.920301) rotate(-3.000000) translate(-49.375146, -11.920301) "></path>
                    <path d="M64.4692647,0.891937066 L63.8612752,5.91108467 C64.3528412,5.35915091 64.9565187,4.86758491 65.7369876,4.4018908 C67.0047104,3.64729387 68.9623504,2.89269693 71.7047713,2.83664116 C77.4095241,2.69003376 76.4867599,8.08863581 76.5988714,10.6413294 C75.3052767,10.7836249 73.3476366,10.5550898 72.3041369,10.5550898 C72.1920253,10.5550898 73.4597482,6.6656816 69.078774,6.43283454 C64.7840394,6.19998749 64.9263349,10.8741765 64.7840394,13.4268701 C64.641744,15.7467167 64.900463,18.5322574 64.9867026,19.7223645 L61.0972944,19.7223645 C61.0369267,19.7223645 61.2395898,15.0826714 61.4724369,10.3524266 L61.933819,0.978176716 L64.4692647,0.891937066 Z" id="Fill-7" transform="translate(68.842696, 10.307151) rotate(-3.000000) translate(-68.842696, -10.307151) "></path>
                    <path d="M85.2916518,17.2162343 C85.9556971,17.302474 87.4260831,16.7807241 87.6546182,15.6768566 C87.8874652,14.5471172 87.3096596,13.2104026 86.7620378,13.0077394 C85.6366104,12.6024131 84.976877,13.2104026 84.6017346,13.8787599 C84.3990714,14.2539024 84.2265921,14.7497804 84.1144806,15.331898 C84.1144806,15.8536479 84.2265921,17.0696269 85.2916518,17.2162343 Z M80.8244379,7.5832655 C81.1133408,6.62600539 81.4884832,5.78516881 82.036105,5.03057187 C82.9286854,3.78009696 84.3387036,2.44769437 86.6456143,2.44769437 C91.1688839,2.44769437 92.3848629,6.27673481 92.5832141,7.9023522 C93.0747801,11.5589133 92.7556934,15.823464 92.5271584,18.6090047 L90.4789667,19.2169942 L90.5695183,16.7505402 C90.0477684,17.3326579 89.5260186,17.8544077 88.9783968,18.289918 C88.0858164,19.0445149 86.7620378,19.8249837 85.6366104,19.768928 C83.2175882,19.6525044 82.1482165,18.026887 82.1482165,15.9398875 C82.1482165,13.848576 83.506491,10.657709 86.1281764,10.4248619 C88.7498617,10.1963269 89.8451053,14.0253673 89.8451053,14.0555512 C89.8451053,14.0555512 89.8709772,9.70044889 89.8451053,8.51034173 C89.7890495,6.74242892 88.9525249,5.87140846 86.5291907,5.52213788 C85.0329328,5.28929082 84.0239289,5.84122458 83.3641956,6.44921411 C82.9890531,6.79848469 82.6699664,7.20381104 82.4112475,7.69968902 L80.8244379,7.5832655 Z" id="Fill-9" transform="translate(86.833182, 11.109736) rotate(-3.000000) translate(-86.833182, -11.109736) "></path>
                </g>
                <g id="Group-50" transform="translate(67.773912, 54.453526) rotate(6.000000) translate(-67.773912, -54.453526) translate(19.623912, 37.353526)">
                    <path d="M3.14979558,15.3612833 L4.33127877,17.5647064 C4.96945218,18.7548135 5.71973713,20.1475839 6.09056762,20.9323647 C7.01333187,22.8770688 7.96196802,24.0930478 8.91491614,25.5763698 C10.6440211,24.1792875 14.3048942,15.9132171 15.1974746,13.8822733 L17.0990589,14.0547526 C18.1080628,14.1409923 19.1774344,14.2272319 19.5525769,14.2272319 C19.3197299,15.0120128 15.1371069,22.9633084 14.1927827,24.1534156 C13.1794668,25.4599463 11.0752194,27.49089 10.2990625,28.1851192 C9.37629827,28.3877824 7.99215189,28.5904456 6.83654059,28.3877824 C6.2932308,27.4305223 5.8016648,26.503446 5.31441078,25.6626095 C4.47788618,24.2094714 3.6111777,22.5277982 3.21016333,21.7732013 C2.80483698,20.9884205 2.14510366,19.4231708 1.56729801,18.0304005 C1.22233941,17.2197478 0.877380814,16.3487273 0.532422216,15.4173391 C1.30426708,15.2707317 2.49006226,15.3612833 3.14979558,15.3612833" id="Fill-11" fill="#000000" transform="translate(10.042500, 21.177001) rotate(-3.000000) translate(-10.042500, -21.177001) "></path>
                    <g id="Group-15" transform="translate(25.678118, 15.078532) rotate(-3.000000) translate(-25.678118, -15.078532) translate(22.978118, 2.928532)">
                        <mask id="mask-2" fill="white">
                            <use xlink:href="#path-1"></use>
                        </mask>
                        <g id="Clip-14"></g>
                        <path d="M4.23448136,9.02277958 C4.23448136,12.0411673 4.35090488,17.4958251 4.66999159,23.2997535 C2.65198379,23.674896 2.21647356,23.7050799 1.35407707,23.7913196 C1.12123001,21.7301919 0.633975993,15.6977284 1.24196552,9.34186628 L4.23448136,9.02277958 Z M3.80328311,0.696341425 C4.81228701,1.13185165 4.95889441,2.40819847 4.81228701,3.4818821 C4.66999159,4.55556574 3.08318204,4.84446856 2.27684132,4.84446856 C1.84133109,4.84446856 1.46618861,4.32271868 1.15141389,3.77078493 C0.978934591,3.45169822 0.806455292,3.10242764 0.66415987,2.69710129 C0.573608238,1.65360153 0.724527625,-0.640373142 3.80328311,0.696341425 Z" id="Fill-13" fill="#000000" mask="url(#mask-2)"></path>
                    </g>
                    <path d="M37.5223605,7.68202805 L36.914371,12.7011756 C37.405937,12.1492419 38.0096145,11.6576759 38.7900834,11.1919818 C40.0578062,10.4373849 42.0154463,9.68278792 44.7578671,9.62673215 C50.4626199,9.48012474 49.5398557,14.8787268 49.6519672,17.4314204 C48.3583725,17.5737158 46.4007324,17.3451808 45.3572327,17.3451808 C45.2451211,17.3451808 46.512844,13.4557726 42.1318698,13.2229255 C37.8371352,12.9900785 37.9794307,17.6642675 37.8371352,20.2169611 C37.6948398,22.5368077 37.9578707,25.3223483 38.0397984,26.5124555 L34.1503902,26.5124555 C34.0900225,26.5124555 34.2926856,21.8727624 34.5255327,17.1425176 L34.9869148,7.7682677 L37.5223605,7.68202805 Z" id="Fill-16" fill="#000000" transform="translate(41.895792, 17.097242) rotate(-3.000000) translate(-41.895792, -17.097242) "></path>
                    <path d="M62.0590064,14.1533965 C61.2267937,13.6877024 58.0833585,13.7178863 57.3632574,16.3568196 C56.4663651,19.7244779 59.5235607,21.2336718 60.6188042,21.3199114 C61.5415685,21.4061511 63.4431527,20.3626513 63.5854481,17.5167429 C63.6716878,15.9816771 62.895531,14.5889068 62.0590064,14.1533965 Z M56.2938858,27.2963191 C57.9108792,27.9905483 63.1542499,31.013248 63.874351,27.818069 C64.0770142,26.8909928 64.2193096,25.4421666 64.2796773,24.2520595 L64.365917,22.1046922 C64.0166464,22.4798347 63.6458159,22.7989214 63.2146177,23.1180081 C62.4945166,23.6699419 61.4294569,24.1615079 60.183294,24.2218756 C57.6521603,24.3382991 54.1033987,22.1348761 54.4785412,17.490871 C54.8536836,12.816682 57.9367511,10.4105957 60.7050439,10.9927134 C62.1193741,11.2773042 63.1542499,11.7429983 63.8441671,12.1785086 C64.2494935,12.4113556 64.594452,12.6743865 64.853171,12.9331055 L65.2584973,10.2338045 L66.8409949,10.4709635 C67.306689,14.4164275 67.3368729,22.3634112 67.1859535,26.6883296 C67.1040258,29.3876306 65.9484145,31.2159112 63.0981941,32.7509769 C60.416141,34.204115 55.25901,30.5777378 54.8234998,29.9395644 L56.2938858,27.2963191 Z" id="Fill-18" fill="#000000" transform="translate(60.859085, 21.662729) rotate(-3.000000) translate(-60.859085, -21.662729) "></path>
                    <g id="Group-22" transform="translate(74.709104, 12.508927) rotate(-3.000000) translate(-74.709104, -12.508927) translate(72.009104, 0.358927)">
                        <mask id="mask-4" fill="white">
                            <use xlink:href="#path-3"></use>
                        </mask>
                        <g id="Clip-21"></g>
                        <path d="M3.7973609,9.02277958 C3.7973609,12.0411673 3.91378443,17.4958251 4.23287113,23.2997535 C2.21486334,23.674896 1.77935311,23.7050799 0.916956613,23.7913196 C0.684109559,21.7301919 0.19685554,15.6977284 0.804845069,9.34186628 L3.7973609,9.02277958 Z M3.36616266,0.696341425 C4.37516656,1.13185165 4.52177396,2.40819847 4.37516656,3.4818821 C4.23287113,4.55556574 2.64606158,4.84446856 1.83972086,4.84446856 C1.40421063,4.84446856 1.02906816,4.32271868 0.714293437,3.77078493 C0.541814138,3.45169822 0.369334839,3.10242764 0.227039417,2.69710129 C0.136487785,1.65360153 0.287407172,-0.640373142 3.36616266,0.696341425 Z" id="Fill-20" fill="#000000" mask="url(#mask-4)"></path>
                    </g>
                    <path d="M85.297986,7.83419909 L85.297986,10.9388265 C86.2207502,10.3868927 87.3159938,10.0419341 88.2085741,9.83495895 C89.7651998,9.52018423 92.6456041,9.69266353 94.4307649,11.3743367 C95.4138969,12.3315968 95.7027997,16.0743976 95.7588555,19.4981117 C95.8149112,21.5592393 95.7588555,23.7928462 95.61656,26.2032444 L93.654608,26.3757237 C93.7408477,25.2459843 93.8012154,24.1421168 93.8313993,23.098617 C93.913327,21.3565761 93.8831431,19.2954485 93.654608,18.3985561 C93.1932259,16.5400917 91.0329227,13.030138 85.9059755,14.6816273 C83.7413603,15.3801684 84.0302631,23.9955094 84.3752217,26.3455398 C83.8879677,26.4317795 83.1678666,26.4619634 82.590061,26.3757237 C82.4434536,25.7677342 82.0424392,21.3005204 81.9820715,19.6145352 C81.839776,16.1908211 82.331342,8.35594897 82.331342,7.92475072 L85.297986,7.83419909 Z" id="Fill-23" fill="#000000" transform="translate(88.868260, 17.130726) rotate(-3.000000) translate(-88.868260, -17.130726) "></path>
                </g>
                <g id="Group-48" transform="translate(62.410869, 90.336435) rotate(5.000000) translate(-62.410869, -90.336435) translate(1.660869, 74.586435)">
                    <path d="M4.82899039,20.1920105 C3.41897212,20.8 1.6036275,24.5729847 3.53108366,26.8367755 C4.68669496,28.1433062 7.91636984,27.2722857 8.71839858,26.461633 C9.35657198,25.8234596 10.1586007,24.4263773 9.43849965,22.5722248 C8.77876633,20.8905516 6.04065746,19.7004445 4.82899039,20.1920105 M4.54439954,30.407097 C1.68555516,30.2604896 0.335904649,26.6901681 0.508383948,23.3268217 C0.711047124,18.7431844 4.37192024,17.0313273 5.86817816,17.0313273 C9.12372493,17.0313273 13.043317,19.2045665 13.043317,25.1551023 C13.043317,27.6776121 10.9994373,30.7261837 4.54439954,30.407097" id="Fill-25" fill="#000000" transform="translate(6.768520, 23.730766) rotate(-3.000000) translate(-6.768520, -23.730766) "></path>
                    <path d="M21.9956485,6.68376277 C21.9956485,7.90405381 22.3139807,11.5606149 22.3829527,15.3594715 C22.4200914,18.1751961 22.0646205,27.2303592 22.3458139,30.5937056 C20.2554324,31.0292158 19.3004357,31.2060071 18.2711616,30.9990319 C17.9846626,28.0970677 18.1650508,20.8141293 18.1650508,19.16264 C18.1650508,16.9850889 17.8838574,10.0212372 18.3083003,7.00284947 C19.4065465,6.68376277 20.4676538,6.68376277 21.9956485,6.68376277" id="Fill-27" fill="#000000" transform="translate(20.229717, 18.884572) rotate(-3.000000) translate(-20.229717, -18.884572) "></path>
                    <g id="Group-31" transform="translate(30.406440, 16.477512) rotate(-3.000000) translate(-30.406440, -16.477512) translate(28.156440, 4.327512)">
                        <mask id="mask-6" fill="white">
                            <use xlink:href="#path-5"></use>
                        </mask>
                        <g id="Clip-30"></g>
                        <path d="M3.59949111,9.42323085 C3.59949111,12.4416186 3.71591464,17.8962764 4.03500134,23.7002048 C2.01699354,24.0753473 1.58148331,24.1055312 0.719086819,24.1917708 C0.486239766,22.1306432 -0.00101425372,16.0981797 0.606975275,9.74231755 L3.59949111,9.42323085 Z M3.16829286,1.09679269 C4.17729676,1.53230292 4.32390417,2.80864973 4.17729676,3.88233337 C4.03500134,4.956017 2.44819179,5.24491983 1.64185107,5.24491983 C1.20634084,5.24491983 0.831198364,4.72316995 0.516423643,4.17123619 C0.343944344,3.85214949 0.171465045,3.50287891 0.0291696236,3.09755256 C-0.0613820083,2.0540528 0.0895373782,-0.239921876 3.16829286,1.09679269 Z" id="Fill-29" fill="#000000" mask="url(#mask-6)"></path>
                    </g>
                    <path d="M39.2701031,15.5160797 L40.4515863,17.7195028 C41.0897597,18.9096099 41.8400446,20.3023803 42.2151871,21.0871611 C43.1336394,23.0318652 44.0822755,24.2478442 45.0352237,25.7311662 C46.7643286,24.3340839 50.4252017,16.0680135 51.3177821,14.0370697 L53.2193664,14.209549 C54.2283703,14.2957887 55.2977419,14.3820283 55.6728844,14.3820283 C55.4400374,15.1668091 51.2574144,23.1181048 50.3130902,24.308212 C49.2997743,25.6147427 47.1955269,27.6456864 46.41937,28.3399156 C45.4966058,28.5425788 44.1124594,28.7452419 42.9568481,28.5425788 C42.4135383,27.5853187 41.9219723,26.6582424 41.4347183,25.8174058 C40.5981937,24.3642678 39.7314852,22.6825946 39.3304708,21.9279977 C38.9251445,21.1432168 38.2654112,19.5779672 37.6876055,18.1851969 C37.3426469,17.3745442 36.9976883,16.5035237 36.6527297,15.5721355 C37.4245746,15.4255281 38.6103698,15.5160797 39.2701031,15.5160797" id="Fill-32" fill="#000000" transform="translate(46.162807, 21.331797) rotate(-3.000000) translate(-46.162807, -21.331797) "></path>
                    <path d="M66.2812378,14.4665498 C64.5780048,14.4665498 63.8018479,16.9330038 63.6293686,17.5711772 L66.5658287,17.5151214 C68.0362147,17.4849375 69.4807288,17.3986979 69.5066007,17.3986979 C69.5066007,17.3383301 68.704572,14.4665498 66.2812378,14.4665498 M66.3933494,20.2704782 C65.8198557,20.2402943 63.3145939,19.9815754 62.4177015,19.9815754 C62.4177015,20.6499327 61.8743917,25.1732023 65.8457276,25.2896258 C66.6563803,25.3198097 67.0875786,25.0869626 67.2859297,24.8239317 C67.4066653,24.6816363 67.458409,24.5350289 67.4885929,24.3323657 L68.0060308,24.3884215 C68.3553014,24.4186054 68.8166835,24.504845 69.4807288,24.5350289 C70.6320281,24.6212685 70.920931,24.5953966 71.2960734,24.6212685 C71.2098338,24.7678759 70.3172534,27.1739622 65.0695708,26.971299 C59.0759151,26.71258 58.0410393,21.3743457 58.1833347,19.5158813 C58.5282933,15.0486674 62.301278,11.0988915 68.9891628,12.7245089 C72.2748935,13.5394736 71.9859906,19.4296416 71.8738791,20.3006621 C70.6018443,20.4429575 69.2780656,20.3869017 66.3933494,20.2704782" id="Fill-34" fill="#000000" transform="translate(65.052422, 19.667481) rotate(-3.000000) translate(-65.052422, -19.667481) "></path>
                    <path d="M93.0991819,15.5659658 C91.6891636,16.1739553 89.873819,19.94694 91.8012751,22.2107308 C92.9568864,23.5172615 96.1865613,22.646241 96.98859,21.8355883 C97.6267635,21.1974149 98.4287922,19.8003326 97.7086911,17.9461801 C97.0489578,16.2645069 94.3108489,15.0743998 93.0991819,15.5659658 M92.814591,25.7810523 C89.9557466,25.6344448 88.6060961,22.0641234 88.7785754,18.700777 C88.9812386,14.1171397 92.6421117,12.4052826 94.1383696,12.4052826 C97.3939164,12.4052826 101.313508,14.5785218 101.313508,20.5290576 C101.313508,23.0515673 99.2696288,26.100139 92.814591,25.7810523" id="Fill-36" fill="#000000" transform="translate(95.038712, 19.104721) rotate(-3.000000) translate(-95.038712, -19.104721) "></path>
                    <g id="Group-40" transform="translate(108.191511, 12.400969) rotate(-3.000000) translate(-108.191511, -12.400969) translate(105.491511, 0.250969)">
                        <mask id="mask-8" fill="white">
                            <use xlink:href="#path-7"></use>
                        </mask>
                        <g id="Clip-39"></g>
                        <path d="M4.19894859,9.42323085 C4.19894859,12.4416186 4.31537211,17.8962764 4.63445881,23.7002048 C2.61645102,24.0753473 2.18094079,24.1055312 1.31854429,24.1917708 C1.08569724,22.1306432 0.59844322,16.0981797 1.20643275,9.74231755 L4.19894859,9.42323085 Z M3.76775034,1.09679269 C4.77675424,1.53230292 4.92336164,2.80864973 4.77675424,3.88233337 C4.63445881,4.956017 3.04764926,5.24491983 2.24130854,5.24491983 C1.80579831,5.24491983 1.43065584,4.72316995 1.11588112,4.17123619 C0.943401818,3.85214949 0.770922519,3.50287891 0.628627097,3.09755256 C0.538075465,2.0540528 0.688994852,-0.239921876 3.76775034,1.09679269 Z" id="Fill-38" fill="#000000" mask="url(#mask-8)"></path>
                    </g>
                    <g id="Group-43" transform="translate(118.442165, 13.862544) rotate(-3.000000) translate(-118.442165, -13.862544) translate(116.192165, 1.262544)">
                        <mask id="mask-10" fill="white">
                            <use xlink:href="#path-9"></use>
                        </mask>
                        <g id="Clip-42"></g>
                        <path d="M3.80004204,0.274293812 C3.80004204,1.49458485 4.05876099,5.15114599 4.11481676,8.95000255 C4.14500064,11.7657271 3.85609781,20.8208903 4.08463288,24.1842366 C2.38571179,24.6197469 1.60955494,24.7965381 0.773030345,24.589563 C0.540183291,21.6875988 0.686790695,14.4046604 0.686790695,12.7531711 C0.686790695,10.5756199 0.458255624,3.61176825 0.803214222,0.593380515 C1.69579459,0.274293812 2.55819109,0.274293812 3.80004204,0.274293812" id="Fill-41" fill="#000000" mask="url(#mask-10)"></path>
                    </g>
                </g>
            </g>
        </g>
    </g>
</svg>