<?xml version="1.0" encoding="UTF-8"?>
<svg width="24px" height="24px" viewBox="0 0 24 24" version="1.1" xmlns="http://www.w3.org/2000/svg" xmlns:xlink="http://www.w3.org/1999/xlink">
    <!-- Generator: Sketch 52.3 (67297) - http://www.bohemiancoding.com/sketch -->
    <title>ico-facebook-white</title>
    <desc>Created with Sketch.</desc>
    <g id="Symbols" stroke="none" stroke-width="1" fill="none" fill-rule="evenodd">
        <path d="M13.6001167,9.07583597 L17.900175,9.07583597 L17.900175,13.1645888 L13.6001167,13.1645888 L13.6001167,22.6832054 L9.30005834,22.6832054 L9.30005834,13.1645888 L5,13.1645888 L5,9.07583597 L9.30005834,9.07583597 L9.30005834,7.34220477 C9.30005834,6.46993477 9.44339218,5.58677234 9.73006417,4.69269293 C10.0167362,3.79861353 10.4123372,3.08990591 10.9168803,2.56654146 C11.9718351,1.4543966 13.3019721,0.898330308 14.9073344,0.898330308 L17.900175,0.898330308 L17.900175,4.98708314 L14.9073344,4.98708314 C14.5403932,4.98708314 14.2307933,5.10156822 13.9785218,5.33053838 C13.7262503,5.55950853 13.6001167,5.84844434 13.6001167,6.19735398 L13.6001167,9.07583597 Z" id="Page-1" fill="#FFFFFF"></path>
    </g>
</svg>