<?xml version="1.0" encoding="UTF-8"?>
<svg width="24px" height="24px" viewBox="0 0 24 24" version="1.1" xmlns="http://www.w3.org/2000/svg" xmlns:xlink="http://www.w3.org/1999/xlink">
    <!-- Generator: Sketch 52.3 (67297) - http://www.bohemiancoding.com/sketch -->
    <title>ico-facebook</title>
    <desc>Created with Sketch.</desc>
    <g id="Symbols" stroke="none" stroke-width="1" fill="none" fill-rule="evenodd">
        <g id="contents/footer仮" transform="translate(-1286.000000, -354.000000)">
            <rect id="Rectangle-4" fill-opacity="0.01" fill="#FFFFFF" fill-rule="nonzero" style="mix-blend-mode: multiply;" opacity="0.01" x="0" y="116" width="1440" height="420"></rect>
            <path d="M1299.60012,363.075836 L1303.90018,363.075836 L1303.90018,367.164589 L1299.60012,367.164589 L1299.60012,376.683205 L1295.30006,376.683205 L1295.30006,367.164589 L1291,367.164589 L1291,363.075836 L1295.30006,363.075836 L1295.30006,361.342205 C1295.30006,360.469935 1295.44339,359.586772 1295.73006,358.692693 C1296.01674,357.798614 1296.41234,357.089906 1296.91688,356.566541 C1297.97184,355.454397 1299.30197,354.89833 1300.90733,354.89833 L1303.90018,354.89833 L1303.90018,358.987083 L1300.90733,358.987083 C1300.54039,358.987083 1300.23079,359.101568 1299.97852,359.330538 C1299.72625,359.559509 1299.60012,359.848444 1299.60012,360.197354 L1299.60012,363.075836 Z" id="Page-1" fill="#7C7C7C"></path>
        </g>
    </g>
</svg>