<?xml version="1.0" encoding="UTF-8"?>
<svg width="24px" height="24px" viewBox="0 0 24 24" version="1.1" xmlns="http://www.w3.org/2000/svg" xmlns:xlink="http://www.w3.org/1999/xlink">
    <!-- Generator: Sketch 52.3 (67297) - http://www.bohemiancoding.com/sketch -->
    <title>ico-instagram</title>
    <desc>Created with Sketch.</desc>
    <g id="Symbols" stroke="none" stroke-width="1" fill="none" fill-rule="evenodd">
        <g id="contents/footer仮" transform="translate(-1369.000000, -354.000000)">
            <rect id="Rectangle-4" fill-opacity="0.01" fill="#FFFFFF" fill-rule="nonzero" style="mix-blend-mode: multiply;" opacity="0.01" x="0" y="116" width="1440" height="420"></rect>
            <g id="Group-33" transform="translate(1370.000000, 355.000000)" fill="#7C7C7C">
                <path d="M3.05715304,5.04282051 L3.05715304,17.183653 C3.05715304,18.4036442 4.05405207,19.3910771 5.28337171,19.3910771 L17.5275744,19.3910771 C18.7579529,19.3910771 19.7537931,18.4025942 19.7537931,17.183653 L19.7537931,5.04282051 C19.7537931,3.82282929 18.756894,2.83539643 17.5275744,2.83539643 L5.28337171,2.83539643 C4.05299316,2.83539643 3.05715304,3.82387926 3.05715304,5.04282051 Z M0.830934367,5.04282051 C0.830934367,2.60762833 2.82058822,0.627972342 5.28337171,0.627972342 L17.5275744,0.627972342 C19.9835004,0.627972342 21.9800117,2.60082878 21.9800117,5.04282051 L21.9800117,17.183653 C21.9800117,19.6188451 19.9903579,21.5985011 17.5275744,21.5985011 L5.28337171,21.5985011 C2.82744567,21.5985011 0.830934367,19.6256447 0.830934367,17.183653 L0.830934367,5.04282051 Z" id="Rectangle" fill-rule="nonzero"></path>
                <path d="M11.9620277,16.0799409 C8.63908315,16.0799409 6.39648104,13.8562717 6.39648104,11.6650928 C6.39648104,8.37020176 8.63908315,6.14653255 11.9620277,6.14653255 C14.1718629,6.14653255 16.4144651,8.37020176 16.4144651,11.6650928 C16.4144651,13.8562717 14.1718629,16.0799409 11.9620277,16.0799409 Z M11.9620277,13.8725168 C12.9423563,13.8725168 14.1882464,12.6371451 14.1882464,11.6650928 C14.1882464,9.58932842 12.9423563,8.35395663 11.9620277,8.35395663 C9.86858977,8.35395663 8.62269971,9.58932842 8.62269971,11.6650928 C8.62269971,12.6371451 9.86858977,13.8725168 11.9620277,13.8725168 Z" id="Oval-5" fill-rule="nonzero"></path>
                <ellipse id="Oval-6" cx="17.5275744" cy="5.04282051" rx="1.11310933" ry="1.10371204"></ellipse>
            </g>
        </g>
    </g>
</svg>