<?xml version="1.0" encoding="UTF-8"?>
<svg width="139px" height="121px" viewBox="0 0 139 121" version="1.1" xmlns="http://www.w3.org/2000/svg" xmlns:xlink="http://www.w3.org/1999/xlink">
    <!-- Generator: Sketch 52.3 (67297) - http://www.bohemiancoding.com/sketch -->
    <title>logo-txt</title>
    <desc>Created with Sketch.</desc>
    <g id="Symbols" stroke="none" stroke-width="1" fill="none" fill-rule="evenodd">
        <g id="contents/header" transform="translate(-48.000000, -37.000000)" fill="#6F6F6F">
            <g id="Group-4" transform="translate(46.000000, 37.000000)">
                <g id="Group-2" transform="translate(0.466887, 0.000000)">
                    <g id="Group" transform="translate(0.735824, 0.099669)">
                        <g id="Group-3" transform="translate(0.000000, 0.000000)">
                            <path d="M9.11217863,112.476085 C7.21502829,112.537714 5.56542167,112.660973 5.41853889,112.754443 C5.07341571,112.975281 5.11552896,113.598763 5.49865677,113.915125 C5.75339055,114.123637 5.80063955,114.463625 5.71744022,115.512347 C5.5993177,117.02637 5.5993177,116.991447 5.67943558,118.135694 C5.72154882,118.762257 5.64143094,119.156684 5.41853889,119.407309 C5.18640247,119.669233 5.15250644,119.860283 5.29836207,120.093447 C5.4657879,120.361533 5.94238657,120.413918 8.16308988,120.403647 C12.0375084,120.383104 13.5638568,119.991759 13.0543892,119.145385 C12.9157237,118.913249 12.6527727,118.905031 11.5835071,119.104299 C10.861419,119.238856 9.50557796,119.346707 8.53594618,119.346707 L6.79081439,119.346707 L6.79081439,118.358586 L6.79081439,117.370466 L9.37410247,117.232827 C12.6435283,117.06232 12.5428674,117.079782 12.5428674,116.622699 C12.5428674,116.239571 12.3908488,116.216974 9.64629783,116.158426 L6.75075545,116.097824 L6.87195942,115.472288 C6.93769717,115.130247 6.99316339,114.54477 6.99316339,114.181158 L6.99316339,113.515563 L9.96985081,113.452907 L12.9455111,113.393332 L12.9455111,112.909543 C12.9455111,112.646592 12.8540945,112.411375 12.7441892,112.39494 C12.6332568,112.378506 11.009329,112.412402 9.11217863,112.476085" id="Fill-2"></path>
                            <path d="M48.7247186,115.591644 L48.9660994,116.146306 L47.7571411,116.146306 C47.0905193,116.146306 46.5461286,116.10522 46.5461286,116.055916 C46.5461286,116.004559 46.7741564,115.450924 47.0607319,114.804845 L47.574308,113.644163 L48.0293365,114.339545 C48.2779074,114.7237 48.592216,115.285552 48.7247186,115.591644 M46.7977809,112.553327 C46.6796584,112.701237 46.5235312,113.03917 46.4444405,113.321637 C46.3663769,113.599995 46.0037921,114.511079 45.6340173,115.35848 C44.7814809,117.318287 44.0552842,119.72285 44.2062756,120.101869 C44.2740676,120.275458 44.5082584,120.378173 44.7496392,120.344277 C45.0742193,120.297028 45.261161,120.001208 45.5497908,119.072663 C45.9935206,117.638758 46.320155,117.357318 47.5363034,117.357318 C49.5731464,117.357318 49.8022014,117.473387 50.6670637,118.930916 C51.552469,120.425422 51.7270849,120.605174 52.1358915,120.445965 C52.6073544,120.262105 52.4121954,119.495849 51.5812292,118.266348 C51.134418,117.603835 50.3609723,116.266483 49.8751292,115.318421 C49.3892862,114.371387 48.7421802,113.290822 48.4484147,112.937482 C47.8916981,112.271887 47.1644743,112.103434 46.7977809,112.553327" id="Fill-4"></path>
                            <path d="M23.3599111,112.906462 C23.0414939,113.224879 23.0774443,113.556649 23.4605721,113.871985 C23.7245502,114.089741 23.8529443,114.091796 24.1764972,113.885338 C24.4507469,113.709695 25.0351966,113.676826 26.1044621,113.775433 L27.6369734,113.916153 L27.506525,116.761365 C27.4335972,118.334962 27.452086,119.72778 27.546584,119.878772 C27.6390277,120.026682 27.9399833,120.118098 28.2029343,120.080094 C28.6559085,120.014356 28.6867231,119.929102 28.6867231,118.698574 C28.6867231,117.97854 28.7093204,116.590857 28.7360264,115.621225 L28.7863568,113.854524 L29.6553277,113.836035 C30.9269423,113.808302 31.5113919,113.591573 31.5113919,113.14887 C31.5113919,112.787312 31.2905542,112.763688 27.5568555,112.715412 C24.7927886,112.680488 23.5283641,112.736982 23.3599111,112.906462" id="Fill-6"></path>
                            <path d="M39.060037,114.105149 C39.7235774,114.427675 39.9711211,114.887839 39.8098582,115.514402 C39.6424324,116.170752 38.6142529,116.511767 37.0622258,116.423431 L35.9529013,116.360775 L35.9251682,115.411686 C35.8964079,114.383507 36.0730781,114.126719 37.0016238,113.841171 C37.6138066,113.652175 38.311243,113.742564 39.060037,114.105149 M36.7982476,112.749308 C36.7212112,112.825317 36.3257576,112.90338 35.9200324,112.920842 C35.4372708,112.940358 35.1075549,113.077996 34.9627264,113.322459 C34.8435768,113.526862 34.5826801,113.864795 34.3957384,114.058927 C33.9530357,114.525254 33.9263298,115.324378 34.3371907,115.735239 C34.562137,115.963267 34.6402006,116.522038 34.6402006,117.955943 C34.6402006,119.608631 34.6884768,119.899315 35.0038125,120.066741 C35.5892894,120.377968 35.850186,119.952727 35.850186,118.681112 L35.850186,117.551245 L37.2224615,117.627254 C38.8772039,117.721752 39.2048655,117.879933 39.9968,118.962552 C40.6449331,119.853093 41.0229251,119.997922 41.352641,119.489481 C41.5108225,119.245019 41.3834556,118.932765 40.8257119,118.206568 L40.0892437,117.249262 L40.5350278,116.644269 C41.5056867,115.324378 40.9161013,113.630604 39.2603317,112.995824 C38.3543834,112.645565 37.0334655,112.515117 36.7982476,112.749308" id="Fill-8"></path>
                            <path d="M16.2139098,112.741912 C15.77018,112.992537 15.77018,113.742358 16.2139098,113.8574 C16.5066482,113.932382 17.8912495,115.724762 17.8912495,116.0288 C17.8912495,116.070913 17.4742256,116.814571 16.9719482,117.659917 C15.9828005,119.337257 15.8831667,120.041884 16.6196349,120.141517 C16.8815588,120.177468 17.0839078,120.099404 17.0839078,119.962793 C17.0839078,119.657729 18.3524409,117.560284 18.5363011,117.560284 C18.6051203,117.560284 18.7653561,117.824262 18.9081303,118.166304 C19.4751184,119.538579 20.5012435,120.25245 20.7939819,119.477977 C20.9326475,119.115392 20.7518687,118.569974 20.4930263,118.569974 C20.3009488,118.569974 19.3025568,116.471502 19.3025568,116.067831 C19.3025568,115.9456 19.5675621,115.523441 19.8993323,115.118743 C20.3605237,114.552782 20.6070402,114.414116 21.0086568,114.481908 C21.4123276,114.555863 21.5222329,114.489098 21.5222329,114.180953 C21.5222329,113.960115 21.3558343,113.637589 21.1391051,113.444484 C20.6429905,112.9987 19.9188482,113.282194 19.1792985,114.211767 L18.6174462,114.917421 L17.9549329,113.928273 C17.1845687,112.77889 16.7161872,112.459445 16.2139098,112.741912" id="Fill-10"></path>
                            <path d="M58.0061697,112.863322 C57.7524631,113.02972 57.7617074,113.208445 58.0770432,114.197592 C58.2773379,114.823128 58.7488008,116.062901 59.1267929,116.950361 C59.5037578,117.840902 59.8129306,118.688302 59.8129306,118.837239 C59.8129306,118.984122 60.0389041,119.373413 60.2987737,119.674369 C60.9160922,120.393375 61.2149935,120.179727 61.8466922,118.566071 C62.5359114,116.809641 64.0971829,114.1298 64.4936637,114.020922 C64.9178776,113.905881 64.9548551,113.209472 64.5552929,112.883865 C64.3611611,112.725683 64.1505949,112.716439 63.8896982,112.856131 C63.4747286,113.075942 61.6350988,115.963267 61.0958439,117.232827 L60.7609922,118.020653 L60.4990684,117.316027 C59.6835094,115.113812 58.6697101,112.796557 58.5012571,112.739036 C58.3892975,112.703086 58.1684598,112.758552 58.0061697,112.863322" id="Fill-12"></path>
                            <path d="M85.0772826,112.769029 C84.6397157,113.085392 83.8518899,113.98415 83.3013362,114.790465 C82.4210667,116.082622 82.3111614,116.366116 82.3029442,117.342938 C82.2926727,118.291 82.3686819,118.520055 82.8463078,118.998708 C83.3516667,119.504067 83.5324455,119.552343 84.8646621,119.552343 C85.6730309,119.552343 86.7803011,119.509202 87.3359905,119.452709 C88.3056223,119.35513 88.3497899,119.374645 88.4093647,119.895412 C88.485374,120.562034 89.0359276,120.827039 89.3707793,120.360712 C89.537178,120.127548 89.5833998,119.543098 89.5053362,118.553951 L89.3964581,117.091286 L90.1832568,116.939267 C91.0316846,116.774923 91.3028528,116.527379 91.1323455,116.082622 C91.0491462,115.871029 90.5057826,115.844323 88.2871336,115.949093 C85.2200568,116.093921 84.6119826,116.235668 84.6119826,116.808819 C84.6119826,117.413812 85.1553462,117.773315 85.6206462,117.476468 C85.835321,117.340884 86.4998886,117.175512 87.1254243,117.101557 C88.2152329,116.975218 88.2450203,116.984462 88.2450203,117.485712 C88.2450203,117.787695 88.0950561,118.058863 87.8814084,118.144117 C87.352425,118.353656 84.5113217,118.51081 83.9278992,118.361873 C82.8360362,118.087624 83.4338389,116.122681 85.1871879,114.226558 C86.0438329,113.29904 86.34068,113.203514 86.5337846,113.802344 C86.7207263,114.386794 87.4068641,114.306676 87.5629912,113.68114 C87.9296846,112.207177 86.550219,111.701818 85.0772826,112.769029" id="Fill-14"></path>
                            <path d="M78.1941295,113.983739 C78.6594295,114.359677 78.6594295,114.359677 78.2763017,114.781837 C77.8089474,115.301576 76.1778295,115.81207 74.9863328,115.81207 L74.0999003,115.81207 L74.1594752,114.853737 C74.2159686,113.965251 74.2642447,113.885133 74.826097,113.76701 C76.1583136,113.488652 77.7041778,113.585204 78.1941295,113.983739 M73.8164063,112.866198 L73.0080374,113.108605 L73.0306348,116.387276 C73.0460421,119.110256 73.1045898,119.721412 73.3737037,119.990526 C73.6140573,120.231907 73.7660758,120.253477 73.9786964,120.079888 C74.1923441,119.904245 74.2354845,119.515982 74.1594752,118.466232 L74.0598414,117.084712 L75.3489176,116.983024 C76.9040262,116.862847 77.3415931,117.059033 78.1900209,118.253611 C78.5351441,118.739455 79.0528288,119.346502 79.3260513,119.591991 C80.1724249,120.346948 80.8904043,119.63924 80.1118229,118.817518 C79.8694149,118.565866 79.3476215,117.900271 78.9624394,117.354853 L78.2567858,116.357488 L78.9223805,115.691894 C79.471907,115.14134 79.5787308,114.893796 79.5284003,114.26826 C79.4801242,113.663268 79.3311871,113.418805 78.7796063,113.049031 C78.1900209,112.648441 77.8531149,112.585785 76.3586083,112.602219 C75.4115739,112.614545 74.2580818,112.732668 73.8164063,112.866198" id="Fill-16"></path>
                            <path d="M67.7230306,113.133154 C67.6120982,113.266684 67.4672697,114.323624 67.4015319,115.49355 C67.2525949,118.076839 67.5751207,119.795264 68.2273624,119.894898 C68.7686717,119.97707 68.9114458,119.389539 68.6864995,118.016237 C68.5909743,117.422543 68.5642684,116.089299 68.6310333,115.080635 C68.7275856,113.607699 68.6947167,113.196838 68.4707975,113.053037 C68.1061584,112.821927 67.9716015,112.83528 67.7230306,113.133154" id="Fill-18"></path>
                            <path d="M105.126782,112.487178 C105.054882,112.607355 105.05899,113.90773 105.137054,115.362178 L105.278801,118.016339 L103.33132,116.039071 C102.257946,114.948235 101.249282,113.743386 101.081856,113.354095 C100.731597,112.52621 100.443995,112.379327 99.730124,112.656658 C99.1025339,112.898039 99.0316604,113.296574 99.527775,113.783445 C99.804079,114.056667 99.8369478,114.505533 99.7486127,117.068278 C99.6921194,118.70145 99.6880107,120.150762 99.7383412,120.296617 C99.8420836,120.5986 100.536439,120.61298 100.721326,120.315106 C100.795281,120.193902 100.88567,119.034247 100.919566,117.743117 C100.95449,116.450959 100.984277,115.365259 100.99044,115.331363 C100.996603,115.298494 102.049434,116.316402 103.341592,117.60137 C104.631695,118.887364 105.79854,119.931978 105.945423,119.931978 C106.613072,119.931978 106.689081,119.407104 106.456945,116.462258 C106.1375,112.424522 106.105658,112.264286 105.642413,112.264286 C105.440064,112.264286 105.194574,112.369056 105.126782,112.487178" id="Fill-20"></path>
                            <path d="M116.957112,114.329787 C117.362837,114.793033 117.788078,115.341532 117.925716,115.580858 C119.019634,117.463629 116.346983,120.25851 114.410801,119.257037 C112.353415,118.193934 112.696484,115.334342 115.054826,113.86346 C115.913525,113.327286 116.130254,113.380698 116.957112,114.329787 M115.037364,112.555895 C114.193045,112.921561 113.050852,113.945632 112.501325,114.834119 C111.877844,115.843809 111.84292,117.9392 112.435587,118.870827 C113.167947,120.017129 114.088275,120.544058 115.357836,120.544058 C116.933487,120.544058 118.118821,119.78602 118.855289,118.305894 C119.749939,116.506323 119.541427,115.438084 117.895929,113.420757 C116.870831,112.162495 116.327467,111.998151 115.037364,112.555895" id="Fill-22"></path>
                            <path d="M94.769081,113.52337 C94.6930717,113.711338 94.6283611,115.147297 94.6221982,116.701379 C94.6129539,119.488043 94.6201439,119.538374 95.065928,119.597948 C95.328879,119.632872 95.5332823,119.547618 95.5497168,119.395599 C95.5671784,119.249744 95.605183,118.912838 95.6401062,118.629344 C95.7623373,117.560078 95.760283,113.603487 95.6359976,113.403193 C95.42954,113.069368 94.9210996,113.141269 94.769081,113.52337" id="Fill-24"></path>
                            <path d="M128.849584,112.318623 C128.61642,112.693533 128.10079,116.2331 127.984722,118.27097 C127.838866,120.773113 127.918984,120.884046 129.465875,120.343764 C130.001022,120.157849 131.604407,119.872301 133.0568,119.702821 C135.016607,119.477874 135.746912,119.314557 135.938989,119.057769 C136.534738,118.27097 135.932826,117.433841 135.216901,118.055268 C134.998118,118.243237 134.027459,118.437369 132.552468,118.584252 C131.282908,118.710592 129.981506,118.870827 129.678496,118.935538 C129.142322,119.054688 129.122807,119.027982 129.122807,118.179554 C129.122807,117.699874 129.268662,116.434422 129.445332,115.384672 C129.922958,112.558976 129.91885,112.270346 129.405273,112.199473 C129.162866,112.16455 128.910186,112.217962 128.849584,112.318623" id="Fill-26"></path>
                            <path d="M122.973554,112.92454 C122.737309,113.674361 122.407593,118.151718 122.52777,118.958033 C122.680815,119.967723 123.091676,120.41967 123.533352,120.058113 C123.743918,119.883497 123.828145,119.159354 123.864095,117.16257 C123.892855,115.688607 123.924697,114.092412 123.935996,113.590135 C123.954484,112.803336 123.897991,112.673915 123.521026,112.62153 C123.240613,112.581471 123.047509,112.687268 122.973554,112.92454" id="Fill-28"></path>
                            <g id="logo" transform="translate(0.911101, 0.274722)">
                                <g id="Group" stroke-width="1" transform="translate(30.791139, 45.561905)">
                                    <g id="Group-4" transform="translate(6.158228, 34.171429)">
                                        <path d="M21.1788494,5.20877714 C21.2940962,5.32531048 21.0125772,6.79205333 20.8304696,7.01372952 C20.7424949,7.11974857 20.4794506,7.20473905 20.2427987,7.20473905 C19.8477924,7.20473905 19.810843,7.16180571 19.810843,6.68691048 C19.810843,6.11037714 20.1345899,5.3603581 20.4345835,5.23944381 C20.7029063,5.12992 21.0838367,5.11590095 21.1788494,5.20877714 M19.7114316,4.57266286 C19.1633494,5.16759619 18.921419,5.83087238 18.921419,6.73159619 C18.921419,7.41239619 18.9865203,7.66298667 19.2178937,7.87239619 C19.6463304,8.25704381 20.523438,8.27193905 21.1929253,7.90569143 C21.6530329,7.65334857 21.8043494,7.63319619 22.1272165,7.77776762 C22.6761785,8.02485333 23.0491911,7.98104381 23.2242608,7.64809143 C23.4142861,7.29498667 23.3007987,7.05666286 22.9436215,7.05666286 C22.6462671,7.05666286 22.1870392,6.62557714 22.1870392,6.34870095 C22.1870392,6.24443429 22.2424633,6.1699581 22.3216405,6.1699581 C22.594362,6.1699581 22.6348304,5.43132952 22.382343,5.04580571 C21.8571342,4.24759619 20.2700709,3.96721524 19.7114316,4.57266286" id="Fill-30"></path>
                                        <path d="M41.6913785,5.58352381 C41.971138,6.01198095 42.0036886,6.85575238 41.7512013,7.10634286 C41.3526759,7.50325714 39.8527076,7.10634286 39.8527076,6.60340952 C39.8527076,6.26432381 40.2635494,5.53620952 40.5503468,5.37060952 C40.9954987,5.11125714 41.4388911,5.19449524 41.6913785,5.58352381 M42.0573532,1.02908571 C42.0450367,1.09392381 42.0503152,1.90177143 42.0714291,2.81826667 C42.1092582,4.5627619 42.0863848,4.61270476 41.4406506,4.31392381 C41.1573722,4.18161905 40.9506316,4.21053333 40.4183848,4.45411429 C39.6107772,4.8212381 39.1119608,5.5379619 39.0037519,6.486 C38.8700304,7.66885714 39.6899544,8.17179048 41.7512013,8.17179048 C42.7479544,8.17179048 42.8271316,8.14900952 42.8807962,7.8379619 C42.9133468,7.65571429 42.930062,6.04089524 42.9195051,4.25259048 L42.8957519,1.00017143 L42.4884291,0.955485714 C42.2649734,0.930952381 42.0696696,0.96512381 42.0573532,1.02908571" id="Fill-32"></path>
                                        <path d="M32.9471348,5.84874667 C33.3562171,6.29910857 33.0694196,6.92295619 32.3709006,7.09468952 C31.7577171,7.24627048 31.5518563,7.09118476 31.5456981,6.46908952 C31.5377804,5.59728 32.3796981,5.22314667 32.9471348,5.84874667 M31.2272297,4.88581333 C30.7996728,5.11625143 30.6483563,5.59728 30.6483563,6.73632762 C30.6483563,7.45918476 30.9852994,7.92093714 31.6741411,8.13823238 C32.0779449,8.26703238 33.0395082,7.99628952 33.5145715,7.62040381 C34.2201285,7.06402286 34.1673437,5.40802286 33.4248373,4.89282286 C33.0175146,4.60981333 31.7480399,4.60630857 31.2272297,4.88581333" id="Fill-34"></path>
                                        <path d="M37.1104487,5.76664762 C37.3462209,6.12238095 37.325107,6.23891429 36.908107,6.86013333 C36.8368475,6.96702857 36.5421323,7.10809524 36.2465373,7.17731429 C35.78555,7.2859619 35.6984551,7.26493333 35.6210373,7.02398095 C35.5163475,6.6980381 35.6685437,5.86828571 35.8805627,5.60367619 C36.1444867,5.27422857 36.8474044,5.36710476 37.1104487,5.76664762 M35.3236829,4.76165714 C34.9849804,5.09811429 34.8266259,5.44070476 34.6603538,6.19510476 C34.2855816,7.866 35.5691323,8.68260952 37.2239361,7.8292 C38.1758222,7.33765714 38.4608601,5.79205714 37.7649804,4.90885714 C37.4948981,4.56626667 37.3594171,4.52420952 36.5122209,4.52420952 C35.844493,4.52420952 35.4917146,4.59430476 35.3236829,4.76165714" id="Fill-36"></path>
                                        <path d="M28.5260551,6.0918019 C28.3905741,6.90490667 28.046593,7.33336381 27.5310614,7.33336381 C27.1087829,7.33336381 27.0859095,7.30532571 27.0859095,6.75770667 C27.0859095,6.03923048 27.5468968,5.60113524 28.331631,5.57046857 C28.5762006,5.56170667 28.602593,5.63443048 28.5260551,6.0918019 M27.1158209,4.96502095 C26.0759601,5.59850667 25.6598399,7.22646857 26.3733146,7.87484952 C26.9636247,8.41195429 27.5178652,8.44612571 28.5858778,8.00803048 C28.7838209,7.92742095 28.8383652,8.05797333 28.9210614,8.81149714 C29.0275108,9.78932571 28.9061057,10.1809829 28.4213652,10.4385829 C28.0087639,10.6576305 27.5310614,10.3807543 27.5310614,9.92250667 C27.5310614,9.66578286 27.4122956,9.49755429 27.146612,9.37401143 C26.8184665,9.22505905 26.7269728,9.24083048 26.5536627,9.4774019 C26.1683335,9.99961143 26.3733146,10.5673829 27.1888399,11.2481829 C27.8768019,11.8185829 28.6448209,11.6818971 29.388207,10.853021 L29.9362892,10.2466971 L29.8254411,8.60471619 C29.7638589,7.70399238 29.6996373,6.53865905 29.6838019,6.0182019 C29.6609285,5.29359238 29.5879095,5.02284952 29.3723715,4.86601143 C28.9624095,4.5654781 27.6788589,4.62155429 27.1158209,4.96502095" id="Fill-38"></path>
                                        <path d="M46.964669,3.89273905 C46.5063209,4.24934857 46.332131,4.92313905 46.5731816,5.3971581 C46.9752259,6.17696762 47.3068905,6.38287238 48.3291563,6.48889143 C49.5317703,6.61331048 49.6795677,6.68778667 49.2203399,6.93750095 C48.8050994,7.1626819 47.8356184,7.19072 47.454688,6.98832 C46.7860804,6.63433905 46.4218652,7.42466286 47.0077766,7.9538819 C47.2514665,8.17030095 47.4837196,8.20622476 48.2552576,8.14313905 C49.8291247,8.01346286 50.8654665,7.13902476 50.4220741,6.31365333 C50.2003778,5.89833905 49.6654918,5.66001524 48.7312006,5.55750095 C47.6913399,5.44447238 47.0350487,4.81799619 47.6913399,4.56740571 C48.062593,4.42458667 48.9133082,4.46401524 49.0162386,4.62786286 C49.1710741,4.87757714 49.6575741,4.7899581 49.751707,4.4946819 C49.8018525,4.33609143 49.7693019,4.05833905 49.6813272,3.89624381 C49.5405677,3.63426286 49.3698968,3.59220571 48.4338462,3.59220571 C47.5725741,3.59220571 47.2708209,3.65441524 46.964669,3.89273905" id="Fill-40"></path>
                                        <path d="M58.3945158,4.60981333 C58.7173829,4.81308952 58.4411424,5.20912762 57.9044968,5.31076571 C57.1039272,5.46147048 56.9614082,5.33792762 57.4153576,4.88581333 C57.8305981,4.47312762 58.0698892,4.40478476 58.3945158,4.60981333 M57.3124272,3.78006095 C56.1845918,4.40828952 55.7623133,5.84699429 56.3394272,7.10345143 C56.7863386,8.07777524 57.6968766,8.40634667 58.8255918,8.00154667 C59.5522627,7.73956571 59.7018196,6.85286095 59.0182563,6.85286095 C58.8704589,6.85286095 58.6953892,6.92295619 58.6470032,7.00093714 C58.5986171,7.07979429 58.2915854,7.14813714 57.9783956,7.14813714 C57.5649146,7.14813714 57.3581741,7.06928 57.2464462,6.86688 C57.0625791,6.5269181 57.0405854,6.21849905 57.2068576,6.32101333 C57.2745981,6.36219429 57.6388133,6.32714667 58.0232627,6.24390857 C59.3305665,5.96528 59.9499082,4.5949181 59.0780791,3.91148952 C58.6417247,3.56977524 57.8015665,3.50756571 57.3124272,3.78006095" id="Fill-42"></path>
                                        <path d="M53.6280475,5.0890019 C53.7556108,5.2914019 53.2963829,5.65064 52.9101741,5.65064 C52.5283639,5.65064 52.583788,5.22656381 52.9840728,5.06797333 C53.4283449,4.89010667 53.5040032,4.89273524 53.6280475,5.0890019 M52.4940538,4.28203048 C51.0389525,5.00839238 51.2175411,7.72984 52.7465411,8.11273524 C54.0230538,8.43254476 55.7350411,7.35132571 54.8394589,6.79056381 C54.6643892,6.68016381 54.4989968,6.72309714 54.2016424,6.95791619 C53.6966677,7.35483048 53.0782057,7.37761143 52.7430222,7.01048762 C52.4456677,6.68542095 52.4183956,6.50755429 52.6726424,6.55399238 C53.0729272,6.62759238 53.8295095,6.34633524 54.1866867,5.9906019 C54.7224525,5.45875429 54.7224525,4.74641143 54.1866867,4.33109714 C53.7089842,3.95784 53.1776171,3.94206857 52.4940538,4.28203048" id="Fill-44"></path>
                                        <path d="M63.6180127,5.28062476 C63.8960127,5.70820571 63.9303228,6.55197714 63.6778354,6.80256762 C63.2793101,7.1994819 61.7775823,6.80256762 61.7775823,6.30138667 C61.7775823,5.96054857 62.1901835,5.23418667 62.476981,5.06683429 C62.9221329,4.8083581 63.3637658,4.89159619 63.6180127,5.28062476 M63.9822278,0.727062857 C63.9716709,0.791024762 63.9769494,1.59887238 63.9963038,2.51536762 C64.0341329,4.25986286 64.0112595,4.30892952 63.3672848,4.01102476 C63.0822468,3.87872 62.8772658,3.90763429 62.3432595,4.15033905 C61.5356519,4.51746286 61.0368354,5.23593905 60.9303861,6.18222476 C60.7966646,7.3650819 61.6165886,7.86801524 63.6778354,7.86801524 C64.6728291,7.86801524 64.7502468,7.84523429 64.8074304,7.53506286 C64.839981,7.35193905 64.8549367,5.73887238 64.8452595,3.94881524 L64.8223861,0.697272381 L64.4133038,0.651710476 C64.1898481,0.628053333 63.9963038,0.661348571 63.9822278,0.727062857" id="Fill-46"></path>
                                        <path d="M14.5489013,4.5259619 C14.5119519,4.63110476 14.3984646,5.22165714 14.2964139,5.82710476 L14.1107873,6.9363619 L13.8283886,5.71057143 C13.5565468,4.5259619 13.5327937,4.48302857 13.1536228,4.5259619 C12.7999646,4.56626667 12.7339835,4.6740381 12.5087684,5.59140952 C12.3680089,6.15217143 12.2254899,6.64108571 12.1885405,6.67788571 C12.1524709,6.71380952 12.0724139,6.41853333 12.0134709,6.0347619 C11.8674329,5.07358095 11.7046797,4.7932 11.290319,4.7932 C10.8548443,4.7932 10.7264013,5.07358095 10.9049899,5.63521905 C10.9771291,5.86127619 11.151319,6.44131429 11.290319,6.91445714 C11.5014582,7.63906667 11.6219835,7.81693333 12.0328253,8.00706667 C12.6565658,8.29708571 12.9196101,8.18668571 13.0357367,7.58737143 L13.1316291,7.09933333 L13.3911544,7.60927619 C13.5785405,7.97815238 13.7606481,8.13148571 14.0518443,8.16390476 C14.3993443,8.20158095 14.5005152,8.11220952 14.8233823,7.47609524 C15.1084203,6.91708571 15.2043127,6.47022857 15.2386228,5.58352381 C15.2817304,4.47339048 15.2694139,4.42081905 14.9491861,4.37788571 C14.7714772,4.35510476 14.5840911,4.42432381 14.5489013,4.5259619" id="Fill-48"></path>
                                        <path d="M8.3056019,5.64599619 C8.70588671,6.04466286 8.88535506,6.60279619 8.70500696,6.8866819 C8.63198797,7.00146286 8.29856392,7.13026286 7.95722215,7.17582476 C7.48215886,7.2371581 7.26926013,7.19422476 7.02996899,6.9786819 C6.70358291,6.68953905 6.7352538,6.50291048 7.23670949,5.77917714 C7.63523481,5.20264381 7.83581709,5.1763581 8.3056019,5.64599619 M6.92615886,4.76980571 C6.36224114,5.24032 5.85726646,6.14104381 5.85726646,6.68077714 C5.85726646,7.61129143 7.25254494,8.40512 8.36542468,8.10809143 C9.09297532,7.91182476 9.71671582,7.30112 9.71671582,6.78416762 C9.71671582,5.61620571 8.95133608,4.58142476 7.99417152,4.45350095 C7.50591203,4.38691048 7.3176462,4.44298667 6.92615886,4.76980571" id="Fill-50"></path>
                                        <path d="M1.12677975,4.51649905 C0.668431646,4.87223238 0.491602532,5.54865143 0.737051899,6.0209181 C1.13733671,6.80072762 1.46812152,7.00663238 2.49302658,7.11265143 C3.69388101,7.23707048 3.84167848,7.31067048 3.38245063,7.56038476 C2.96721013,7.7864419 1.99860886,7.81448 1.61679873,7.61120381 C0.948191139,7.25809905 0.584855696,8.04842286 1.17164684,8.57676571 C1.41181772,8.79406095 1.64495063,8.82998476 2.41736835,8.76689905 C3.99123544,8.63634667 5.02757722,7.76278476 4.58418481,6.93741333 C4.36160886,6.52122286 3.82760253,6.28377524 2.89331139,6.18126095 C1.85345063,6.06823238 1.19715949,5.44263238 1.85345063,5.19116571 C2.2247038,5.04834667 3.07541899,5.08689905 3.17658987,5.25162286 C3.33318481,5.50221333 3.81968481,5.4128419 3.91205823,5.1184419 C3.96308354,4.95985143 3.93141266,4.68209905 3.84343797,4.52000381 C3.70267848,4.25802286 3.53200759,4.21596571 2.59683671,4.21596571 C1.73468481,4.21596571 1.43293165,4.27905143 1.12677975,4.51649905" id="Fill-52"></path>
                                    </g>
                                    <path d="M48.7086791,9.63678095 C49.3869639,9.79274286 50.6608373,10.2956762 51.5731348,10.7705714 C52.9217867,11.4724 53.3854133,11.8333905 54.1798247,12.8033333 C55.20385,14.0536571 56.5419449,16.6182667 57.0266854,18.2523619 C57.1867994,18.7929714 57.3152424,19.8689333 57.3152424,20.649619 C57.3152424,22.4107619 56.8568943,23.7110286 55.8205525,24.8807429 C54.849312,25.9751048 51.93735,28.404781 50.3133373,29.471981 L49.0385842,30.3113714 L45.8292677,30.318381 C41.9082361,30.3271429 40.8235082,30.0765524 39.4467044,28.842 C37.7030462,27.2806286 37.0775462,25.1900381 37.0335589,20.7775429 C37.0071665,18.1612381 37.1839956,17.4313714 38.4253184,15.037619 C39.5276411,12.9128571 41.0196918,11.4005524 42.8733184,10.5243619 C45.3542044,9.35377143 46.6298373,9.16013333 48.7086791,9.63678095 M44.8439513,8.6475619 C44.4595019,8.73693333 43.4029259,9.16714286 42.4730335,9.61312381 C40.2050462,10.7022286 38.6294196,12.3319429 37.3713816,14.8921714 C36.0675968,17.5461524 35.9074829,18.3618857 36.0368057,21.7028 C36.1977994,25.8620762 36.6341538,27.3183048 38.2572867,29.1127429 C39.9252867,30.9571238 41.0504829,31.284819 45.9374766,31.3540381 L49.2567614,31.4004762 L50.4954449,30.6513333 C52.0094892,29.7374667 55.8768563,26.4946857 56.8137867,25.3538857 C57.9618563,23.9554857 58.3172741,22.829581 58.3084766,20.612819 C58.3014386,18.4828 58.0920589,17.6714476 56.9061601,15.2014667 C56.2173184,13.7671429 55.4026728,12.5895429 54.1419956,11.2060381 C53.4892234,10.4919429 50.7329766,9.10405714 49.2022171,8.71853333 C48.0163184,8.42062857 45.9612297,8.38733333 44.8439513,8.6475619" id="Fill-56"></path>
                                    <path d="M71.800362,8.65702476 C73.0944696,9.26159619 74.2698114,10.2350438 74.7132038,11.0691771 C74.8574823,11.33992 75.2674443,12.3589295 75.6307797,13.3393867 C76.2729949,15.0830057 76.2853114,15.1644914 76.2131722,17.3076533 C76.1436722,19.3780914 76.1049633,19.5699771 75.4829823,20.8763771 C73.6715835,24.6807962 70.1596342,27.5897486 66.1110392,28.6429295 C64.2160646,29.1353486 63.3759063,29.1318438 63.2413051,28.631539 C63.1506911,28.2950819 63.0662354,28.26792 62.5375076,28.3975962 C61.4633367,28.6630819 60.6398937,28.5447962 59.4188051,27.9516152 C57.8528557,27.1884533 56.7549316,25.9617867 55.7106722,23.8002248 C54.7570266,21.8261676 54.4649506,20.0956914 54.7350329,18.0068533 C54.9664063,16.2080343 55.1969,15.6490248 56.3036215,14.1927962 C58.0631152,11.8752724 59.8753937,10.4497105 62.4460139,9.35972952 C66.1471089,7.79047238 69.4153684,7.54338667 71.800362,8.65702476 M66.949438,6.98963429 C65.4362734,7.2454819 62.8155076,8.0743581 61.3876785,8.74814857 C58.4167734,10.1518057 55.4546658,12.9284533 54.3013177,15.3914248 C53.803381,16.4524914 53.7400392,16.7898248 53.6661405,18.7332152 C53.6159949,20.0588914 53.671419,21.2873105 53.8086595,21.9111581 C54.147362,23.4374819 55.7572987,26.4007581 56.8288304,27.4688343 C57.9170772,28.5518057 59.5833177,29.4008343 60.8413557,29.5121105 C61.3516089,29.5576724 62.0747608,29.735539 62.483843,29.9169105 C64.0409949,30.6073486 67.7711215,29.725901 70.4877797,28.024339 C71.9648747,27.0999581 74.4431215,24.7894438 75.2744823,23.5645295 C76.745419,21.3950819 77.3436468,19.4061295 77.3436468,16.6811771 C77.3436468,15.3397295 77.2424759,14.8289105 76.6213747,13.0668914 C75.7768177,10.6696343 75.4416342,10.0773295 74.3533873,9.07672 C72.5375899,7.40582476 69.5218177,6.55592 66.949438,6.98963429" id="Fill-60"></path>
                                    <g id="Group-2" transform="translate(11.436709, 0.000000)">
                                        <path d="M20.4373987,1.64320762 C21.2766772,1.8017981 22.3649241,2.13913143 22.8804557,2.40023619 C24.1868797,3.06088381 26.3246646,5.17951238 27.5563101,7.03265524 C28.4369367,8.35833143 28.6427975,8.82534095 28.8337025,9.93897905 C29.1328165,11.6861029 28.9797405,13.2614933 28.2697848,15.7507505 C27.6275696,18.0016838 26.8252405,19.7444267 25.8372848,21.0350552 C25.4889051,21.4889219 24.9848101,22.202141 24.7340823,22.5973029 C23.831462,24.014979 20.3089557,26.470941 18.0488861,27.2603886 C16.4072785,27.8334171 13.9527848,28.1094171 12.7967975,27.850941 C12.3410886,27.7493029 11.7498987,27.6695695 11.5026899,27.676579 C8.82210127,27.75456 7.14442405,27.4224838 6.25060127,26.636541 C5.95148734,26.37456 5.00048101,25.3564267 4.15416456,24.3943695 C2.89172785,22.9600457 2.50024051,22.3668648 2.04805063,21.1980267 C1.07153165,18.6851124 0.905259494,16.6216838 1.38648101,13.0073981 C1.71462658,10.5374171 1.87386076,9.91269333 2.58117722,8.34080762 C3.37382911,6.57791238 4.93801899,5.09364571 7.12594937,4.03257905 C9.07722785,3.08541714 12.7457722,1.81318857 14.236943,1.56697905 C15.8609557,1.29974095 18.8142658,1.33654095 20.4373987,1.64320762 M14.602038,0.446331429 C11.9944684,0.782788571 6.45998101,2.91105524 4.64594304,4.27616 C3.13189873,5.41433143 2.50639873,6.1257981 1.85362658,7.4497219 C0.971240506,9.23890286 0.584151899,10.7012648 0.257765823,13.480541 C-0.156594937,16.9844267 0.0360696203,19.0259505 1.01874684,21.5791695 C1.67503797,23.2859886 1.81139873,23.4866362 3.69757595,25.5202743 C4.79374051,26.701379 5.95588608,27.7904838 6.28667089,27.9464457 C7.26055063,28.4020648 9.27781013,28.807741 10.3898101,28.7700648 C10.9554873,28.7507886 11.6390506,28.8278933 11.9214494,28.9435505 C12.2012089,29.0583314 13.2621835,29.15296 14.2642152,29.15296 C15.8336835,29.15296 16.3386582,29.0705981 17.7664873,28.5808076 C18.6779051,28.2688838 19.8884367,27.7720838 20.4373987,27.4864457 C21.969038,26.6882362 24.5502152,24.7124267 25.1853924,23.8502552 C25.5021013,23.4200457 26.1276013,22.5789029 26.5727532,21.9787124 C27.7067468,20.4558933 28.6947025,18.3285029 29.402019,15.8961981 C29.9571392,13.9904838 30.0090443,13.6067124 29.9914494,11.5362743 C29.9800127,9.99330286 29.885,9.03475048 29.6993734,8.54057905 C28.8768101,6.36149333 25.4431582,2.43528381 23.5367468,1.49513143 C21.4455886,0.462979048 17.7928797,0.0345219048 14.602038,0.446331429" id="Fill-54"></path>
                                        <path d="M18.0808209,4.91358857 C19.1567513,5.27545524 19.4145171,5.4533219 20.0224222,6.25766476 C21.5725361,8.30269333 21.5074348,11.3605981 19.8438335,14.6655886 C18.8268462,16.68696 17.8432892,17.1986552 15.1820551,17.096141 C14.1967386,17.0575886 13.1691943,16.9796076 12.9211057,16.921779 C12.1750804,16.7509219 11.3507576,16.0096648 10.7525297,14.9740076 C10.2352386,14.0794171 10.185093,13.8481029 10.185093,12.3226552 C10.185093,9.74402667 11.16865,6.28482667 12.1733209,5.33065524 C12.8243335,4.71118857 13.4859032,4.54296 15.3826373,4.51667429 C16.4585677,4.50002667 17.1667639,4.60429333 18.0808209,4.91358857 M14.6533272,3.48715048 C14.5521563,3.52307429 13.9961563,3.60456 13.4128842,3.67115048 C11.5671753,3.87880762 10.8343462,4.78566476 9.80064367,8.14585524 C9.30094747,9.77206476 9.21649177,10.324941 9.20065633,12.12376 C9.18394114,14.1381219 9.20241582,14.2493981 9.76457405,15.3192267 C10.7226184,17.1417029 12.1909158,18.1028838 14.0322259,18.1116457 C14.5794285,18.1133981 15.1187133,18.1983886 15.2181247,18.2973981 C15.4503778,18.5295886 17.2600171,18.2684838 18.2268589,17.8636838 C18.5910741,17.7112267 19.2851943,17.1539695 19.7848905,16.608979 C20.9760677,15.3157219 22.01065,12.7414743 22.1654854,10.68856 C22.299207,8.89061714 21.8901247,6.88676952 21.2215171,6.07541714 C20.9523146,5.7485981 20.5652259,5.27107429 20.335612,4.98543619 C19.8262386,4.3493219 17.8432892,3.66414095 16.1119475,3.52570286 C15.4002323,3.46962667 14.7544981,3.45210286 14.6533272,3.48715048" id="Fill-62"></path>
                                    </g>
                                    <path d="M45.407957,14.8921714 C45.7756911,15.0446286 46.4117481,15.4485524 46.849862,15.8051619 C48.5539316,17.1983048 48.8310519,20.7941905 47.3768304,22.6841333 C46.8102734,23.4201333 46.1020772,23.704019 44.8062101,23.712781 C44.3205899,23.7154095 43.4390835,23.7294286 42.8734063,23.740819 C41.6892671,23.7644762 41.095438,23.4656952 40.5227228,22.5562095 C40.2139316,22.066419 40.1655456,21.7212 40.2121722,20.3412 C40.2684759,18.5967048 40.1796215,18.7973524 42.2567038,15.7832571 C42.5540582,15.3486667 43.9132671,14.6196762 44.4252797,14.6196762 C44.6056278,14.6196762 45.0437418,14.7414667 45.407957,14.8921714 M42.5452608,14.2963619 C41.8344253,14.7204381 41.4112671,15.1357524 41.0884,15.7280571 C40.8394316,16.1828 40.3582101,16.9030286 40.0318241,17.3078286 C39.3834506,18.1130476 39.0816975,19.269619 39.0816975,20.9396381 C39.0816975,22.1023429 39.5347671,23.1861905 40.3388557,23.9502286 C41.0145013,24.5889714 42.6912987,25.0437143 43.5296975,24.8150286 C43.8684,24.7230286 44.5334886,24.6897333 44.9900772,24.7423048 C46.7099823,24.9412 48.3718241,23.7732381 49.004362,21.9200952 C49.3791342,20.8283619 49.3615392,18.7062286 48.9682924,17.2903048 C48.7254823,16.417619 48.4729949,15.9865333 47.8527734,15.3819619 C46.0475329,13.620819 44.2897987,13.2633333 42.5452608,14.2963619" id="Fill-64"></path>
                                    <g id="Group-3" transform="translate(0.000000, 13.142857)">
                                        <path d="M10.4053816,1.47208762 C11.6818943,2.1266019 12.6065082,2.92919238 13.4853753,4.1506019 L14.3624829,5.36675429 L14.4504576,7.23742095 C14.5542677,9.43578286 14.3246538,10.3391352 13.354293,11.5605448 C11.8147361,13.4978019 7.30603354,14.8769257 5.00813481,14.11464 C3.60141962,13.6476305 2.72343228,12.7766971 2.06538165,11.1969257 C1.59559684,10.0657638 1.50674241,9.6162781 1.50674241,8.36332571 C1.50674241,4.25924952 3.39291962,1.64294476 6.72188165,1.12949714 C8.12507785,0.912201905 9.57666013,1.04888762 10.4053816,1.47208762 M5.70049557,0.290106667 C2.27036266,1.23639238 0.26278038,4.47742095 0.459843671,8.74534476 C0.530223418,10.2523924 0.621717089,10.6422971 1.18563481,11.8312876 C1.92726139,13.3935352 2.83603987,14.3468305 4.15126139,14.94264 C5.44272975,15.5279352 7.85323608,15.5375733 9.60305253,14.9645448 C11.7540335,14.2609638 13.291831,13.3453448 14.1627804,12.2501067 C15.3653943,10.7369257 15.6038057,9.87124952 15.5237487,7.30926857 L15.4560082,5.14945905 L14.5683437,3.85970667 C13.4950525,2.29745905 12.4006475,1.30911619 10.9349892,0.575744762 C9.94791329,0.0815733333 9.67607152,0.0298780952 8.1805019,0.0456495238 C7.26996392,0.0561638095 6.1518057,0.16656381 5.70049557,0.290106667" id="Fill-58"></path>
                                        <path d="M7.56080823,4.14946286 C7.97252975,4.51921524 7.99628291,5.69418667 7.60303608,6.29262476 C7.35758671,6.66763429 7.1508462,6.74736762 6.42065633,6.74736762 C5.85585886,6.74736762 5.43094114,6.64310095 5.24531456,6.45734857 C4.65324494,5.86679619 5.09927658,4.1818819 5.93767532,3.83753905 C6.43033354,3.63513905 7.14028924,3.77094857 7.56080823,4.14946286 M4.96203608,3.44150095 C4.00751076,4.39830095 3.73302975,5.40416762 4.13859304,6.45734857 C4.48785253,7.35982476 4.84327025,7.56222476 6.41185886,7.74447238 C7.54233354,7.87590095 7.99452342,7.65247238 8.61298544,6.65624381 C8.94377025,6.12439619 9.00535253,5.8203581 8.93937152,5.02127238 C8.85051709,3.91376762 8.50125759,3.39769143 7.57928291,3.0042819 C6.50335253,2.54603429 5.72301709,2.67658667 4.96203608,3.44150095" id="Fill-66"></path>
                                    </g>
                                    <path d="M71.4171443,11.3035581 C72.8669671,12.1324343 73.0481949,12.467139 73.1150557,14.4473295 C73.1968722,16.8629867 72.7913089,18.0440914 71.4549734,19.2865295 C70.4151127,20.2512152 69.4289165,20.7620343 68.1356886,21.0073676 C67.4063785,21.1458057 67.272657,21.1221486 67.1143025,20.8216152 C66.9893785,20.58592 66.7316127,20.4772724 66.2934987,20.4772724 C65.2747519,20.4772724 64.2947139,19.8595581 63.5557266,18.7511771 C62.7041316,17.4754438 62.6038405,16.662339 63.102657,15.0466438 C63.5460494,13.61232 64.5542392,12.2069105 65.6750367,11.4656533 C66.9304354,10.63152 70.0869671,10.543901 71.4171443,11.3035581 M66.6761886,9.93056762 C65.1727013,10.295939 63.7052835,11.5234819 62.664543,13.2846248 C62.0627962,14.3027581 61.6141253,16.3179962 61.7636823,17.3159771 C61.9853785,18.7695771 63.9533722,21.2027581 64.9070177,21.2027581 C65.0372203,21.2027581 65.3565684,21.4305676 65.6090557,21.7021867 C66.0410114,22.1656914 66.1747329,22.2016152 67.4706,22.1928533 C68.655619,22.1849676 69.0541443,22.0929676 70.1230367,21.5830248 C71.8007139,20.7821867 73.1608025,19.4354819 73.7212013,18.0248152 C74.0924544,17.0872914 74.1505177,16.6448152 74.1373215,14.8459962 C74.1197266,12.4864152 73.9569734,12.0001295 72.8590494,11.0380724 C71.7285747,10.047101 70.7969228,9.75182476 68.9019481,9.7763581 C67.9720557,9.78862476 66.980581,9.85696762 66.6761886,9.93056762" id="Fill-68"></path>
                                </g>
                                <path d="M5.60539494,33.8646743 C5.72504051,33.9768267 6.22121772,33.9426552 6.72971139,33.7875695 C7.32969873,33.6053219 8.1029962,33.637741 9.00033797,33.8830743 C11.2560089,34.5016648 12.2677177,36.11736 12.2043759,38.9886362 C12.1480722,41.4936648 10.6445848,43.4063886 7.91648987,44.4490552 C6.58719241,44.9563695 6.23529367,44.9940457 5.37402152,44.7215505 C4.83297722,44.548941 4.05264177,44.080179 3.66819241,43.6955314 C2.25355949,42.2778552 1.58671139,38.1571314 2.48053418,36.3723314 C2.72774304,35.8834171 3.38755316,35.12376 3.98402152,34.6471124 C5.23854051,33.6386171 5.31947722,33.600941 5.60539494,33.8646743 M3.81423038,32.9613219 C2.29490759,33.8900838 1.31047089,34.9161029 0.915464557,35.9771695 C0.129850633,38.090541 0.538053165,42.4758743 1.65269241,43.859379 C2.60721772,45.0483695 3.74561013,45.8334362 5.06611013,46.2215886 C6.12532532,46.5308838 6.55992025,46.5142362 7.89361646,46.1076838 C9.95486329,45.4803314 10.8152557,44.9134362 12.2386861,43.2416648 C13.5495089,41.7004457 13.9893823,40.0829981 13.785281,37.5586933 C13.6480405,35.8308457 12.6442494,33.9330171 11.4653886,33.1672267 C9.26074304,31.7372838 5.95465443,31.6479124 3.81423038,32.9613219" id="Fill-70"></path>
                                <path d="M39.7781051,16.4948114 C39.6760544,16.7524114 39.5045038,18.6721448 39.3989342,20.74784 C39.1156557,26.373859 39.1605228,26.2914971 37.5497063,24.1465829 C36.7843266,23.1266971 35.6925608,21.5469257 35.1189658,20.6321829 C34.5488899,19.71744 33.9788139,18.8079543 33.8547696,18.609059 C33.7307253,18.4127924 33.3374785,18.3812495 32.988219,18.5407162 C31.8058392,19.0786971 32.9398329,21.295459 37.8813709,28.1008305 C38.4883962,28.9384686 38.9476241,29.2547733 39.5264975,29.2337448 C39.9522949,29.2179733 40.4097633,29.0401067 40.5003772,28.8552305 C40.9754405,27.8861638 41.6845165,16.5193448 41.3009468,16.0164114 C41.1645861,15.8385448 40.8135671,15.7693257 40.5109342,15.8604495 C40.2074215,15.9533257 39.8827949,16.2337067 39.7781051,16.4948114" id="Fill-72"></path>
                                <path d="M53.3565576,17.2075924 C53.9512665,17.8778781 53.511393,18.9275543 52.5348741,19.1632495 C52.0642095,19.2771543 51.4087981,19.4760495 51.0612981,19.6074781 C50.7173171,19.7389067 50.0372728,19.8151352 49.56045,19.777459 C48.8936019,19.7231352 48.6833424,19.5443924 48.667507,19.0142971 C48.65695,18.6357829 48.7519627,18.1451162 48.8786462,17.9348305 C49.4768741,16.9403543 52.6571589,16.4234019 53.3565576,17.2075924 M49.0053297,15.3386781 C48.4713234,15.51304 47.7956778,15.9336114 47.5062411,16.271821 C46.8754627,17.0086971 46.3660892,20.1840114 46.6124184,21.8478971 C47.0505323,24.7918971 49.5525323,26.6476686 52.9386778,26.5407733 C55.9131019,26.447021 58.0315323,25.0775352 58.8901652,22.6978019 C59.35995,21.3896495 59.092507,20.7044686 58.1256652,20.7316305 C57.5547095,20.7482781 57.2309627,21.0715924 56.8271589,22.0301448 C56.3037095,23.2787162 55.335988,23.9936876 53.4823614,24.5045067 C52.1935323,24.8584876 49.849007,23.9568876 49.2542981,22.877421 C48.6024057,21.6971924 48.6120829,21.6674019 49.6325892,21.7243543 C50.7428297,21.7856876 53.6627095,20.9506781 54.5961209,20.3040495 C56.1708677,19.2140686 55.965007,16.143021 54.2635766,15.3194019 C53.2501082,14.8269829 50.5422475,14.8383733 49.0053297,15.3386781" id="Fill-74"></path>
                                <path d="M22.5791424,15.3953676 C22.5245981,16.2040914 23.1342627,16.7885105 23.7113766,16.4800914 C24.0210475,16.3153676 24.1116614,15.953501 23.9638639,15.4689676 C23.6973006,14.5945295 22.6372057,14.5384533 22.5791424,15.3953676" id="Fill-76"></path>
                                <path d="M24.8404437,21.5662895 C24.8351652,21.7853371 25.524007,24.39288 26.3659247,27.3342514 C27.9899373,33.0075848 28.213393,33.3869752 29.1811146,32.1690705 C29.898988,31.2674705 29.6860892,30.0180229 28.0576778,25.5669752 C27.0055006,22.6895657 26.427507,21.4760419 26.003469,21.2569943 C25.2952728,20.892499 24.8545196,21.0099086 24.8404437,21.5662895" id="Fill-78"></path>
                                <path d="M11.446562,11.7228152 C11.4034544,11.9436152 12.9949165,16.8380152 14.9928215,22.6243771 C16.9907266,28.4124914 18.8760241,34.0350057 19.1927329,35.1503962 C19.6941886,36.9167962 19.8543025,37.187539 20.4463722,37.2725295 C21.5434165,37.4293676 21.7976633,36.6889867 21.2434228,34.942739 C19.8578215,30.5758057 13.1629481,11.5686057 12.9087013,11.2794629 C12.5506443,10.8737867 11.5565304,11.1760724 11.446562,11.7228152" id="Fill-80"></path>
                                <path d="M96.142869,0.744849524 C95.989793,0.911325714 94.7906981,5.91524952 93.4710778,11.892621 C92.1514576,17.8699924 90.8212804,23.6475924 90.5089703,24.7656114 C90.0136728,26.5328876 90.0083943,26.8465638 90.4693816,27.2268305 C91.3244956,27.928659 91.9280019,27.4274781 92.3678753,25.6488114 C93.4693184,21.2038971 97.6894639,1.50450667 97.6226032,1.12511619 C97.5275905,0.593268571 96.5229196,0.334792381 96.142869,0.744849524" id="Fill-82"></path>
                                <path d="M105.127635,2.39454095 C104.610344,3.28036952 101.502199,14.180179 100.120996,19.9472648 C99.2887557,23.4143505 98.4644329,26.7824267 98.2788063,27.4535886 C97.9955278,28.4883695 98.0430342,28.7082933 98.6016734,28.9212076 C99.0380278,29.0876838 99.4743823,28.9623886 99.9089772,28.5461981 C100.465857,28.0117219 100.911009,26.4468457 102.964338,17.8242552 C104.287477,12.27096 105.663401,6.56082667 106.027616,5.13088381 C106.656635,2.65301714 106.656635,2.51983619 106.01618,2.27713143 C105.657243,2.1421981 105.242882,2.19564571 105.127635,2.39454095" id="Fill-84"></path>
                                <path d="M123.990639,32.5007086 C123.559563,33.4513752 122.927025,34.6684038 122.600639,35.1792229 C122.021766,36.0843276 121.955785,36.0974705 120.68631,35.6103086 C119.386044,35.1135086 119.373728,35.0959848 119.669323,34.039299 C120.308019,31.7506895 122.868962,29.6890133 124.167468,30.4162514 C124.736665,30.7334324 124.722589,30.8885181 123.990639,32.5007086 M123.193589,28.2809752 C121.441133,28.4921371 120.675753,28.9521371 119.22593,30.6607086 C117.646785,32.5217371 117.091665,33.9420419 117.365266,35.4201752 C117.542095,36.376099 117.816576,36.7169371 118.904823,37.3285181 C119.71243,37.7806324 120.61593,38.0750324 121.225595,38.0811657 L122.222348,38.0908038 L121.31357,40.0070324 C120.298342,42.1528229 119.631494,42.7915657 118.140323,43.04128 C116.229513,43.3628419 115.252994,42.484899 114.634532,39.8817371 C114.457703,39.1387276 114.329259,39.0423467 113.644816,39.1334705 C112.649823,39.26928 112.378861,39.9982705 112.753633,41.5272229 C113.480304,44.480861 116.057082,45.8021562 119.267278,44.8681371 C121.705057,44.159299 122.209152,43.4925181 124.234329,38.2870705 C125.196772,35.8162133 126.121386,33.753661 126.301734,33.6739276 C126.892924,33.4119467 127.198196,31.9215467 126.87181,30.883261 C126.585013,29.9641371 125.315538,28.41328 124.681241,28.206499 C124.549278,28.1644419 123.868354,28.1977371 123.193589,28.2809752" id="Fill-86"></path>
                                <path d="M112.875214,25.8762705 C111.787847,27.8582133 111.200176,28.3961943 109.392296,29.0603467 C107.270347,29.8401562 107.028416,29.3678895 108.402581,27.1353562 C109.311359,25.658099 109.956214,25.0088419 111.148271,24.3692229 C112.02098,23.9022133 112.956151,23.6621371 113.273739,23.82248 C113.763758,24.0704419 113.706575,24.3578324 112.875214,25.8762705 M112.339448,21.6048419 C109.967651,22.1542133 108.002296,23.6507467 106.588543,25.9814133 C104.975087,28.6459086 104.748113,29.7069752 105.593549,30.634861 C106.527841,31.6600038 107.529872,31.822099 109.591999,31.2832419 C111.15003,30.8758133 111.413075,30.90648 111.649727,31.5294514 C111.988429,32.4231657 112.878733,32.8814133 113.387227,32.4257943 C113.621239,32.2137562 113.915075,31.1097562 114.043518,29.9470514 C114.218587,28.3760419 114.531777,27.4648038 115.28572,26.3038514 C116.194499,24.9054514 116.256961,24.6303276 115.91298,23.4553562 C115.431758,21.8238895 114.184277,21.177261 112.339448,21.6048419" id="Fill-88"></path>
                                <path d="M84.7731968,7.90753143 C84.3456399,8.59621714 84.6095639,9.39617905 85.2676146,9.39355048 C85.6168741,9.3909219 85.8676019,9.11229333 85.9643741,8.61724571 C86.1359247,7.71827429 85.2253867,7.17591238 84.7731968,7.90753143" id="Fill-90"></path>
                                <path d="M83.8813975,14.4164876 C83.7731886,14.606621 83.1617646,17.2316876 82.5274671,20.2265067 C81.3054987,25.9979733 81.3230937,26.4386971 82.7509228,25.8104686 C83.8074987,25.3469638 84.2042646,24.1430781 84.8508785,19.4493257 C85.2678785,16.4150781 85.3268215,15.0727543 85.0549797,14.6837257 C84.5992709,14.03184 84.1549987,13.9293257 83.8813975,14.4164876" id="Fill-92"></path>
                                <path d="M75.5787867,13.0045943 C75.4125146,13.2271467 74.7544639,15.0391086 74.1201665,17.019299 C72.4020209,22.3859657 72.4671222,22.3176229 71.4580525,19.8327467 C70.98035,18.6525181 70.3310968,16.8484419 70.0135082,15.8171657 C69.6941601,14.7876419 69.3774513,13.762499 69.308831,13.5381943 C69.2402108,13.3182705 68.8671981,13.1868419 68.488907,13.25168 C67.2079956,13.4716038 67.7349639,15.9021562 70.764812,23.7405562 C71.1369449,24.7052419 71.4994006,25.1275657 72.0650778,25.2546133 C72.4794386,25.3474895 72.9668184,25.2922895 73.1031791,25.1372038 C73.8122551,24.3205943 77.4156981,13.5127848 77.172888,12.9283657 C77.0875525,12.7215848 76.7646854,12.5656229 76.4479766,12.5770133 C76.1321475,12.5884038 75.7450589,12.7794133 75.5787867,13.0045943" id="Fill-94"></path>
                                <path d="M136.767554,38.5133905 C136.700694,39.4053524 135.63532,39.8197905 134.786365,39.2853143 C134.375523,39.0268381 133.778175,38.6947619 133.439472,38.5361714 C133.107808,38.3837143 132.5782,37.9473714 132.274687,37.5811238 C131.851529,37.0659238 131.834814,36.7899238 132.205187,36.4114095 C132.469991,36.1406667 132.89139,35.8672952 133.131561,35.8129714 C134.265554,35.5492381 136.850251,37.4689714 136.767554,38.5133905 M135.092516,34.0991429 C134.597219,33.8362857 133.822162,33.6452762 133.380529,33.6733143 C132.406649,33.7337714 129.76213,35.5755238 128.731067,36.9099619 C126.911751,39.2686667 127.308516,42.3502286 129.740137,44.7010476 C131.875282,46.7653524 134.335934,47.3313714 136.650548,46.2913333 C137.920903,45.7200571 138.231453,45.0506476 137.539092,44.375981 C137.13177,43.980819 136.671662,43.9729333 135.698662,44.3505714 C134.434466,44.8429905 133.243289,44.6476 131.586725,43.6741524 C130.436016,42.9977333 129.457738,40.6924762 129.823713,39.5166286 C130.223118,38.2286286 130.252149,38.2154857 130.918997,38.984781 C131.647428,39.8241714 134.277871,41.3347238 135.39427,41.5537714 C137.276048,41.9235238 139.350491,39.6410476 138.76458,37.8492381 C138.411801,36.7820381 136.523865,34.8517905 135.092516,34.0991429" id="Fill-96"></path>
                            </g>
                        </g>
                    </g>
                </g>
            </g>
        </g>
    </g>
</svg>