<?xml version="1.0" encoding="UTF-8"?>
<svg width="158px" height="105px" viewBox="0 0 158 105" version="1.1" xmlns="http://www.w3.org/2000/svg" xmlns:xlink="http://www.w3.org/1999/xlink">
    <!-- Generator: Sketch 52.3 (67297) - http://www.bohemiancoding.com/sketch -->
    <title>logo</title>
    <desc>Created with Sketch.</desc>
    <g id="Symbols" stroke="none" stroke-width="1" fill="none" fill-rule="evenodd">
        <g id="logo" fill="#6F6F6F">
            <g id="Group-5">
                <g id="Group" transform="translate(35.000000, 52.000000)">
                    <g id="Group-4" transform="translate(7.000000, 39.000000)">
                        <path d="M24.0738,5.9448 C24.2048,6.0778 23.8848,7.7518 23.6778,8.0048 C23.5778,8.1258 23.2788,8.2228 23.0098,8.2228 C22.5608,8.2228 22.5188,8.1738 22.5188,7.6318 C22.5188,6.9738 22.8868,6.1178 23.2278,5.9798 C23.5328,5.8548 23.9658,5.8388 24.0738,5.9448 M22.4058,5.2188 C21.7828,5.8978 21.5078,6.6548 21.5078,7.6828 C21.5078,8.4598 21.5818,8.7458 21.8448,8.9848 C22.3318,9.4238 23.3288,9.4408 24.0898,9.0228 C24.6128,8.7348 24.7848,8.7118 25.1518,8.8768 C25.7758,9.1588 26.1998,9.1088 26.3988,8.7288 C26.6148,8.3258 26.4858,8.0538 26.0798,8.0538 C25.7418,8.0538 25.2198,7.5618 25.2198,7.2458 C25.2198,7.1268 25.2828,7.0418 25.3728,7.0418 C25.6828,7.0418 25.7288,6.1988 25.4418,5.7588 C24.8448,4.8478 23.0408,4.5278 22.4058,5.2188" id="Fill-30"></path>
                        <path d="M47.3902,6.3725 C47.7082,6.8615 47.7452,7.8245 47.4582,8.1105 C47.0052,8.5635 45.3002,8.1105 45.3002,7.5365 C45.3002,7.1495 45.7672,6.3185 46.0932,6.1295 C46.5992,5.8335 47.1032,5.9285 47.3902,6.3725 M47.8062,1.1745 C47.7922,1.2485 47.7982,2.1705 47.8222,3.2165 C47.8652,5.2075 47.8392,5.2645 47.1052,4.9235 C46.7832,4.7725 46.5482,4.8055 45.9432,5.0835 C45.0252,5.5025 44.4582,6.3205 44.3352,7.4025 C44.1832,8.7525 45.1152,9.3265 47.4582,9.3265 C48.5912,9.3265 48.6812,9.3005 48.7422,8.9455 C48.7792,8.7375 48.7982,6.8945 48.7862,4.8535 L48.7592,1.1415 L48.2962,1.0905 C48.0422,1.0625 47.8202,1.1015 47.8062,1.1745" id="Fill-32"></path>
                        <path d="M37.4507,6.6752 C37.9157,7.1892 37.5897,7.9012 36.7957,8.0972 C36.0987,8.2702 35.8647,8.0932 35.8577,7.3832 C35.8487,6.3882 36.8057,5.9612 37.4507,6.6752 M35.4957,5.5762 C35.0097,5.8392 34.8377,6.3882 34.8377,7.6882 C34.8377,8.5132 35.2207,9.0402 36.0037,9.2882 C36.4627,9.4352 37.5557,9.1262 38.0957,8.6972 C38.8977,8.0622 38.8377,6.1722 37.9937,5.5842 C37.5307,5.2612 36.0877,5.2572 35.4957,5.5762" id="Fill-34"></path>
                        <path d="M42.1831,6.5815 C42.4511,6.9875 42.4271,7.1205 41.9531,7.8295 C41.8721,7.9515 41.5371,8.1125 41.2011,8.1915 C40.6771,8.3155 40.5781,8.2915 40.4901,8.0165 C40.3711,7.6445 40.5441,6.6975 40.7851,6.3955 C41.0851,6.0195 41.8841,6.1255 42.1831,6.5815 M40.1521,5.4345 C39.7671,5.8185 39.5871,6.2095 39.3981,7.0705 C38.9721,8.9775 40.4311,9.9095 42.3121,8.9355 C43.3941,8.3745 43.7181,6.6105 42.9271,5.6025 C42.6201,5.2115 42.4661,5.1635 41.5031,5.1635 C40.7441,5.1635 40.3431,5.2435 40.1521,5.4345" id="Fill-36"></path>
                        <path d="M32.4253,6.9526 C32.2713,7.8806 31.8803,8.3696 31.2943,8.3696 C30.8143,8.3696 30.7883,8.3376 30.7883,7.7126 C30.7883,6.8926 31.3123,6.3926 32.2043,6.3576 C32.4823,6.3476 32.5123,6.4306 32.4253,6.9526 M30.8223,5.6666 C29.6403,6.3896 29.1673,8.2476 29.9783,8.9876 C30.6493,9.6006 31.2793,9.6396 32.4933,9.1396 C32.7183,9.0476 32.7803,9.1966 32.8743,10.0566 C32.9953,11.1726 32.8573,11.6196 32.3063,11.9136 C31.8373,12.1636 31.2943,11.8476 31.2943,11.3246 C31.2943,11.0316 31.1593,10.8396 30.8573,10.6986 C30.4843,10.5286 30.3803,10.5466 30.1833,10.8166 C29.7453,11.4126 29.9783,12.0606 30.9053,12.8376 C31.6873,13.4886 32.5603,13.3326 33.4053,12.3866 L34.0283,11.6946 L33.9023,9.8206 C33.8323,8.7926 33.7593,7.4626 33.7413,6.8686 C33.7153,6.0416 33.6323,5.7326 33.3873,5.5536 C32.9213,5.2106 31.4623,5.2746 30.8223,5.6666" id="Fill-38"></path>
                        <path d="M53.3843,4.4428 C52.8633,4.8498 52.6653,5.6188 52.9393,6.1598 C53.3963,7.0498 53.7733,7.2848 54.9353,7.4058 C56.3023,7.5478 56.4703,7.6328 55.9483,7.9178 C55.4763,8.1748 54.3743,8.2068 53.9413,7.9758 C53.1813,7.5718 52.7673,8.4738 53.4333,9.0778 C53.7103,9.3248 53.9743,9.3658 54.8513,9.2938 C56.6403,9.1458 57.8183,8.1478 57.3143,7.2058 C57.0623,6.7318 56.4543,6.4598 55.3923,6.3428 C54.2103,6.2138 53.4643,5.4988 54.2103,5.2128 C54.6323,5.0498 55.5993,5.0948 55.7163,5.2818 C55.8923,5.5668 56.4453,5.4668 56.5523,5.1298 C56.6093,4.9488 56.5723,4.6318 56.4723,4.4468 C56.3123,4.1478 56.1183,4.0998 55.0543,4.0998 C54.0753,4.0998 53.7323,4.1708 53.3843,4.4428" id="Fill-40"></path>
                        <path d="M66.3765,5.2612 C66.7435,5.4932 66.4295,5.9452 65.8195,6.0612 C64.9095,6.2332 64.7475,6.0922 65.2635,5.5762 C65.7355,5.1052 66.0075,5.0272 66.3765,5.2612 M65.1465,4.3142 C63.8645,5.0312 63.3845,6.6732 64.0405,8.1072 C64.5485,9.2192 65.5835,9.5942 66.8665,9.1322 C67.6925,8.8332 67.8625,7.8212 67.0855,7.8212 C66.9175,7.8212 66.7185,7.9012 66.6635,7.9902 C66.6085,8.0802 66.2595,8.1582 65.9035,8.1582 C65.4335,8.1582 65.1985,8.0682 65.0715,7.8372 C64.8625,7.4492 64.8375,7.0972 65.0265,7.2142 C65.1035,7.2612 65.5175,7.2212 65.9545,7.1262 C67.4405,6.8082 68.1445,5.2442 67.1535,4.4642 C66.6575,4.0742 65.7025,4.0032 65.1465,4.3142" id="Fill-42"></path>
                        <path d="M60.9585,5.8081 C61.1035,6.0391 60.5815,6.4491 60.1425,6.4491 C59.7085,6.4491 59.7715,5.9651 60.2265,5.7841 C60.7315,5.5811 60.8175,5.5841 60.9585,5.8081 M59.6695,4.8871 C58.0155,5.7161 58.2185,8.8221 59.9565,9.2591 C61.4075,9.6241 63.3535,8.3901 62.3355,7.7501 C62.1365,7.6241 61.9485,7.6731 61.6105,7.9411 C61.0365,8.3941 60.3335,8.4201 59.9525,8.0011 C59.6145,7.6301 59.5835,7.4271 59.8725,7.4801 C60.3275,7.5641 61.1875,7.2431 61.5935,6.8371 C62.2025,6.2301 62.2025,5.4171 61.5935,4.9431 C61.0505,4.5171 60.4465,4.4991 59.6695,4.8871" id="Fill-44"></path>
                        <path d="M72.314,6.0268 C72.63,6.5148 72.669,7.4778 72.382,7.7638 C71.929,8.2168 70.222,7.7638 70.222,7.1918 C70.222,6.8028 70.691,5.9738 71.017,5.7828 C71.523,5.4878 72.025,5.5828 72.314,6.0268 M72.728,0.8298 C72.716,0.9028 72.722,1.8248 72.744,2.8708 C72.787,4.8618 72.761,4.9178 72.029,4.5778 C71.705,4.4268 71.472,4.4598 70.865,4.7368 C69.947,5.1558 69.38,5.9758 69.259,7.0558 C69.107,8.4058 70.039,8.9798 72.382,8.9798 C73.513,8.9798 73.601,8.9538 73.666,8.5998 C73.703,8.3908 73.72,6.5498 73.709,4.5068 L73.683,0.7958 L73.218,0.7438 C72.964,0.7168 72.744,0.7548 72.728,0.8298" id="Fill-46"></path>
                        <path d="M16.5376,5.1655 C16.4956,5.2855 16.3666,5.9595 16.2506,6.6505 L16.0396,7.9165 L15.7186,6.5175 C15.4096,5.1655 15.3826,5.1165 14.9516,5.1655 C14.5496,5.2115 14.4746,5.3345 14.2186,6.3815 C14.0586,7.0215 13.8966,7.5795 13.8546,7.6215 C13.8136,7.6625 13.7226,7.3255 13.6556,6.8875 C13.4896,5.7905 13.3046,5.4705 12.8336,5.4705 C12.3386,5.4705 12.1926,5.7905 12.3956,6.4315 C12.4776,6.6895 12.6756,7.3515 12.8336,7.8915 C13.0736,8.7185 13.2106,8.9215 13.6776,9.1385 C14.3866,9.4695 14.6856,9.3435 14.8176,8.6595 L14.9266,8.1025 L15.2216,8.6845 C15.4346,9.1055 15.6416,9.2805 15.9726,9.3175 C16.3676,9.3605 16.4826,9.2585 16.8496,8.5325 C17.1736,7.8945 17.2826,7.3845 17.3216,6.3725 C17.3706,5.1055 17.3566,5.0455 16.9926,4.9965 C16.7906,4.9705 16.5776,5.0495 16.5376,5.1655" id="Fill-48"></path>
                        <path d="M9.4409,6.4438 C9.8959,6.8988 10.0999,7.5358 9.8949,7.8598 C9.8119,7.9908 9.4329,8.1378 9.0449,8.1898 C8.5049,8.2598 8.2629,8.2108 7.9909,7.9648 C7.6199,7.6348 7.6559,7.4218 8.2259,6.5958 C8.6789,5.9378 8.9069,5.9078 9.4409,6.4438 M7.8729,5.4438 C7.2319,5.9808 6.6579,7.0088 6.6579,7.6248 C6.6579,8.6868 8.2439,9.5928 9.5089,9.2538 C10.3359,9.0298 11.0449,8.3328 11.0449,7.7428 C11.0449,6.4098 10.1749,5.2288 9.0869,5.0828 C8.5319,5.0068 8.3179,5.0708 7.8729,5.4438" id="Fill-50"></path>
                        <path d="M1.2808,5.1547 C0.7598,5.5607 0.5588,6.3327 0.8378,6.8717 C1.2928,7.7617 1.6688,7.9967 2.8338,8.1177 C4.1988,8.2597 4.3668,8.3437 3.8448,8.6287 C3.3728,8.8867 2.2718,8.9187 1.8378,8.6867 C1.0778,8.2837 0.6648,9.1857 1.3318,9.7887 C1.6048,10.0367 1.8698,10.0777 2.7478,10.0057 C4.5368,9.8567 5.7148,8.8597 5.2108,7.9177 C4.9578,7.4427 4.3508,7.1717 3.2888,7.0547 C2.1068,6.9257 1.3608,6.2117 2.1068,5.9247 C2.5288,5.7617 3.4958,5.8057 3.6108,5.9937 C3.7888,6.2797 4.3418,6.1777 4.4468,5.8417 C4.5048,5.6607 4.4688,5.3437 4.3688,5.1587 C4.2088,4.8597 4.0148,4.8117 2.9518,4.8117 C1.9718,4.8117 1.6288,4.8837 1.2808,5.1547" id="Fill-52"></path>
                    </g>
                    <path d="M55.3667,10.9985 C56.1377,11.1765 57.5857,11.7505 58.6227,12.2925 C60.1557,13.0935 60.6827,13.5055 61.5857,14.6125 C62.7497,16.0395 64.2707,18.9665 64.8217,20.8315 C65.0037,21.4485 65.1497,22.6765 65.1497,23.5675 C65.1497,25.5775 64.6287,27.0615 63.4507,28.3965 C62.3467,29.6455 59.0367,32.4185 57.1907,33.6365 L55.7417,34.5945 L52.0937,34.6025 C47.6367,34.6125 46.4037,34.3265 44.8387,32.9175 C42.8567,31.1355 42.1457,28.7495 42.0957,23.7135 C42.0657,20.7275 42.2667,19.8945 43.6777,17.1625 C44.9307,14.7375 46.6267,13.0115 48.7337,12.0115 C51.5537,10.6755 53.0037,10.4545 55.3667,10.9985 M50.9737,9.8695 C50.5367,9.9715 49.3357,10.4625 48.2787,10.9715 C45.7007,12.2145 43.9097,14.0745 42.4797,16.9965 C40.9977,20.0255 40.8157,20.9565 40.9627,24.7695 C41.1457,29.5165 41.6417,31.1785 43.4867,33.2265 C45.3827,35.3315 46.6617,35.7055 52.2167,35.7845 L55.9897,35.8375 L57.3977,34.9825 C59.1187,33.9395 63.5147,30.2385 64.5797,28.9365 C65.8847,27.3405 66.2887,26.0555 66.2787,23.5255 C66.2707,21.0945 66.0327,20.1685 64.6847,17.3495 C63.9017,15.7125 62.9757,14.3685 61.5427,12.7895 C60.8007,11.9745 57.6677,10.3905 55.9277,9.9505 C54.5797,9.6105 52.2437,9.5725 50.9737,9.8695" id="Fill-56"></path>
                    <path d="M81.6148,9.8803 C83.0858,10.5703 84.4218,11.6813 84.9258,12.6333 C85.0898,12.9423 85.5558,14.1053 85.9688,15.2243 C86.6988,17.2143 86.7128,17.3073 86.6308,19.7533 C86.5518,22.1163 86.5078,22.3353 85.8008,23.8263 C83.7418,28.1683 79.7498,31.4883 75.1478,32.6903 C72.9938,33.2523 72.0388,33.2483 71.8858,32.6773 C71.7828,32.2933 71.6868,32.2623 71.0858,32.4103 C69.8648,32.7133 68.9288,32.5783 67.5408,31.9013 C65.7608,31.0303 64.5128,29.6303 63.3258,27.1633 C62.2418,24.9103 61.9098,22.9353 62.2168,20.5513 C62.4798,18.4983 62.7418,17.8603 63.9998,16.1983 C65.9998,13.5533 68.0598,11.9263 70.9818,10.6823 C75.1888,8.8913 78.9038,8.6093 81.6148,9.8803 M76.1008,7.9773 C74.3808,8.2693 71.4018,9.2153 69.7788,9.9843 C66.4018,11.5863 63.0348,14.7553 61.7238,17.5663 C61.1578,18.7773 61.0858,19.1623 61.0018,21.3803 C60.9448,22.8933 61.0078,24.2953 61.1638,25.0073 C61.5488,26.7493 63.3788,30.1313 64.5968,31.3503 C65.8338,32.5863 67.7278,33.5553 69.1578,33.6823 C69.7378,33.7343 70.5598,33.9373 71.0248,34.1443 C72.7948,34.9323 77.0348,33.9263 80.1228,31.9843 C81.8018,30.9293 84.6188,28.2923 85.5638,26.8943 C87.2358,24.4183 87.9158,22.1483 87.9158,19.0383 C87.9158,17.5073 87.8008,16.9243 87.0948,14.9133 C86.1348,12.1773 85.7538,11.5013 84.5168,10.3593 C82.4528,8.4523 79.0248,7.4823 76.1008,7.9773" id="Fill-60"></path>
                    <g id="Group-2" transform="translate(13.000000, 0.000000)">
                        <path d="M23.231,1.8754 C24.185,2.0564 25.422,2.4414 26.008,2.7394 C27.493,3.4934 29.923,5.9114 31.323,8.0264 C32.324,9.5394 32.558,10.0724 32.775,11.3434 C33.115,13.3374 32.941,15.1354 32.134,17.9764 C31.404,20.5454 30.492,22.5344 29.369,24.0074 C28.973,24.5254 28.4,25.3394 28.115,25.7904 C27.089,27.4084 23.085,30.2114 20.516,31.1124 C18.65,31.7664 15.86,32.0814 14.546,31.7864 C14.028,31.6704 13.356,31.5794 13.075,31.5874 C10.028,31.6764 8.121,31.2974 7.105,30.4004 C6.765,30.1014 5.684,28.9394 4.722,27.8414 C3.287,26.2044 2.842,25.5274 2.328,24.1934 C1.218,21.3254 1.029,18.9704 1.576,14.8454 C1.949,12.0264 2.13,11.3134 2.934,9.5194 C3.835,7.5074 5.613,5.8134 8.1,4.6024 C10.318,3.5214 14.488,2.0694 16.183,1.7884 C18.029,1.4834 21.386,1.5254 23.231,1.8754 M16.598,0.5094 C13.634,0.8934 7.343,3.3224 5.281,4.8804 C3.56,6.1794 2.849,6.9914 2.107,8.5024 C1.104,10.5444 0.664,12.2134 0.293,15.3854 C-0.178,19.3844 0.041,21.7144 1.158,24.6284 C1.904,26.5764 2.059,26.8054 4.203,29.1264 C5.449,30.4744 6.77,31.7174 7.146,31.8954 C8.253,32.4154 10.546,32.8784 11.81,32.8354 C12.453,32.8134 13.23,32.9014 13.551,33.0334 C13.869,33.1644 15.075,33.2724 16.214,33.2724 C17.998,33.2724 18.572,33.1784 20.195,32.6194 C21.231,32.2634 22.607,31.6964 23.231,31.3704 C24.972,30.4594 27.906,28.2044 28.628,27.2204 C28.988,26.7294 29.699,25.7694 30.205,25.0844 C31.494,23.3464 32.617,20.9184 33.421,18.1424 C34.052,15.9674 34.111,15.5294 34.091,13.1664 C34.078,11.4054 33.97,10.3114 33.759,9.7474 C32.824,7.2604 28.921,2.7794 26.754,1.7064 C24.377,0.5284 20.225,0.0394 16.598,0.5094" id="Fill-54"></path>
                        <path d="M20.5523,5.6079 C21.7753,6.0209 22.0683,6.2239 22.7593,7.1419 C24.5213,9.4759 24.4473,12.9659 22.5563,16.7379 C21.4003,19.0449 20.2823,19.6289 17.2573,19.5119 C16.1373,19.4679 14.9693,19.3789 14.6873,19.3129 C13.8393,19.1179 12.9023,18.2719 12.2223,17.0899 C11.6343,16.0689 11.5773,15.8049 11.5773,14.0639 C11.5773,11.1209 12.6953,7.1729 13.8373,6.0839 C14.5773,5.3769 15.3293,5.1849 17.4853,5.1549 C18.7083,5.1359 19.5133,5.2549 20.5523,5.6079 M16.6563,3.9799 C16.5413,4.0209 15.9093,4.1139 15.2463,4.1899 C13.1483,4.4269 12.3153,5.4619 11.1403,9.2969 C10.5723,11.1529 10.4763,11.7839 10.4583,13.8369 C10.4393,16.1359 10.4603,16.2629 11.0993,17.4839 C12.1883,19.5639 13.8573,20.6609 15.9503,20.6709 C16.5723,20.6729 17.1853,20.7699 17.2983,20.8829 C17.5623,21.1479 19.6193,20.8499 20.7183,20.3879 C21.1323,20.2139 21.9213,19.5779 22.4893,18.9559 C23.8433,17.4799 25.0193,14.5419 25.1953,12.1989 C25.3473,10.1469 24.8823,7.8599 24.1223,6.9339 C23.8163,6.5609 23.3763,6.0159 23.1153,5.6899 C22.5363,4.9639 20.2823,4.1819 18.3143,4.0239 C17.5053,3.9599 16.7713,3.9399 16.6563,3.9799" id="Fill-62"></path>
                    </g>
                    <path d="M51.6148,16.9965 C52.0328,17.1705 52.7558,17.6315 53.2538,18.0385 C55.1908,19.6285 55.5058,23.7325 53.8528,25.8895 C53.2088,26.7295 52.4038,27.0535 50.9308,27.0635 C50.3788,27.0665 49.3768,27.0825 48.7338,27.0955 C47.3878,27.1225 46.7128,26.7815 46.0618,25.7435 C45.7108,25.1845 45.6558,24.7905 45.7088,23.2155 C45.7728,21.2245 45.6718,21.4535 48.0328,18.0135 C48.3708,17.5175 49.9158,16.6855 50.4978,16.6855 C50.7028,16.6855 51.2008,16.8245 51.6148,16.9965 M48.3608,16.3165 C47.5528,16.8005 47.0718,17.2745 46.7048,17.9505 C46.4218,18.4695 45.8748,19.2915 45.5038,19.7535 C44.7668,20.6725 44.4238,21.9925 44.4238,23.8985 C44.4238,25.2255 44.9388,26.4625 45.8528,27.3345 C46.6208,28.0635 48.5268,28.5825 49.4798,28.3215 C49.8648,28.2165 50.6208,28.1785 51.1398,28.2385 C53.0948,28.4655 54.9838,27.1325 55.7028,25.0175 C56.1288,23.7715 56.1088,21.3495 55.6618,19.7335 C55.3858,18.7375 55.0988,18.2455 54.3938,17.5555 C52.3418,15.5455 50.3438,15.1375 48.3608,16.3165" id="Fill-64"></path>
                    <g id="Group-3" transform="translate(0.000000, 15.000000)">
                        <path d="M11.8277,1.6801 C13.2787,2.4271 14.3297,3.3431 15.3287,4.7371 L16.3257,6.1251 L16.4257,8.2601 C16.5437,10.7691 16.2827,11.8001 15.1797,13.1941 C13.4297,15.4051 8.3047,16.9791 5.6927,16.1091 C4.0937,15.5761 3.0957,14.5821 2.3477,12.7791 C1.8137,11.4881 1.7127,10.9751 1.7127,9.5451 C1.7127,4.8611 3.8567,1.8751 7.6407,1.2891 C9.2357,1.0411 10.8857,1.1971 11.8277,1.6801 M6.4797,0.3311 C2.5807,1.4111 0.2987,5.1101 0.5227,9.9811 C0.6027,11.7011 0.7067,12.1461 1.3477,13.5031 C2.1907,15.2861 3.2237,16.3741 4.7187,17.0541 C6.1867,17.7221 8.9267,17.7331 10.9157,17.0791 C13.3607,16.2761 15.1087,15.2311 16.0987,13.9811 C17.4657,12.2541 17.7367,11.2661 17.6457,8.3421 L17.5687,5.8771 L16.5597,4.4051 C15.3397,2.6221 14.0957,1.4941 12.4297,0.6571 C11.3077,0.0931 10.9987,0.0341 9.2987,0.0521 C8.2637,0.0641 6.9927,0.1901 6.4797,0.3311" id="Fill-58"></path>
                        <path d="M8.5943,4.7358 C9.0623,5.1578 9.0893,6.4988 8.6423,7.1818 C8.3633,7.6098 8.1283,7.7008 7.2983,7.7008 C6.6563,7.7008 6.1733,7.5818 5.9623,7.3698 C5.2893,6.6958 5.7963,4.7728 6.7493,4.3798 C7.3093,4.1488 8.1163,4.3038 8.5943,4.7358 M5.6403,3.9278 C4.5553,5.0198 4.2433,6.1678 4.7043,7.3698 C5.1013,8.3998 5.5053,8.6308 7.2883,8.8388 C8.5733,8.9888 9.0873,8.7338 9.7903,7.5968 C10.1663,6.9898 10.2363,6.6428 10.1613,5.7308 C10.0603,4.4668 9.6633,3.8778 8.6153,3.4288 C7.3923,2.9058 6.5053,3.0548 5.6403,3.9278" id="Fill-66"></path>
                    </g>
                    <path d="M81.1792,12.9008 C82.8272,13.8468 83.0332,14.2288 83.1092,16.4888 C83.2022,19.2458 82.7412,20.5938 81.2222,22.0118 C80.0402,23.1128 78.9192,23.6958 77.4492,23.9758 C76.6202,24.1338 76.4682,24.1068 76.2882,23.7638 C76.1462,23.4948 75.8532,23.3708 75.3552,23.3708 C74.1972,23.3708 73.0832,22.6658 72.2432,21.4008 C71.2752,19.9448 71.1612,19.0168 71.7282,17.1728 C72.2322,15.5358 73.3782,13.9318 74.6522,13.0858 C76.0792,12.1338 79.6672,12.0338 81.1792,12.9008 M75.7902,11.3338 C74.0812,11.7508 72.4132,13.1518 71.2302,15.1618 C70.5462,16.3238 70.0362,18.6238 70.2062,19.7628 C70.4582,21.4218 72.6952,24.1988 73.7792,24.1988 C73.9272,24.1988 74.2902,24.4588 74.5772,24.7688 C75.0682,25.2978 75.2202,25.3388 76.6932,25.3288 C78.0402,25.3198 78.4932,25.2148 79.7082,24.6328 C81.6152,23.7188 83.1612,22.1818 83.7982,20.5718 C84.2202,19.5018 84.2862,18.9968 84.2712,16.9438 C84.2512,14.2508 84.0662,13.6958 82.8182,12.5978 C81.5332,11.4668 80.4742,11.1298 78.3202,11.1578 C77.2632,11.1718 76.1362,11.2498 75.7902,11.3338" id="Fill-68"></path>
                </g>
                <path d="M6.3716,38.6499 C6.5076,38.7779 7.0716,38.7389 7.6496,38.5619 C8.3316,38.3539 9.2106,38.3909 10.2306,38.6709 C12.7946,39.3769 13.9446,41.2209 13.8726,44.4979 C13.8086,47.3569 12.0996,49.5399 8.9986,50.7299 C7.4876,51.3089 7.0876,51.3519 6.1086,51.0409 C5.4936,50.8439 4.6066,50.3089 4.1696,49.8699 C2.5616,48.2519 1.8036,43.5489 2.8196,41.5119 C3.1006,40.9539 3.8506,40.0869 4.5286,39.5429 C5.9546,38.3919 6.0466,38.3489 6.3716,38.6499 M4.3356,37.6189 C2.6086,38.6789 1.4896,39.8499 1.0406,41.0609 C0.1476,43.4729 0.6116,48.4779 1.8786,50.0569 C2.9636,51.4139 4.2576,52.3099 5.7586,52.7529 C6.9626,53.1059 7.4566,53.0869 8.9726,52.6229 C11.3156,51.9069 12.2936,51.2599 13.9116,49.3519 C15.4016,47.5929 15.9016,45.7469 15.6696,42.8659 C15.5136,40.8939 14.3726,38.7279 13.0326,37.8539 C10.5266,36.2219 6.7686,36.1199 4.3356,37.6189" id="Fill-70"></path>
                <path d="M45.2154,18.8256 C45.0994,19.1196 44.9044,21.3106 44.7844,23.6796 C44.4624,30.1006 44.5134,30.0066 42.6824,27.5586 C41.8124,26.3946 40.5714,24.5916 39.9194,23.5476 C39.2714,22.5036 38.6234,21.4656 38.4824,21.2386 C38.3414,21.0146 37.8944,20.9786 37.4974,21.1606 C36.1534,21.7746 37.4424,24.3046 43.0594,32.0716 C43.7494,33.0276 44.2714,33.3886 44.9294,33.3646 C45.4134,33.3466 45.9334,33.1436 46.0364,32.9326 C46.5764,31.8266 47.3824,18.8536 46.9464,18.2796 C46.7914,18.0766 46.3924,17.9976 46.0484,18.1016 C45.7034,18.2076 45.3344,18.5276 45.2154,18.8256" id="Fill-72"></path>
                <path d="M60.6499,19.6391 C61.3259,20.4041 60.8259,21.6021 59.7159,21.8711 C59.1809,22.0011 58.4359,22.2281 58.0409,22.3781 C57.6499,22.5281 56.8769,22.6151 56.3349,22.5721 C55.5769,22.5101 55.3379,22.3061 55.3199,21.7011 C55.3079,21.2691 55.4159,20.7091 55.5599,20.4691 C56.2399,19.3341 59.8549,18.7441 60.6499,19.6391 M55.7039,17.5061 C55.0969,17.7051 54.3289,18.1851 53.9999,18.5711 C53.2829,19.4121 52.7039,23.0361 52.9839,24.9351 C53.4819,28.2951 56.3259,30.4131 60.1749,30.2911 C63.5559,30.1841 65.9639,28.6211 66.9399,25.9051 C67.4739,24.4121 67.1699,23.6301 66.0709,23.6611 C65.4219,23.6801 65.0539,24.0491 64.5949,25.1431 C63.9999,26.5681 62.8999,27.3841 60.7929,27.9671 C59.3279,28.3711 56.6629,27.3421 55.9869,26.1101 C55.2459,24.7631 55.2569,24.7291 56.4169,24.7941 C57.6789,24.8641 60.9979,23.9111 62.0589,23.1731 C63.8489,21.9291 63.6149,18.4241 61.6809,17.4841 C60.5289,16.9221 57.4509,16.9351 55.7039,17.5061" id="Fill-74"></path>
                <path d="M25.6655,17.5708 C25.6035,18.4938 26.2965,19.1608 26.9525,18.8088 C27.3045,18.6208 27.4075,18.2078 27.2395,17.6548 C26.9365,16.6568 25.7315,16.5928 25.6655,17.5708" id="Fill-76"></path>
                <path d="M28.2359,24.6137 C28.2299,24.8637 29.0129,27.8397 29.9699,31.1967 C31.8159,37.6717 32.0699,38.1047 33.1699,36.7147 C33.9859,35.6857 33.7439,34.2597 31.8929,29.1797 C30.6969,25.8957 30.0399,24.5107 29.5579,24.2607 C28.7529,23.8447 28.2519,23.9787 28.2359,24.6137" id="Fill-78"></path>
                <path d="M13.0112,13.3793 C12.9622,13.6313 14.7712,19.2173 17.0422,25.8213 C19.3132,32.4273 21.4562,38.8443 21.8162,40.1173 C22.3862,42.1333 22.5682,42.4423 23.2412,42.5393 C24.4882,42.7183 24.7772,41.8733 24.1472,39.8803 C22.5722,34.8963 14.9622,13.2033 14.6732,12.8733 C14.2662,12.4103 13.1362,12.7553 13.0112,13.3793" id="Fill-80"></path>
                <path d="M109.2847,0.8501 C109.1107,1.0401 107.7477,6.7511 106.2477,13.5731 C104.7477,20.3951 103.2357,26.9891 102.8807,28.2651 C102.3177,30.2821 102.3117,30.6401 102.8357,31.0741 C103.8077,31.8751 104.4937,31.3031 104.9937,29.2731 C106.2457,24.2001 111.0427,1.7171 110.9667,1.2841 C110.8587,0.6771 109.7167,0.3821 109.2847,0.8501" id="Fill-82"></path>
                <path d="M119.4976,2.7329 C118.9096,3.7439 115.3766,16.1839 113.8066,22.7659 C112.8606,26.7229 111.9236,30.5669 111.7126,31.3329 C111.3906,32.5139 111.4446,32.7649 112.0796,33.0079 C112.5756,33.1979 113.0716,33.0549 113.5656,32.5799 C114.1986,31.9699 114.7046,30.1839 117.0386,20.3429 C118.5426,14.0049 120.1066,7.4879 120.5206,5.8559 C121.2356,3.0279 121.2356,2.8759 120.5076,2.5989 C120.0996,2.4449 119.6286,2.5059 119.4976,2.7329" id="Fill-84"></path>
                <path d="M140.939,37.0932 C140.449,38.1782 139.73,39.5672 139.359,40.1502 C138.701,41.1832 138.626,41.1982 137.183,40.6422 C135.705,40.0752 135.691,40.0552 136.027,38.8492 C136.753,36.2372 139.664,33.8842 141.14,34.7142 C141.787,35.0762 141.771,35.2532 140.939,37.0932 M140.033,32.2772 C138.041,32.5182 137.171,33.0432 135.523,34.9932 C133.728,37.1172 133.097,38.7382 133.408,40.4252 C133.609,41.5162 133.921,41.9052 135.158,42.6032 C136.076,43.1192 137.103,43.4552 137.796,43.4622 L138.929,43.4732 L137.896,45.6602 C136.742,48.1092 135.984,48.8382 134.289,49.1232 C132.117,49.4902 131.007,48.4882 130.304,45.5172 C130.103,44.6692 129.957,44.5592 129.179,44.6632 C128.048,44.8182 127.74,45.6502 128.166,47.3952 C128.992,50.7662 131.921,52.2742 135.57,51.2082 C138.341,50.3992 138.914,49.6382 141.216,43.6972 C142.31,40.8772 143.361,38.5232 143.566,38.4322 C144.238,38.1332 144.585,36.4322 144.214,35.2472 C143.888,34.1982 142.445,32.4282 141.724,32.1922 C141.574,32.1442 140.8,32.1822 140.033,32.2772" id="Fill-86"></path>
                <path d="M128.3042,29.5327 C127.0682,31.7947 126.4002,32.4087 124.3452,33.1667 C121.9332,34.0567 121.6582,33.5177 123.2202,30.9697 C124.2532,29.2837 124.9862,28.5427 126.3412,27.8127 C127.3332,27.2797 128.3962,27.0057 128.7572,27.1887 C129.3142,27.4717 129.2492,27.7997 128.3042,29.5327 M127.6952,24.6577 C124.9992,25.2847 122.7652,26.9927 121.1582,29.6527 C119.3242,32.6937 119.0662,33.9047 120.0272,34.9637 C121.0892,36.1337 122.2282,36.3187 124.5722,35.7037 C126.3432,35.2387 126.6422,35.2737 126.9112,35.9847 C127.2962,37.0047 128.3082,37.5277 128.8862,37.0077 C129.1522,36.7657 129.4862,35.5057 129.6322,34.1787 C129.8312,32.3857 130.1872,31.3457 131.0442,30.0207 C132.0772,28.4247 132.1482,28.1107 131.7572,26.7697 C131.2102,24.9077 129.7922,24.1697 127.6952,24.6577" id="Fill-88"></path>
                <path d="M96.3609,9.0249 C95.8749,9.8109 96.1749,10.7239 96.9229,10.7209 C97.3199,10.7179 97.6049,10.3999 97.7149,9.8349 C97.9099,8.8089 96.8749,8.1899 96.3609,9.0249" id="Fill-90"></path>
                <path d="M95.3472,16.4536 C95.2242,16.6706 94.5292,19.6666 93.8082,23.0846 C92.4192,29.6716 92.4392,30.1746 94.0622,29.4576 C95.2632,28.9286 95.7142,27.5546 96.4492,22.1976 C96.9232,18.7346 96.9902,17.2026 96.6812,16.7586 C96.1632,16.0146 95.6582,15.8976 95.3472,16.4536" id="Fill-92"></path>
                <path d="M85.9097,14.8422 C85.7207,15.0962 84.9727,17.1642 84.2517,19.4242 C82.2987,25.5492 82.3727,25.4712 81.2257,22.6352 C80.6827,21.2882 79.9447,19.2292 79.5837,18.0522 C79.2207,16.8772 78.8607,15.7072 78.7827,15.4512 C78.7047,15.2002 78.2807,15.0502 77.8507,15.1242 C76.3947,15.3752 76.9937,18.1492 80.4377,27.0952 C80.8607,28.1962 81.2727,28.6782 81.9157,28.8232 C82.3867,28.9292 82.9407,28.8662 83.0957,28.6892 C83.9017,27.7572 87.9977,15.4222 87.7217,14.7552 C87.6247,14.5192 87.2577,14.3412 86.8977,14.3542 C86.5387,14.3672 86.0987,14.5852 85.9097,14.8422" id="Fill-94"></path>
                <path d="M155.4624,43.9555 C155.3864,44.9735 154.1754,45.4465 153.2104,44.8365 C152.7434,44.5415 152.0644,44.1625 151.6794,43.9815 C151.3024,43.8075 150.7004,43.3095 150.3554,42.8915 C149.8744,42.3035 149.8554,41.9885 150.2764,41.5565 C150.5774,41.2475 151.0564,40.9355 151.3294,40.8735 C152.6184,40.5725 155.5564,42.7635 155.4624,43.9555 M153.5584,38.9175 C152.9954,38.6175 152.1144,38.3995 151.6124,38.4315 C150.5054,38.5005 147.4994,40.6025 146.3274,42.1255 C144.2594,44.8175 144.7104,48.3345 147.4744,51.0175 C149.9014,53.3735 152.6984,54.0195 155.3294,52.8325 C156.7734,52.1805 157.1264,51.4165 156.3394,50.6465 C155.8764,50.1955 155.3534,50.1865 154.2474,50.6175 C152.8104,51.1795 151.4564,50.9565 149.5734,49.8455 C148.2654,49.0735 147.1534,46.4425 147.5694,45.1005 C148.0234,43.6305 148.0564,43.6155 148.8144,44.4935 C149.6424,45.4515 152.6324,47.1755 153.9014,47.4255 C156.0404,47.8475 158.3984,45.2425 157.7324,43.1975 C157.3314,41.9795 155.1854,39.7765 153.5584,38.9175" id="Fill-96"></path>
            </g>
        </g>
    </g>
</svg>