<?xml version="1.0" encoding="UTF-8"?>
<svg width="356px" height="114px" viewBox="0 0 356 114" version="1.1" xmlns="http://www.w3.org/2000/svg" xmlns:xlink="http://www.w3.org/1999/xlink">
    <!-- Generator: Sketch 52.4 (67378) - http://www.bohemiancoding.com/sketch -->
    <title>title-farmer</title>
    <desc>Created with Sketch.</desc>
    <defs>
        <polygon id="path-1" points="0.004501656 0.251700609 23.9201857 0.251700609 23.9201857 23.4789216 0.004501656 23.4789216"></polygon>
    </defs>
    <g id="Page-1" stroke="none" stroke-width="1" fill="none" fill-rule="evenodd">
        <g id="0top" transform="translate(-379.000000, -1046.000000)">
            <g id="Group-39" transform="translate(379.000000, 1046.000000)">
                <path d="M11.2000582,4.65467041 C11.2000582,2.53378331 11.1484802,1.3361423 11.0969022,0.363381336 C13.9997117,0.613018825 14.411304,0.81210988 14.411304,1.11126224 C14.411304,1.38668873 14.1802346,1.58577978 13.3322924,1.90968958 L13.3322924,6.62598132 L18.1620557,6.62598132 C18.6499836,6.0018876 19.2658248,5.30249001 19.7795416,4.77948915 C22.2460013,6.80031494 22.4770707,7.17373961 22.4770707,7.37386223 C22.4770707,7.67301459 22.3233683,7.87313721 22.0665099,7.87313721 L13.3322924,7.87313721 L13.3322924,13.1124298 L17.2367465,13.1124298 C17.7246744,12.537851 18.2126022,11.9890611 18.855264,11.3649674 C21.2185676,13.3362783 21.3980591,13.6364622 21.3980591,13.8603107 C21.3980591,14.1594631 21.2443566,14.3595857 20.9874982,14.3595857 L13.3322924,14.3595857 L13.3322924,20.6717005 L19.4968942,20.6717005 C20.0364,19.9980919 20.7306398,19.2491795 21.2959346,18.6756322 C23.9160967,20.8707916 24.0955881,21.195733 24.0955881,21.4195815 C24.0955881,21.7187338 23.9418857,21.9188564 23.6850273,21.9188564 L2.82585511,21.9188564 L0.257271032,22.0189177 L0.257271032,20.5468818 L2.82585511,20.6717005 L11.2000582,20.6717005 L11.2000582,14.3595857 L6.24238141,14.3595857 L3.67379733,14.4586154 L3.67379733,12.9876111 L6.24238141,13.1124298 L11.2000582,13.1124298 L11.2000582,7.87313721 L5.26652577,7.87313721 C4.18751415,10.4922677 2.69691013,13.0123685 0.796776846,14.9836794 L0.385184456,14.7587994 C2.10685788,11.7146662 3.57064134,7.47392354 4.34121657,2.73390592 C7.09032363,3.35696809 7.42351747,3.5570907 7.42351747,3.93051537 C7.42351747,4.2049103 6.98716764,4.40503292 6.37029484,4.5546091 C6.19080342,5.25297513 5.985523,5.92658373 5.7286646,6.62598132 L11.2000582,6.62598132 L11.2000582,4.65467041 Z" id="Fill-1" fill="#231916"></path>
                <path d="M44.2961093,8.19715016 C44.9387711,6.89944784 45.4782769,5.55326221 45.9146268,4.18025602 L38.0025625,4.18025602 C40.1605858,5.10350211 40.879583,6.27638568 40.879583,7.17384277 C40.879583,7.64836031 40.6485136,8.02281654 40.3142882,8.19715016 L44.2961093,8.19715016 Z M38.5420684,14.4339612 C37.6941261,15.955512 36.6409035,17.3037607 35.2792445,18.6251889 L34.8944727,18.376583 C36.2561317,16.1061197 37.4630567,13.1868053 38.0799295,10.1684611 C40.3658662,10.8915846 40.7000916,11.0659182 40.7000916,11.3650705 C40.7000916,11.6652545 40.3916552,11.8148306 39.7232044,11.9396494 C39.543713,12.3636205 39.3642216,12.7875916 39.1836986,13.1868053 L43.3460427,13.1868053 C43.3460427,11.7642842 43.3460427,10.8173122 43.2686757,10.0436423 C45.9662048,10.2932798 46.2488522,10.4676134 46.2488522,10.7420084 C46.2488522,10.9668884 46.0683292,11.1907369 45.246176,11.4651318 L45.246176,13.1868053 L48.9969277,13.1868053 C49.4590665,12.6380154 50.0243613,12.0139217 50.5638671,11.4651318 C52.7992574,13.3611389 52.9787488,13.6860802 52.9787488,13.9604752 C52.9787488,14.2348701 52.8498038,14.4339612 52.5681879,14.4339612 L45.246176,14.4339612 L45.246176,17.1036381 L48.2005634,17.1036381 C48.6627023,16.5796057 49.1258727,16.0813623 49.7159249,15.4572685 C51.8739482,17.3532756 52.0792286,17.6276705 52.0792286,17.877308 C52.0792286,18.1517029 51.9255261,18.350794 51.6686677,18.350794 L45.246176,18.350794 L45.246176,21.3949272 L50.0243613,21.3949272 C50.5638671,20.7708334 51.1033729,20.1477713 51.6944567,19.548435 C54.1609164,21.6693221 54.2888298,21.8942021 54.2888298,22.1685971 C54.2888298,22.442992 54.1609164,22.6420831 53.9030264,22.6420831 L36.6924815,22.6420831 L34.0981084,22.7669018 L34.0981084,21.2701084 L36.6924815,21.3949272 L43.3460427,21.3949272 L43.3460427,18.350794 L40.1863748,18.350794 L37.8230711,18.4756127 L37.8230711,16.9788194 L40.1863748,17.1036381 L43.3460427,17.1036381 L43.3460427,14.4339612 L38.5420684,14.4339612 Z M50.3327977,8.19715016 C50.8980925,7.49878413 51.2828643,7.09957046 51.8739482,6.47547674 C54.2630408,8.32196891 54.4683212,8.69642514 54.4683212,8.97082007 C54.4683212,9.24521499 54.3404078,9.44430605 54.0577604,9.44430605 L34.7913167,9.44430605 L34.7397387,9.49485248 L34.7397387,13.086744 C34.7397387,18.4013404 33.686516,21.1958361 31.5037353,23.5405717 L31.143721,23.3156917 C32.3258886,20.8213799 32.7106604,18.1764604 32.7106604,12.9371678 C32.7106604,9.19466856 32.6848714,8.32196891 32.6332934,7.42348026 C33.686516,7.77317906 34.3549668,8.02281654 34.7913167,8.19715016 L39.2610656,8.19715016 C39.0299962,8.04757398 38.8505048,7.79793649 38.7989268,7.39872282 C38.5678574,6.15156694 38.0283515,5.02922979 37.3093543,4.35458964 L37.4888457,4.18025602 L34.9708081,4.18025602 L32.402224,4.30507476 L32.402224,2.80828139 L34.9708081,2.93310013 L41.6759473,2.93310013 L41.6759473,2.75876652 C41.6759473,1.81076299 41.6243693,1.21142671 41.5727913,0.412999366 C44.1424069,0.637879418 44.6561237,0.86275947 44.6561237,1.1371544 C44.6561237,1.38576033 44.4756007,1.61064038 43.6792365,1.8850353 L43.6792365,2.93310013 L49.7417139,2.93310013 C50.2554307,2.30900641 50.6670231,1.86027787 51.2581069,1.23618414 C53.5182546,3.03316144 53.800902,3.43237511 53.800902,3.70573848 C53.800902,3.98116496 53.646168,4.18025602 53.3893096,4.18025602 L47.2762858,4.18025602 C48.6369133,4.679531 48.7916473,4.87862205 48.7916473,5.12825954 C48.7916473,5.37789703 48.5089998,5.55326221 47.7384246,5.60277708 C47.0194274,6.57553804 46.2736096,7.37396538 45.375121,8.19715016 L50.3327977,8.19715016 Z" id="Fill-3" fill="#231916"></path>
                <g id="Group-7" transform="translate(61.629757, 0.012135)">
                    <mask id="mask-2" fill="white">
                        <use xlink:href="#path-1"></use>
                    </mask>
                    <g id="Clip-6"></g>
                    <path d="M11.949965,5.24094309 L11.949965,8.10971109 L13.1321326,8.10971109 C14.1337772,7.212254 15.1096329,6.23949304 15.9833641,5.24094309 L11.949965,5.24094309 Z M8.66135211,20.4843033 L17.7297949,20.4843033 L17.7297949,17.4659591 L8.66135211,17.4659591 L8.66135211,20.4843033 Z M17.7297949,13.5986412 L8.81608609,13.5986412 L8.66135211,13.7492489 L8.66135211,16.2188033 L17.7297949,16.2188033 L17.7297949,13.5986412 Z M17.7040059,12.3514853 C18.1155983,11.6531193 18.2950898,11.5530579 18.5261592,11.5530579 C18.8345956,11.5530579 19.014087,11.6531193 19.7846622,12.2761814 C20.5036594,12.8755177 20.6068154,13.0746088 20.6068154,13.2747314 C20.6068154,13.5491263 20.453113,13.7234599 19.7588732,13.9978548 L19.7588732,15.145981 C19.7588732,19.8117263 19.8878182,21.108397 19.8878182,22.0058541 C19.8878182,22.580433 19.143032,22.9796467 18.2950898,22.9796467 C17.9350754,22.9796467 17.7297949,22.779524 17.7297949,22.4803717 L17.7297949,21.7324908 L8.66135211,21.7324908 L8.66135211,22.5051291 C8.66135211,23.0549505 7.96814387,23.4789216 7.14599065,23.4789216 C6.68385183,23.4789216 6.50436041,23.3035565 6.50436041,23.0044041 C6.50436041,22.2812806 6.63227384,21.0083357 6.63227384,14.6219486 L6.63227384,14.3723111 C4.55161757,15.4451333 2.41938332,16.3683794 0.236602627,17.1915642 L0.004501656,16.7418041 C1.54668367,15.9939232 3.03625612,15.2202533 4.52582858,14.3723111 C5.22006837,13.94834 5.91327661,13.5243689 6.60648484,13.0746088 C6.58069584,12.6011228 6.58069584,12.1018478 6.55593841,11.6273303 C7.06965522,11.777938 7.55758304,11.9522716 8.04551086,12.1266052 C9.3298029,11.2539056 10.536728,10.3554169 11.6931066,9.35789854 L2.93310013,9.35789854 L0.338727055,9.48271728 L0.338727055,7.98592391 L2.93310013,8.10971109 L9.89509771,8.10971109 L9.89509771,5.24094309 L4.78268699,5.24094309 L2.18831391,5.36576183 L2.18831391,3.86896846 L4.78268699,3.9937872 L9.89509771,3.9937872 L9.89509771,2.97047981 C9.89509771,1.69856649 9.86930872,1.0992302 9.81773072,0.251287985 C12.6431732,0.500925474 12.9258206,0.701048089 12.9258206,1.00020045 C12.9258206,1.24880638 12.7721182,1.448929 11.949965,1.72332392 L11.949965,3.9937872 L12.9773986,3.9937872 C13.4653264,3.42023991 13.9274653,2.8962075 14.4669711,2.37217508 C15.1096329,2.92096493 15.8028411,3.46975479 16.3939249,4.11860595 C16.4970809,4.21866725 16.5992053,4.34245444 16.6765723,4.46727318 C17.5760925,3.42023991 18.3724567,2.34741765 19.168821,1.22404894 C21.5321246,2.19784146 21.788983,2.39693252 21.788983,2.74663132 C21.788983,3.04578368 21.4805466,3.19535986 20.5294484,3.26963217 C19.065665,4.96654816 17.4471475,6.58816028 15.7265057,8.10971109 L19.4504368,8.10971109 C19.9899426,7.48664893 20.5294484,6.86255521 21.1978992,6.21370405 C23.7406943,8.28507627 23.9201857,8.5594712 23.9201857,8.83386612 C23.9201857,9.15777592 23.7664833,9.35789854 23.5096249,9.35789854 L14.2359017,9.35789854 C12.9258206,10.4307208 11.5136152,11.4282392 10.0745891,12.3514853 L17.7040059,12.3514853 Z" id="Fill-5" fill="#231916" mask="url(#mask-2)"></path>
                </g>
                <path d="M110.78788,1.58567663 C112.046383,1.76001025 113.202761,2.08495161 114.050704,2.6584989 C114.718123,3.108259 114.974981,3.60650242 114.974981,4.1057774 C114.974981,4.70408212 114.590209,5.05378092 114.127039,5.05378092 C113.818603,5.05378092 113.536987,4.90420474 113.099605,4.15529227 C112.585889,3.33210749 111.661611,2.48416528 110.658935,1.9848903 L110.78788,1.58567663 Z M108.424576,3.40741136 C109.580955,3.60650242 110.865247,4.05626252 111.635822,4.65456725 C112.12375,5.02902348 112.483764,5.5530559 112.483764,6.12660319 C112.483764,6.74966535 112.12375,7.09936415 111.635822,7.09936415 C111.122105,7.09936415 110.916825,6.72490791 110.479443,6.00178444 C110.043094,5.30341841 109.246729,4.35541489 108.270874,3.80662503 L108.424576,3.40741136 Z M108.758802,15.806761 C110.196796,15.3580325 111.173683,14.9835763 111.970047,14.6586349 C112.251663,14.5338161 112.432186,14.3594825 112.432186,14.1851489 C112.432186,13.9850263 112.406397,13.7859352 112.149539,13.411479 C111.147894,11.8641392 109.65729,10.6417407 107.654001,9.66897979 L107.88507,9.14494737 C109.991516,9.66897979 111.558455,10.5922259 113.02327,11.9146856 C114.307562,13.0865376 115.154473,14.5585736 115.154473,15.6066384 C115.154473,16.4298232 114.821279,16.7547646 114.383898,16.7547646 C114.10125,16.7547646 113.793845,16.5804309 113.433831,16.2554896 C113.099605,15.9810946 112.585889,15.8562759 112.072172,15.8810333 C111.327386,15.9057908 110.248374,16.055367 108.860926,16.3297619 L108.758802,15.806761 Z M98.2523642,18.2010115 C98.9713615,18.6507716 99.9214281,19.149015 100.56409,19.174804 C101.488368,19.1995615 101.874171,18.8498627 102.413677,18.0514353 C103.158463,16.9290982 103.594813,15.8562759 103.851671,15.082606 C104.314842,13.5858126 104.699613,11.8641392 104.699613,10.4426497 C104.699613,9.24500868 104.082741,8.92006732 103.415321,8.92006732 C103.004761,8.92006732 102.156818,9.04488607 101.360454,9.24500868 C99.0992749,13.910754 96.9680722,17.8523443 95.3753438,20.5467786 C95.0411184,21.1203259 94.681104,21.319417 94.2963321,21.319417 C93.7826153,21.319417 93.4741789,20.7716587 93.4741789,20.2723837 C93.4741789,19.9226849 93.6020923,19.5987751 93.9105287,19.1995615 C96.12013,16.055367 97.9697168,12.8874466 99.5366563,9.66897979 C98.4318557,9.94337472 97.5065465,10.1930122 96.5822688,10.516922 C96.2996214,10.6417407 96.094341,10.7665595 95.939607,10.8418634 C95.8116936,10.9161357 95.6064132,10.9666821 95.4258902,10.9666821 C95.0153294,10.9666821 94.3468786,10.3931348 93.8084043,9.49464617 C93.6278813,9.19446225 93.5763033,8.92006732 93.5763033,8.54664265 C93.5763033,8.4218239 93.5763033,8.3217626 93.6020923,8.12163998 L93.9363177,8.09688254 C94.3726676,8.84579501 94.7584709,9.04488607 95.3495548,9.04488607 C95.6827486,9.04488607 96.171708,8.99537119 96.8133382,8.92006732 C97.9439278,8.7457337 99.0992749,8.54664265 100.178287,8.34652003 C100.717792,7.12412158 101.052018,6.25142193 101.334665,5.42823715 C101.462579,5.05378092 101.565735,4.65456725 101.565735,4.48023363 C101.565735,4.23059614 101.437821,3.93041222 101.103596,3.73132116 C100.76937,3.53223011 100.229865,3.40741136 99.6645697,3.38162237 L99.6387807,2.9824087 C100.152498,2.7585602 100.641457,2.68325633 100.948862,2.68325633 C101.617313,2.68325633 102.670535,3.00819769 103.466899,3.60650242 C103.903249,3.93041222 104.057983,4.18108127 104.057983,4.45444463 C104.057983,4.67932469 103.954827,4.87841574 103.67218,5.07853836 C103.389532,5.27866097 103.184252,5.62732821 102.978972,6.00178444 C102.618957,6.70015048 102.362099,7.24894033 101.976295,8.07212511 C102.54159,7.9978528 103.106885,7.92254893 103.646391,7.92254893 C105.135963,7.92254893 106.164428,8.99537119 106.164428,10.9408931 C106.164428,13.2866603 105.624923,15.9315798 104.494333,18.1514966 C103.363743,20.3714135 101.951538,21.3699634 100.229865,21.3699634 C99.6903587,21.3699634 99.3819223,21.0955685 99.3313759,20.5209896 C99.3055869,20.2218373 99.1508529,19.9732314 98.9971505,19.7483513 C98.817659,19.4739564 98.5092226,19.0995001 97.9439278,18.5259529 L98.2523642,18.2010115 Z" id="Fill-8" fill="#231916"></path>
                <path d="M126.462019,14.2600402 L136.428951,14.2600402 L136.428951,11.1168772 L126.462019,11.1168772 L126.462019,14.2600402 Z M126.462019,9.86868978 L136.428951,9.86868978 L136.428951,6.8245566 L126.462019,6.8245566 L126.462019,9.86868978 Z M126.513597,2.58381396 L126.462019,2.63436039 L126.462019,5.57740071 L136.428951,5.57740071 L136.428951,2.58381396 L126.513597,2.58381396 Z M136.428951,1.33665808 C136.737387,0.712564352 136.942668,0.613534605 137.173737,0.613534605 C137.456385,0.613534605 137.661665,0.687806916 138.43224,1.28611164 C139.202815,1.91020536 139.305971,2.05978155 139.305971,2.33417647 C139.305971,2.58381396 139.100691,2.80766245 138.406451,3.10784638 L138.406451,5.62691558 C138.406451,12.6631855 138.535396,14.58395 138.535396,15.507196 C138.535396,16.0807433 137.764821,16.4056847 136.968457,16.4056847 C136.634231,16.4056847 136.428951,16.2561085 136.428951,15.9064097 L136.428951,15.507196 L134.810433,15.507196 C134.733067,15.6567722 134.605153,15.7310445 134.42463,15.8063484 L134.42463,20.2719711 C134.42463,20.9455797 134.810433,21.1457023 137.430596,21.1457023 C140.076547,21.1457023 140.66763,20.9455797 141.10398,20.2472137 C141.489784,19.6231199 141.874556,18.5760867 142.182992,17.5527793 L142.645131,17.6280831 C142.543006,18.5513292 142.414061,19.7984851 142.414061,20.2719711 C142.414061,20.6959422 143.287793,20.8207609 143.287793,21.4448547 C143.287793,22.1690097 142.182992,22.8663442 137.379018,22.8663442 C133.140338,22.8663442 132.343974,22.4681621 132.343974,21.1199133 C132.343974,20.3720324 132.44713,19.0743301 132.44713,17.0287469 L132.44713,15.507196 L129.210095,15.507196 C130.443841,15.9064097 130.597543,16.0807433 130.597543,16.3303808 C130.597543,16.6295332 130.340685,16.7543519 129.698023,16.8544132 C127.925803,20.3720324 124.740346,22.4681621 119.731091,23.3161043 L119.577389,22.8921332 C123.790279,21.4943695 126.615722,19.1248765 127.951592,15.507196 L126.462019,15.507196 L126.462019,15.781591 C126.462019,16.3056234 125.717233,16.6295332 124.920869,16.6295332 C124.509277,16.6295332 124.329785,16.5047144 124.329785,16.1808046 C124.329785,15.5319535 124.457699,13.4110664 124.457699,5.62691558 C124.457699,2.70863271 124.407152,1.83593305 124.355574,0.687806916 C125.383008,0.962201842 126.024638,1.18708189 126.410441,1.33665808 L136.428951,1.33665808 Z" id="Fill-10" fill="#231916"></path>
                <path d="M156.546225,1.26125105 C157.291011,2.4836495 158.318445,2.90762061 159.885385,3.2573194 C160.373312,3.35738071 161.093341,3.53171433 161.529691,3.88141312 C161.915494,4.18056549 162.120775,4.52923272 162.120775,4.9284464 C162.120775,5.45247881 161.709182,5.7021163 161.324411,5.7021163 C160.887029,5.7021163 160.21961,5.57729756 159.78326,5.57729756 C159.32009,5.57729756 158.781615,5.67735886 158.24211,5.87748148 C156.623592,6.4757862 155.158777,7.44854716 154.208711,8.44606556 C153.643416,9.07015928 153.438135,9.39510064 153.438135,9.66846401 C153.438135,9.99340537 153.772361,10.2430429 154.157133,10.2430429 C154.43978,10.2430429 154.87613,10.167739 155.287722,10.0687092 C156.212,9.81907175 157.882095,9.36931165 158.986896,8.99588697 C159.449035,8.82052179 159.936963,8.64618818 160.245399,8.39655069 C160.502257,8.22221707 160.681749,8.09739832 160.887029,8.09739832 C161.144919,8.09739832 161.683393,8.29648938 162.248688,8.64618818 C162.968717,9.09491672 163.251364,9.39510064 163.251364,9.66846401 C163.251364,9.9438905 163.045052,10.1182241 162.711859,10.2678003 C162.326055,10.4668914 162.043408,10.6174991 161.478113,11.1415315 C160.245399,12.2638686 159.166387,13.3119335 157.137309,15.3822741 C157.54787,15.2079405 157.804728,15.1573941 158.292656,15.1573941 C159.602737,15.1573941 160.399101,16.3550351 161.015974,17.6527374 C162.069197,19.8231394 162.557125,20.0469879 164.278798,20.0727769 C165.151498,20.0975343 165.845738,20.0222304 166.487368,19.8726543 C166.89896,19.7736245 167.309521,19.4734406 167.797449,19.4734406 C168.774336,19.4734406 169.519122,19.9479581 169.519122,20.5720519 C169.519122,21.1198102 169.10753,21.4942664 168.414322,21.6438426 C167.721113,21.7944503 166.692648,21.8934801 165.434145,21.8934801 C164.304587,21.8934801 163.353489,21.8439652 162.557125,21.6190851 C161.067552,21.2693863 160.450679,20.3471718 159.731682,18.4759222 C158.857951,16.2560054 158.421601,15.9558214 157.75315,15.9558214 C157.3168,15.9558214 156.880451,16.1311866 156.058297,16.9285824 C155.132988,17.8765859 153.746572,19.4734406 152.359124,21.1703566 C151.947531,21.694389 151.614338,21.8439652 151.254323,21.8439652 C150.766395,21.8192077 150.330045,21.4447515 150.330045,20.7711429 C150.330045,20.3471718 150.689028,19.8478968 151.254323,19.3238644 C153.000754,17.7022523 154.568725,16.1807015 156.263578,14.3847557 C157.728393,12.8374159 159.063231,11.3901374 160.116454,10.0934667 C160.168032,10.0429202 160.168032,10.0181628 160.168032,9.96864793 C160.168032,9.89334406 160.040119,9.86858662 159.936963,9.89334406 C158.292656,10.4421339 156.828873,10.9414089 155.724072,11.3158651 C155.236144,11.4901987 154.953497,11.6397749 154.465569,11.8398975 C154.260289,11.9399588 153.900274,12.063746 153.720783,12.063746 C153.438135,12.063746 153.026543,11.9141699 152.615982,11.5149562 C152.255968,11.1910464 152.024898,10.7670753 152.024898,10.3173152 C152.024898,9.79328275 152.333335,9.21973546 152.821263,8.67094561 C154.286078,7.04933349 156.160422,5.7021163 158.44739,4.47971785 C157.213644,3.90617056 156.520436,2.98292448 156.109875,1.43558467 L156.546225,1.26125105 Z" id="Fill-12" fill="#231916"></path>
                <path d="M180.927968,17.7022523 C180.080026,17.7022523 179.514731,18.101466 179.514731,18.8503784 C179.514731,19.9232007 181.159038,20.6710816 183.7792,20.5462629 C183.291272,18.9246507 182.21226,17.7270097 180.927968,17.7022523 Z M180.542165,11.9894737 C182.21226,10.9919553 183.727622,10.5917101 185.475084,10.5917101 C189.019524,10.5917101 191.537561,12.6878398 191.537561,15.8815491 C191.537561,19.3486219 188.146824,21.9182375 183.496552,21.9440265 C180.567954,21.9440265 178.487297,20.8454152 178.487297,18.9751972 C178.487297,17.7517672 179.592098,16.8037636 181.184826,16.8037636 C182.854922,16.8037636 184.396072,17.8023136 185.037703,19.0494695 C185.140859,19.2743495 185.268772,19.523987 185.294561,19.7230781 C185.32035,19.9232007 185.346139,20.0727769 185.294561,20.2718679 C188.095246,19.523987 189.481663,17.7022523 189.481663,15.4823355 C189.481663,13.3366909 187.889966,11.5902601 184.935578,11.5902601 C183.034413,11.5902601 181.081671,12.4877171 179.464185,13.9102382 C178.66782,14.6086042 178.256228,15.1326367 177.614598,15.9558214 C177.382497,16.3055202 176.946147,16.5293687 176.509797,16.5293687 C175.99608,16.5293687 175.584488,16.1549125 175.584488,15.6319116 C175.584488,15.2079405 175.739222,14.8334843 176.149783,14.4837855 C176.561375,14.1103608 177.151427,13.5605394 177.665144,13.062296 C179.952112,10.6174991 182.494908,7.77348852 185.11507,4.33014167 C185.166648,4.2548378 185.192437,4.18056549 185.192437,4.13001905 C185.192437,4.00623187 185.089281,3.95568544 184.884,4.03098931 C183.265483,4.45496041 181.878035,4.97899283 180.927968,5.3782065 C180.336884,5.60308655 180.080026,5.72687374 179.900534,5.80217761 C179.669465,5.92699635 179.514731,6.02705766 179.232084,6.02705766 C178.590453,6.02705766 177.716722,4.85417408 177.614598,4.08050418 C177.588809,3.88141312 177.588809,3.73183694 177.588809,3.58226076 C177.588809,3.43268458 177.588809,3.28207684 177.614598,3.13250066 L177.99937,3.03243935 C178.513086,3.80610925 178.975225,4.10526162 179.33524,4.10526162 C179.771589,4.10526162 180.183182,4.03098931 180.593743,3.930928 C182.032769,3.58226076 183.420217,3.20780453 185.037703,2.68377211 C185.32035,2.45889206 185.577208,2.35883075 185.834067,2.35883075 C186.116714,2.35883075 186.759376,2.63425724 187.426795,3.03243935 C187.914723,3.33159171 188.121035,3.53171433 188.121035,3.83086669 C188.121035,4.05574674 187.99209,4.2548378 187.581529,4.50447529 C187.093601,4.80465921 186.65622,5.10381157 186.271448,5.52778268 C184.139214,7.84776083 182.469119,9.64370657 180.44004,11.9141699 L180.542165,11.9894737 Z" id="Fill-13" fill="#231916"></path>
                <path d="M202.869762,18.8501721 C202.869762,20.3975119 204.154054,21.6436363 205.746783,21.6436363 C207.339511,21.6436363 208.623803,20.3975119 208.623803,18.8501721 C208.623803,17.2780749 207.3653,16.0556764 205.746783,16.0556764 C204.154054,16.0556764 202.869762,17.2780749 202.869762,18.8501721 M209.651237,18.8501721 C209.651237,20.9205128 207.879017,22.6421862 205.746783,22.6421862 C203.614549,22.6421862 201.842329,20.9205128 201.842329,18.8501721 C201.842329,16.7540425 203.614549,15.058158 205.746783,15.058158 C207.904806,15.058158 209.651237,16.7540425 209.651237,18.8501721" id="Fill-14" fill="#231916"></path>
                <path d="M19.2148657,56.1303906 C19.8059496,55.5568433 20.3970334,55.0080535 21.1160306,54.4334746 C23.8135597,56.4047855 23.9930511,56.628634 23.9930511,56.8793031 C23.9930511,57.1784554 23.8383171,57.3775465 23.5814587,57.3775465 L2.74910706,57.3775465 L0,57.4776078 L0,56.0303293 L2.74910706,56.1303906 L19.2148657,56.1303906 Z" id="Fill-15" fill="#231916"></path>
                <path d="M44.9584739,53.7600723 L48.0665638,53.7600723 L48.0665638,51.9393692 L44.9584739,51.9393692 L44.9584739,53.7600723 Z M44.9584739,50.6911817 L48.0665638,50.6911817 L48.0665638,48.9942657 L44.9584739,48.9942657 L44.9584739,50.6911817 Z M40.2576556,53.7600723 L43.1604651,53.7600723 L43.1604651,51.9393692 L40.2576556,51.9393692 L40.2576556,53.7600723 Z M40.2576556,50.6911817 L43.1604651,50.6911817 L43.1604651,48.9942657 L40.2576556,48.9942657 L40.2576556,50.6911817 Z M35.5568372,53.7600723 L38.4338577,53.7600723 L38.4338577,51.9393692 L35.5568372,51.9393692 L35.5568372,53.7600723 Z M35.6084152,48.9952973 L35.5568372,49.0448122 L35.5568372,50.6911817 L38.4338577,50.6911817 L38.4338577,48.9952973 L35.6084152,48.9952973 Z M38.4338577,47.7471098 C38.4338577,47.0487438 38.3822797,46.3256203 38.3564907,45.6272543 C40.9508638,45.8511028 41.1819332,46.026468 41.1819332,46.3008629 C41.1819332,46.5247114 41.0282308,46.724834 40.2576556,47.0239864 L40.2576556,47.7471098 L43.1604651,47.7471098 C43.1604651,47.0487438 43.1088871,46.3256203 43.0830981,45.6272543 C45.6516822,45.8511028 45.8827516,46.026468 45.8827516,46.3008629 C45.8827516,46.5247114 45.7290491,46.724834 44.9584739,47.0239864 L44.9584739,47.7471098 L47.9891968,47.7471098 C48.2976332,47.0982587 48.5039452,46.9744715 48.7350146,46.9744715 C49.017662,46.9744715 49.3003094,47.0745328 50.0193067,47.6480801 C50.7125149,48.2216274 50.8156709,48.42175 50.8156709,48.6455985 C50.8156709,48.8704785 50.5588125,49.1190845 49.9161507,49.4440258 L49.9161507,50.3920294 C49.9161507,52.7873114 50.0708847,54.0839821 50.0708847,54.8328946 C50.0708847,55.3321696 49.4024339,55.6808368 48.6060696,55.6808368 C48.2718442,55.6808368 48.0665638,55.5065032 48.0665638,55.2073508 L48.0665638,55.0072282 L35.5568372,55.0072282 L35.5568372,55.1330785 C35.5568372,55.6560794 34.812051,55.9552318 34.1178112,55.9552318 C33.7330394,55.9552318 33.5783054,55.8056556 33.5783054,55.4817458 C33.5783054,54.9329559 33.6814614,53.660011 33.6814614,50.7417282 C33.6814614,48.9952973 33.6556724,48.1473551 33.6040944,46.9744715 C34.2725452,47.224109 34.9657534,47.4479575 35.6331727,47.7471098 L38.4338577,47.7471098 Z M49.6592923,56.3802344 C50.1214311,55.8809594 50.5588125,55.3816845 51.0725293,54.8824095 C53.2305525,56.5298106 53.5121684,56.9032353 53.5121684,57.1539043 C53.5121684,57.4272677 53.358466,57.6273903 53.1016076,57.6273903 L47.7323384,57.6273903 C49.3508559,58.9993649 49.5819253,59.3243063 49.5819253,59.5233974 C49.5819253,59.7977923 49.4282228,59.9968833 49.1713644,59.9968833 L38.6391381,59.9968833 L36.3016235,60.1217021 L36.3016235,58.6249087 L38.6391381,58.7497274 L46.268555,58.7497274 C46.6285694,58.3505138 46.9617632,57.9760575 47.3217776,57.6273903 L34.4004586,57.6273903 L34.3230916,57.7016626 L34.3230916,59.697731 C34.3230916,60.2217634 34.2983342,60.6962809 34.2725452,61.1697669 L49.3766449,61.1697669 C49.8387837,60.5714622 50.3019541,60.0721872 50.8414599,59.5729122 C52.9479051,61.3451321 53.2047635,61.6937993 53.2047635,61.9434368 C53.2047635,62.2178317 53.0758186,62.4179544 52.8189602,62.4179544 L42.5951703,62.4179544 C43.5194479,63.4154727 44.6758265,64.2386575 45.9085406,64.8369623 C46.6791158,64.1138388 47.3991446,63.290654 47.9386504,62.4674692 C49.8645727,63.3154114 50.2503761,63.5898064 50.2503761,63.8642013 C50.2503761,64.1385962 49.9677287,64.263415 49.2229424,64.263415 C48.4781562,64.6120822 47.630214,64.9370236 46.7564828,65.2361759 C48.7350146,66.0593607 51.1746537,66.632908 54.0774632,66.9330919 L54.0011278,67.4065779 C53.1531855,67.6067005 52.5878907,68.2297627 52.2794543,68.9291603 C47.0391302,67.9563993 43.6741819,65.7602083 41.798806,62.4179544 L39.7439388,62.4179544 C39.6665718,62.5417415 39.5386584,62.6418028 39.3839244,62.7171067 L39.3839244,66.0851497 C41.0798088,65.9850884 42.6983262,65.8355122 44.2910547,65.6106322 L44.3931791,66.0593607 C40.8229504,67.132183 37.9717189,67.6562154 34.8883864,68.1554904 C34.734684,68.6537338 34.605739,68.9044028 34.2983342,68.9044028 C33.9898978,68.9044028 33.7835858,68.6795228 32.9882532,66.4338169 C34.5294036,66.3595446 36.0447651,66.3089982 37.5085485,66.2089369 L37.5085485,62.4179544 L34.1178112,62.4179544 C33.6814614,65.2867224 32.3971694,67.1827294 30.2649351,68.8538564 L29.8791317,68.6042189 C31.5750161,66.1346646 32.3713804,63.8394439 32.3713804,59.9721259 C32.3713804,58.1008763 32.3455914,57.1776302 32.2424354,55.8056556 C33.1677446,56.0552931 33.7835858,56.2306582 34.2209672,56.3802344 L49.6592923,56.3802344 Z" id="Fill-16" fill="#231916"></path>
                <path d="M70.0085644,48.595671 L70.0085644,48.2212148 C70.0085644,46.898755 69.9827754,46.4005116 69.9311974,45.6020842 C72.500813,45.8259327 73.0650763,46.0508128 73.0650763,46.3252077 C73.0650763,46.5996026 72.8855849,46.7997253 72.0634317,47.0741202 L72.0634317,48.595671 L79.3586231,48.595671 C79.7960045,47.8467585 80.0012849,47.7229713 80.2581433,47.7229713 C80.5150017,47.7229713 80.7976491,47.7972437 81.6971693,48.5213987 C82.4419555,49.1444608 82.569869,49.3940983 82.569869,49.6932507 C82.569869,49.9686772 82.2872216,50.2420406 81.2339989,50.4174057 C80.5665797,50.9404066 79.9239179,51.4149241 79.1017647,51.9141991 L78.7427818,51.6398042 C78.9738512,51.0404679 79.1533427,50.4421632 79.3338656,49.8428269 L62.8670754,49.8428269 L62.8670754,50.1430108 C62.8670754,51.963714 61.8396418,52.7868988 60.8637861,52.7868988 C60.2211243,52.7868988 59.7589855,52.3629277 59.7589855,51.8141378 C59.7589855,51.3406518 60.0158439,50.9166807 60.5295607,50.5422245 C61.5827834,49.793312 61.9427978,48.9453698 61.8396418,47.6724249 L62.2759916,47.5981526 C62.4307256,47.9220624 62.558639,48.2470038 62.661795,48.595671 L70.0085644,48.595671 Z M72.7576715,53.4605074 C72.6287265,53.6100835 72.4750241,53.6853874 72.2687121,53.7349023 C72.8340069,55.3069995 73.6045821,56.7790355 74.5298913,58.1510101 C76.3021112,57.002884 77.8948396,55.6061519 79.2564987,54.0103288 C81.3113659,55.3069995 81.4908573,55.5318796 81.4908573,55.8310319 C81.4908573,56.1054269 81.1576635,56.3045179 80.2065653,56.2044566 C78.7427818,57.1277027 77.0211084,58.0014339 74.9920301,58.7751038 C76.3279002,60.5710496 78.074331,62.0926004 80.0270739,63.2159691 C80.9513515,63.7895164 81.9540277,64.2134875 82.9556724,64.6127011 L82.8783054,65.0861871 C81.8508717,65.2367949 81.1834525,65.7350383 80.7718601,66.4591933 C76.3021112,64.2134875 72.9629519,59.423955 71.7044488,53.9845398 C70.8307176,54.6086335 69.8796194,55.1574233 68.9553418,55.6814558 C71.8581512,57.92613 73.2971773,60.8949594 73.2971773,63.9143351 C73.2971773,66.9832257 72.2687121,68.5800804 69.5980036,68.754414 C69.4174806,67.7816531 68.6984834,67.1823168 67.1315439,66.7831031 L67.1831219,66.3343746 C68.0558216,66.4591933 68.9037638,66.5334656 69.674339,66.5334656 C70.7791396,66.5334656 71.3444344,65.9351609 71.3444344,63.7895164 C71.3444344,63.3903027 71.3186454,62.9663316 71.2928564,62.5671179 C69.622761,63.5398789 67.9021191,64.3888526 66.0783213,65.0614297 C64.023454,65.8350996 61.8912198,66.359132 59.7331965,66.7583457 L59.5537051,66.359132 C62.0965002,65.5359472 64.5887488,64.5384288 66.9520525,63.2407265 C68.338469,62.491814 69.64855,61.594357 70.9080846,60.6463534 C70.7533506,60.0717746 70.5222812,59.5229847 70.2912118,58.9494374 C67.1057549,60.7206257 63.6634396,61.9182668 60.0674219,62.5671179 L59.8868989,62.1431468 C63.3292142,61.1198394 66.5662491,59.5735312 69.3916916,57.3773402 C69.0584978,56.9038542 68.6726944,56.4551257 68.2879225,56.0311546 C65.7956739,57.253553 63.1497228,58.2510714 60.4264047,58.92468 L60.1953353,58.5254663 C62.0449222,57.8518577 63.86872,57.0534304 65.5903935,56.0806694 C66.9262635,55.331757 68.2621335,54.4838147 69.3916916,53.4605074 L65.7183069,53.4605074 L63.1239338,53.5853261 L63.1239338,52.0885327 L65.7183069,52.2133515 L75.1457326,52.2133515 C75.6604809,51.5892577 76.0710418,51.1405292 76.5847586,50.5917394 C78.8706953,52.3876851 79.0770072,52.7373839 79.0770072,52.9870214 C79.0770072,53.2614163 78.9480623,53.4605074 78.6912038,53.4605074 L72.7576715,53.4605074 Z" id="Fill-17" fill="#231916"></path>
                <path d="M106.559413,66.1347677 C107.407355,66.234829 108.229508,66.2843439 109.025872,66.2843439 C109.898572,66.2843439 110.15543,66.0347064 110.15543,65.2115216 L110.15543,50.8666501 C110.15543,48.2712454 110.129641,47.3737883 110.053306,46.3752384 C112.85296,46.6248759 113.212974,46.8497559 113.212974,47.1489083 C113.212974,47.4728181 112.981905,47.6481833 112.108173,47.9968505 L112.108173,50.9409224 C112.108173,62.7419673 112.261876,65.037188 112.261876,66.3596478 C112.261876,67.7811373 111.029162,68.6796259 108.974294,68.6796259 C108.845349,67.6315611 108.229508,67.0332564 106.507835,66.5834963 L106.559413,66.1347677 Z M107.098919,52.4377157 C107.098919,60.4209576 107.252621,62.6914209 107.252621,63.5651521 C107.252621,64.0138806 106.456257,64.4378517 105.659893,64.4378517 C105.249332,64.4378517 105.06984,64.2882756 105.06984,63.9891232 C105.06984,63.0658771 105.223543,60.72011 105.223543,52.4129583 C105.223543,50.0682227 105.197754,49.1191876 105.120387,48.1711841 C107.690002,48.3960642 108.074774,48.6457017 108.074774,48.944854 C108.074774,49.1944915 107.921072,49.3440677 107.098919,49.669009 L107.098919,52.4377157 Z M95.744539,49.8433427 C95.744539,47.6481833 95.744539,46.7496946 95.667172,45.8264485 C98.3131231,46.0513286 98.5957705,46.2762086 98.5957705,46.575361 C98.5957705,46.7992095 98.4678571,46.9745747 97.6199149,47.2984845 L97.6199149,50.0424337 L99.3921347,50.0424337 C99.9058516,49.4193716 100.265866,49.0201579 100.882739,48.3465493 C103.142886,50.3673751 103.246042,50.5664661 103.246042,50.8161036 C103.246042,51.0904985 103.091308,51.2906212 102.83445,51.2906212 L97.6199149,51.2906212 L97.6199149,54.208904 L100.265866,54.208904 C100.779583,53.5858419 101.165386,53.1113243 101.781227,52.4882622 C104.092953,54.5338454 104.196109,54.7329365 104.196109,54.9825739 C104.196109,55.2569689 104.042407,55.4560599 103.785548,55.4560599 L97.6199149,55.4560599 L97.6199149,57.8265845 L100.496935,57.8265845 C100.882739,57.1777334 101.06223,57.103461 101.267511,57.103461 C101.550158,57.103461 101.755438,57.2035224 102.423889,57.7017658 C103.117097,58.2257982 103.246042,58.4506782 103.246042,58.6755583 C103.246042,58.9499532 103.03973,59.1490443 102.372311,59.5235005 L102.372311,60.72011 C102.372311,63.5403947 102.475467,64.537913 102.475467,65.4611591 C102.475467,66.5834963 101.627525,67.4314385 99.9058516,67.4314385 C99.8037271,66.483435 99.4437127,66.009949 98.1594207,65.7107966 L98.2109987,65.2610365 C98.9815739,65.311583 99.4179237,65.3363404 99.8037271,65.3363404 C100.291655,65.3363404 100.496935,65.1372493 100.496935,64.6379744 L100.496935,59.0737404 L97.6457039,59.0737404 C97.6714929,66.0594639 97.7230709,67.4572275 97.7230709,68.0060173 C97.7230709,68.4299884 96.9772531,68.8292021 96.1808889,68.8292021 C95.821906,68.8292021 95.667172,68.7043834 95.667172,68.405231 C95.667172,67.7563798 95.71875,66.1842826 95.744539,59.0737404 L93.098588,59.0737404 L92.9706745,59.1985591 L92.9706745,66.4586775 C92.9706745,67.0332564 92.4053797,67.3819236 91.5832265,67.3819236 C91.0952987,67.3819236 90.9663537,67.20759 90.9663537,66.9331951 C90.9663537,66.1842826 91.0952987,64.9618842 91.0952987,60.0227755 C91.0952987,58.9994681 91.0952987,58.3764059 91.0179317,57.2282798 C91.8916629,57.4768857 92.4827467,57.6770083 92.8675185,57.8265845 L95.744539,57.8265845 L95.744539,55.4560599 L92.0969433,55.4560599 L89.6562727,55.5819102 L89.6562727,54.0840853 L92.0969433,54.208904 L95.744539,54.208904 L95.744539,51.2906212 L92.3022237,51.2906212 C91.7885069,52.2386247 91.1716341,53.1866282 90.4784259,53.9602981 L90.0678651,53.7601755 C90.9147757,51.7641071 91.6348045,48.9954004 92.0195763,46.2999345 C94.38288,46.7992095 94.7428944,46.9993321 94.7428944,47.273727 C94.7428944,47.5976368 94.408669,47.747213 93.7670388,47.8967892 C93.5607268,48.5456403 93.2780794,49.2945528 92.9190965,50.0424337 L95.744539,50.0424337 L95.744539,49.8433427 Z" id="Fill-18" fill="#231916"></path>
                <path d="M123.237673,48.5458467 C123.880335,49.0946365 124.342473,49.6939728 124.625121,50.2180052 C124.933557,50.7410061 125.190416,51.2908275 125.190416,51.9396786 C125.190416,52.3636497 125.009893,52.5874982 124.907768,52.8123783 C124.778823,53.0372583 124.599332,53.4354405 124.444598,53.8594116 C123.648234,56.0050561 123.211884,58.0764283 123.160306,59.4731604 C123.134517,60.0972541 123.134517,60.7461053 123.186095,61.1948338 C123.186095,61.2691061 123.211884,61.2948951 123.263462,61.2948951 C123.31504,61.2948951 123.340829,61.2691061 123.366618,61.1948338 C124.368262,58.949128 125.447274,56.6539073 126.166271,55.4315088 C126.962635,54.0100193 127.938491,52.9619545 128.889589,52.3378607 C130.43074,51.2908275 132.023468,50.8668564 133.487252,50.6161873 C134.566263,50.4418537 135.824766,50.3675814 137.314339,50.3675814 C138.753365,50.3675814 139.549729,50.7915525 139.549729,51.5652224 C139.549729,52.1387697 138.984434,52.3636497 138.239648,52.3378607 C137.469073,52.3131033 136.724287,52.2883459 135.876344,52.3131033 C135.131558,52.3636497 134.437318,52.5379834 133.590408,53.0867732 C131.303439,54.6330815 129.479642,56.9530596 129.479642,59.4236455 C129.479642,62.317171 131.997679,63.240417 136.184781,63.240417 C137.212214,63.240417 137.777509,63.1403557 138.162281,63.041326 C138.419139,62.9907796 138.856521,62.8917498 139.139168,62.8917498 C140.217148,62.8917498 140.962966,63.4652971 140.962966,64.0388444 C140.962966,64.4628155 140.782443,64.8372717 140.140813,64.9868479 C139.575518,65.1364241 138.213859,65.2364854 136.775865,65.2364854 C131.611876,65.2364854 128.426419,63.5653584 128.426419,59.9229205 C128.426419,57.2532435 129.891234,54.9580228 132.819832,52.0139509 C131.355017,52.2883459 130.122303,52.6628021 129.196994,53.2363494 C128.40063,53.7356244 127.578477,54.6578389 127.06476,55.6563889 C126.011537,57.6772146 124.984104,60.0724967 124.470387,62.2428986 C124.316684,62.9412647 124.316684,63.3899932 124.316684,63.7644495 C124.316684,64.1141483 124.394051,64.6629381 124.444598,65.1611815 C124.496176,65.5356378 124.496176,65.8100327 124.470387,66.0596702 C124.41984,66.409369 124.213528,66.6332175 123.828757,66.60846 C123.417164,66.60846 123.006603,66.3340651 122.595011,65.3860616 C122.210239,64.4886045 121.798647,62.3677174 121.798647,60.2963452 C121.824436,58.4003381 122.261817,55.8554799 122.980814,52.8123783 C123.186095,51.9396786 123.366618,51.0907049 123.366618,50.6667338 C123.366618,50.1922162 123.237673,49.5939115 122.851869,48.7707267 L123.237673,48.5458467 Z" id="Fill-19" fill="#231916"></path>
                <path d="M154.863442,52.6126683 C152.474349,52.4383347 150.958988,51.8389984 150.162623,49.7934152 L150.598973,49.4942628 C151.652196,50.7414187 152.551716,51.0653285 154.606583,51.0653285 C156.25089,51.0653285 158.357335,50.7661761 160.026399,50.3174476 C160.334835,50.2421437 160.669061,50.1183565 161.10541,50.1183565 C161.953353,50.1183565 162.596014,50.8167226 162.596014,51.4645422 C162.596014,51.8885133 162.287578,52.1391823 161.619127,52.1886972 C160.437991,52.3124844 159.384769,52.4630921 158.562615,52.6126683 C157.817829,52.737487 157.098832,52.9365781 156.559326,53.1367007 C153.219135,54.5086753 150.573184,57.3279285 150.573184,60.0966352 C150.573184,62.36813 152.217491,63.6895582 156.89252,63.6895582 C158.485248,63.6895582 159.615838,63.5647395 160.489569,63.4399207 C160.848552,63.3904058 161.10541,63.315102 161.388058,63.2408297 C161.619127,63.1655258 161.875986,63.0912535 162.158633,63.0912535 C163.36659,63.0654645 164.2135,63.5905285 164.2135,64.3136519 C164.2135,64.7623805 164.059798,65.0615328 163.36659,65.2864129 C162.621803,65.4855039 160.848552,65.6856266 158.126266,65.6856266 C152.24328,65.6856266 149.211525,64.039257 149.211525,60.5959102 C149.211525,57.9014758 150.830043,55.5567402 154.863442,52.6869406 L154.863442,52.6126683 Z" id="Fill-20" fill="#231916"></path>
                <path d="M189.289173,46.3754447 C190.547677,46.5497783 191.704055,46.8747197 192.551997,47.448267 C193.219417,47.8969955 193.476275,48.3962705 193.476275,48.8955455 C193.476275,49.4938502 193.091503,49.843549 192.628333,49.843549 C192.319896,49.843549 192.038281,49.6939728 191.600899,48.9450603 C191.087182,48.1218755 190.162905,47.2739333 189.160228,46.7746584 L189.289173,46.3754447 Z M186.92587,48.1971794 C188.082248,48.3962705 189.36654,48.8460306 190.137116,49.4443353 C190.625044,49.81776 190.985058,50.342824 190.985058,50.9163712 C190.985058,51.5394334 190.625044,51.8891322 190.137116,51.8891322 C189.623399,51.8891322 189.418118,51.514676 188.980737,50.7915525 C188.544387,50.0931865 187.748023,49.1451829 186.772167,48.5953615 L186.92587,48.1971794 Z M179.81017,57.8763057 C181.839248,56.1309064 184.69048,55.2076603 187.542743,55.2076603 C188.801246,55.2076603 189.956593,55.3324791 190.702411,55.6316314 C191.292463,55.8554799 191.472986,56.2051787 191.472986,56.6539073 C191.472986,57.1026358 191.13876,57.3533048 190.496099,57.3533048 C190.059749,57.3533048 189.186017,57.2284861 188.749668,57.2284861 C188.082248,57.2284861 187.413798,57.4028197 186.746378,57.7019721 C183.766202,58.9996744 182.25084,60.9699538 182.25084,62.6668698 C182.25084,64.7877568 183.971482,65.6109416 187.234306,65.6109416 C188.415442,65.6109416 189.006526,65.5614268 189.36654,65.4861229 C189.623399,65.410819 189.906046,65.3107577 190.316607,65.3107577 C191.704055,65.3107577 192.191983,65.7605178 192.191983,66.409369 C192.191983,66.7838252 192.012492,67.0829776 191.626688,67.2077963 C191.112971,67.4068874 189.906046,67.5317061 188.46702,67.5317061 C183.304063,67.5317061 181.14604,65.9348514 181.14604,63.041326 C181.14604,61.0452576 182.533488,59.0491893 186.334786,56.5290885 C184.02306,56.5548775 182.302418,57.1026358 180.118606,58.3260658 L179.81017,57.8763057 Z M177.550022,47.4235095 C178.140074,47.1986295 178.67958,47.0738107 179.091173,47.0738107 C179.501733,47.0738107 180.477589,47.3482056 181.35132,47.8474806 C181.993982,48.1971794 182.173473,48.5458467 182.173473,48.8697565 C182.173473,49.1699404 182.04556,49.344274 181.865037,49.5186076 C181.659757,49.6939728 181.377109,49.9683677 181.197618,50.2675201 C180.966548,50.7667951 180.786025,51.1660087 180.477589,51.8138283 C181.094462,51.6147373 181.659757,51.3155849 182.04556,51.0401584 C182.25084,50.8668564 182.533488,50.8163099 182.816135,50.8163099 C183.586711,50.8163099 184.100427,51.0907049 184.100427,51.5652224 C184.100427,52.0387084 183.869358,52.2635884 182.944049,52.5874982 C182.121895,52.8866506 181.14604,53.1620771 179.784381,53.5602592 C177.781092,58.1517322 176.110996,61.9932612 174.440901,65.7357604 C174.159285,66.3598541 173.773481,66.6837639 173.182398,66.6837639 C172.746048,66.6837639 172.334455,66.2340038 172.334455,65.7605178 C172.334455,65.436608 172.540767,64.937333 172.89975,64.3132393 C174.673002,61.0452576 176.342066,57.6524572 177.986372,53.9842303 C176.984727,54.1843529 175.854138,54.2596568 175.212507,54.2596568 C174.081918,54.2596568 172.977117,53.6850779 172.25812,52.3378607 L172.617103,52.0139509 C173.337132,52.6875595 174.23562,52.8371357 174.92986,52.8371357 C175.854138,52.8371357 177.036305,52.712317 178.629034,52.3378607 C178.936439,51.6890096 179.167508,51.0907049 179.475944,50.1922162 C179.604889,49.7930025 179.732803,49.2700017 179.732803,48.9956068 C179.732803,48.371513 178.962228,47.9970568 177.626358,47.8722381 L177.550022,47.4235095 Z" id="Fill-21" fill="#231916"></path>
                <path d="M209.561285,65.8103421 C213.953667,64.6127011 217.909699,62.0926004 217.909699,58.2252824 C217.909699,55.7557281 216.034323,54.2836921 213.491528,54.2836921 C211.359294,54.2589347 209.278638,55.3069995 206.658475,57.6269777 C206.632686,59.9469558 206.684264,61.9677816 206.710053,63.3903027 C206.735842,64.4136101 206.78742,64.7622773 206.78742,65.2367949 C206.78742,66.7583457 206.247915,67.7558641 205.605253,67.7816531 C205.168903,67.8064105 204.886256,67.5815305 204.808889,66.7335882 C204.757311,66.1590094 204.55203,65.5359472 204.295172,65.0614297 C204.012524,64.4878824 203.65251,63.9390925 202.933513,62.9663316 L203.319316,62.6671792 C203.781455,63.0911503 204.243594,63.4656066 204.603608,63.7647589 C204.757311,63.8895777 204.886256,63.9886074 204.98838,63.9886074 C205.117325,63.9886074 205.143114,63.8895777 205.168903,63.3903027 C205.220481,61.8182054 205.220481,60.2966546 205.220481,58.7503464 C203.884611,60.5462921 202.57453,62.3680269 201.23866,64.3135488 C200.981801,64.662216 200.647576,64.8870961 200.10807,64.8623386 C199.67172,64.8623386 199.337495,64.3383062 199.337495,63.8390312 C199.337495,63.4398176 199.516986,63.1664542 199.877001,62.7414515 C200.956012,61.6438718 201.88029,60.5462921 202.959302,59.2238324 C203.858822,58.1510101 204.55203,57.1534917 205.374183,55.8557894 C205.399972,55.1574233 205.425761,54.5838761 205.425761,53.9597823 C204.34675,54.4590573 203.345105,54.9325433 202.419796,55.4565757 C202.137149,55.6309093 201.957657,55.7557281 201.752377,55.7557281 C201.44394,55.7557281 200.827067,55.3565144 200.390718,54.858271 C199.954368,54.3342386 199.773845,53.9597823 199.722267,53.3614776 L200.10807,53.1861124 C200.518631,53.7101448 200.981801,54.0103288 201.392362,54.0103288 C201.700799,54.0103288 202.240305,53.9092359 202.754021,53.7349023 C203.729877,53.4109925 204.680975,53.0365362 205.502097,52.6125651 C205.527886,51.5397429 205.553675,50.4421632 205.553675,49.0454311 C205.553675,48.2717612 205.399972,47.9726088 204.834678,47.7477288 C204.500452,47.62291 204.064102,47.5476062 203.755666,47.5733952 L203.678299,47.1494241 C204.217805,46.8492401 204.705733,46.7749678 205.091536,46.7749678 C205.579464,46.7749678 206.350039,47.0493627 207.301137,47.6476675 C207.685909,47.897305 207.916979,48.1716999 207.916979,48.4460948 C207.916979,48.6451859 207.814854,48.7700046 207.634331,48.9701272 C207.429051,49.1950073 207.301137,49.568432 207.22377,49.9686772 C207.120614,50.6164968 207.069036,51.2158331 207.01849,51.8884101 C207.275348,51.7646229 207.377473,51.7388339 207.557996,51.7388339 C207.814854,51.7388339 208.508062,52.2628663 208.508062,52.5878077 C208.508062,52.7621413 208.404906,52.9117175 208.199626,53.2119014 C207.634331,53.9597823 207.197981,54.6581484 206.710053,55.5318796 L206.710053,56.0806694 C208.687554,54.5333296 211.359294,53.3109312 213.620473,53.3109312 C217.499138,53.3109312 220.041933,55.4565757 220.041933,58.5502238 C220.041933,63.7647589 214.493173,65.7608273 209.714987,66.3838894 L209.561285,65.8103421 Z" id="Fill-22" fill="#231916"></path>
                <path d="M232.041553,63.065774 C231.193611,63.065774 230.628316,63.4649876 230.628316,64.2139001 C230.628316,65.2867224 232.272623,66.0346033 234.892785,65.9097845 C234.404857,64.2881724 233.325846,63.0905314 232.041553,63.065774 Z M231.65575,57.3529954 C233.325846,56.355477 234.841207,55.9552318 236.588669,55.9552318 C240.133109,55.9552318 242.651147,58.0513614 242.651147,61.2450708 C242.651147,64.7131751 239.260409,67.2817592 234.610138,67.3075481 C231.681539,67.3075481 229.600883,66.2089369 229.600883,64.3387188 C229.600883,63.1163204 230.705683,62.1672853 232.298412,62.1672853 C233.968507,62.1672853 235.509658,63.1658353 236.151288,64.4129911 C236.254444,64.6378712 236.382357,64.8875087 236.408146,65.0865997 C236.433935,65.2867224 236.459724,65.4362985 236.408146,65.6353896 C239.208831,64.8875087 240.595248,63.065774 240.595248,60.8458571 C240.595248,58.7002126 239.003551,56.9537817 236.049164,56.9537817 C234.147999,56.9537817 232.195256,57.8512388 230.57777,59.2737599 C229.781406,59.9721259 229.369813,60.4961583 228.728183,61.3193431 C228.496082,61.6690419 228.059732,61.8928904 227.623383,61.8928904 C227.109666,61.8928904 226.698073,61.5194657 226.698073,60.9954333 C226.698073,60.5714622 226.852807,60.1970059 227.263368,59.8473072 C227.674961,59.4738825 228.265013,58.9240611 228.77873,58.4258176 C231.065698,55.9810207 233.608493,53.1370102 236.228655,49.6936633 C236.280233,49.6183595 236.306022,49.5440871 236.306022,49.4935407 C236.306022,49.3697535 236.202866,49.3192071 235.997586,49.394511 C234.379068,49.8184821 232.99162,50.3425145 232.041553,50.7417282 C231.45047,50.9666082 231.193611,51.0903954 231.01412,51.1656993 C230.78305,51.290518 230.628316,51.3905793 230.345669,51.3905793 C229.704039,51.3905793 228.830308,50.2176957 228.728183,49.4440258 C228.702394,49.2449348 228.702394,49.0953586 228.702394,48.9457824 C228.702394,48.7962062 228.702394,48.6455985 228.728183,48.4960223 L229.112955,48.395961 C229.626672,49.1696309 230.088811,49.4687833 230.448825,49.4687833 C230.885175,49.4687833 231.296767,49.394511 231.707328,49.2944497 C233.146354,48.9457824 234.533802,48.5713262 236.151288,48.0472938 C236.433935,47.8224137 236.690794,47.7223524 236.947652,47.7223524 C237.2303,47.7223524 237.872961,47.9977789 238.540381,48.395961 C239.028308,48.6951134 239.23462,48.895236 239.23462,49.1943883 C239.23462,49.4192684 239.105675,49.6183595 238.695115,49.8679969 C238.207187,50.1681809 237.769805,50.4673332 237.385034,50.8913043 C235.252799,53.2112825 233.582704,55.0072282 231.553626,57.2776915 L231.65575,57.3529954 Z" id="Fill-23" fill="#231916"></path>
                <path d="M253.59806,64.2136938 C253.59806,65.7610336 254.882352,67.0071579 256.475081,67.0071579 C258.067809,67.0071579 259.352101,65.7610336 259.352101,64.2136938 C259.352101,62.6415965 258.093598,61.4191981 256.475081,61.4191981 C254.882352,61.4191981 253.59806,62.6415965 253.59806,64.2136938 M260.379535,64.2136938 C260.379535,66.2840344 258.607315,68.0057079 256.475081,68.0057079 C254.342846,68.0057079 252.570626,66.2840344 252.570626,64.2136938 C252.570626,62.1175641 254.342846,60.4216797 256.475081,60.4216797 C258.633104,60.4216797 260.379535,62.1175641 260.379535,64.2136938" id="Fill-24" fill="#231916"></path>
                <path d="M11.2000582,101.506818 C12.5875062,101.756456 13.4859948,101.807002 14.462882,101.807002 C17.9557438,101.807002 20.7306398,100.28442 20.7306398,98.5627464 C20.7306398,97.6147428 19.6774172,96.8668619 17.9815328,96.8668619 C16.0803679,96.8668619 13.6407288,97.9396842 8.70780951,100.83321 C11.1226912,104.526194 12.3564368,106.596535 13.3580814,108.642118 C13.9739227,109.889274 14.1802346,110.513367 14.1802346,111.112704 C14.1802346,111.785281 13.6665178,112.409375 13.049645,112.409375 C12.5101392,112.409375 12.2274918,112.03595 11.9448444,111.162219 C10.7894973,107.743629 9.55575172,104.950165 7.47509546,101.556333 C6.70452024,101.980304 6.3197484,102.205184 5.52338418,102.704459 C4.98387837,103.054158 4.62386397,103.303796 4.36700556,103.527644 C4.21330314,103.67722 4.00699117,103.802039 3.75013276,103.802039 C3.28799394,103.802039 2.69691013,103.453372 1.92633491,102.854035 C1.38682909,102.380549 1.10418169,101.906032 0.898901273,100.933271 L1.3352511,100.708391 C1.87475691,101.381999 2.38847373,101.681152 2.90322211,101.681152 C3.21062695,101.681152 3.75013276,101.556333 4.21330314,101.381999 C4.67544197,101.232423 5.54814162,100.858999 6.65294224,100.309177 C6.34450584,99.7861764 6.08764743,99.3859311 5.75445359,98.8876877 C5.42022819,98.3884127 5.3428612,98.0892604 5.3428612,97.565228 C5.3428612,96.6419819 6.26817041,95.2700072 7.47509546,95.0203698 C8.21988169,94.8450046 9.47941629,94.7954897 11.4827056,94.8212787 C10.8142548,93.5483338 10.6347633,92.8499678 10.6347633,92.1516018 C10.6347633,91.801903 10.7121303,91.5027506 10.8400438,90.8786569 L11.3537606,90.9044459 C11.4569166,92.1010553 11.791142,92.7746639 12.6390842,93.7484564 C13.3838704,94.5716412 13.5891508,95.0203698 13.6149398,95.6692209 C13.6149398,96.3180721 13.2033474,96.8668619 12.8185756,96.8668619 C12.5617172,96.8668619 12.2790698,96.7162542 12.0737894,96.4924057 C11.791142,96.2180108 11.3290031,96.0178882 10.7121303,95.9188584 C9.96734411,95.7445248 9.14519089,95.6939784 8.42619366,95.7187358 C7.34718204,95.7445248 6.73030923,96.1932533 6.73030923,96.9163768 C6.73030923,97.2155292 6.83346522,97.6147428 7.03874563,98.0387139 C7.19244805,98.3884127 7.44930646,98.762869 8.01460127,99.6603261 C10.4810609,98.4379276 12.5359282,97.4651667 13.9997117,96.8916194 C15.5161047,96.3180721 17.1088331,95.894101 18.4952496,95.894101 C21.0896227,95.894101 22.7597181,97.1660143 22.7597181,98.9124452 C22.7597181,101.432546 20.062189,102.978854 15.9524545,102.978854 C14.3081481,102.978854 12.7669976,102.704459 11.0711132,102.030851 L11.2000582,101.506818 Z" id="Fill-25" fill="#231916"></path>
                <path d="M30.2643162,96.9166863 C31.1885938,97.7151136 31.9602006,98.0637809 33.1929146,98.0637809 C34.2977153,98.0637809 36.3010045,97.6903562 38.3300828,97.0167476 C37.9711,96.1430164 37.5595076,94.9701328 37.2263137,93.9973718 C36.7889324,92.7254585 36.5578629,92.6006398 35.8130767,92.5758823 C35.2993599,92.5511249 34.9651345,92.6501546 34.6051201,92.7502159 L34.4772067,92.3262448 C34.9393455,91.8764847 35.6583427,91.5278175 36.3010045,91.5278175 C37.6368746,91.5278175 39.0243226,92.0013035 39.0243226,92.5758823 C39.0243226,92.7997308 38.9985336,92.9245496 38.9469556,93.0741257 C38.9211666,93.1494296 38.8953776,93.2484594 38.8953776,93.3732781 C38.8953776,93.5981582 38.9469556,93.8477957 38.9727446,94.0974331 C39.152236,94.9701328 39.332759,95.618984 39.6659528,96.54223 C41.4392043,95.843864 42.4150599,95.3941039 42.8771987,94.8453141 C43.1340571,94.5461617 43.5456495,94.2965242 44.3409822,94.2965242 C45.061011,94.2965242 45.4457828,94.7462843 45.4457828,95.2197703 C45.4457828,95.5942265 45.2147134,95.7943491 44.8299416,96.0181976 C43.5198605,96.7165637 41.9271321,97.4149297 40.2828256,98.014266 C41.0276119,99.5358168 42.0808345,101.132671 43.2372131,102.455131 C43.621985,102.879102 43.9819993,103.178255 44.1614908,103.427892 C44.4441382,103.777591 44.6494186,104.251077 44.6494186,104.775109 C44.6494186,105.374446 44.3409822,105.772628 43.9304214,105.772628 C43.570407,105.772628 43.2630021,105.623052 42.8771987,105.299142 C42.1839905,104.725595 41.6444847,104.475957 41.0276119,104.326381 C39.9743892,104.051986 38.6127302,103.877652 37.4831722,103.877652 C34.8114321,103.877652 33.2444926,104.950475 33.2444926,106.546298 C33.2444926,108.642427 35.9409901,109.94013 39.8206868,109.94013 C40.2570366,109.94013 40.7191755,109.914341 41.0791899,109.864826 C41.3102593,109.814279 41.5413287,109.764764 42.0550455,109.764764 C43.1082681,109.764764 43.6735629,110.388858 43.6735629,110.962405 C43.6735629,111.636014 43.0309011,111.959924 41.5413287,111.959924 C35.0425015,111.959924 31.8312556,109.840068 31.8312556,106.84545 C31.8312556,104.500714 34.0666459,102.828556 37.9711,102.828556 C39.229603,102.828556 40.4365281,102.90386 41.6444847,103.079225 C40.617051,101.631946 39.8206868,100.234183 38.9727446,98.4640261 C36.7631434,99.1118457 34.8372211,99.5605742 33.8097874,99.5605742 C32.062325,99.5605742 30.906978,98.7869043 29.8785128,97.2911425 L30.2643162,96.9166863 Z" id="Fill-26" fill="#231916"></path>
                <path d="M71.4975179,105.872792 C68.8257778,109.266624 64.6644653,111.437026 60.5031528,111.437026 C58.9620023,111.437026 57.9087797,111.112085 57.1124155,110.413719 C56.3923867,109.715353 56.0849819,108.816864 56.0849819,107.369586 C56.0849819,106.571158 56.1871063,104.875274 56.2644733,102.230354 C56.3676293,99.6854961 56.4697537,97.3160031 56.4697537,95.0197508 C56.4697537,93.8478988 56.2128953,93.4734426 55.3391641,93.2485625 C54.9543922,93.1495328 54.6975338,93.1495328 54.4406754,93.1495328 L54.3375194,92.7750765 C54.9801812,92.300559 55.4423201,92.2015293 55.8786699,92.2015293 C56.4439647,92.2015293 57.1382045,92.4759242 58.0366931,93.0742289 C58.8072684,93.5982613 59.0383378,93.8974137 59.0383378,94.222355 C59.0383378,94.4719925 58.9362134,94.695841 58.7309329,94.9207211 C58.55041,95.1198121 58.4740745,95.4447535 58.4224965,95.9677543 C58.2935515,97.1901528 58.1656381,98.5384015 58.0366931,101.007956 C57.9345687,103.47751 57.9087797,105.224973 57.9345687,106.546401 C57.9593262,107.918375 58.0624821,108.591984 58.524621,109.091259 C58.9877913,109.539988 59.7067886,109.690595 60.5805198,109.690595 C63.7391561,109.690595 67.8499222,108.343378 71.0869571,105.424064 L71.4975179,105.872792 Z" id="Fill-27" fill="#231916"></path>
                <path d="M85.0381854,91.5775387 C85.9882521,91.651811 86.5793359,91.9014485 87.2219977,92.3512086 C87.6841365,92.6751184 88.1720643,93.0743321 88.7373591,93.848002 C88.8652726,94.0481246 88.9168505,94.2719731 88.9168505,94.4720957 C88.9168505,94.7960055 88.7631481,94.9703391 88.3010093,95.1446727 C87.9409949,95.2952805 87.5046451,95.5696754 87.2735757,95.744009 C86.220353,96.6167087 85.3981998,97.3408637 84.3707662,98.2135633 C83.2659656,99.1863243 82.3922344,99.9352368 81.5700811,100.633603 C81.1853093,100.958544 80.9789973,101.257697 80.9789973,101.606364 C80.9789973,102.005577 81.2616447,102.355276 81.8785175,102.854551 C83.393879,104.07695 84.9092404,105.274591 86.194564,106.4712 C87.5046451,107.69463 88.5062897,108.816967 89.173709,109.865032 C89.4305674,110.264246 89.5337234,110.588156 89.5337234,110.937854 C89.5337234,111.711524 89.0457955,112.259283 88.4547117,112.259283 C88.0441509,112.259283 87.7615035,112.109706 87.4272781,111.511402 C86.3482665,109.390515 84.5244686,107.220113 82.4696013,105.324106 C81.7248151,104.675254 81.0305753,104.101707 80.3373671,103.527128 C79.7462833,103.053642 79.3862689,102.504852 79.3862689,101.806486 C79.3862689,101.20715 79.5925809,100.708907 80.2084221,100.084813 C82.083798,98.1888059 83.9591738,96.3423137 85.3981998,94.6959442 C85.8603386,94.1471543 86.168775,93.6984258 86.168775,93.2992121 C86.168775,92.9742708 85.8603386,92.4760273 84.858694,92.0015098 L85.0381854,91.5775387 Z" id="Fill-28" fill="#231916"></path>
                <path d="M112.733711,94.7709386 C112.656344,94.9700296 112.528431,95.0700909 112.347908,95.1701523 L112.347908,96.8412792 L117.177671,96.8412792 C117.63981,96.2924894 117.948246,95.8932757 118.565119,95.2444246 C120.697353,96.9413406 120.954212,97.3911007 120.954212,97.6149492 C120.954212,97.8893441 120.825267,98.0894667 120.568408,98.0894667 L112.347908,98.0894667 L112.347908,100.309384 L119.130414,100.309384 C119.618342,99.6863214 120.003114,99.2118038 120.619986,98.5629527 C122.931712,100.409445 123.21436,100.858173 123.21436,101.083053 C123.21436,101.357448 123.086446,101.556539 122.803799,101.556539 L102.432554,101.556539 L99.8639702,101.681358 L99.8639702,100.184565 L102.432554,100.309384 L110.31883,100.309384 L110.31883,98.0894667 L104.180017,98.0894667 L101.610401,98.2132539 L101.610401,96.7164605 L104.180017,96.8412792 L110.31883,96.8412792 L110.31883,94.7709386 L103.228919,94.7709386 L100.660334,94.8957573 L100.660334,93.398964 L103.228919,93.5237827 L107.364442,93.5237827 C107.262318,93.398964 107.184951,93.2483562 107.159162,93.0492652 C107.005459,91.9516855 106.517531,90.9541671 105.771714,90.2795269 L106.028572,89.9308597 C108.623977,90.5549534 109.368763,91.7525944 109.368763,92.6005366 C109.368763,92.9997503 109.239818,93.2989026 109.060326,93.5237827 L113.093726,93.5237827 C113.581653,92.3756566 114.018003,91.1780155 114.32644,89.9556171 C116.817657,90.729287 117.151882,90.9541671 117.151882,91.2038045 C117.151882,91.4781995 116.946602,91.6525331 116.098659,91.7525944 C115.584943,92.3261417 114.993859,92.9244464 114.300651,93.5237827 L118.718822,93.5237827 C119.18096,92.9749928 119.66992,92.426203 120.31155,91.7773518 C122.54694,93.6228124 122.829588,94.0220261 122.829588,94.2974526 C122.829588,94.5718475 122.674854,94.7709386 122.417995,94.7709386 L112.733711,94.7709386 Z M112.116838,105.748799 C113.093726,107.020712 114.480142,107.993473 115.893379,108.717628 C118.256683,109.88948 120.825267,110.43827 123.41964,110.812726 L123.343304,111.261455 C122.366417,111.461577 121.776365,112.135186 121.467929,112.933613 C116.689743,111.960852 113.119515,109.490266 111.500997,105.898375 C110.730422,108.218353 109.317185,109.839965 107.262318,111.062364 C105.257997,112.260005 102.458343,112.933613 99.5813228,113.107947 L99.4523778,112.659218 C102.201485,112.085671 104.693734,111.136636 106.337008,109.88948 C107.724456,108.842447 108.726101,107.518955 109.368763,105.748799 L102.458343,105.748799 L99.8897592,105.872586 L99.8897592,104.375793 L102.458343,104.500611 L109.727746,104.500611 C109.934058,103.603154 110.036182,102.679908 110.113549,101.756662 C112.707922,102.131118 113.016359,102.305452 113.016359,102.604604 C113.016359,102.929546 112.836867,103.079122 112.066292,103.353517 C112.014714,103.75273 111.937347,104.126155 111.85998,104.500611 L118.899345,104.500611 C119.361483,103.877549 119.823622,103.327728 120.492073,102.679908 C122.905923,104.600673 123.188571,105.049401 123.188571,105.274281 C123.188571,105.548676 123.034868,105.748799 122.77801,105.748799 L112.116838,105.748799 Z" id="Fill-29" fill="#231916"></path>
                <path d="M136.03995,94.1720149 L132.957649,94.1720149 L132.906071,94.2215298 L132.906071,102.55447 L136.03995,102.55447 L136.03995,94.1720149 Z M146.829034,100.908101 C148.292818,103.827415 151.067714,106.871549 154.458451,108.766524 L154.27896,109.191527 C153.405229,109.191527 152.634653,109.640255 152.120937,110.313864 C149.578141,108.192977 147.471696,105.049814 146.418474,101.581709 C146.46902,110.164288 146.546387,111.860172 146.546387,112.509023 C146.546387,112.908237 145.750023,113.307451 144.902081,113.307451 C144.543098,113.307451 144.362575,113.157874 144.362575,112.883479 C144.362575,112.085052 144.439942,110.512955 144.49152,102.879412 C141.793991,106.596122 137.478976,109.540194 132.93186,111.062776 L132.70079,110.637774 C137.041594,108.542676 141.074993,105.000299 143.566211,100.908101 L141.177118,100.908101 L138.71169,101.03292 L138.71169,99.5361263 L141.177118,99.660945 L144.49152,99.660945 C144.49152,98.3137278 144.517309,96.9912681 144.517309,95.6440509 L141.81978,95.6440509 L139.251196,95.7688696 L139.251196,94.2720762 L141.81978,94.396895 L144.517309,94.396895 L144.517309,94.0224387 C144.517309,91.9263091 144.49152,91.028852 144.414153,90.1551208 C147.034315,90.4047583 147.36854,90.5801234 147.36854,90.8545184 C147.36854,91.1031243 147.189049,91.2784895 146.418474,91.5776418 L146.418474,94.396895 L149.089182,94.396895 C149.552352,93.89762 150.04028,93.3240727 150.579786,92.8000403 C152.762567,94.595986 152.94309,94.9456848 152.94309,95.1953223 C152.94309,95.4439282 152.788356,95.6440509 152.531497,95.6440509 L146.418474,95.6440509 L146.418474,99.660945 L150.091858,99.660945 C150.553997,99.0873977 151.093503,98.4880614 151.658798,97.9145141 C154.022101,99.8858251 154.175804,100.184977 154.175804,100.434615 C154.175804,100.707978 154.022101,100.908101 153.765243,100.908101 L146.829034,100.908101 Z M136.03995,92.924859 C136.348386,92.2760079 136.553667,92.1511891 136.758947,92.1511891 C137.067383,92.1511891 137.272664,92.2760079 137.915326,92.7505254 C138.582745,93.2735263 138.763268,93.5231638 138.763268,93.7232864 C138.763268,93.9471349 138.556956,94.1720149 137.915326,94.5464712 L137.915326,96.2423556 C137.915326,101.532195 138.043239,103.7779 138.043239,104.42572 C138.043239,105.049814 137.298453,105.324209 136.527878,105.324209 C136.193652,105.324209 136.03995,105.174633 136.03995,104.874449 L136.03995,103.801626 L132.906071,103.801626 L132.906071,106.022575 C132.906071,106.571365 132.314987,106.921063 131.416498,106.921063 C131.056484,106.921063 130.876993,106.770456 130.876993,106.446546 C130.876993,105.723422 130.979117,103.927477 130.979117,95.2200798 C130.979117,93.8481051 130.953328,93.0991927 130.927539,92.2512504 C131.59599,92.4513731 132.263409,92.6504641 132.906071,92.924859 L136.03995,92.924859 Z" id="Fill-30" fill="#231916"></path>
                <path d="M179.841942,105.872792 C177.170202,109.266624 173.008889,111.437026 168.847577,111.437026 C167.306426,111.437026 166.253204,111.112085 165.456839,110.413719 C164.736811,109.715353 164.429406,108.816864 164.429406,107.369586 C164.429406,106.571158 164.53153,104.875274 164.608897,102.230354 C164.712053,99.6854961 164.814178,97.3160031 164.814178,95.0197508 C164.814178,93.8478988 164.557319,93.4734426 163.683588,93.2485625 C163.298816,93.1495328 163.041958,93.1495328 162.785099,93.1495328 L162.681943,92.7750765 C163.324605,92.300559 163.786744,92.2015293 164.223094,92.2015293 C164.788389,92.2015293 165.482628,92.4759242 166.381117,93.0742289 C167.151692,93.5982613 167.382762,93.8974137 167.382762,94.222355 C167.382762,94.4719925 167.280637,94.695841 167.075357,94.9207211 C166.894834,95.1198121 166.818498,95.4447535 166.76692,95.9677543 C166.637975,97.1901528 166.510062,98.5384015 166.381117,101.007956 C166.278993,103.47751 166.253204,105.224973 166.278993,106.546401 C166.30375,107.918375 166.406906,108.591984 166.869045,109.091259 C167.332215,109.539988 168.051213,109.690595 168.924944,109.690595 C172.08358,109.690595 176.194346,108.343378 179.431381,105.424064 L179.841942,105.872792 Z" id="Fill-31" fill="#231916"></path>
                <path d="M201.346561,104.700218 C202.373995,104.575399 203.427217,104.425823 203.992512,104.25149 C204.377284,104.151428 204.506229,103.951306 204.506229,103.627396 C204.454651,101.83145 202.194503,99.2865919 200.03648,99.2865919 C198.752188,99.2865919 197.57002,100.334657 196.440462,101.880965 C195.258295,103.502577 194.410352,104.974613 193.511864,107.021228 C193.35713,107.369895 193.331341,107.619533 193.331341,107.793866 C193.331341,107.9682 193.408708,108.143565 193.434497,108.267352 C193.537653,108.542779 193.588199,108.766627 193.588199,109.016265 C193.588199,109.466025 193.177638,109.765177 192.792867,109.765177 C192.150205,109.789935 191.276474,109.390721 190.429563,108.442717 C188.6821,106.446649 187.911525,103.752215 187.937314,99.5609869 C187.937314,97.8651024 187.911525,96.7912486 187.808369,96.3177626 C187.732034,95.8937915 187.526753,95.4698204 186.961459,94.8457267 L187.244106,94.5218169 C187.654667,94.7209079 188.014681,94.9210305 188.323118,95.144879 C188.785256,95.5193353 189.195817,95.9185489 189.60741,96.4673388 C189.864268,96.816006 190.017971,97.1904623 190.017971,97.4153423 C190.017971,97.7897986 189.864268,98.2890735 189.786901,98.8120744 C189.633199,99.485683 189.530043,100.609052 189.555832,101.731389 C189.581621,103.577881 190.095338,105.349069 190.94328,106.197012 C191.096982,106.372377 191.276474,106.446649 191.431208,106.446649 C191.636488,106.446649 191.815979,106.346588 192.098627,105.947374 C194.025581,103.029091 195.59252,100.808143 197.056304,99.5857443 C198.033191,98.7625595 199.034835,98.3633458 200.319127,98.3633458 C203.889356,98.3633458 206.972689,101.756146 206.972689,104.949856 C206.972689,106.09695 206.561096,106.671529 205.919466,106.671529 C205.559452,106.671529 205.276804,106.471406 204.994157,106.09695 C204.763087,105.748283 204.300949,105.54816 203.863567,105.449131 C203.324061,105.324312 202.373995,105.249008 201.346561,105.199493 L201.346561,104.700218 Z" id="Fill-32" fill="#231916"></path>
                <path d="M214.143371,109.091362 C217.894122,106.945718 220.873267,104.151222 223.801866,100.309693 C224.136091,99.9104793 224.341372,99.585538 224.521895,99.2616282 C224.701386,98.9872333 224.367161,98.9872333 223.853444,99.0367481 C222.363871,99.1615669 220.719565,99.3864469 219.435273,99.585538 C218.664698,99.7103567 218.202559,99.7609032 217.816755,99.9599942 C217.637264,100.035298 217.456741,100.084813 217.303039,100.084813 C216.968813,100.084813 216.403518,99.7856606 215.889802,99.2863856 C215.453452,98.8871719 215.093437,98.3631395 214.862368,97.7895922 L215.248171,97.5399547 C215.864013,98.0887446 216.378761,98.2383208 217.380406,98.2630782 C218.535753,98.2888672 221.541718,98.0144723 225.549328,97.6895309 C225.523539,96.7415274 225.49775,95.8440703 225.394594,94.9455817 C225.368805,94.3472769 225.318259,94.0223356 225.189314,93.848002 C225.009822,93.6231219 224.675597,93.5488496 224.418739,93.5230606 C224.058724,93.4983032 223.853444,93.4983032 223.545007,93.5230606 L223.417094,93.0990895 C224.136091,92.6751184 224.932455,92.4512699 225.368805,92.4512699 C225.806187,92.4512699 226.499395,92.650361 227.038901,92.8999984 C227.50104,93.1486044 227.835265,93.3734844 227.835265,93.6478794 C227.835265,93.9470317 227.681563,94.1223969 227.475251,94.3472769 C227.295759,94.5958829 227.26997,94.8702778 227.26997,95.244734 C227.26997,95.9678575 227.321548,96.6920125 227.347337,97.5647122 C229.171135,97.415136 230.044866,97.3656211 230.660707,97.3150747 C231.329158,97.2408024 231.894453,97.1654985 232.279225,97.0406798 C232.587661,96.9168926 232.947676,96.6920125 233.280869,96.6920125 C234.051445,96.6920125 235.567838,97.440925 235.567838,98.0887446 C235.567838,98.5880196 235.335737,98.7871106 234.847809,98.7871106 C234.308303,98.7871106 233.0498,98.6375345 231.868664,98.6375345 C229.94171,98.6375345 228.580051,98.7128383 227.398915,98.7623532 C227.552618,105.5985 227.732109,107.644084 227.732109,108.841725 C227.732109,109.690698 227.604196,110.164184 227.244181,110.538641 C226.756253,111.087431 226.088834,111.460855 225.677242,111.460855 C225.318259,111.460855 225.137736,111.337068 225.009822,110.887308 C224.906666,110.438579 224.675597,110.264246 224.341372,110.11467 C223.827655,109.814486 223.186025,109.589606 222.286504,109.316242 L222.338082,108.816967 C223.468672,108.966543 224.521895,109.016058 225.163525,108.991301 C225.625664,108.991301 225.754609,108.941786 225.754609,108.617876 C225.831976,107.419204 225.831976,106.097775 225.831976,104.650497 C225.806187,103.452856 225.806187,101.98082 225.780398,100.684149 C225.137736,101.532091 224.444528,102.330519 223.982389,102.828762 C221.386984,105.5985 218.742065,107.844206 214.426018,109.615395 L214.143371,109.091362 Z" id="Fill-33" fill="#231916"></path>
                <path d="M238.499325,106.17246 C241.607414,104.176392 244.536013,101.582019 246.976684,99.0866756 C248.595201,97.4650635 250.16214,95.6196029 251.215363,94.121778 C251.420644,93.8226256 251.498011,93.622503 251.498011,93.4234119 C251.498011,93.1985319 251.163785,92.8251072 250.136351,92.6002271 L250.16214,92.1267412 C250.59849,92.0761947 251.009051,92.0266799 251.369066,92.0266799 C251.703291,92.0266799 252.037516,92.0514373 252.344921,92.176256 C253.347597,92.4754084 254.502944,93.373897 254.502944,93.9474443 C254.502944,94.3219006 254.323453,94.4962342 254.015017,94.6210529 C253.70658,94.7458717 253.475511,94.8954479 252.910216,95.5690565 C251.856993,96.74194 251.137996,97.5145784 249.981618,98.6379471 C250.803771,99.1372221 250.984294,99.4611319 250.984294,99.8355881 C250.984294,100.034679 250.906927,100.558712 250.906927,101.282867 C250.906927,102.205081 250.906927,103.801936 250.932716,105.474094 C250.932716,107.519678 250.984294,109.590018 250.984294,110.562779 C250.984294,111.735663 250.650068,112.085362 250.007407,112.085362 C249.365776,112.085362 248.723114,111.237419 248.723114,109.814898 C248.723114,109.640565 248.774692,109.215562 248.852059,108.891652 C248.902606,108.5925 248.979973,108.168529 248.979973,107.194736 C249.031551,105.448305 249.05734,103.277903 249.05734,100.68353 C249.05734,100.210044 249.005762,99.885103 248.902606,99.6612545 C245.48608,102.778628 242.301654,105.050123 238.83355,106.670704 L238.499325,106.17246 Z" id="Fill-34" fill="#231916"></path>
                <path d="M284.458721,100.933065 C282.121206,103.576953 279.885816,105.37393 275.879238,107.519574 C275.519223,107.719697 275.108662,107.943546 274.928139,108.093122 C274.800226,108.267455 274.619703,108.342759 274.466001,108.342759 C274.26072,108.342759 274.029651,108.267455 273.772792,108.068364 C273.309622,107.744454 272.847483,107.319452 272.513258,106.946027 C272.333766,106.770662 272.205853,106.521024 272.205853,106.346691 C272.205853,106.122842 272.256399,105.998024 272.307977,105.797901 C272.385344,105.574053 272.411133,105.273869 272.436922,104.900444 C272.4885,103.078709 272.564836,100.409032 272.590625,97.6403255 C272.590625,97.0162318 272.564836,96.6170181 272.436922,96.3426232 C272.307977,95.968167 271.768471,95.7443185 271.049474,95.6442572 L270.997896,95.1449822 C271.511613,94.9706486 272.076908,94.8705873 272.4885,94.8705873 C272.92485,94.8705873 273.874917,95.1955286 274.543368,95.6442572 C274.979717,95.9434095 275.159209,96.2425619 275.159209,96.4179271 C275.159209,96.6417756 275.108662,96.7913517 274.979717,96.9667169 C274.774437,97.2411119 274.671281,97.4649603 274.593914,97.864174 C274.49179,98.363449 274.466001,99.0123002 274.440212,99.361999 C274.312298,101.057883 274.26072,103.353104 274.234931,105.398687 C274.234931,105.748386 274.440212,105.873205 274.826015,105.773144 C278.011472,104.749836 281.016406,102.853829 284.072918,100.509094 L284.458721,100.933065 Z M261.210456,108.891549 C263.34269,107.644393 264.755927,106.172357 265.962853,104.301108 C267.067653,102.605223 267.992962,99.9603037 267.992962,98.6130865 C267.992962,98.2633877 267.915595,98.0642966 267.710315,97.864174 C267.479246,97.6403255 267.222387,97.4402029 266.657092,97.2906267 L266.707639,96.8161092 C267.170809,96.7418369 267.632948,96.7170794 267.967173,96.7665943 C268.506679,96.8161092 269.277254,97.2658693 269.81676,97.7651443 C270.278899,98.1891154 270.406812,98.3882064 270.406812,98.6626014 C270.406812,98.9617537 270.304688,99.0865725 270.149954,99.3114525 C269.996252,99.5363326 269.918885,99.7859701 269.713604,100.359517 C269.046185,102.354554 268.224032,104.026713 267.067653,105.424476 C265.680205,107.120361 264.03693,108.342759 261.544682,109.390824 L261.210456,108.891549 Z" id="Fill-35" fill="#231916"></path>
                <path d="M308.866562,97.3407605 C310.125065,97.5150942 311.281444,97.839004 312.129386,98.4135828 C312.796805,98.8623113 313.053664,99.3615863 313.053664,99.8598297 C313.053664,100.459166 312.668892,100.807833 312.205722,100.807833 C311.897285,100.807833 311.615669,100.658257 311.178288,99.9103762 C310.664571,99.0871914 309.740294,98.2392492 308.737617,97.7399742 L308.866562,97.3407605 Z M306.503259,99.1614637 C307.659637,99.3615863 308.943929,99.8103149 309.714505,100.409651 C310.202432,100.783076 310.562447,101.307108 310.562447,101.880656 C310.562447,102.504749 310.202432,102.854448 309.714505,102.854448 C309.200788,102.854448 308.995507,102.479992 308.558126,101.756868 C308.121776,101.058502 307.325412,100.110499 306.349556,99.5606774 L306.503259,99.1614637 Z M290.47385,96.2184234 C291.347581,97.2912457 291.732353,97.365518 292.297648,97.365518 C292.888731,97.365518 294.069868,97.1664269 295.071512,96.9663043 C298.437492,96.2679383 302.213001,95.4447535 306.066909,94.5215074 C306.656961,94.3719312 307.094342,94.1975976 307.427536,94.0222324 C307.839129,93.8231414 308.147565,93.7478375 308.430213,93.7478375 C308.995507,93.7478375 309.637138,93.8726562 310.433502,94.222355 C310.869852,94.4214461 311.076164,94.7711449 311.076164,95.195116 C311.076164,95.7439059 310.793516,95.9182395 309.893996,95.9182395 C307.325412,95.9182395 305.706894,96.167877 304.345235,96.7414243 C300.826585,98.2134602 299.1307,100.758318 299.1307,103.577572 C299.1307,106.970372 302.03351,108.517712 304.550516,108.642531 C305.321091,108.716803 305.732683,108.716803 306.04112,108.667288 C306.349556,108.591984 306.606415,108.591984 306.760117,108.591984 C307.839129,108.591984 308.737617,109.316139 308.737617,110.014505 C308.737617,110.663356 308.430213,110.912994 307.325412,110.937751 C305.218967,110.962509 303.343591,110.638599 301.750862,109.989748 C299.156489,108.892168 297.641128,106.845553 297.641128,103.976785 C297.641128,101.431927 299.027544,98.8375539 302.187212,96.6166055 C299.439137,97.3407605 297.384269,97.864793 294.840443,98.6632203 C294.069868,98.9118262 293.685096,99.0614024 293.299292,99.3120715 C293.068223,99.4358586 292.862942,99.5111625 292.606084,99.5111625 C292.323437,99.5111625 291.937633,99.3615863 291.57865,99.0614024 C290.704919,98.3888254 290.062257,97.5150942 290.062257,96.9167894 C290.062257,96.6919094 290.088046,96.392757 290.139624,96.2431808 L290.47385,96.2184234 Z" id="Fill-36" fill="#231916"></path>
                <path d="M327.016549,103.602638 C327.016549,104.925098 327.864491,105.54816 328.840347,105.54816 C329.739867,105.54816 330.484653,104.949856 330.536231,103.527335 C330.433075,102.205906 329.765656,101.481751 328.840347,101.481751 C327.787124,101.481751 327.016549,102.304936 327.016549,103.602638 Z M328.352419,91.2785926 C328.891925,91.0289551 329.483008,90.9041364 330.022514,90.9041364 C330.56202,90.9041364 331.717367,91.3776224 332.410575,91.9264122 C332.693223,92.1512923 332.822168,92.4009298 332.822168,92.6247783 C332.822168,92.8754473 332.719012,93.0745384 332.53952,93.2736294 C332.33424,93.5232669 332.256873,93.7729044 332.231084,94.1721181 C332.179506,94.7209079 332.12896,95.4440314 332.103171,96.2424587 C333.952757,96.0681251 335.21126,95.9938528 336.469763,95.8937915 C337.086636,95.8442766 337.522986,95.7442153 337.831423,95.644154 C337.985125,95.5936076 338.293561,95.4945778 338.498842,95.4945778 C339.141504,95.4945778 340.09157,95.7937302 340.862145,96.2930052 C341.22216,96.4920962 341.375862,96.8665525 341.375862,97.1904623 C341.375862,97.6144334 341.093215,97.8651024 340.605287,97.8651024 C340.168937,97.8651024 339.603642,97.7392521 338.601998,97.5401611 C337.933547,97.3905849 337.009269,97.315281 335.724977,97.315281 C334.749122,97.315281 333.541165,97.3658274 332.103171,97.4648572 C332.077382,99.0369544 332.103171,100.8329 332.153717,103.053849 C332.308451,103.627396 332.385818,104.151428 332.385818,104.974613 C332.385818,109.765177 328.712433,112.13467 323.548445,113.23225 L323.420531,112.68346 C327.42711,111.211424 329.816202,109.041022 330.407286,106.471406 C330.022514,106.770559 329.43143,106.921167 328.840347,106.921167 C326.99076,106.921167 325.834381,105.797798 325.834381,103.776972 C325.834381,101.956269 327.170251,100.633809 328.866136,100.633809 C329.533555,100.633809 330.176217,100.858689 330.536231,101.207356 C330.510442,99.9602005 330.510442,98.9616506 330.484653,97.6649798 C328.069771,97.9888896 325.834381,98.3881033 323.703179,98.8626208 C322.5468,99.1112267 322.11045,99.2370771 321.802014,99.3866532 C321.519366,99.5362294 321.314086,99.6352592 321.083016,99.6352592 C320.800369,99.6352592 320.543511,99.5857443 320.157707,99.3361068 C319.695568,99.012197 319.23343,98.6624982 318.847626,98.2137697 C318.590768,97.8888283 318.462854,97.5401611 318.437065,97.2657661 C318.437065,97.1657048 318.437065,96.9408248 318.462854,96.7664912 L318.796048,96.7169763 C319.001329,97.0408861 319.387132,97.315281 319.695568,97.4648572 C319.926638,97.5896759 320.286652,97.6649798 320.826158,97.6649798 C321.21093,97.6649798 321.698858,97.6144334 322.212574,97.5649185 C324.961682,97.1904623 327.504477,96.816006 330.458864,96.4425814 C330.458864,95.4698204 330.458864,94.6208466 330.433075,93.7233895 C330.381497,92.8496583 330.305162,92.5752634 330.124639,92.276111 C329.86778,91.8768974 329.379852,91.7273212 328.403997,91.7520786 L328.352419,91.2785926 Z" id="Fill-37" fill="#231916"></path>
                <path d="M349.16383,108.717112 C349.16383,110.264452 350.448122,111.510576 352.04085,111.510576 C353.633579,111.510576 354.917871,110.264452 354.917871,108.717112 C354.917871,107.145015 353.659368,105.922617 352.04085,105.922617 C350.448122,105.922617 349.16383,107.145015 349.16383,108.717112 M355.945304,108.717112 C355.945304,110.787453 354.173085,112.509126 352.04085,112.509126 C349.908616,112.509126 348.136396,110.787453 348.136396,108.717112 C348.136396,106.620983 349.908616,104.925098 352.04085,104.925098 C354.198874,104.925098 355.945304,106.620983 355.945304,108.717112" id="Fill-38" fill="#231916"></path>
            </g>
        </g>
    </g>
</svg>