<?xml version="1.0" encoding="UTF-8"?>
<svg width="161px" height="50px" viewBox="0 0 161 50" version="1.1" xmlns="http://www.w3.org/2000/svg" xmlns:xlink="http://www.w3.org/1999/xlink">
    <!-- Generator: Sketch 52.3 (67297) - http://www.bohemiancoding.com/sketch -->
    <title>txt-product1</title>
    <desc>Created with Sketch.</desc>
    <defs>
        <polygon id="path-1" points="0.000837464489 0.229242657 11.89043 0.229242657 11.89043 20.5240692 0.000837464489 20.5240692"></polygon>
        <polygon id="path-3" points="0 0.935872389 6.20204176 0.935872389 6.20204176 8.24091198 0 8.24091198"></polygon>
    </defs>
    <g id="Page-1" stroke="none" stroke-width="1" fill="none" fill-rule="evenodd">
        <g id="0top" transform="translate(-777.000000, -1532.000000)">
            <g id="Group-23" transform="translate(777.000000, 1532.000000)">
                <g id="Group-15" transform="translate(30.510079, 34.558594)" fill="#000000">
                    <path d="M0,13.8253483 C2.02616528,12.7749727 3.70068204,11.4196493 5.1882111,9.74526025 C6.36037283,8.42381997 7.5660249,6.69860628 8.61817959,4.58091354 C8.65446079,4.53008892 8.6684151,4.47926429 8.6684151,4.42843966 C8.6684151,4.3606735 8.60422529,4.30984887 8.45351878,4.30984887 C7.59951523,4.34373195 6.67853101,4.42843966 6.14268565,4.46232275 C5.8580178,4.46232275 5.69056612,4.37761504 5.45613378,4.14043345 C4.28397205,5.8176461 2.82993333,7.37344437 0.83725838,8.50852768 L0.602826034,8.16969684 C2.31083313,6.66189961 3.61416534,4.97056901 4.65236573,2.97146706 C4.85330774,2.58181159 4.95377875,2.29662897 4.95377875,2.11027201 C4.95377875,1.88720837 4.75283674,1.59920216 4.16954673,1.39872724 L4.30350807,1.09377949 C4.95377875,1.05989641 5.43938861,1.22931183 6.05895981,1.6161437 C6.41060833,1.85332529 6.64504068,2.15827304 6.64504068,2.39545463 C6.64504068,2.58181159 6.54456967,2.68346084 6.4273535,2.78511009 C6.32688249,2.8698178 6.20966632,2.9884086 6.12594048,3.10699939 C6.00872431,3.27641481 5.87476297,3.5135964 5.74080163,3.7168949 C6.59480517,3.68301182 7.48229906,3.61524565 8.11861543,3.54747948 C8.63771562,3.49665486 8.82191247,3.42888869 9.02006362,3.22559018 C9.17356099,3.12394093 9.29077716,3.00535014 9.42194764,3.00535014 C9.60614448,3.00535014 9.857322,3.1917071 10.3094415,3.54747948 C10.7280707,3.86936878 10.8955224,4.08960882 10.8955224,4.29290733 C10.8955224,4.53008892 10.761561,4.63173817 10.3764222,4.78421204 C10.1252447,4.86891975 9.97453817,4.97056901 9.79034133,5.32634139 C8.56794409,7.64733263 7.21437638,9.28783861 6.02546948,10.5076296 C4.47095975,12.097311 2.44479447,13.3848682 0.184196844,14.1641791 L0,13.8253483 Z" id="Fill-23"></path>
                    <path d="M17.8555821,5.44776119 C18.9538507,5.98685718 19.3460896,7.06195091 19.3460896,7.73117352 C19.3460896,8.38180661 19.1238209,8.71641791 18.7838806,8.71641791 C18.4962388,8.71641791 18.3654925,8.45616467 18.313194,7.84271062 C18.2216716,6.95041381 18.0909254,6.35864752 17.6986866,5.6708354 L17.8555821,5.44776119 Z M16.3432836,13.8159445 C17.9007752,12.945358 19.0325694,11.9639695 20.085342,10.6686423 C20.913795,9.6872538 21.6912663,8.40511727 22.2418689,6.93567273 C22.364225,6.63492465 22.4101085,6.44234036 22.4101085,6.31834773 C22.4101085,6.22337465 22.394814,6.14423042 22.2724579,6.06508619 C22.1348072,5.97011311 21.920684,5.87514004 21.7244044,5.8276535 L21.7524443,5.47941889 C21.9053895,5.46359004 22.0430401,5.44776119 22.1806908,5.44776119 C22.3183414,5.44776119 22.4559921,5.46359004 22.5783482,5.47941889 C22.7771769,5.49524773 22.9760057,5.57439196 23.0983618,5.65353619 C23.3583686,5.8276535 23.5571973,6.00177081 23.756026,6.22337465 C23.9089712,6.39485382 23.9701493,6.50565574 23.9701493,6.6507535 C23.9701493,6.8248708 23.8783822,6.91984388 23.7407315,6.99634997 C23.5571973,7.09396119 23.4348412,7.25224965 23.3736631,7.37888042 C22.5630537,9.02244227 21.831466,10.2254346 20.913795,11.2358426 C19.6749391,12.5997615 18.3443162,13.4993676 16.5395632,14.1641791 L16.3432836,13.8159445 Z M15.6383433,6.53731343 C16.695209,6.86703244 17.2051194,7.48631238 17.2051194,8.05697989 C17.2051194,8.52619541 16.9436269,8.71641791 16.6167612,8.71641791 C16.4097463,8.71641791 16.2506716,8.56423991 16.1983731,8.2091579 C16.0959552,7.58987796 15.8475373,7.10798095 15.4814478,6.70217294 L15.6383433,6.53731343 Z" id="Fill-25"></path>
                    <path d="M31.9109252,1.78823777 C32.4185657,1.34952825 32.9103424,1.08955224 33.275209,1.08955224 C33.9573509,1.08955224 34.5443102,1.46326775 34.5443102,1.69074676 C34.5443102,1.88572877 34.5099387,1.98321978 34.4649914,2.08071078 C34.3698088,2.27569279 34.3354373,2.4869233 34.3856726,2.86063881 C34.4464837,3.49433034 34.4967189,3.81930035 34.5760377,4.42049487 C36.0645877,4.15781078 36.9053673,3.96553686 37.2067788,3.78680335 C37.3019614,3.73805785 37.4130078,3.64056684 37.5716454,3.64056684 C37.7778744,3.64056684 38.0475584,3.67306384 38.3648337,3.83554885 C38.7138365,3.99803386 38.8407466,4.19301587 38.8407466,4.38528979 C38.8407466,4.6777628 38.6662452,4.74546489 37.936512,4.81045889 C37.4447353,4.85920439 36.4929094,4.9729439 34.7188116,5.26541691 C34.8430778,6.12658744 34.9409043,6.82256489 35.0651705,7.63498992 C35.9218138,7.48875342 37.1115962,7.32626841 37.8096019,7.1962804 C38.1268772,7.1312864 38.3489699,7.0662924 38.6503814,6.95255289 C38.7614278,6.90380739 38.9042017,6.82256489 39.015248,6.82256489 C39.4567895,6.82256489 40.3134328,7.2125289 40.3134328,7.61874142 C40.3134328,7.91121443 40.2023865,8.05745094 39.8057923,8.05745094 C39.4091982,8.05745094 38.951793,8.05745094 38.4917438,8.07369944 C37.4605991,8.10619644 36.4135906,8.25243295 35.2105884,8.41491795 C35.4934922,10.169756 35.7473124,11.6456615 35.8900863,12.5555775 C36.0011327,13.1567721 36.0328602,13.3680026 36.0328602,13.5954816 C36.0328602,13.9177435 35.7949037,14.1641791 35.4326811,14.1641791 C34.8906691,14.1641791 34.7796227,13.8554576 34.7029479,13.4329966 C34.6553566,13.1730206 34.6077653,12.6855655 34.5760377,12.3280985 C34.4808552,11.33694 34.3354373,10.1507994 34.1133446,8.62614846 C32.9103424,8.86987597 31.7681513,9.14610048 31.1653282,9.30858549 C30.7211428,9.4385735 30.4223752,9.552313 30.2135023,9.649804 C30.0892361,9.73104651 29.9279545,9.77979201 29.8036884,9.77979201 C29.4864131,9.77979201 29.1215465,9.487319 28.8201349,9.14610048 C28.6456335,8.95111848 28.4869959,8.70739097 28.3283582,8.36617245 L28.5345872,8.18743894 C28.88359,8.43116645 29.1691378,8.57740296 29.5340044,8.59365146 C29.8671434,8.59365146 30.2002825,8.54490596 30.5942327,8.46366346 C31.72056,8.25243295 32.8786149,8.02495394 34.020806,7.81372343 C33.8938958,7.0337954 33.7669857,6.17262486 33.6400756,5.47393933 C32.9579337,5.60392734 32.2916556,5.73662343 31.6095136,5.89910843 C31.3239659,5.97764285 31.1018732,6.04263686 30.9432355,6.10763086 C30.8480529,6.15637636 30.7555143,6.18887336 30.6444679,6.18887336 C30.165911,6.18887336 29.4705493,5.45769083 29.2484566,4.89170139 L29.4070942,4.69671939 C29.8803632,5.0379379 30.23201,5.0866834 30.5810129,5.0866834 C30.9141519,5.0866834 31.2605108,5.0379379 31.6095136,4.9891924 C32.1647454,4.90524181 32.735841,4.79150231 33.4973017,4.64797388 C33.3703916,3.78680335 33.275209,3.18560882 33.1324351,2.4706748 C33.0689801,2.12945628 32.9262062,1.98321978 32.7199772,1.98321978 C32.4978845,1.98321978 32.2440643,2.01571678 32.0061078,2.04821378 L31.9109252,1.78823777 Z" id="Fill-27"></path>
                    <path d="M55.5671642,4.5810267 C53.476373,7.79331583 51.0051962,10.0374088 47.4646834,12.3425114 C47.1933594,12.5175825 47.0177968,12.6608225 46.8901149,12.8358936 C46.7783932,12.9791335 46.6187908,13.0746269 46.4432282,13.0746269 C46.1399837,13.0746269 45.6132958,12.7244847 45.0068068,11.9605381 C44.751443,11.6422271 44.687602,11.323916 44.6716418,10.9764264 L44.9270056,10.8464494 C45.2462104,11.1965916 45.6292561,11.467156 45.9005801,11.467156 C46.1080632,11.467156 46.427268,11.3743153 46.7783932,11.1647605 C49.9997012,9.28937782 53.0640669,6.8542982 55.2479594,4.35820896 L55.5671642,4.5810267 Z M44.7688108,3.26865672 C45.5461627,3.37306811 45.9996179,3.4948814 46.5016577,3.72110609 C47.3761786,4.13875167 47.9402985,4.80002384 47.9402985,5.5309036 C47.9402985,6.13997007 47.6352959,6.51991153 47.1656458,6.53731343 C46.7931646,6.53731343 46.5502422,6.34589254 46.3235145,5.68462038 C46.0158128,4.80002384 45.4004092,3.98213458 44.6716418,3.5992928 L44.7688108,3.26865672 Z" id="Fill-29"></path>
                    <path d="M69.8287213,0.272932836 C70.7797803,0.410216418 71.6561828,0.665171642 72.298878,1.11624627 C72.8052439,1.46926119 73,1.8615 73,2.25047015 C73,2.72442537 72.7078658,2.99572388 72.3573048,2.99572388 C72.1268434,2.99572388 71.9126117,2.87805224 71.5815263,2.29296269 C71.1887682,1.6425 70.4908921,0.978962687 69.7313433,0.586723881 L69.8287213,0.272932836 Z M68.7856119,1.27259701 C69.6681493,1.43276119 70.6487463,1.78577612 71.2371045,2.25319403 C71.6097313,2.55064179 71.8842985,2.96249254 71.8842985,3.41029851 C71.8842985,3.90059701 71.6097313,4.17516418 71.2371045,4.17516418 C70.8448657,4.17516418 70.6879701,3.88098507 70.3545672,3.31550746 C70.0211642,2.76637313 69.413194,2.0211194 68.6679403,1.58965672 L68.7856119,1.27259701 Z M58.8358209,13.8254052 C60.8619862,12.775206 62.5337121,11.4229334 64.024032,9.7460024 C65.1961937,8.42478406 66.4018458,6.697037 67.4567914,4.58252303 C67.4874908,4.53170694 67.5070269,4.48089085 67.5070269,4.43007476 C67.5070269,4.36231998 67.4372553,4.31150389 67.2865488,4.31150389 C66.4353361,4.34538128 65.5143519,4.43007476 64.9785065,4.46395216 C64.6938387,4.46395216 64.526387,4.37925867 64.2919547,4.14211692 C63.1197929,5.81904789 61.6629634,7.37740798 59.6730793,8.50947754 L59.4386469,8.17070361 C61.146654,6.66598272 62.4527771,4.97211306 63.4881866,2.97616997 C63.6891286,2.58375683 63.7895996,2.29579899 63.7895996,2.10947332 C63.7895996,1.89209338 63.5886576,1.60413554 63.0025768,1.39804806 L63.1365381,1.09315152 C63.7895996,1.06209725 64.2752095,1.23148421 64.8947807,1.62107424 C65.2464292,1.85821599 65.4808616,2.16028941 65.4808616,2.39743117 C65.4808616,2.58375683 65.3803906,2.68538901 65.2631744,2.78702119 C65.1627034,2.87171467 65.0454872,2.99028555 64.9617614,3.10885643 C64.8445452,3.27824339 64.7105839,3.51538514 64.5766225,3.7186495 C65.4306261,3.68477211 66.31812,3.61701732 66.9516455,3.54926254 C67.4707457,3.49844645 67.6549425,3.43069166 67.8558845,3.2274273 C68.006591,3.12579512 68.1238072,3.00722425 68.2577685,3.00722425 C68.4419654,3.00722425 68.6931429,3.19354991 69.1452624,3.54926254 C69.5638916,3.87109777 69.7313433,4.09130083 69.7313433,4.29456519 C69.7313433,4.53170694 69.5973819,4.63333912 69.2122431,4.78578739 C68.9610656,4.87048088 68.8103591,4.97211306 68.6261622,5.32782569 C67.403765,7.64560401 66.0501973,9.28865759 64.8612904,10.5082437 C63.3039898,12.0976581 61.2806154,13.3849991 59.0200177,14.1641791 L58.8358209,13.8254052 Z" id="Fill-31"></path>
                </g>
                <g id="Group-22" transform="translate(30.000000, 0.000000)">
                    <g id="Group-3" transform="translate(0.212384, 0.431935)">
                        <mask id="mask-2" fill="white">
                            <use xlink:href="#path-1"></use>
                        </mask>
                        <g id="Clip-2"></g>
                        <path d="M3.38260363,10.1555402 C2.32605428,10.000843 1.31558497,9.95476295 0.0812983455,9.80006569 C0.104338362,9.11544805 -0.0503588942,8.13789304 0.0187611567,7.4532754 C1.57889945,7.69684129 2.43796294,7.71988131 3.16207775,7.69684129 C3.16207775,6.98918363 3.29702642,5.21510232 3.35956361,4.28691878 C3.53730089,1.7821398 5.44962229,0.143007165 8.52711027,0.231875801 C11.6539697,0.320744438 12.2464273,2.04874571 11.7197983,4.26387877 L10.11358,4.17501013 L9.03728207,4.1289301 C9.32363657,3.42127243 9.43225379,2.26927159 8.00048131,2.33839164 C6.52921166,2.40422026 5.95650267,3.24353516 5.75901681,4.55023326 C5.67014817,5.19535374 5.68989676,6.78840634 5.75901681,7.54214403 C7.3191551,7.71988131 9.40921378,7.69684129 10.11358,7.69684129 C10.0477514,8.16093306 9.98192277,8.86859072 10.09054,9.77702568 C9.12285928,9.95476295 7.23357789,9.68815704 6.11119992,9.5137112 C6.19677713,10.3332775 6.35147438,18.6803465 6.44034302,20.4774678 C5.89067405,20.4544278 4.8341247,20.6091251 3.66895813,20.4544278 C3.8466954,18.9930325 3.46818084,10.7973693 3.38260363,10.1555402" id="Fill-1" fill="#000000" mask="url(#mask-2)"></path>
                    </g>
                    <path d="M17.0822841,11.9600022 C16.0059862,12.4240939 14.6202938,15.3040961 16.0915634,17.0320973 C16.9736669,18.0294009 19.4389487,17.3645319 20.0511549,16.7457428 C20.5382867,16.258611 21.1504928,15.1921874 20.6008239,13.7768721 C20.0972349,12.493214 18.0071763,11.584779 17.0822841,11.9600022 M16.8650497,19.7574022 C14.682831,19.6454935 13.6526131,16.9201887 13.7842703,14.3528725 C13.9389675,10.8540814 16.7333925,9.54738325 17.875519,9.54738325 C20.3605494,9.54738325 23.3524602,11.2062645 23.3524602,15.7484392 C23.3524602,17.6739264 21.7923219,20.0009681 16.8650497,19.7574022" id="Fill-4" fill="#000000"></path>
                    <path d="M29.2095616,5.38174819 L28.7454699,9.21297387 C29.120693,8.7916707 29.5814933,8.41644757 30.1772423,8.06097302 C31.1449231,7.48497259 32.6392327,6.90897217 34.7325828,6.86618357 C39.087146,6.75427491 38.3827798,10.8751465 38.468357,12.8236737 C37.4809277,12.9322909 35.986618,12.757845 35.1900917,12.757845 C35.1045145,12.757845 36.0721952,9.78897429 32.7281014,9.61123702 C29.4498361,9.43349974 29.5584533,13.0014109 29.4498361,14.9499381 C29.3412189,16.720728 29.5387047,18.8469924 29.6045334,19.7554273 L26.6356626,19.7554273 C26.5895826,19.7554273 26.7442798,16.2138476 26.9220171,12.6031478 L27.2742002,5.44757681 L29.2095616,5.38174819 Z" id="Fill-6" fill="#000000"></path>
                    <path d="M60.7185911,11.0295146 C59.3559387,11.0295146 54.7545181,10.4765542 52.447225,12.7344759 C51.3906757,13.7976081 51.5914529,17.806571 53.592643,19.0474405 C55.6596616,20.3541386 59.9516877,18.8697033 60.9193684,18.5833488 C61.1135628,19.0013605 61.2254715,19.4687437 61.3768773,19.8900469 C60.5013566,20.24223 58.6515724,21.1078763 55.2186099,21.0420477 C51.1931898,20.9531791 49.7416687,17.2305706 49.6100115,16.1904784 C49.4783542,15.0615176 49.2380798,11.1644633 52.4044364,9.52203924 C54.3200492,8.52802708 56.4068165,8.37003839 58.0788634,8.43915844 C59.0235041,8.48194704 59.9681448,8.61689571 60.8732883,8.81438157 L60.7185911,11.0295146 Z" id="Fill-8" fill="#000000"></path>
                    <path d="M67.0378094,11.9600022 C65.9615115,12.4240939 64.5758191,15.3040961 66.0470887,17.0320973 C66.9291922,18.0294009 69.394474,17.3645319 70.0066802,16.7457428 C70.493812,16.258611 71.1060181,15.1921874 70.5563492,13.7768721 C70.0527602,12.493214 67.9627016,11.584779 67.0378094,11.9600022 M66.820575,19.7574022 C64.6383563,19.6454935 63.6081384,16.9201887 63.7397956,14.3528725 C63.8944928,10.8540814 66.6889178,9.54738325 67.8310443,9.54738325 C70.3160747,9.54738325 73.3079855,11.2062645 73.3079855,15.7484392 C73.3079855,17.6739264 71.7478472,20.0009681 66.820575,19.7574022" id="Fill-10" fill="#000000"></path>
                    <path d="M79.0976126,11.9600022 C78.0213147,12.4240939 76.6356222,15.3040961 78.1068919,17.0320973 C78.9889954,18.0294009 81.4542772,17.3645319 82.0664834,16.7457428 C82.5536151,16.258611 83.1658213,15.1921874 82.6161523,13.7768721 C82.1125634,12.493214 80.0225047,11.584779 79.0976126,11.9600022 M78.8803782,19.7574022 C76.6981594,19.6454935 75.6679415,16.9201887 75.7995987,14.3528725 C75.954296,10.8540814 78.7487209,9.54738325 79.8908475,9.54738325 C82.3758779,9.54738325 85.3677886,11.2062645 85.3677886,15.7484392 C85.3677886,17.6739264 83.8076503,20.0009681 78.8803782,19.7574022" id="Fill-12" fill="#000000"></path>
                    <path d="M98.0878528,10.8751465 L98.3281273,11.4939355 C97.7389612,11.8494101 96.1985715,12.6459364 95.2506393,13.0672396 C94.4376559,13.4424627 93.2066607,14.0875832 92.23898,14.5944635 C92.8281461,14.8413209 94.3059986,15.5489785 95.6456111,16.1908076 C96.4158059,16.5660307 97.2518294,16.9873339 98.1569729,17.408637 C98.0417728,18.294032 97.2518294,19.1366383 96.6560804,19.1366383 C96.6165832,19.1366383 92.2784771,16.5890707 90.6097216,15.7036758 C90.6097216,17.6522029 90.5866816,19.6665587 90.6525102,20.6869023 C89.3556864,21.0193368 88.7829774,20.9732568 88.1872284,20.8185595 C88.0127826,18.6495065 88.1674798,13.3996741 88.0786112,11.9613187 C88.0127826,10.588792 87.969994,5.00652506 88.1444398,2.67948335 L90.4319844,2.43591745 C90.4319844,3.36739242 90.6294702,5.9347086 90.6755503,8.83775073 C90.6985903,9.70010565 90.6525102,11.0759238 90.6525102,12.6459364 C92.1237799,12.2937533 97.0543435,10.0786202 97.6073039,9.90088294 C97.7554183,10.1444488 97.9561956,10.542712 98.0878528,10.8751465" id="Fill-14" fill="#000000"></path>
                    <path d="M103.986097,7.9951444 C103.986097,10.2991461 104.074966,14.4628063 104.318532,18.8930724 C102.778142,19.1794269 102.445707,19.2024669 101.787421,19.2682955 C101.609684,17.6949915 101.237752,13.0902796 101.701844,8.23871029 L103.986097,7.9951444 Z M103.656954,1.63939115 C104.427149,1.97182568 104.539058,2.94608926 104.427149,3.76565557 C104.318532,4.58522189 103.107285,4.80574777 102.491788,4.80574777 C102.159353,4.80574777 101.872998,4.40748462 101.632724,3.98618145 C101.501067,3.74261556 101.36941,3.47600965 101.260792,3.16661513 C101.191672,2.37008883 101.306872,0.619047546 103.656954,1.63939115 Z" id="Fill-16" fill="#000000"></path>
                    <path d="M110.150947,7.37470966 L110.150947,9.74453997 C110.855314,9.3232368 111.691337,9.05992232 112.372663,8.90193364 C113.56087,8.66165917 115.759546,8.79331641 117.122198,10.0769745 C117.872645,10.8076722 118.09317,13.6646343 118.135959,16.2780305 C118.178748,17.8513345 118.135959,19.5562958 118.027342,21.3962057 L116.529741,21.5278629 C116.595569,20.665508 116.641649,19.8229017 116.664689,19.0263754 C116.727227,17.6966372 116.704187,16.1233332 116.529741,15.4387156 C116.177558,14.0201088 114.528551,11.340884 110.615039,12.6015021 C108.962741,13.1347139 109.183267,19.710993 109.446581,21.5048229 C109.074649,21.5706515 108.524981,21.5936915 108.083929,21.5278629 C107.97202,21.0637712 107.665917,17.6538486 107.619837,16.3668991 C107.51122,13.7535029 107.886443,7.77297281 107.886443,7.44382971 L110.150947,7.37470966 Z" id="Fill-18" fill="#000000"></path>
                    <path d="M126.479407,11.0742781 C125.844161,10.7188035 123.444708,10.7418436 122.895039,12.7561993 C122.210421,15.3268069 124.544046,16.4788078 125.380069,16.5446364 C126.084436,16.610465 127.535957,15.8139387 127.644574,13.6415943 C127.710403,12.4698448 127.117945,11.4067126 126.479407,11.0742781 Z M122.078764,21.1065598 C123.313051,21.6364801 127.315431,23.9437733 127.8651,21.5048229 C128.019797,20.7971652 128.128414,19.6912444 128.174494,18.7828095 L128.240323,17.1436768 C127.977009,17.4300313 127.690654,17.6735972 127.361511,17.9171631 C126.811842,18.3384663 125.998859,18.7136894 125.047635,18.7597695 C123.115565,18.8486381 120.406717,17.1667169 120.693072,13.6218457 C120.979426,10.0539345 123.332799,8.21731599 125.445898,8.66165917 C126.525487,8.87889362 127.315431,9.23436817 127.84206,9.5668027 C128.151454,9.74453997 128.414769,9.94531726 128.612255,10.1428031 L128.921649,8.08236732 L130.129604,8.26339602 C130.485079,11.2750554 130.508119,17.3411627 130.392919,20.642468 C130.330382,22.7029038 129.448278,24.0984705 127.269351,25.27022 C125.225372,26.3794322 121.288821,23.6113387 120.956386,23.124207 L122.078764,21.1065598 Z" id="Fill-20" fill="#000000"></path>
                </g>
                <g id="Group-41" transform="translate(0.000000, 4.000000)">
                    <g id="Group-3" transform="translate(0.763835, 0.475115)">
                        <mask id="mask-4" fill="white">
                            <use xlink:href="#path-3"></use>
                        </mask>
                        <g id="Clip-2"></g>
                        <path d="M4.97224447,4.25939744 C4.93426693,3.38644872 4.41664714,2.27516667 3.40250618,2.23708974 C2.00155697,2.18067949 1.16464453,2.67426923 0.976163411,4.08875641 C0.665310221,6.33811538 2.01984245,7.29567949 2.81033789,7.35208974 C4.89628939,7.49452564 5.01866146,5.41721795 4.97224447,4.25939744 M5.90199089,2.56003846 C6.18330599,3.16785897 6.4013252,5.13234615 5.91183691,6.41285897 C5.50814974,7.46632051 4.35194466,8.56773077 2.55574772,8.15029487 C1.11822754,7.81747436 0.309446615,6.55529487 0.139250977,5.84452564 C-0.0393841146,5.10414103 -0.0576695964,3.87016667 0.149097005,3.11144872 C0.440258138,2.08619231 1.27717057,1.01298718 3.34624316,0.93824359 C4.73593978,0.890294872 5.45188672,1.57426923 5.90199089,2.56003846" id="Fill-1" fill="#231815" mask="url(#mask-4)"></path>
                    </g>
                    <path d="M11.2580133,1.81133333 L11.755941,1.88748718 C12.0091246,1.9255641 12.2904397,1.98197436 12.3762408,2.02005128 C12.4226578,2.57992308 12.5183049,8.35915385 12.4887669,8.35915385 C12.4606354,8.35915385 13.5141604,8.64402564 13.4564908,8.64402564 C13.4002278,8.64402564 13.4002278,9.08120513 13.3720963,9.08120513 C13.3439648,9.08120513 9.84721803,9.22223077 9.86691009,9.22223077 C9.89363503,9.22223077 9.80080104,8.62569231 9.83737201,8.62569231 C10.4492324,8.67223077 11.1539267,8.51146154 11.1539267,8.27453846 C11.1539267,8.20825641 11.3142763,3.85197436 11.0596861,3.43453846 C10.7305475,3.40492308 10.4112548,3.47261538 10.0722701,3.36825641 C10.1946422,3.14966667 10.6278674,2.44735897 11.2580133,1.81133333" id="Fill-4" fill="#231815"></path>
                </g>
            </g>
        </g>
    </g>
</svg>