<?xml version="1.0" encoding="UTF-8"?>
<svg width="175px" height="50px" viewBox="0 0 175 50" version="1.1" xmlns="http://www.w3.org/2000/svg" xmlns:xlink="http://www.w3.org/1999/xlink">
    <!-- Generator: Sketch 52.3 (67297) - http://www.bohemiancoding.com/sketch -->
    <title>txt-product3</title>
    <desc>Created with Sketch.</desc>
    <defs>
        <polygon id="path-1" points="0 0.291244184 6.20204176 0.291244184 6.20204176 7.59628377 0 7.59628377"></polygon>
    </defs>
    <g id="Page-1" stroke="none" stroke-width="1" fill="none" fill-rule="evenodd">
        <g id="0top" transform="translate(-777.000000, -1710.000000)">
            <g id="Group-28" transform="translate(777.000000, 1710.000000)">
                <g id="Group-13" transform="translate(30.510079, 33.958594)" fill="#000000">
                    <path d="M0,11.7874279 C2.52267728,10.4099224 4.52928687,8.61863139 6.49841668,6.15193555 C6.7261784,5.89565546 6.86168221,5.68742789 6.98277072,5.47920032 C7.10385923,5.30300776 6.87898057,5.30300776 6.53589646,5.33504277 C5.53259166,5.4151303 4.42549672,5.55928785 3.56057879,5.68742789 C3.04162804,5.76751542 2.73025758,5.79955043 2.47078221,5.92769047 C2.3496937,5.97574299 2.22860519,6.007778 2.12481504,6.007778 C1.89993638,6.007778 1.51937249,5.81556793 1.17628838,5.49788741 C0.882216284,5.23893774 0.640039265,4.90257012 0.481470979,4.53683708 L0.743829416,4.37666203 C1.15610696,4.72637756 1.50207413,4.82515218 2.17671011,4.8385001 C2.95513625,4.8545176 4.97904419,4.67832504 7.67470506,4.47276706 C7.6574067,3.86410185 7.64010834,3.28747165 7.57091491,2.71084146 C7.55361655,2.32642132 7.51901983,2.11819375 7.43252804,2.00607122 C7.31143953,1.86191367 7.08656087,1.81386115 6.91357728,1.79784364 C6.67140027,1.78182614 6.53589646,1.78182614 6.3254331,1.79784364 L6.24182436,1.52554605 C6.7261784,1.25324846 7.26242751,1.10909091 7.55361655,1.10909091 C7.84768864,1.10909091 8.31474432,1.23723095 8.67800985,1.39740601 C8.98938031,1.55758106 9.21425897,1.70173861 9.21425897,1.87793117 C9.21425897,2.07014124 9.11046882,2.18226378 8.97208195,2.32642132 C8.85099344,2.48659638 8.83369508,2.66278894 8.83369508,2.90305152 C8.83369508,3.36755918 8.8682918,3.83206684 8.88559015,4.39000995 C10.1137736,4.29390491 10.7019178,4.26453949 11.1141953,4.22983489 C11.5668357,4.18178238 11.9473996,4.13639944 12.2039919,4.05631192 C12.4115722,3.97622439 12.6537493,3.83206684 12.8786279,3.83206684 C13.3975787,3.83206684 14.4181818,4.312592 14.4181818,4.72637756 C14.4181818,5.04939725 14.2624966,5.17486771 13.9338278,5.17486771 C13.5705623,5.17486771 12.7229427,5.07876268 11.9301013,5.07876268 C10.6327244,5.07876268 9.71591136,5.1268152 8.92018687,5.16151979 C9.02397702,9.54764671 9.14506553,10.8584126 9.14506553,11.6272528 C9.14506553,12.171848 9.05857374,12.4761806 8.81639672,12.7164432 C8.48772791,13.0688283 8.03797059,13.3090909 7.76119685,13.3090909 C7.51901983,13.3090909 7.39793132,13.2290034 7.31143953,12.9406883 C7.2422461,12.6523732 7.08656087,12.5402506 6.86168221,12.4441456 C6.5185981,12.2519355 6.08325608,12.107778 5.48069659,11.9315854 L5.5152933,11.6112353 C6.27642108,11.7073404 6.98277072,11.7393754 7.41522968,11.7233579 C7.72660013,11.7233579 7.81309193,11.6913229 7.81309193,11.4830953 C7.864987,10.714255 7.864987,9.86532723 7.864987,8.9389815 C7.84768864,8.17014124 7.84768864,7.22510841 7.83039029,6.39219813 C7.39793132,6.93679332 6.93087564,7.44935349 6.61950519,7.7697036 C4.87525404,9.54764671 3.09352311,10.9865526 0.190281944,12.1237955 L0,11.7874279 Z" id="Fill-100"></path>
                    <path d="M28.8363636,6.78977754 C26.7030883,9.5254099 23.792388,11.300331 20.9135276,12.7540759 C20.6110483,12.906212 20.4359287,12.973828 20.292649,13.1090601 C20.1971292,13.2104842 20.0856894,13.3090909 19.9264898,13.3090909 C19.7832101,13.3090909 19.5125707,13.1090601 19.1304915,12.7202679 C18.7643323,12.3483796 18.6528926,12.1117235 18.6528926,11.9426834 C18.6528926,11.8412593 18.6847325,11.6722192 18.7165724,11.5538912 C18.7643323,11.367947 18.7802523,11.1820029 18.7802523,10.7424987 L18.7802523,5.08247248 C18.7802523,4.76129628 18.7484124,4.44293742 18.6688125,4.28798399 C18.5573728,4.0879532 18.3026533,3.90200908 17.7454545,3.83439304 L17.7454545,3.46250481 C18.1593736,3.36108075 18.5573728,3.32727273 18.7961722,3.32727273 C19.0668117,3.32727273 19.5284906,3.47940882 19.9424097,3.766777 C20.2130492,3.95272111 20.4200087,4.15275191 20.4200087,4.32460934 C20.4200087,4.49364945 20.3563288,4.59225618 20.2289691,4.76129628 C20.0538495,4.96696174 20.0220096,5.31912863 20.0060896,5.77553691 C19.9583297,7.0433377 19.9264898,9.07181895 19.9264898,11.1820029 C19.9264898,11.4355631 19.9742497,11.5538912 20.1016094,11.5538912 C20.1493693,11.5538912 20.2289691,11.5369871 20.3085689,11.5031791 C23.0919095,10.3706104 25.8301435,8.93658687 28.5657242,6.48550535 L28.8363636,6.78977754 Z" id="Fill-102"></path>
                    <path d="M44.3636364,4.66317712 C42.2353516,7.93307143 39.7198597,10.2174072 36.1158558,12.5638466 C35.8396662,12.7420572 35.6609553,12.8878659 35.5309837,13.0660765 C35.4172585,13.2118851 35.254794,13.3090909 35.0760831,13.3090909 C34.7674006,13.3090909 34.2312678,12.9526697 33.6139027,12.1750235 C33.3539595,11.8510043 33.2889737,11.526985 33.2727273,11.173264 L33.5326705,11.0409561 C33.8575994,11.3973773 34.2475142,11.6727937 34.5237038,11.6727937 C34.7349077,11.6727937 35.0598366,11.5782881 35.4172585,11.3649754 C38.6963335,9.45596193 41.8156516,6.97721463 44.0387074,4.43636364 L44.3636364,4.66317712 Z M33.3716388,3.32727273 C34.1629307,3.43355651 34.6245177,3.55755425 35.1355604,3.78783577 C36.0257638,4.21297088 36.6,4.88610148 36.6,5.63008792 C36.6,6.25007663 36.2895278,6.63683149 35.8114556,6.65454545 C35.4322949,6.65454545 35.1850161,6.45969186 34.9542227,5.78656126 C34.6410029,4.88610148 34.0145635,4.05354521 33.2727273,3.66383803 L33.3716388,3.32727273 Z" id="Fill-104"></path>
                    <path d="M57.7717532,0.184109091 C58.7422078,0.277272727 59.6334416,0.450290909 60.287013,0.7564 C60.7986472,0.995963636 61,1.26214545 61,1.52832727 C61,1.84774545 60.7029221,2.03407273 60.3464286,2.03407273 C60.1087662,2.03407273 59.8909091,1.95421818 59.5542208,1.55494545 C59.1581169,1.11574545 58.4451299,0.663236364 57.6727273,0.397054545 L57.7717532,0.184109091 Z M56.7117,1.23330909 C57.6067364,1.33978182 58.6049182,1.57934545 59.2038273,1.89876364 C59.5831364,2.0984 59.8626273,2.37789091 59.8626273,2.684 C59.8626273,3.01672727 59.5831364,3.20305455 59.2038273,3.20305455 C58.8045545,3.20305455 58.6448455,3.0012 58.3054636,2.61745455 C57.9660818,2.2448 57.3505364,1.73905455 56.5919182,1.44625455 L56.7117,1.23330909 Z M50.0719855,2.21818182 C50.8110443,2.33573022 51.4988214,2.51205281 52.1503997,2.90388081 C52.8019781,3.29244357 53.2363636,3.8246766 53.2363636,4.51037559 C53.2363636,5.15362655 52.8743757,5.54545455 52.4218907,5.54545455 C51.9694058,5.54545455 51.7371301,5.17321795 51.571219,4.74220715 C51.2484464,3.8246766 50.6511662,3.06061201 49.9090909,2.59041841 L50.0719855,2.21818182 Z M59.8909091,4.70685643 C57.6084123,7.9865816 55.0166564,10.3336701 51.5354383,12.6666705 C51.354809,12.7850111 51.2097583,12.9343457 51.1112332,13.0893155 C50.9962874,13.2386501 50.845763,13.3090909 50.6842914,13.3090909 C50.421558,13.3090909 50.011037,13.1062213 49.600516,12.6666705 C49.0422074,12.0749675 48.8287365,11.7030399 48.8123156,11.4156413 C48.7958948,11.2634891 48.7958948,11.1113369 48.8123156,10.9929963 L49.0586282,10.9253731 C49.4691492,11.4325471 49.8139869,11.6185109 50.0274578,11.6185109 C50.3066121,11.6185109 50.5693455,11.5508877 50.8813415,11.3649239 C54.0149851,9.50528595 56.8366328,7.39487861 59.595334,4.43636364 L59.8909091,4.70685643 Z M47.831746,5.57761818 C48.3774892,5.60423636 49.1344877,5.6974 49.8210678,5.95027273 C50.6660895,6.26969091 51.0181818,6.58910909 51.0181818,7.10816364 C51.0181818,7.41427273 50.7159692,7.73147273 50.225974,7.73147273 C49.9619048,7.73147273 49.7154401,7.63830909 49.4513709,7.22794545 C49.02886,6.58910909 48.4655123,6.14990909 47.6909091,5.8438 L47.831746,5.57761818 Z" id="Fill-106"></path>
                </g>
                <g id="Group-19" transform="translate(31.000000, 0.200000)" fill="#000000">
                    <path d="M12.4682645,9.67923465 L13.1896968,10.8355491 C13.5942383,11.4727019 14.0695746,12.2885273 14.2920724,12.8548854 C14.9022558,14.3516889 16.0282296,16.8261343 16.6350418,18.1644924 C17.5587449,16.6912872 19.4735746,11.5637238 20.0129633,9.54101631 L21.3007537,9.79385474 C21.9985878,9.92870191 22.7200201,10.1343438 22.9897144,10.2455927 C22.1772603,11.718798 21.3884044,13.4212435 20.8490157,14.5809291 C20.3062559,15.7810688 18.3240026,19.6376977 17.7171903,20.207427 C16.995758,20.3625012 15.9136095,20.5243178 15.0135047,20.3625012 L13.9751815,18.457785 C13.4121946,17.4363178 12.7615571,16.2800033 12.4682645,15.6664487 C12.3334173,15.4203527 11.0018016,13.2863963 10.7118802,12.5143963 C10.2365439,13.9909727 9.69715527,15.1000906 9.17799368,16.3710252 C8.6588321,17.6419597 8.09584519,18.7544488 7.58005479,19.5466759 C6.85862247,19.7051213 5.79670105,19.9781868 4.92019449,19.5466759 L3.85827307,17.8240034 C3.25483201,16.8463614 2.62105034,15.6664487 2.1929106,14.7360033 C1.76477085,13.8291561 0.932089616,12.4233744 0.301679125,10.1781692 C0.908491362,9.67923465 2.91434292,9.18030015 3.38967918,9.18030015 L3.97289316,11.0647893 C4.289784,12.0828853 4.67072723,13.262798 4.96401981,13.8763526 C5.68545214,15.4405797 5.88772289,16.236178 6.65298054,17.5981344 C7.93739978,14.4191125 8.86447403,11.3344836 9.87582776,9.40616915 C10.7995308,9.24772373 11.6794086,9.40616915 12.4682645,9.67923465" id="Fill-46"></path>
                    <path d="M28.1557093,7.50145296 C28.1557093,9.86127833 28.2467311,14.1258199 28.4961984,18.6634269 C26.9184866,18.9567195 26.5779975,18.9803178 25.9037617,19.0477414 C25.721718,17.4363178 25.3407747,12.7200382 25.816111,7.75092021 L28.1557093,7.50145296 Z M27.8185914,0.991706123 C28.6074473,1.33219521 28.7220674,2.33006422 28.6074473,3.16948782 C28.4961984,4.00891141 27.2556045,4.23478041 26.625194,4.23478041 C26.2847049,4.23478041 25.9914123,3.82686774 25.7453162,3.39535682 C25.6104691,3.14588957 25.4756219,2.87282406 25.364373,2.55593322 C25.2935782,1.74010788 25.4115695,-0.0533593965 27.8185914,0.991706123 Z" id="Fill-48"></path>
                    <path d="M36.9490928,4.55335684 C36.8782981,6.16478045 36.8782981,7.41211671 36.7906474,8.13692022 C37.7817741,8.02230013 39.4943331,7.95487655 40.3270143,8.13692022 C40.2595907,8.92914731 40.3270143,9.56630015 40.3506126,9.99781108 C39.7404291,9.99781108 38.1627173,10.0888329 36.7670492,10.3821255 C36.7232238,11.3361692 36.6793985,12.2194181 36.6086038,13.0588417 C36.4973548,14.5118199 36.4535295,16.0322217 36.4535295,16.6660033 C36.4535295,17.845916 37.3064378,18.8201868 38.6144553,18.8876104 C39.8988746,18.9584051 39.7640274,17.9605361 39.5415296,17.3031562 L40.509058,17.2559597 L41.9283244,17.1885361 C42.4002894,19.0932523 41.8609008,20.7046759 39.0897916,20.7720995 C36.3625077,20.8428942 34.6499487,19.3663178 34.4712762,17.1649378 C34.4004814,16.3255142 34.1543854,10.6315927 34.1543854,9.99781108 C33.5239749,9.97421282 32.735119,9.99781108 31.3630491,10.2000818 C31.2922543,9.58989841 31.4271015,8.72687656 31.4035032,8.11332196 C32.5126212,7.95487655 33.3857565,7.91105122 34.3566561,7.79643113 C34.4240797,7.25367129 34.6499487,5.84451843 34.4712762,4.57358391 C35.5298264,4.462335 36.4299313,4.57358391 36.9490928,4.55335684" id="Fill-50"></path>
                    <path d="M44.5440222,1.80753146 C45.2890528,1.55806421 46.3240048,1.62548779 46.8869917,1.55806421 C46.8869917,2.53233497 47.0926336,4.3494005 47.1162319,6.95532194 C47.1162319,7.63630012 47.136459,8.74878922 47.136459,8.99825648 C47.8376642,8.61394206 48.5995507,8.36447481 49.2973848,8.20265821 C50.5143804,7.95656214 53.2888608,8.29368005 54.6373324,9.63540933 C56.5083368,11.4727019 55.1800923,19.7961431 55.0890704,20.9996541 L53.5585551,21.1345012 C53.6226075,20.2512523 53.669804,19.3882305 53.6934023,18.5724051 C53.7574547,17.2104488 53.7405988,15.5990251 53.5585551,14.8978199 C53.1944678,13.46844 51.7347472,10.1343438 47.9017166,11.8806146 C47.156686,12.2211037 46.9341882,13.7415055 46.91059,14.1494181 C46.7521445,16.9845798 47.0016118,18.5926322 47.1162319,20.2512523 C46.2127559,20.5007196 45.4003017,20.453523 44.972162,20.4771213 C44.7260659,18.9128942 44.6350441,17.2576453 44.5237952,15.6226234 C44.4327733,14.1022216 44.4765986,10.8591473 44.4765986,9.40616915 C44.4765986,8.02398572 44.4327733,4.16735683 44.5440222,1.80753146" id="Fill-52"></path>
                    <path d="M70.4788182,11.5623753 C69.3764426,12.0377115 67.9571762,14.9874933 69.4640933,16.7573623 C70.3675693,17.7788296 72.8925824,17.0978514 73.5196217,16.4640697 C74.0185562,15.9651352 74.6455955,14.8728732 74.0826086,13.4232662 C73.5668182,12.1085063 71.4261195,11.1780609 70.4788182,11.5623753 M70.2563204,19.5486986 C68.0212286,19.4340785 66.9660496,16.6427422 67.1008967,14.0132225 C67.2593421,10.4296591 70.1214732,9.09130102 71.2912723,9.09130102 C73.8365126,9.09130102 76.9009144,10.7903753 76.9009144,15.4426024 C76.9009144,17.4147422 75.3029755,19.7981658 70.2563204,19.5486986" id="Fill-54"></path>
                    <path d="M82.9002647,4.82473676 L82.4249284,8.74878922 C82.8092428,8.3172783 83.2812079,7.93296388 83.8913913,7.56887654 C84.882518,6.9789202 86.4130333,6.38896386 88.5571032,6.34513853 C93.0171731,6.23051844 92.2957408,10.4512347 92.3833915,12.4469727 C91.3720377,12.5582216 89.8415224,12.3795491 89.0256971,12.3795491 C88.9380464,12.3795491 89.9291731,9.33874557 86.5040551,9.15670189 C83.1463607,8.97465822 83.2576097,12.6290164 83.1463607,14.6247544 C83.0351118,16.4384487 83.2407538,18.6162304 83.3048062,19.5466759 L80.2640026,19.5466759 C80.2168061,19.5466759 80.3752515,15.9192872 80.5572952,12.2211037 L80.9180114,4.89216034 L82.9002647,4.82473676 Z" id="Fill-56"></path>
                    <path d="M98.2253077,18.3226007 C98.7444693,18.3900243 99.8940414,17.9821116 100.072714,17.1190898 C100.254758,16.2358409 99.8030195,15.1907754 99.3748798,15.0323299 C98.4950021,14.7154391 97.9792117,15.1907754 97.6859191,15.7133081 C97.5274737,16.0066007 97.3926265,16.3942863 97.3049758,16.8493955 C97.3049758,17.2573081 97.3926265,18.2079806 98.2253077,18.3226007 Z M94.7327662,10.7913866 C94.9586352,10.0429849 95.2519278,9.38560495 95.6800675,8.79564861 C96.3779016,7.81800668 97.4802771,6.77631233 99.283858,6.77631233 C102.820225,6.77631233 103.770897,9.76991937 103.925972,11.0408539 C104.310286,13.8996138 104.060819,17.2337099 103.882146,19.4114916 L102.280836,19.8868278 L102.351631,17.9585134 C101.943718,18.4136226 101.535806,18.8215352 101.107666,19.1620243 C100.409832,19.7519807 99.3748798,20.3621641 98.4950021,20.3183388 C96.6037706,20.2273169 95.7677182,18.9563824 95.7677182,17.3247317 C95.7677182,15.6897099 96.8296396,13.1950373 98.8793165,13.0129937 C100.928993,12.8343212 101.788644,15.8279282 101.788644,15.8515265 C101.788644,15.8515265 101.8055,12.4466356 101.788644,11.5161901 C101.741448,10.1340067 101.087439,9.45302854 99.1928361,9.17996303 C98.023037,8.99791936 97.2341811,9.42943028 96.7183907,9.90476654 C96.4250981,10.177832 96.1756308,10.4947229 95.9733601,10.8824085 L94.7327662,10.7913866 Z" id="Fill-58"></path>
                    <path d="M109.563257,6.8659857 L109.563257,9.29323465 C110.28469,8.86172372 111.140969,8.5920294 111.838803,8.4302128 C113.055799,8.18411672 115.307746,8.31896389 116.703415,9.63372374 C117.472043,10.3821255 117.697912,13.308309 117.741738,15.9850252 C117.785563,17.5964488 117.741738,19.3427195 117.630489,21.2272086 L116.096602,21.3620558 C116.164026,20.4788069 116.211222,19.615785 116.234821,18.7999597 C116.298873,17.4380033 116.275275,15.8265797 116.096602,15.1253745 C115.735886,13.6723963 114.046925,10.9282565 110.038594,12.2194181 C108.346262,12.7655491 108.572131,19.501165 108.841825,21.3384576 C108.460882,21.4058811 107.897895,21.4294794 107.446157,21.3620558 C107.331537,20.8867196 107.018017,17.394178 106.970821,16.076047 C106.859572,13.3993308 107.243886,7.27389837 107.243886,6.93678046 L109.563257,6.8659857 Z" id="Fill-60"></path>
                    <path d="M126.287677,10.655191 C125.637039,10.2911037 123.17945,10.3147019 122.616463,12.3778635 C121.915257,15.0107544 124.305423,16.1906671 125.161703,16.2580907 C125.883135,16.3255142 127.369825,15.5096889 127.481074,13.2847107 C127.548498,12.0845709 126.941686,10.9956801 126.287677,10.655191 Z M121.78041,20.9305449 C123.044602,21.4733047 127.143956,23.8365013 127.706943,21.3384576 C127.865389,20.6136541 127.976637,19.4809379 128.023834,18.5504924 L128.091258,16.8716453 C127.821563,17.1649378 127.528271,17.4144051 127.191153,17.6638723 C126.628166,18.0953833 125.795485,18.4796977 124.821214,18.5268942 C122.842332,18.617916 120.067851,16.8952435 120.361144,13.2644836 C120.654436,9.61012548 123.06483,7.72900755 125.229127,8.18411672 C126.334873,8.40661455 127.143956,8.77070189 127.683345,9.11119098 C128.000236,9.29323465 128.26993,9.49887657 128.472201,9.70114732 L128.789092,7.5907892 L130.026314,7.77620405 C130.390402,10.8608329 130.414,17.073916 130.296009,20.4552086 C130.231956,22.5655667 129.32848,23.9949467 127.09676,25.1950864 C125.003258,26.3311738 120.971327,23.4960122 120.630838,22.9970777 L121.78041,20.9305449 Z" id="Fill-62"></path>
                    <path d="M139.17974,9.4749412 C137.848124,9.4749412 137.241312,11.4032556 137.106465,11.9021901 L139.402238,11.8583648 C140.55181,11.8347666 141.681155,11.767343 141.701382,11.767343 C141.701382,11.7201465 141.074343,9.4749412 139.17974,9.4749412 M139.267391,14.0125483 C138.819024,13.98895 136.860369,13.7866793 136.159163,13.7866793 C136.159163,14.309212 135.734395,17.8455789 138.839251,17.9366007 C139.473032,17.960199 139.81015,17.7781553 139.965225,17.5725134 C140.059618,17.4612645 140.100072,17.3466444 140.12367,17.188199 L140.528211,17.2320243 C140.801277,17.2556226 141.161993,17.3230461 141.681155,17.3466444 C142.58126,17.414068 142.807129,17.3938409 143.100421,17.414068 C143.032998,17.5286881 142.335163,19.409806 138.232439,19.2513606 C133.5465,19.0490898 132.737417,14.8755701 132.848666,13.4225919 C133.11836,9.93005038 136.068142,6.84205033 141.29684,8.11298485 C143.865679,8.7501377 143.63981,13.3551683 143.552159,14.0361465 C142.557661,14.1473954 141.522709,14.1035701 139.267391,14.0125483" id="Fill-64"></path>
                </g>
                <g id="Group-38" transform="translate(0.000000, 7.200000)">
                    <g id="Group-14" transform="translate(0.763835, 0.321269)">
                        <mask id="mask-2" fill="white">
                            <use xlink:href="#path-1"></use>
                        </mask>
                        <g id="Clip-13"></g>
                        <path d="M4.97224447,3.61476923 C4.93426693,2.74182051 4.41664714,1.63053846 3.40250618,1.59246154 C2.00155697,1.53605128 1.16464453,2.02964103 0.976163411,3.44412821 C0.665310221,5.69348718 2.01984245,6.65105128 2.81033789,6.70746154 C4.89628939,6.84989744 5.01866146,4.77258974 4.97224447,3.61476923 M5.90199089,1.91541026 C6.18330599,2.52323077 6.4013252,4.48771795 5.91183691,5.76823077 C5.50814974,6.82169231 4.35194466,7.92310256 2.55574772,7.50566667 C1.11822754,7.17284615 0.309446615,5.91066667 0.139250977,5.19989744 C-0.0393841146,4.45951282 -0.0576695964,3.22553846 0.149097005,2.46682051 C0.440258138,1.4415641 1.27717057,0.368358974 3.34624316,0.293615385 C4.73593978,0.245666667 5.45188672,0.929641026 5.90199089,1.91541026" id="Fill-12" fill="#231815" mask="url(#mask-2)"></path>
                    </g>
                    <path d="M8.35146562,2.2180641 C8.3416196,1.96139744 8.4274207,1.64832051 8.84939336,1.42973077 C9.68630579,1.01370513 14.066382,0.357935897 14.2548631,1.77242308 C14.4433442,3.20524359 13.0902186,4.49562821 12.7512339,4.72408974 C13.0142635,4.72408974 14.7541974,5.25434615 14.6782423,6.19498718 C14.6022872,7.12434615 13.6444093,8.85191026 11.1913416,8.69960256 C8.73686732,8.54729487 8.38944316,7.8929359 8.31489466,7.74203846 C8.18267656,7.44729487 8.23893958,6.74498718 8.28535658,6.56447436 L8.89721693,6.47844872 C9.19822409,6.44178205 9.5076707,6.41357692 9.5076707,6.42203846 C9.5076707,6.45024359 8.98161146,7.16242308 9.29246465,7.38101282 C9.60191126,7.6080641 11.4163937,7.86473077 11.6330063,7.82665385 C12.2715916,7.71242308 13.098658,7.10601282 13.0803725,6.6505 C13.042395,5.64357692 12.0831105,5.08370513 11.1716495,5.0555 C11.143518,5.00896154 11.1252326,4.96101282 11.1069471,4.9130641 C11.077409,4.83691026 11.0591235,4.76216667 11.097101,4.75229487 C12.4038097,4.42088462 13.5135978,2.94011538 13.2210301,2.42678205 C12.9200229,1.90498718 10.5696352,1.86691026 10.3727146,1.97126923 C10.165948,2.0855 10.1757941,2.72152564 10.099839,2.69191026 C10.0731141,2.69191026 9.66802031,2.67357692 9.26292656,2.67357692 C9.02802845,2.67357692 8.76499883,2.67357692 8.4738377,2.68344872 C8.39788262,2.52126923 8.36131165,2.37037179 8.35146562,2.2180641" id="Fill-15" fill="#231815"></path>
                </g>
            </g>
        </g>
    </g>
</svg>