<?xml version="1.0" encoding="UTF-8"?>
<svg width="181px" height="50px" viewBox="0 0 181 50" version="1.1" xmlns="http://www.w3.org/2000/svg" xmlns:xlink="http://www.w3.org/1999/xlink">
    <!-- Generator: Sketch 52.3 (67297) - http://www.bohemiancoding.com/sketch -->
    <title>txt-product2</title>
    <desc>Created with Sketch.</desc>
    <defs>
        <polygon id="path-1" points="0 0 9.43548387 0 9.43548387 13.6290323 0 13.6290323"></polygon>
        <polygon id="path-3" points="0 0.613487774 6.20204176 0.613487774 6.20204176 7.91852736 0 7.91852736"></polygon>
        <polygon id="path-5" points="0.423097917 0.919205128 7.60113411 0.919205128 7.60113411 8.22545115 0.423097917 8.22545115"></polygon>
    </defs>
    <g id="Page-1" stroke="none" stroke-width="1" fill="none" fill-rule="evenodd">
        <g id="0top" transform="translate(-777.000000, -1620.000000)">
            <g id="Group-27" transform="translate(777.000000, 1620.000000)">
                <g id="Group-14" transform="translate(30.510079, 33.758594)">
                    <path d="M2.04319703,3.55357846 C2.20665279,3.69495364 2.38645413,3.82062046 2.64798335,3.94628728 C2.82778469,4.0405374 3.05662275,4.0719541 3.3671887,4.0719541 C3.61237234,4.05624575 4.13543078,4.0405374 4.50865477,4.00912069 C5.47304377,3.94628728 7.00952793,3.8049121 8.31717403,3.66353693 C8.75578033,3.61641187 8.8892692,3.55357846 9.18348957,3.30224482 C9.31152992,3.176578 9.47770994,3.14516129 9.57305914,3.14516129 C9.72016932,3.14516129 10.0143897,3.25511976 10.3903379,3.55357846 C10.8480141,3.91487057 10.9624331,4.08766245 10.9624331,4.26045433 C10.9624331,4.41753786 10.8643597,4.51178798 10.5701393,4.62174645 C10.3086101,4.71599656 10.0961176,4.88878844 9.88362509,5.18724714 C9.21345646,6.11403996 8.43159307,7.13246482 7.63065983,7.99642422 C9.44229453,8.64046669 10.9787787,9.53584279 11.9758588,10.4286008 C12.3681527,10.789893 12.5806452,11.1668934 12.5806452,11.5753106 C12.5806452,11.9208943 12.3191159,12.2821865 11.9104765,12.2821865 C11.6489473,12.2821865 11.3547269,12.172228 11.0605066,11.7323941 C10.1288087,10.4286008 8.72581344,9.17455068 7.25471158,8.40484139 C5.42400704,10.258427 3.25276967,11.7166858 0.147110186,12.5806452 L0,12.2350614 C2.56625547,11.10406 4.45961804,9.69292632 6.33935931,7.61942376 C7.02587351,6.84971447 7.95757135,5.67420608 8.66043113,4.55891304 C8.69039802,4.52749633 8.69039802,4.51178798 8.69039802,4.48037127 C8.69039802,4.44895457 8.64136129,4.41753786 8.56235767,4.41753786 C6.84607217,4.6374548 5.63649953,4.80762862 4.77018399,4.91758709 C4.24984982,4.99874691 3.84121041,5.07728868 3.56333562,5.18724714 C3.41350117,5.2474625 3.28546082,5.28149726 3.17104179,5.28149726 C2.9585493,5.28149726 2.6806745,5.09037897 2.37010855,4.77882997 C2.07588818,4.46466292 1.92877799,4.19762092 1.86339569,4.00912069 C1.83070454,3.89916222 1.78166781,3.75778705 1.78166781,3.66353693 L2.04319703,3.55357846 Z" id="Fill-59" fill="#000000"></path>
                    <path d="M23.5437903,3.65991935 C23.5437903,4.30153226 24.0533065,4.81104839 24.6760484,4.81104839 C25.3176613,4.81104839 25.8271774,4.30153226 25.8271774,3.65991935 C25.8271774,3.05604839 25.3176613,2.52766129 24.6760484,2.52766129 C24.0533065,2.52766129 23.5437903,3.05604839 23.5437903,3.65991935 Z M26.2096774,3.66120675 C26.2096774,4.54120007 25.5174672,5.24193548 24.6274827,5.24193548 C23.7539794,5.24193548 23.0645161,4.54120007 23.0645161,3.66120675 C23.0645161,2.79750961 23.7539794,2.09677419 24.6274827,2.09677419 C25.5174672,2.09677419 26.2096774,2.79750961 26.2096774,3.66120675 Z M14.7583839,7.6103455 C14.8879272,7.62669816 15.0174705,7.64305082 15.1308208,7.64305082 C15.4870648,7.64305082 15.7461514,7.52858221 16.1347812,7.26693968 C16.9282338,6.77635993 17.8350367,6.12497904 18.6581763,5.55263599 C19.0306132,5.30734612 19.3382785,5.24193548 19.5325934,5.24193548 C19.7107154,5.24193548 19.9536091,5.28826802 20.4717822,5.58261587 C22.5120888,6.74365461 24.4849249,7.92104601 26.4577611,9.08208475 C26.9624401,9.3764326 27.3996487,9.5726645 27.6560364,9.71983843 C27.9798946,9.89971767 28.3064516,10.387572 28.3064516,10.8972298 C28.3064516,11.3387516 28.1256308,11.5322581 27.720808,11.5322581 C27.4482274,11.5322581 27.156755,11.3687315 26.7357394,11.0743836 C24.3715746,9.31102197 22.4770042,7.97010399 20.3098531,6.61283334 C19.8402587,6.31848549 19.5973651,6.23944764 19.4192431,6.23944764 C19.257314,6.23944764 19.0953849,6.30213283 18.7877196,6.58285347 C18.0428457,7.23423436 17.4464069,7.83928272 17.0712712,8.23174652 C16.8445704,8.46068374 16.717726,8.62421032 16.6178697,8.77138425 C16.5045193,8.93491083 16.361482,9.01667412 16.2481316,9.01667412 C16.1023954,9.01667412 15.9080805,8.96761615 15.6166081,8.77138425 C15.2279783,8.52609437 14.9041201,8.1990412 14.6774194,7.85563538 L14.7583839,7.6103455 Z" id="Fill-61" fill="#000000"></path>
                    <path d="M33.702366,2.09677419 C34.4038253,2.20777989 35.0539584,2.37428843 35.6670225,2.7443074 C36.2857895,3.11432638 36.6935484,3.61385199 36.6935484,4.2613852 C36.6935484,4.87191651 36.3542245,5.24193548 35.9265054,5.24193548 C35.4987863,5.24193548 35.2763724,4.89041746 35.1223935,4.48339658 C34.8144357,3.61385199 34.2498465,2.89231499 33.5483871,2.44829222 L33.702366,2.09677419 Z M42.983871,4.45189973 C40.828889,7.54945246 38.3764005,9.77074135 35.0883067,11.9733863 C34.9175638,12.0852498 34.7778651,12.2290743 34.6847326,12.3728987 C34.5760781,12.5167232 34.4363794,12.5806452 34.2811586,12.5806452 C34.0328053,12.5806452 33.6447533,12.3888792 33.2567014,11.9733863 C32.7289507,11.414069 32.5271636,11.0624981 32.5116416,10.7934931 C32.4961195,10.6470052 32.4961195,10.5058441 32.5116416,10.3939807 L32.7444727,10.3273953 C33.1325247,10.8068101 33.4584884,10.9825956 33.6602754,10.9825956 C33.9241508,10.9825956 34.172504,10.9186736 34.4674235,10.7428882 C37.4295536,8.98769707 40.0993513,6.99013512 42.7044735,4.19354839 L42.983871,4.45189973 Z M31.5875149,5.27129032 C32.1006144,5.29854839 32.8161802,5.3866129 33.4651818,5.62354839 C34.2639529,5.92548387 34.5967742,6.22741935 34.5967742,6.71806452 C34.5967742,7.00741935 34.3138761,7.30935484 33.8479263,7.30935484 C33.5983103,7.30935484 33.3653354,7.22129032 33.1157194,6.83129032 C32.7163338,6.22741935 32.1865933,5.81225806 31.4516129,5.52290323 L31.5875149,5.27129032 Z" id="Fill-63" fill="#000000"></path>
                    <path d="M46.3381734,7.51557055 C46.6760168,7.75080422 46.9334213,7.8135332 47.1908258,7.8135332 C47.4160548,7.8135332 47.6573715,7.78216871 47.9630394,7.71943973 C48.6226384,7.59398177 49.359995,7.43715932 50.2287353,7.2176079 C50.0678574,6.52758913 49.8587163,5.80620588 49.684432,5.21289429 C49.585224,4.91231793 49.4726095,4.83652042 49.2634684,4.80254222 C49.1347661,4.78947368 48.9256249,4.77379144 48.7835162,4.78947368 L48.7030773,4.50719328 C49.0570085,4.28764186 49.4886973,4.19354839 49.6978385,4.19354839 C49.8748041,4.19354839 50.2126475,4.24059512 50.470052,4.33468859 C50.8561587,4.49151104 51.0652999,4.63003753 51.0652999,4.78947368 C51.0652999,4.8992494 51.0009488,5.02209365 50.9205099,5.13186936 C50.8722465,5.22857653 50.840071,5.32267 50.840071,5.43244572 C50.840071,5.49517469 50.8561587,5.55528997 50.8722465,5.63370119 C50.9365976,5.96302833 51.0492121,6.4805424 51.1618266,6.95100974 C52.2397079,6.70009383 53.2371504,6.43349567 54.1541539,6.198262 C54.4919974,6.10416853 54.6046118,6.04405326 54.7788961,5.85325261 C54.8781041,5.7434769 55.0202129,5.66506568 55.1167395,5.66506568 C55.2454418,5.66506568 55.4867585,5.77484139 55.8728653,6.04405326 C56.3554987,6.37076669 56.6129032,6.6216826 56.6129032,6.80986954 C56.6129032,6.96669198 56.5163765,7.0764677 56.2267965,7.13919668 C55.9372164,7.20192565 55.7602508,7.29601912 55.5671974,7.46852381 C54.8110717,8.11149584 54.2024173,8.61332767 53.2049748,9.25629971 L52.9636581,8.98708784 C53.6876083,8.29968278 54.2962627,7.56261728 54.7654896,6.82555178 L54.6662817,6.73145831 C53.4462916,7.04510321 52.3040591,7.34306586 51.3387922,7.60966402 C51.7409867,9.20663926 52.2879713,11.2139666 52.674078,12.5155929 C52.8188681,12.9390135 52.8349559,13.0801537 52.8349559,13.2526584 C52.8349559,13.4094808 52.5775514,13.6290323 52.2718835,13.6290323 C51.9179523,13.6290323 51.7409867,13.4408453 51.6283722,12.970378 C51.2905288,11.5119292 50.8239832,9.50721562 50.4057008,7.90762666 C49.6200809,8.14286033 48.9095372,8.34672951 48.4456728,8.50355196 C48.1882683,8.59764543 47.9952149,8.67605665 47.8021615,8.78583237 C47.6573715,8.86424359 47.544757,8.92697257 47.399967,8.92697257 C47.255177,8.92697257 46.9173336,8.72310339 46.5794901,8.34672951 C46.4186123,8.15854258 46.2738223,7.9546734 46.1290323,7.68807524 L46.3381734,7.51557055 Z" id="Fill-65" fill="#000000"></path>
                    <path d="M72.3387097,6.91909582 C70.8839141,8.56646875 69.4905135,9.68284883 66.9920022,11.0193967 C66.7704462,11.1437267 66.5115193,11.283598 66.3994066,11.3768455 C66.3219954,11.4856343 66.2098828,11.5322581 66.1111168,11.5322581 C65.9856574,11.5322581 65.8388431,11.4856343 65.6786822,11.3613043 C65.3903924,11.159268 65.104772,10.8950666 64.8965627,10.6619478 C64.78445,10.5531591 64.7043695,10.3977465 64.7043695,10.2889577 C64.7043695,10.1516767 64.7364017,10.0713802 64.7684339,9.94705015 C64.8164822,9.80717886 64.8324983,9.62068382 64.8485144,9.39015521 C64.8805466,8.25564367 64.9285949,6.59272948 64.9419416,4.86765028 C64.9419416,4.48170914 64.9285949,4.23045887 64.8485144,4.05950507 C64.7684339,3.82897647 64.4320959,3.68910518 63.9836451,3.62694017 L63.9516129,3.31611508 C64.2719349,3.20732631 64.624289,3.14516129 64.8805466,3.14516129 C65.1528203,3.14516129 65.7454159,3.34719759 66.1618345,3.62694017 C66.4341081,3.81343521 66.5462208,3.99993026 66.5462208,4.10871904 C66.5462208,4.24859033 66.5115193,4.33924764 66.4341081,4.44803642 C66.30331,4.61899022 66.2392456,4.76145171 66.1911973,5.01011178 C66.1271329,5.31834665 66.1111168,5.72241926 66.0977701,5.93999681 C66.0150202,6.99680209 65.9856574,8.42659746 65.9669719,9.69839009 C65.9669719,9.91596764 66.0977701,9.99367391 66.3353422,9.93409911 C68.3213384,9.29431748 70.1952219,8.11577238 72.0984682,6.6548945 L72.3387097,6.91909582 Z M57.6612903,12.249602 C59.1203405,11.4219942 60.0871809,10.4454169 60.91339,9.20676387 C61.6663537,8.08121721 62.2991947,6.32668859 62.2991947,5.43287212 C62.2991947,5.20114192 62.2464579,5.07148336 62.1058266,4.93906611 C61.9505461,4.787338 61.774757,4.65767944 61.3880208,4.5583665 L61.4202488,4.24387552 C61.7366693,4.19421905 62.0530898,4.1776669 62.2816158,4.21077121 C62.650773,4.24387552 63.1781405,4.54181435 63.5472978,4.87009879 C63.8637183,5.15148545 63.9516129,5.28390271 63.9516129,5.46873513 C63.9516129,5.66460231 63.8812972,5.7473631 63.7758237,5.89633251 C63.6703502,6.04530192 63.6176135,6.21082349 63.4769821,6.5915231 C63.0199303,7.91569564 62.4574049,9.02469014 61.6663537,9.95161092 C60.7200219,11.0743989 59.5949712,11.8854546 57.8898162,12.5806452 L57.6612903,12.249602 Z" id="Fill-67" fill="#000000"></path>
                    <path d="M85.0129608,0.175080645 C85.9302995,0.263145161 86.7727535,0.426693548 87.390553,0.716048387 C87.8741839,0.9425 88.0645161,1.1941129 88.0645161,1.44572581 C88.0645161,1.74766129 87.7836982,1.92169355 87.4467166,1.92169355 C87.2220622,1.92169355 87.016129,1.84830645 86.6978687,1.4708871 C86.3234447,1.05572581 85.6494816,0.627983871 84.9193548,0.376370968 L85.0129608,0.175080645 Z M84.0077823,1.16685484 C84.8569758,1.2675 85.8005242,1.49395161 86.3666532,1.7958871 C86.7252016,1.98459677 86.9893952,2.24879032 86.9893952,2.53604839 C86.9893952,2.85056452 86.7252016,3.02669355 86.3666532,3.02669355 C85.9892339,3.02669355 85.8382661,2.83798387 85.5174597,2.47524194 C85.1966532,2.12298387 84.6116532,1.64491935 83.8977016,1.36814516 L84.0077823,1.16685484 Z M75.0305923,13.2846144 C78.7087296,11.5807897 81.1468391,9.04462178 82.7958401,4.67938631 C82.8456509,4.55414345 82.782732,4.44455595 82.6254346,4.44455595 C82.4366777,4.44455595 82.2479209,4.46021131 81.6187313,4.50717738 C80.3760819,4.61676488 78.7899999,4.82028453 77.0125394,5.13339167 C76.6664852,5.1960131 76.4777283,5.22732382 76.2732417,5.3056006 C76.131674,5.36822203 76.0215659,5.39953275 75.8799982,5.39953275 C75.6597819,5.39953275 75.3137276,5.1960131 74.9676734,4.80462917 C74.6688083,4.46021131 74.5587002,4.22538095 74.4354839,3.6930988 L74.6845381,3.56785594 C75.17216,4.0218613 75.4081061,4.11579345 76.1788633,4.10013809 C76.7765933,4.08448273 77.641729,4.03751666 78.365297,3.97489523 C79.589595,3.89661844 80.9895417,3.77137558 82.3108398,3.63047737 C82.6857319,3.60177588 82.8928401,3.53654522 83.0973268,3.33302558 C83.2703539,3.19212736 83.3935702,3.14516129 83.4748405,3.14516129 C83.6295163,3.14516129 83.9310029,3.31997945 84.2613274,3.5835113 C84.730598,3.95923987 84.9193548,4.16275952 84.9193548,4.39758988 C84.9193548,4.53848809 84.730598,4.71069702 84.5261114,4.82028453 C84.305895,4.94552738 84.1328679,5.0864256 83.9781921,5.44649882 C81.7288395,10.50057 78.866027,12.5175019 75.2036195,13.6290323 L75.0305923,13.2846144 Z" id="Fill-69" fill="#000000"></path>
                    <path d="M100.645161,6.41815301 C98.6286464,9.00405616 95.8772573,10.6818306 93.1559654,12.0560078 C92.8700417,12.199817 92.7045069,12.2637322 92.5690693,12.3915626 C92.4787776,12.4874355 92.3734373,12.5806452 92.2229511,12.5806452 C92.0875135,12.5806452 91.831687,12.3915626 91.4705201,12.0240501 C91.1244019,11.6725165 91.0190616,11.4488132 91.0190616,11.2890252 C91.0190616,11.1931523 91.0491588,11.0333643 91.0792561,10.9215127 C91.1244019,10.7457458 91.1394505,10.569979 91.1394505,10.1545301 L91.1394505,4.80429379 C91.1394505,4.50069651 91.1093533,4.19976237 91.0341102,4.05328999 C90.9287699,3.86420748 90.687992,3.68844063 90.1612903,3.62452542 L90.1612903,3.27299172 C90.5525544,3.1771189 90.9287699,3.14516129 91.1544992,3.14516129 C91.4103257,3.14516129 91.8467356,3.28897053 92.2379997,3.5606102 C92.4938262,3.73637705 92.6894582,3.92545956 92.6894582,4.08791074 C92.6894582,4.24769878 92.6292638,4.34090847 92.5088748,4.50069651 C92.34334,4.6951053 92.3132428,5.02799705 92.2981942,5.45942476 C92.2530483,6.65783508 92.2229511,8.57529158 92.2229511,10.569979 C92.2229511,10.809661 92.2680969,10.9215127 92.3884859,10.9215127 C92.4336317,10.9215127 92.5088748,10.9055339 92.5841179,10.8735762 C95.2151181,9.80299637 97.8034805,8.44746115 100.389335,6.13053454 L100.645161,6.41815301 Z" id="Fill-71" fill="#000000"></path>
                    <path d="M115.322581,4.4079477 C113.310783,7.49887107 110.932972,9.65817839 107.526225,11.8761903 C107.265152,12.0446469 107.096223,12.182475 106.973365,12.3509316 C106.865864,12.4887597 106.712292,12.5806452 106.543363,12.5806452 C106.251575,12.5806452 105.744786,12.243732 105.161212,11.5086486 C104.915496,11.2023639 104.854067,10.8960792 104.83871,10.5617183 L105.084425,10.4366521 C105.39157,10.7735653 105.760144,11.0339073 106.021217,11.0339073 C106.220861,11.0339073 106.528005,10.9445742 106.865864,10.7429368 C109.965466,8.93840928 112.914055,6.59533112 115.015436,4.19354839 L115.322581,4.4079477 Z M104.932207,3.14516129 C105.68019,3.24562784 106.116513,3.36283882 106.599584,3.58051636 C107.441064,3.98238257 107.983871,4.61867075 107.983871,5.32193663 C107.983871,5.90799153 107.690392,6.27357815 107.238486,6.29032258 C106.880078,6.29032258 106.646333,6.1061339 106.428172,5.46984572 C106.132096,4.61867075 105.539943,3.83168274 104.83871,3.46330538 L104.932207,3.14516129 Z" id="Fill-73" fill="#000000"></path>
                    <g id="Group-77" transform="translate(120.564516, 0.000000)">
                        <mask id="mask-2" fill="white">
                            <use xlink:href="#path-1"></use>
                        </mask>
                        <g id="Clip-76"></g>
                        <path d="M6.38392857,0.262620968 C7.30126728,0.394717742 8.140601,0.640040323 8.75840054,1.07407258 C9.24515169,1.41375 9.43548387,1.79116935 9.43548387,2.16858871 C9.43548387,2.62149194 9.1515457,2.88254032 8.81456413,2.88254032 C8.59302995,2.88254032 8.38709677,2.77245968 8.06883641,2.20633065 C7.69129224,1.58358871 7.02044931,0.941975806 6.29032258,0.564556452 L6.38392857,0.262620968 Z M5.38032258,1.22451613 C6.22951613,1.37548387 7.17306452,1.71516129 7.73919355,2.16806452 C8.09774194,2.45112903 8.36193548,2.84741935 8.36193548,3.28145161 C8.36193548,3.75322581 8.09774194,4.01741935 7.73919355,4.01741935 C7.36177419,4.01741935 7.21080645,3.73120968 6.89,3.18709677 C6.56919355,2.65870968 5.98419355,1.9416129 5.26709677,1.52645161 L5.38032258,1.22451613 Z M0,1.17567862 C0.261562537,1.09612142 0.630827295,1.0483871 0.846231737,1.0483871 C1.09240824,1.0483871 1.41551491,1.17567862 1.83093776,1.44617309 C2.23097458,1.70075613 2.50792315,2.00307349 2.50792315,2.22583365 C2.50792315,2.35312517 2.44637902,2.47776478 2.36688453,2.57588533 C2.18481649,2.78273405 2.13865839,3.02140565 2.13865839,3.35554588 C2.12327236,4.03708589 2.10788633,4.94403797 2.10788633,6.08966164 C3.00027616,6.16921884 3.96959615,6.34424468 4.75171942,6.66247348 C5.8133556,7.09208236 6.29032258,7.63307132 6.29032258,8.23505413 C6.29032258,8.69648588 5.99798798,9.01471468 5.64410925,9.01471468 C5.30561656,9.01471468 5.07482609,8.79195452 4.82864958,8.45781428 C4.13627816,7.585337 3.22850229,6.93296796 2.10788633,6.59882772 C2.10788633,8.664663 2.13865839,10.908176 2.13865839,12.8016374 C2.13865839,13.2763287 1.93863998,13.6290323 1.58476125,13.6290323 C1.38474284,13.6290323 1.24626856,13.5627346 1.07702221,13.324063 C0.8770038,13.0535685 0.8770038,12.6902573 0.8770038,12.3216423 C0.8770038,11.9901539 0.96931999,10.7649731 0.984706022,8.76278355 C1.00009205,6.0737502 1.01547808,4.33940325 0.96931999,2.55997389 C0.96931999,2.20992221 0.938547927,1.98716205 0.800073643,1.84395909 C0.661599358,1.68484469 0.461580948,1.57346461 0,1.49390741 L0,1.17567862 Z" id="Fill-75" fill="#000000" mask="url(#mask-2)"></path>
                    </g>
                </g>
                <g id="Group-21" transform="translate(31.000000, 0.600000)" fill="#000000">
                    <path d="M8.70482334,9.87721905 C8.06796505,8.75335148 7.6116067,8.24931391 6.42643727,8.04156869 C5.0846075,7.79295556 2.99012703,8.93725709 3.10251379,9.60136065 C3.28641939,10.6094358 5.0846075,10.5855962 6.22209771,10.7013886 C8.02028582,10.8852942 11.1841433,10.8410206 11.616662,12.9457181 C12.117294,15.445472 10.3395398,18.9294615 6.858956,19.2291595 C4.92454152,19.4096594 2.62572149,19.1576406 0.919486182,18.4254239 C0.984193709,18.1734051 1.12382574,17.0733771 1.55634447,16.225368 C2.87774028,17.0733771 6.36172974,18.3811503 8.42896493,17.0972168 C10.0670871,16.065302 9.68224755,12.9695577 7.17908797,12.7175389 C6.51498441,12.6494257 4.240004,12.3974069 3.42264577,12.2611806 C2.4656555,12.1011146 -0.0340984209,12.077275 0.214514708,10.517483 C0.759420195,7.19355953 5.10504146,6.68952195 6.99518237,6.68952195 C8.92959685,6.68952195 10.387219,7.6056443 11.0921905,8.82146467 L8.70482334,9.87721905 Z" id="Fill-22"></path>
                    <path d="M21.5690202,15.8803747 C22.4340577,15.8122615 25.20967,14.6883939 24.4808589,12.0081401 C23.9359534,9.92047092 21.3442467,9.6718578 20.6154356,9.85235774 C18.7934079,10.3359614 17.6320781,11.7322817 17.6320781,13.8199508 C17.6320781,16.0881199 20.8402091,15.9518935 21.5690202,15.8803747 Z M15.5171636,24.4728531 C15.2208713,22.5282216 15.1493524,21.3124013 15.0369657,19.8479678 C14.7645129,16.4320915 14.6282866,7.08015107 14.6282866,7.15166992 C15.2651448,7.05971711 16.3345219,7.08015107 17.2233989,7.15166992 L16.9952198,10.2440086 C17.95221,8.98391462 19.202087,7.79193386 21.2488882,7.53991508 C23.4830007,7.28789629 26.8035185,8.31981105 26.8035185,12.5564512 C26.8035185,16.2005067 22.7065104,18.2881758 20.7278224,18.356289 C18.9739078,18.4244022 18.0884364,18.2643362 17.1552857,17.8045722 L17.1552857,21.1080617 C17.1552857,21.9083917 17.1995593,22.6201744 17.2676725,23.2365988 C17.2915121,23.5805704 17.3357857,23.924542 17.3834649,24.22424 L15.5171636,24.4728531 Z" id="Fill-24"></path>
                    <path d="M35.3013196,9.21209379 C33.9560842,9.21209379 33.3430655,11.1601309 33.2068391,11.6641685 L35.5260931,11.6198949 C36.687423,11.5960553 37.8283188,11.5279421 37.8487528,11.5279421 C37.8487528,11.4802629 37.2153001,9.21209379 35.3013196,9.21209379 M35.3898668,13.7961112 C34.9369141,13.7722716 32.958226,13.567932 32.2498489,13.567932 C32.2498489,14.0958092 31.8207358,17.6683458 34.957348,17.7602986 C35.597612,17.7841382 35.9381779,17.6002326 36.0948382,17.3924874 C36.1901967,17.2801007 36.2310646,17.1643082 36.2549042,17.0042423 L36.666989,17.0485158 C36.9394417,17.0723554 37.3038473,17.1404686 37.8283188,17.1643082 C38.7376298,17.2324214 38.965809,17.2119875 39.2621014,17.2324214 C39.1939882,17.3482139 38.4890167,19.2485717 34.3443294,19.0885058 C29.6104629,18.8841662 28.7931047,14.66796 28.9054915,13.2001208 C29.1779442,9.6718578 32.1578961,6.55227388 37.4400737,7.83620743 C40.035186,8.47987704 39.8070069,13.1320076 39.7184597,13.8199508 C38.7137902,13.9323376 37.6682528,13.888064 35.3898668,13.7961112" id="Fill-26"></path>
                    <path d="M53.9925995,10.3580981 C52.5826566,10.3580981 47.8215449,9.78594738 45.4341777,12.1222297 C44.3409611,13.2222576 44.5487063,17.3703506 46.6193472,18.6542842 C48.7581012,20.0063309 53.1990809,18.4703786 54.2003448,18.1740862 C54.4012787,18.606605 54.5170711,19.0902086 54.6737314,19.526133 C53.767826,19.8905385 51.8538455,20.7862269 48.3017429,20.7181137 C44.1366215,20.6261609 42.6347258,16.7743603 42.4984994,15.6981719 C42.362273,14.5300308 42.1136599,10.4977302 45.3899042,8.79830619 C47.3719979,7.76979708 49.5311859,7.60632543 51.2612608,7.67784428 C52.238685,7.72211785 53.2161092,7.86174988 54.1526655,8.06608944 L53.9925995,10.3580981 Z" id="Fill-28"></path>
                    <path d="M60.5045607,7.21842084 C60.5045607,9.60238235 60.5965135,13.9105414 60.8485323,18.4945588 C59.2546837,18.7908511 58.9107121,18.8146907 58.2295803,18.8828039 C58.0456747,17.2548988 57.6608352,12.4903814 58.1410331,7.47043963 L60.5045607,7.21842084 Z M60.1639947,0.642092735 C60.960919,0.986064324 61.0767114,1.99413948 60.960919,2.84214864 C60.8485323,3.69015781 59.5952496,3.91833698 58.9583914,3.91833698 C58.6144198,3.91833698 58.3181274,3.5062522 58.0695143,3.07032781 C57.9332879,2.81830903 57.7970615,2.54245062 57.6846748,2.22231865 C57.6131559,1.3981491 57.732354,-0.413661647 60.1639947,0.642092735 Z" id="Fill-30"></path>
                    <path d="M67.2927208,18.1502466 C67.8171923,18.2183598 68.9785221,17.806275 69.1590221,16.9344262 C69.3429277,16.0421435 68.8865693,14.9863891 68.4540506,14.8263231 C67.5651735,14.5061912 67.0441077,14.9863891 66.7478153,15.5142663 C66.5877493,15.8105587 66.4515229,16.2022095 66.3629758,16.6619735 C66.3629758,17.0740583 66.4515229,18.0344542 67.2927208,18.1502466 Z M63.7644578,10.5420037 C63.9926369,9.78594738 64.2889293,9.12184382 64.721448,8.52585344 C65.4264195,7.53821225 66.5400701,6.48586352 68.3620978,6.48586352 C71.9346344,6.48586352 72.8950303,9.51008898 73.0516907,10.7940225 C73.4399358,13.6820216 73.187917,17.0502187 73.0074171,19.2502746 L71.3897289,19.7304725 L71.4612478,17.7824354 C71.049163,18.2421994 70.6370782,18.6542842 70.2045595,18.9982558 C69.499588,19.5942462 68.4540506,20.2106705 67.5651735,20.1663969 C65.6545987,20.0744441 64.8099952,18.7905106 64.8099952,17.1421715 C64.8099952,15.4904267 65.8827778,12.9702388 67.9534187,12.7863332 C70.0240595,12.6058333 70.8925027,15.6300587 70.8925027,15.6538984 C70.8925027,15.6538984 70.909531,12.2141825 70.8925027,11.2742205 C70.8448234,9.87790018 70.1841255,9.18995701 68.270145,8.9140986 C67.0883812,8.730193 66.291457,9.16611739 65.7703911,9.64631535 C65.4740987,9.92217375 65.2220799,10.2423057 65.0177404,10.6339565 L63.7644578,10.5420037 Z" id="Fill-32"></path>
                    <path d="M79.5217622,1.21356237 C79.5217622,2.17736395 79.7261018,5.06536303 79.7703753,8.06574887 C79.7942149,10.2896444 79.5660358,17.4415289 79.7465357,20.0979432 C78.4047059,20.4419148 77.7916873,20.5815468 77.1309894,20.4180751 C76.9470838,18.1260664 77.0628762,12.3739079 77.0628762,11.0695404 C77.0628762,9.34968243 76.8823762,3.84954266 77.154829,1.46558115 C77.8598005,1.21356237 78.5409323,1.21356237 79.5217622,1.21356237" id="Fill-34"></path>
                    <path d="M97.0625162,17.2555799 C97.7674877,17.5552779 100.229779,17.3270988 100.590779,15.21559 C101.070977,12.4672229 98.5644119,11.527261 97.7232141,11.527261 C97.0182426,11.527261 95.5401865,12.4672229 95.6287336,14.7115524 C95.6764129,15.975052 96.3575447,16.9797215 97.0625162,17.2555799 Z M94.0348851,1.42266985 L94.2187907,3.50693334 C94.3073378,4.67507448 94.4435642,5.97944199 94.515083,6.73890401 C94.5797906,7.53923394 94.6274698,8.61542228 94.6513094,9.53154463 L94.6989886,11.1594498 C94.9476018,10.8631574 95.2200545,10.5634594 95.5401865,10.2910067 C96.085092,9.83124265 96.8581766,9.35104469 97.8390065,9.21141266 C99.773421,8.93895992 102.801052,10.427233 102.801052,14.115562 C102.801052,17.7834571 100.56694,19.9153998 98.3396384,19.6395414 C97.1783086,19.5033151 96.1327712,19.0673907 95.3324413,18.6314663 C94.855649,18.3794475 94.4231302,18.1035891 94.0110455,17.8072967 L93.8986587,19.5952679 L92.9212345,19.6395414 C92.9212345,19.7076546 92.0323574,11.6430534 92.0323574,8.22717712 C92.0323574,6.78317758 91.9880838,2.9994901 92.1004706,1.05485864 L94.0348851,1.42266985 Z" id="Fill-36"></path>
                    <path d="M108.929195,1.21356237 C108.929195,2.17736395 109.133535,5.06536303 109.177809,8.06574887 C109.201648,10.2896444 108.973469,17.4415289 109.153969,20.0979432 C107.812139,20.4419148 107.199121,20.5815468 106.538423,20.4180751 C106.354517,18.1260664 106.470309,12.3739079 106.470309,11.0695404 C106.470309,9.34968243 106.289809,3.84954266 106.562262,1.46558115 C107.267234,1.21356237 107.948366,1.21356237 108.929195,1.21356237" id="Fill-38"></path>
                    <path d="M118.560741,9.21209379 C117.215505,9.21209379 116.602486,11.1601309 116.46626,11.6641685 L118.785514,11.6198949 C119.946844,11.5960553 121.08774,11.5279421 121.108174,11.5279421 C121.108174,11.4802629 120.474721,9.21209379 118.560741,9.21209379 M118.649288,13.7961112 C118.196335,13.7722716 116.217647,13.567932 115.50927,13.567932 C115.50927,14.0958092 115.080157,17.6683458 118.216769,17.7602986 C118.857033,17.7841382 119.197599,17.6002326 119.354259,17.3924874 C119.449618,17.2801007 119.490485,17.1643082 119.514325,17.0042423 L119.923004,17.0485158 C120.198863,17.0723554 120.563268,17.1404686 121.08774,17.1643082 C121.997051,17.2324214 122.22523,17.2119875 122.521522,17.2324214 C122.453409,17.3482139 121.748438,19.2485717 117.60375,19.0885058 C112.869884,18.8841662 112.052526,14.66796 112.164912,13.2001208 C112.437365,9.6718578 115.417317,6.55227388 120.699495,7.83620743 C123.294607,8.47987704 123.066428,13.1320076 122.977881,13.8199508 C121.973211,13.9323376 120.927674,13.888064 118.649288,13.7961112" id="Fill-40"></path>
                    <path d="M128.235878,6.57645406 L128.235878,9.02852875 C128.964689,8.59260436 129.829727,8.32015162 130.534698,8.15667997 C131.764141,7.90806685 134.039121,8.04429322 135.449064,9.37250034 C136.225555,10.1285567 136.453734,13.084669 136.498007,15.7887625 C136.542281,17.4166676 136.498007,19.1807991 136.385621,21.0845627 L134.836046,21.220789 C134.904159,20.3285063 134.951838,19.4566575 134.975678,18.632488 C135.040385,17.2566016 135.016546,15.6286965 134.836046,14.9203193 C134.47164,13.4524802 132.765405,10.6802735 128.716076,11.984641 C127.006435,12.5363578 127.234614,19.3408651 127.507067,21.1969494 C127.122227,21.2650626 126.553482,21.2889022 126.097124,21.220789 C125.981332,20.7405911 125.664605,17.212328 125.616926,15.8807153 C125.504539,13.1766218 125.892784,6.98853884 125.892784,6.64797291 L128.235878,6.57645406 Z" id="Fill-42"></path>
                    <path d="M144.129749,11.297379 C143.240872,11.297379 140.761552,12.4893597 141.238345,15.2172928 C141.60275,17.3253959 143.765344,17.6216883 144.766608,17.2572827 C145.495419,17.005264 146.156117,15.92567 146.20039,14.7132553 C146.292343,12.4655201 144.8824,11.297379 144.129749,11.297379 Z M149.732059,1.26090103 C149.844446,3.25321172 149.796766,6.78147475 149.796766,8.22887995 C149.796766,11.6413506 149.251861,19.8694234 149.251861,20.053329 C149.003248,20.053329 147.818078,20.053329 147.589899,20.0056498 L147.610333,17.8055939 C147.249333,18.1052919 146.837249,18.3811503 146.40473,18.6297634 C145.655485,19.0656878 144.609947,19.5016122 143.492891,19.6412443 C141.262184,19.913697 139.031477,17.7817543 139.031477,14.1172649 C139.031477,10.4289359 142.059109,8.70907791 143.993523,8.98153066 C144.970947,9.12116269 145.747438,9.60136065 146.292343,10.0611247 C146.612475,10.3335774 146.884928,10.6332754 147.133541,10.9329734 C147.133541,9.82953982 147.201654,7.53753111 147.317446,6.50902201 C147.38556,5.75296564 147.521786,4.46903209 147.610333,3.39284375 L147.794239,1.42096702 L149.732059,1.26090103 Z" id="Fill-44"></path>
                </g>
                <g id="Group-40" transform="translate(0.000000, 6.600000)">
                    <g id="Group-8" transform="translate(0.763835, 0.398192)">
                        <mask id="mask-4" fill="white">
                            <use xlink:href="#path-3"></use>
                        </mask>
                        <g id="Clip-7"></g>
                        <path d="M4.97224447,3.93701282 C4.93426693,3.0640641 4.41664714,1.95278205 3.40250618,1.91470513 C2.00155697,1.85829487 1.16464453,2.35188462 0.976163411,3.76637179 C0.665310221,6.01573077 2.01984245,6.97329487 2.81033789,7.02970513 C4.89628939,7.17214103 5.01866146,5.09483333 4.97224447,3.93701282 M5.90199089,2.23765385 C6.18330599,2.84547436 6.4013252,4.80996154 5.91183691,6.09047436 C5.50814974,7.1439359 4.35194466,8.24534615 2.55574772,7.82791026 C1.11822754,7.49508974 0.309446615,6.23291026 0.139250977,5.52214103 C-0.0393841146,4.78175641 -0.0576695964,3.54778205 0.149097005,2.7890641 C0.440258138,1.76380769 1.27717057,0.690602564 3.34624316,0.615858974 C4.73593978,0.567910256 5.45188672,1.25188462 5.90199089,2.23765385" id="Fill-6" fill="#231815" mask="url(#mask-4)"></path>
                    </g>
                    <g id="Group-11" transform="translate(7.796712, 0.398192)">
                        <mask id="mask-6" fill="white">
                            <use xlink:href="#path-5"></use>
                        </mask>
                        <g id="Clip-10"></g>
                        <path d="M0.884454687,2.84561538 C0.854916602,2.74125641 0.828191667,2.62702564 0.818345638,2.51279487 C0.790214128,2.31394872 0.818345638,2.06715385 0.960409766,1.81189744 C1.21218678,1.35497436 2.80161712,0.919205128 4.38120143,0.919205128 C5.65977858,0.919205128 7.06916725,1.38458974 7.45597552,2.19125641 C7.74713665,2.79766667 7.57834759,3.74676923 7.15496836,4.37292308 C6.47840553,5.36010256 2.64267409,6.831 1.88031016,7.5234359 C3.43176296,7.5234359 5.28422292,7.39087179 7.53896348,6.79292308 C7.58678704,7.19202564 7.61491855,7.72228205 7.53896348,7.90279487 C6.74002858,8.05510256 1.04339772,8.38792308 0.423097917,8.13125641 C0.423097917,7.74202564 0.537030534,7.35279487 0.874608659,7.02138462 C1.09966074,6.79292308 3.03651523,5.88189744 3.78059368,5.52087179 C4.64423105,5.09497436 6.40245046,3.96535897 6.1295748,2.78779487 C5.88623724,1.69766667 5.05776426,1.56369231 4.26867539,1.61164103 C3.32767637,1.67792308 2.80161712,2.09535897 2.77348561,2.54241026 C2.7453541,2.99651282 2.85788014,2.97817949 2.82974863,3.00638462 C2.81146315,3.02612821 2.32197487,2.98805128 1.84373919,2.94010256 L0.884454687,2.84561538 Z" id="Fill-9" fill="#231815" mask="url(#mask-6)"></path>
                    </g>
                </g>
            </g>
        </g>
    </g>
</svg>