<?xml version="1.0" encoding="UTF-8"?>
<svg width="221px" height="49px" viewBox="0 0 221 49" version="1.1" xmlns="http://www.w3.org/2000/svg" xmlns:xlink="http://www.w3.org/1999/xlink">
    <!-- Generator: Sketch 52.3 (67297) - http://www.bohemiancoding.com/sketch -->
    <title>txt-product4</title>
    <desc>Created with Sketch.</desc>
    <defs>
        <polygon id="path-1" points="0 0.379257005 6.20204176 0.379257005 6.20204176 7.68429659 0 7.68429659"></polygon>
    </defs>
    <g id="Page-1" stroke="none" stroke-width="1" fill="none" fill-rule="evenodd">
        <g id="0top" transform="translate(-777.000000, -1800.000000)">
            <g id="Group-42" transform="translate(777.000000, 1799.000000)">
                <g id="Group-12" transform="translate(30.510079, 36.158594)" fill="#000000">
                    <path d="M10.8275261,1.34039024 C11.7665505,1.47560976 12.6289199,1.72673171 13.261324,2.17102439 C13.7563879,2.51873171 13.9512195,2.90507317 13.9512195,3.28819512 C13.9512195,3.75502439 13.6637631,4.02546341 13.3188153,4.02546341 C13.0888502,4.02546341 12.8780488,3.90956098 12.5522648,3.33004878 C12.1689895,2.69258537 11.4790941,2.03580488 10.7317073,1.65268293 L10.8275261,1.34039024 Z M8.72541463,2.3282439 C9.59468293,2.48278049 10.5605366,2.8304878 11.1400488,3.29409756 C11.5070732,3.58385366 11.7775122,3.9895122 11.7775122,4.43380488 C11.7775122,4.9135122 11.5070732,5.18395122 11.1400488,5.18395122 C10.7537073,5.18395122 10.5991707,4.89419512 10.2707805,4.33721951 C9.94239024,3.79634146 9.34356098,3.06229268 8.61273171,2.63731707 L8.72541463,2.3282439 Z M0.0828949466,6.71708162 C0.215526861,6.73661073 0.348158776,6.75056009 0.464211701,6.75056009 C0.828949466,6.75056009 1.0942133,6.63338547 1.49210904,6.36555776 C2.30447952,5.86338082 3.23013975,5.19660143 4.07566821,4.61072833 C4.45698496,4.35963985 4.77198576,4.29268293 4.97093363,4.29268293 C5.15330251,4.29268293 5.40198735,4.34011075 5.93251501,4.64420679 C8.0187045,5.82990235 10.0413412,7.03512702 12.0639779,8.22361246 C12.5779266,8.52491863 13.0227961,8.72578941 13.2908231,8.87644249 C13.6196397,9.06057404 13.9512195,9.55996111 13.9512195,10.0816672 C13.9512195,10.5308365 13.7688506,10.7317073 13.3571391,10.7317073 C13.0725331,10.7317073 12.7768744,10.5671049 12.3458207,10.2630088 C9.92528827,8.4579617 7.98830969,7.08534472 5.76672512,5.69877837 C5.28593443,5.39468234 5.03724959,5.31377605 4.85488071,5.31377605 C4.68909081,5.31377605 4.52330092,5.3779431 4.20830012,5.66529991 C3.44842978,6.3320793 2.83224401,6.95143087 2.45369042,7.35317242 C2.22158457,7.58752166 2.08895265,7.75491398 1.98947872,7.90556706 C1.87342579,8.07295938 1.72421489,8.15386566 1.60816196,8.15386566 C1.45895106,8.15386566 1.26000319,8.10643784 0.961581381,7.90556706 C0.563685637,7.65447859 0.23210585,7.31969396 0,6.9681701 L0.0828949466,6.71708162 Z" id="Fill-134"></path>
                    <path d="M31.1219512,6.00949095 C29.6327646,7.69580741 28.2064244,8.83857847 25.6515813,10.206722 C25.4220552,10.3366426 25.1570073,10.4798204 25.0422443,10.5752723 C24.9630032,10.6866328 24.8482402,10.7317073 24.7471395,10.7317073 C24.6187142,10.7317073 24.4684293,10.6866328 24.3044822,10.5593637 C24.0093773,10.3525513 23.7170049,10.0794528 23.5038736,9.84082315 C23.3891106,9.72946263 23.307137,9.57302761 23.307137,9.46166709 C23.307137,9.31848928 23.3399264,9.23894605 23.3727158,9.11167689 C23.4219,8.96584763 23.4382947,8.77759532 23.4546894,8.53896564 C23.4874788,7.37763449 23.536663,5.67540939 23.5530577,3.91220115 C23.5530577,3.514485 23.536663,3.25994667 23.4546894,3.08230013 C23.3727158,2.84632188 23.0284268,2.70314407 22.5693748,2.63950948 L22.5365854,2.32133657 C22.8644797,2.20997605 23.2251634,2.14634146 23.4874788,2.14634146 C23.766189,2.14634146 24.3727935,2.35315386 24.7990561,2.63950948 C25.0777662,2.83041323 25.1925292,3.02131698 25.1925292,3.1326775 C25.1925292,3.27585532 25.1570073,3.37130719 25.0777662,3.48266771 C24.943876,3.65501137 24.8782972,3.80084063 24.829113,4.05537896 C24.7635342,4.37355188 24.7471395,4.78452523 24.7334772,5.00724627 C24.6487712,6.08903418 24.6187142,7.5526296 24.6023195,8.85448711 C24.6023195,9.07720815 24.7334772,9.15675138 24.9766655,9.09576824 C27.0096102,8.44351376 28.9277918,7.23445668 30.8760305,5.73904397 L31.1219512,6.00949095 Z M16.097561,11.4660091 C17.5911027,10.6188368 18.5807991,9.62199742 19.4265396,8.35123896 C20.1973031,7.19908463 20.8451043,5.40590326 20.8451043,4.48813326 C20.8451043,4.25092502 20.7911209,4.11820136 20.6471651,3.98265379 C20.4882138,3.83016277 20.3082691,3.69461521 19.9123905,3.59295453 L19.9453804,3.27102905 C20.269281,3.22019872 20.5931816,3.20325527 20.8271099,3.23714216 C21.2049939,3.27102905 21.7448283,3.57601108 22.1227123,3.9120561 C22.446613,4.20291859 22.5365854,4.33846616 22.5365854,4.52484406 C22.5365854,4.72534151 22.4646074,4.81288264 22.3566406,4.96254975 C22.2486737,5.11504077 22.1946903,5.28729913 22.0507344,5.67417449 C21.582878,7.02965017 21.0070547,8.16486106 20.1973031,9.11369403 C19.2286003,10.2630245 18.0769537,11.0932533 16.3314892,11.804878 L16.097561,11.4660091 Z" id="Fill-136"></path>
                    <path d="M44.095914,0.267219512 C45.0326737,0.402439024 45.8958994,0.653560976 46.5289316,1.09785366 C47.0276843,1.44556098 47.2195122,1.82868293 47.2195122,2.21502439 C47.2195122,2.68185366 46.9317703,2.95229268 46.58648,2.95229268 C46.3594836,2.95229268 46.1484729,2.83639024 45.8223654,2.25687805 C45.4355124,1.61941463 44.748129,0.962634146 44,0.576292683 L44.095914,0.267219512 Z M43.0212683,1.25346341 C43.6007805,1.408 44.2446829,1.75892683 44.6310244,2.21931707 C44.8757073,2.50907317 45.056,2.91473171 45.056,3.3622439 C45.056,3.84195122 44.8757073,4.11239024 44.6310244,4.11239024 C44.3734634,4.11239024 44.270439,3.82263415 44.0515122,3.26565854 C43.8325854,2.72478049 43.4333659,1.99073171 42.944,1.5657561 L43.0212683,1.25346341 Z M37.7447516,1.36438289 C38.0802764,1.19990195 38.5164585,1.07317073 38.7513258,1.07317073 C39.0365218,1.07317073 39.3888228,1.17024145 39.8417811,1.42640029 C40.2947395,1.70413041 40.5799355,1.99264616 40.5799355,2.2191445 C40.5799355,2.36475058 40.5128306,2.4618213 40.3450682,2.61012379 C40.2108583,2.73955142 40.1269772,2.91481799 40.0934247,3.07929893 C39.975991,3.59431303 39.8753336,3.98259591 39.7746762,4.50030641 C40.8819078,4.4355926 41.7039433,4.34121829 42.6406165,4.25762961 C42.9258125,4.22796911 43.1103511,4.1929158 43.244561,4.04730972 C43.3787709,3.90170364 43.4962045,3.83698983 43.6304144,3.83698983 C43.814953,3.83698983 44.1337015,4.06348817 44.4860025,4.35470033 C44.9054084,4.69444785 45.0731707,4.93712465 45.0731707,5.11508763 C45.0731707,5.24451526 45.0396183,5.37394289 44.7879747,5.50337051 C44.6202124,5.60044123 44.5027787,5.6813335 44.4692262,5.9563672 C44.2175827,7.87890673 43.814953,9.70707195 43.3619947,11.111901 C43.1774561,11.6484863 42.8922601,12.0367692 42.4253215,12.3414634 C42.0870007,12.5841402 41.7346998,12.7486212 41.469076,12.7486212 C41.18388,12.7486212 41.0664464,12.635372 40.9993414,12.3414634 C40.9322365,12.0691261 40.7952306,11.9558769 40.5631593,11.791396 C40.3786207,11.6781468 40.0766485,11.5190587 39.5733614,11.3087388 L39.690795,10.9689913 C40.3953969,11.1307758 40.8819078,11.1954896 41.250985,11.1954896 C41.4495038,11.1793112 41.6536146,11.1631327 41.7710483,11.0822405 C41.8884819,11.0175267 42.0730205,10.8395637 42.2044344,10.4512808 C42.7077215,9.15700453 43.1103511,7.33153573 43.3284422,5.14744454 C43.3452184,5.06655227 43.2781135,5.01801691 43.1942323,5.01801691 C42.0730205,5.06655227 41.1167751,5.14744454 39.6236901,5.30922907 C39.2042842,6.94055644 38.6842209,8.29954651 37.912514,9.4805736 C37.0401497,10.8395637 35.6001895,12.1149651 33.4528313,12.8780488 L33.2682927,12.5383013 C34.7278252,11.6970217 35.849037,10.6427258 36.6207438,9.51562692 C37.3588982,8.41279569 37.912514,7.12121584 38.3486961,5.42247824 C37.4260032,5.50337051 36.7885062,5.58426278 36.1705815,5.7136904 C35.8182806,5.76222576 35.6001895,5.82693958 35.4659796,5.89165339 C35.3485459,5.93749234 35.2311123,5.98872411 35.0969024,5.98872411 C34.9123638,6.00490256 34.6103916,5.80806471 34.3419718,5.48719206 C34.0064471,5.11508763 33.8386847,4.77534012 33.7548035,4.40323569 L34.0064471,4.27380806 C34.4761817,4.69444785 34.7781539,4.79421498 35.2478885,4.79421498 C35.849037,4.80769702 36.9422884,4.72680476 38.5164585,4.59737713 C38.7009971,3.57813458 38.8016545,2.81774727 38.8016545,2.18948401 C38.8016545,2.04387793 38.7848783,1.93062875 38.6842209,1.86591494 C38.550011,1.78232627 38.19771,1.70413041 37.7783041,1.65289864 L37.7447516,1.36438289 Z" id="Fill-138"></path>
                    <path d="M50.6646723,2.27887805 C51.0031442,2.56863415 51.4222046,2.76180488 51.9057358,2.76180488 C52.3086785,2.76180488 52.888916,2.68453659 53.4181141,2.56863415 C54.417412,2.39478049 55.3522391,2.1855122 56.3998901,1.89253659 C56.5933026,1.83458537 56.7867151,1.79917073 57.0768338,1.62209756 C57.3347172,1.48687805 57.512012,1.40960976 57.6570713,1.40960976 C57.8182484,1.40960976 58.1889557,1.48687805 58.5435453,1.64463415 C58.9115663,1.81526829 59.0243902,2.12434146 59.0243902,2.39478049 C59.0243902,2.70385366 58.8820172,2.88092683 58.3823682,2.91634146 C56.3193016,3.1095122 54.5624714,3.39926829 53.0151714,3.74697561 C52.4376202,3.88219512 52.115266,3.9562439 51.9057358,3.9562439 C51.6317348,3.9562439 51.3738515,3.80492683 51.0031442,3.39926829 C50.7774963,3.15136585 50.5518483,2.78112195 50.4390244,2.51068293 L50.6646723,2.27887805 Z M53.6038636,3.28815178 C53.837078,3.23999074 54.0341997,3.22126145 54.2535323,3.22126145 C54.5006286,3.20788339 54.7199612,3.2720981 55.0503483,3.38447385 C55.5167771,3.54501063 55.799966,3.76976213 55.8166242,3.93029891 C55.8332824,4.04267466 55.799966,4.17110409 55.700017,4.24869687 C55.5834098,4.37980191 55.5500934,4.50823133 55.5167771,4.65271444 C55.4834607,4.86141226 55.4834607,5.07011008 55.4668026,5.59720585 C56.6995073,5.45272275 57.9627521,5.32696893 59.1787987,5.14770286 C59.5147385,5.10221743 59.9117583,5.00321975 60.2282636,4.89351962 C60.3448708,4.84535858 60.5114525,4.76509019 60.661376,4.76509019 C60.9112486,4.76509019 61.3610193,4.8293049 61.7774736,5.03532711 C62.1606116,5.21459318 62.2439024,5.423291 62.2439024,5.6480425 C62.2439024,5.88884767 62.1106371,6.0788162 61.6442082,6.0788162 C61.0611722,6.0788162 60.3448708,6.04670884 59.6618857,6.0788162 C58.0987938,6.15908459 56.7161655,6.27146034 55.4334862,6.43467274 C55.4168281,7.36311047 55.4001699,8.14974071 55.4001699,8.53502899 C55.4001699,8.95242463 55.4334862,9.22533716 55.5500934,9.35376659 C55.7833079,9.59189615 56.1164713,9.59189615 56.566242,9.59189615 C57.4491251,9.59189615 58.0321611,9.54641073 58.4652736,9.4795204 C58.6318554,9.46346673 58.8817279,9.4179813 59.012217,9.38319833 C59.2315496,9.32165923 59.3981313,9.27082259 59.5452785,9.27082259 C60.0450237,9.27082259 60.6280597,9.56246441 60.6280597,10.0574528 C60.6280597,10.3624727 60.4281616,10.5738461 59.9450746,10.6353852 C59.3620386,10.7156536 58.4152991,10.7317073 57.5490741,10.7317073 C56.1997622,10.7317073 55.4501444,10.6193316 55.0003737,10.3490946 C54.5839194,10.1082895 54.3035069,9.68821822 54.2674141,9.22533716 C54.2174396,8.74372681 54.2535323,7.74839875 54.2535323,6.57648023 C53.3873074,6.68885598 52.5543987,6.81728541 51.6881738,6.97782219 C51.0551632,7.09019794 50.6886834,7.17046633 50.4721272,7.23468104 C50.2722291,7.29889576 49.9390656,7.44337886 49.7891421,7.44337886 C49.5559277,7.44337886 49.2255406,7.2667884 48.875719,6.90022941 C48.5758719,6.59253391 48.3426574,6.14303092 48.2926829,5.85674032 L48.5592137,5.7095816 C48.9923262,6.09754549 49.2255406,6.22597492 49.7419439,6.22597492 C50.1722801,6.22597492 50.7053416,6.17513827 51.2550613,6.11359917 C52.3711588,6.00122342 53.353991,5.872794 54.2674141,5.76041825 C54.2674141,5.05138079 54.2674141,4.69819986 54.2535323,4.42796294 C54.2174396,3.78314019 54.1369251,3.6413327 53.6038636,3.52895695 L53.6038636,3.28815178 Z" id="Fill-140"></path>
                    <path d="M69.0993171,4.29268293 C70.1810732,4.82317073 70.5674146,5.88109756 70.5674146,6.53963415 C70.5674146,7.17987805 70.3484878,7.51219512 70.0136585,7.51219512 C69.7303415,7.51219512 69.601561,7.25609756 69.5500488,6.64939024 C69.4599024,5.77134146 69.331122,5.18902439 68.9447805,4.51219512 L69.0993171,4.29268293 Z M67.6097561,12.5349461 C69.1438307,11.6771893 70.2586083,10.7102634 71.2955524,9.43402524 C72.1115495,8.46709938 72.8773314,7.20645681 73.4196557,5.75606802 C73.5401722,5.45975204 73.5853659,5.27000583 73.5853659,5.14784047 C73.5853659,5.054267 73.5703013,4.97628911 73.4497848,4.89831122 C73.3142037,4.80473775 73.1032999,4.71116428 72.9099713,4.66437754 L72.9375897,4.32127482 C73.0882353,4.30567924 73.2238164,4.29268293 73.3593974,4.29268293 C73.4949785,4.29268293 73.6305595,4.30567924 73.751076,4.32127482 C73.9469154,4.3368704 74.1427547,4.41484829 74.2632712,4.49282618 C74.5193687,4.66437754 74.715208,4.8359289 74.9110473,5.054267 C75.061693,5.22581836 75.1219512,5.33498741 75.1219512,5.47534761 C75.1219512,5.64689898 75.0315638,5.74047245 74.8959828,5.81585107 C74.715208,5.91202381 74.5946915,6.06797959 74.5344333,6.19274422 C73.7360115,7.8120851 73.0154232,8.99734905 72.1115495,9.99546606 C70.8913199,11.3366858 69.580703,12.2230345 67.8030846,12.8780488 L67.6097561,12.5349461 Z M66.9154146,5.36585366 C67.9563902,5.69061532 68.4586341,6.30058432 68.4586341,6.86475361 C68.4586341,7.32483263 68.2010732,7.51219512 67.879122,7.51219512 C67.6752195,7.51219512 67.5185366,7.36230513 67.4670244,7.0125618 C67.3661463,6.40259279 67.1214634,5.92794114 66.760878,5.52823449 L66.9154146,5.36585366 Z" id="Fill-142"></path>
                    <path d="M81.5609756,0.130328134 C81.8287214,0.0488730504 82.2067155,0 82.4272121,0 C82.6792081,0 83.009953,0.130328134 83.4325714,0.40727542 C83.8446899,0.665216519 84.1281855,0.977461008 84.1281855,1.20553524 C84.1281855,1.33314821 84.0651865,1.46347634 83.9838128,1.56122244 C83.7974407,1.77300566 83.7475664,2.01737091 83.7475664,2.35948227 C83.7344416,3.05999599 83.7160669,3.98858395 83.7160669,5.16153716 C84.6295527,5.24299224 85.6217872,5.42219342 86.4250246,5.74529859 C87.5117576,6.18515605 88,6.74176579 88,7.35810925 C88,7.83054874 87.7007547,8.15636908 87.3385103,8.15636908 C86.9920157,8.15636908 86.7557694,7.92829484 86.5037734,7.58618349 C85.7950345,6.69017757 84.865799,6.02496105 83.7160669,5.68284969 C83.7160669,7.79796671 83.7475664,10.0950001 83.7475664,12.0336311 C83.7475664,12.5196464 83.5428196,12.8780488 83.1832003,12.8780488 C82.9784535,12.8780488 82.8367057,12.8128847 82.6634584,12.5685195 C82.4587116,12.2915722 82.4587116,11.919594 82.4587116,11.5421854 C82.4587116,11.2000741 82.5532101,9.94838093 82.5689599,7.89571281 C82.5847096,5.14524614 82.6004594,3.36952531 82.5532101,1.54493143 C82.5532101,1.18924423 82.5217106,0.961169991 82.3799628,0.81455084 C82.238215,0.648925503 82.0334682,0.534888385 81.5609756,0.45614847 L81.5609756,0.130328134 Z" id="Fill-144"></path>
                </g>
                <g id="Group-18" transform="translate(31.000000, 0.800000)" fill="#000000">
                    <path d="M13.2774498,9.89527173 L14.0457028,11.1266305 C14.4764988,11.8015443 14.9826842,12.6703164 15.219622,13.2734309 C15.8694061,14.8709663 17.0684552,17.5024123 17.7146493,18.9312193 C18.6983003,17.3588136 20.7374017,11.9020634 21.3117965,9.74808307 L22.6831639,10.0137406 C23.4262872,10.1573393 24.1945402,10.3763273 24.4817375,10.4983862 C23.6165554,12.0672019 22.7765031,13.8801354 22.2021083,15.1114941 C21.6241236,16.3931124 19.5132229,20.500035 18.8670288,21.1031495 C18.0987758,21.2718779 16.9463963,21.4406064 15.987875,21.2718779 L14.8821651,19.2435464 C14.2826406,18.1557864 13.5897769,16.9244276 13.2774498,16.2710536 C13.1338511,16.005396 11.715814,13.7329467 11.4070768,12.9144342 C10.9008914,14.4832499 10.3264967,15.6643491 9.77364173,17.0177667 C9.22078678,18.3711844 8.62126225,19.5558736 8.07199726,20.4031059 C7.30374427,20.5718343 6.17290459,20.8626217 5.2395131,20.4031059 L4.10867342,18.5650426 C3.46606928,17.5275421 2.79115544,16.2710536 2.3352296,15.2802226 C1.87930376,14.3145214 0.992581852,12.8139151 0.321257977,10.4229969 C0.967452081,9.89527173 3.10348259,9.36395658 3.60966797,9.36395658 L4.23073231,11.3671583 C4.56818923,12.4549184 4.97385553,13.7078169 5.28618268,14.361191 C6.05443567,16.0305257 6.2698337,16.8741681 7.08475627,18.3245148 C8.45253379,14.9427657 9.43977478,11.6579456 10.516765,9.60448438 C11.500416,9.43575592 12.4373974,9.60448438 13.2774498,9.89527173" id="Fill-66"></path>
                    <path d="M29.9830033,7.57435791 C29.9830033,10.087335 30.0799325,14.6286435 30.34559,19.4607395 C28.6654854,19.7730666 28.3028987,19.7981964 27.5849052,19.8699957 C27.391047,18.1539914 26.9853807,13.1316272 27.4915661,7.84001548 L29.9830033,7.57435791 Z M29.6240066,0.642131157 C30.4640589,1.00471785 30.5861178,2.06734815 30.4640589,2.96125 C30.34559,3.85515184 29.0244821,4.09567965 28.3531582,4.09567965 C27.9905715,4.09567965 27.6782444,3.66129361 27.4161768,3.2017778 C27.2725781,2.93612023 27.1289794,2.64533288 27.0105105,2.30787596 C26.9351211,1.43910388 27.06077,-0.470758689 29.6240066,0.642131157 Z" id="Fill-68"></path>
                    <path d="M39.3470739,4.43493155 C39.2716846,6.15093589 39.2716846,7.47922377 39.1783454,8.25106673 C40.2337958,8.13259781 42.0574992,8.0572085 42.9442211,8.25106673 C42.8724217,9.09470903 42.9442211,9.77321284 42.9693508,10.2327287 C42.3195668,10.2327287 40.6394621,10.3296578 39.1532157,10.6419849 C39.1065461,11.6579456 39.0598765,12.5985171 38.9844872,13.4924189 C38.8660183,15.0396948 38.8193487,16.65877 38.8193487,17.3336839 C38.8193487,18.5901724 39.7276104,19.6276729 41.1205177,19.6994723 C42.4882952,19.7748616 42.3446965,18.7122313 42.1077587,18.0121877 L43.1380793,17.9619281 L44.6494555,17.8901288 C45.1520509,19.9184603 44.5776562,21.6344646 41.6267031,21.706264 C38.7224196,21.7816533 36.8987162,20.2092476 36.708448,17.864999 C36.6330587,16.9746871 36.3709911,10.9076425 36.3709911,10.2327287 C35.6996672,10.2075989 34.8596148,10.2327287 33.3984982,10.4481267 C33.3231089,9.79834261 33.4667076,8.879311 33.4415778,8.22593696 C34.622677,8.0572085 35.5524785,8.01053893 36.5863891,7.88848004 C36.6581884,7.31049531 36.8987162,5.809889 36.708448,4.45647135 C37.8356977,4.33800243 38.7942189,4.45647135 39.3470739,4.43493155" id="Fill-70"></path>
                    <path d="M47.4349111,1.51126223 C48.2282939,1.24560465 49.3304138,1.317404 49.9299383,1.24560465 C49.9299383,2.28310518 50.1489263,4.21809753 50.1740561,6.99314221 C50.1740561,7.71831559 50.1955959,8.90300478 50.1955959,9.16866236 C50.9423091,8.75940609 51.7536417,8.49374852 52.4967649,8.32502006 C53.7927431,8.05936248 56.7472861,8.4183592 58.183273,9.84716617 C60.1757049,11.8036983 58.7612578,20.6673274 58.6643286,21.9489457 L57.0344835,22.0925444 C57.1026929,21.151973 57.1529524,20.2329414 57.1780822,19.3641693 C57.2462916,17.9138226 57.2283417,16.1978182 57.0344835,15.4475151 C56.6467671,13.925369 55.0923112,10.3748914 51.0105185,12.2380844 C50.2171357,12.5970811 49.9801979,14.2197463 49.9550681,14.6541323 C49.7863396,17.6697048 50.0519972,19.3892991 50.1740561,21.151973 C49.2119449,21.4140406 48.3467628,21.370961 47.8908369,21.3960908 C47.6287693,19.726756 47.5318402,17.9640821 47.4133713,16.222948 C47.3164422,14.6038728 47.3631118,11.1503243 47.3631118,9.6030484 C47.3631118,8.13116183 47.3164422,4.0242393 47.4349111,1.51126223" id="Fill-72"></path>
                    <path d="M77.254643,18.1550684 C78.0013562,18.4709855 80.5933126,18.2304577 80.9738491,16.004678 C81.4800345,13.1075744 78.8378186,12.1167435 77.9510967,12.1167435 C77.2079735,12.1167435 75.6499277,13.1075744 75.7432668,15.4733628 C75.7935264,16.8016507 76.5115198,17.864281 77.254643,18.1550684 Z M74.0631622,1.46531065 L74.2570204,3.6623706 C74.3503595,4.89372936 74.4939582,6.26868682 74.5693475,7.06924951 C74.6375569,7.91289182 74.6878165,9.04732147 74.7129462,10.0130227 L74.7632058,11.729027 C75.0252734,11.4166998 75.3124708,11.1007827 75.6499277,10.8099954 C76.2243224,10.3289398 77.039245,9.82275439 78.0731556,9.6791557 C80.112257,9.38836835 83.3037378,10.957184 83.3037378,14.8451186 C83.3037378,18.7115133 80.9487193,20.9552428 78.6008808,20.6680454 C77.3767019,20.5208568 76.274582,20.0649309 75.4309397,19.6054151 C74.9319342,19.3397576 74.4724184,19.0489702 74.0380324,18.7366431 L73.9195635,20.6213759 L72.8892429,20.6680454 C72.8892429,20.7398448 71.9522614,12.2388023 71.9522614,8.6380652 C71.9522614,7.11591909 71.9055918,3.12746548 72.0240608,1.07759418 L74.0631622,1.46531065 Z" id="Fill-74"></path>
                    <path d="M92.498003,9.67807871 C91.0799659,9.67807871 90.4337718,11.72795 90.2901731,12.2628551 L92.7349408,12.2125956 C93.9591196,12.1874658 95.1617587,12.1192564 95.1832985,12.1192564 C95.1832985,12.0689969 94.5155645,9.67807871 92.498003,9.67807871 M92.5913421,14.5101746 C92.1138765,14.4850449 90.0281055,14.2660568 89.2813923,14.2660568 C89.2813923,14.8225018 88.8290564,18.5883774 92.1354163,18.6888965 C92.8103301,18.7140263 93.1693268,18.520168 93.3344653,18.30118 C93.4349844,18.1791211 93.478064,18.0606522 93.5031938,17.8883338 L93.9375798,17.9385933 C94.2247772,17.9637231 94.6089037,18.0355225 95.1617587,18.0606522 C96.1202799,18.1288616 96.3608077,18.1073218 96.6731349,18.1288616 C96.6013355,18.2545105 95.8582123,20.2577122 91.4892222,20.0853938 C86.4991677,19.8699957 85.6375756,15.4292062 85.7560445,13.8819304 C86.0432419,10.1591343 89.1844632,6.87431429 94.7525024,8.22773194 C97.4880574,8.90264579 97.2475296,13.806541 97.1541905,14.5353044 C96.0951501,14.6537733 94.9930302,14.6035138 92.5913421,14.5101746" id="Fill-76"></path>
                    <path d="M103.492278,4.72428291 L102.986092,8.90300478 C103.395349,8.44348898 103.897944,8.03423271 104.547728,7.64651625 C105.603178,7.01827198 107.233024,6.39002771 109.516243,6.34335814 C114.265769,6.22129925 113.497516,10.7159382 113.590856,12.8411988 C112.513865,12.9632577 110.88402,12.7693995 110.015248,12.7693995 C109.921909,12.7693995 110.977359,9.53124905 107.329953,9.33739082 C103.754345,9.14353259 103.872814,13.0314671 103.754345,15.1603177 C103.635876,17.0917201 103.854864,19.4108389 103.923074,20.4016699 L100.684923,20.4016699 C100.634664,20.4016699 100.803392,16.5352751 100.99725,12.5970811 L101.381377,4.79608226 L103.492278,4.72428291 Z" id="Fill-78"></path>
                    <path d="M122.739169,10.9331313 C122.046305,10.5490048 119.429219,10.5705446 118.829695,12.7711945 C118.082982,15.5713689 120.628268,16.8278575 121.54012,16.8996568 C122.308373,16.9750461 123.891549,16.0990941 124.010017,13.7333057 C124.081817,12.4552774 123.435623,11.295718 122.739169,10.9331313 Z M117.939383,21.8753514 C119.285621,22.4569261 123.651021,24.9663132 124.250545,22.3097375 C124.419274,21.5378945 124.537743,20.3280755 124.588002,19.3408345 L124.659802,17.5530309 C124.369014,17.865358 124.060277,18.1310156 123.70128,18.3966732 C123.101756,18.856189 122.215034,19.2654452 121.177533,19.3157048 C119.070223,19.4090439 116.115679,17.5781606 116.428007,13.7081759 C116.740334,9.82024141 119.30716,7.81703969 121.611919,8.30168527 C122.789429,8.54221307 123.651021,8.92633957 124.225415,9.28892626 C124.562872,9.48278449 124.85007,9.69818253 125.065468,9.91717053 L125.402925,7.66985103 L126.720443,7.86729923 C127.108159,11.1521193 127.133289,17.7684289 127.00764,21.369166 C126.939431,23.6128956 125.977319,25.1386316 123.604351,26.41666 C121.371392,27.622889 117.077791,24.6073165 116.715204,24.0724114 L117.939383,21.8753514 Z" id="Fill-80"></path>
                    <path d="M133.347881,19.0981528 C133.900736,19.1735421 135.124915,18.7355661 135.315183,17.8201244 C135.509042,16.875963 135.027986,15.7630732 134.57206,15.5943447 C133.635079,15.2568878 133.085814,15.7630732 132.773486,16.3195181 C132.604758,16.6318453 132.461159,17.0446915 132.36782,17.5293371 C132.36782,17.9637231 132.461159,18.9760939 133.347881,19.0981528 Z M129.628675,11.0781659 C129.869203,10.2811932 130.18153,9.5811496 130.637456,8.95290533 C131.380579,7.91181483 132.554498,6.80251495 134.475131,6.80251495 C138.241007,6.80251495 139.253377,9.99040586 139.418516,11.3438235 C139.827772,14.3881157 139.562115,17.9385933 139.371846,20.2577122 L137.666612,20.7638976 L137.742001,18.7140263 C137.307615,19.1914919 136.873229,19.6258779 136.417303,19.9920546 C135.67418,20.6202989 134.57206,21.2700829 133.635079,21.2234134 C131.621107,21.1264843 130.730795,19.7730666 130.730795,18.0355225 C130.730795,16.2979783 131.861635,13.6378126 134.044335,13.4439544 C136.227035,13.2500961 137.138887,16.441577 137.138887,16.4667068 C137.138887,16.4667068 137.160426,12.8408399 137.138887,11.8500089 C137.092217,10.3745324 136.395763,9.65294894 134.378202,9.36216159 C133.132483,9.16830336 132.292431,9.62781917 131.743166,10.1340046 C131.430839,10.4247919 131.165181,10.7658388 130.949783,11.1750951 L129.628675,11.0781659 Z" id="Fill-82"></path>
                    <path d="M145.183644,9.14496858 L145.564181,11.1015007 C145.589311,10.8825127 145.66111,10.6671147 145.732909,10.4481267 C145.901638,10.0640002 146.163705,9.60448438 146.76323,9.14496858 C147.944329,8.2761965 149.574174,8.82905146 150.460896,9.22035789 C150.916822,9.43575592 151.300948,10.0640002 151.659945,10.6671147 C151.850213,11.0261114 152.044072,11.3922881 152.23793,11.8015443 C152.474868,11.295359 152.787195,10.8107134 153.149782,10.3763273 C153.792386,9.62961415 154.729367,8.78238188 156.172534,8.49159454 C158.979888,7.91360981 161.306187,10.3511976 161.977511,11.6328159 C162.623705,12.8641746 162.12111,18.083987 162.12111,18.6619717 C162.12111,19.2435464 162.361638,20.1589881 162.289838,20.2343774 C162.167779,20.2343774 159.985079,20.4749052 159.723012,20.4031059 C159.791221,19.5558736 160.347666,14.8709663 159.073228,12.9611038 C157.802379,11.0261114 154.754497,11.945143 153.892905,13.4421594 C153.36159,14.361191 153.386719,19.5810034 153.386719,19.6276729 C153.243121,19.6276729 151.947143,19.3907351 151.803544,19.3907351 C151.731744,19.1214875 151.613276,16.7305694 151.563016,16.1489947 C151.419417,14.795577 150.532695,11.5610165 147.341215,11.945143 C145.707779,12.1390013 145.327243,14.2427221 145.327243,16.3177231 C145.327243,17.5526719 145.445712,18.9060895 145.707779,20.4282356 C145.348783,20.4497754 145.040046,20.4497754 144.749258,20.4497754 C144.246663,20.4497754 143.693808,20.4497754 143.525079,20.4282356 C143.525079,20.2343774 143.288142,17.5275421 143.044024,14.8960961 L142.566558,9.67628373 L145.183644,9.14496858 Z" id="Fill-84"></path>
                    <path d="M168.770806,11.9006274 C167.596887,12.4068128 166.085511,15.5480342 167.690226,17.429177 C168.652337,18.520527 171.341223,17.7953536 172.008956,17.1168498 C172.540272,16.5855347 173.208006,15.4259753 172.608481,13.8822894 C172.059216,12.4786122 169.779587,11.4877812 168.770806,11.9006274 M168.533868,20.4016699 C166.15372,20.2832009 165.03006,17.3107081 165.173659,14.5105336 C165.342387,10.6908085 168.39027,9.26559147 169.635988,9.26559147 C172.346413,9.26559147 175.609694,11.0785249 175.609694,16.0290898 C175.609694,18.1292206 173.908049,20.6673274 168.533868,20.4016699" id="Fill-86"></path>
                    <path d="M183.845796,4.43493155 C183.770407,6.15093589 183.770407,7.47922377 183.677068,8.25106673 C184.732518,8.13259781 186.556222,8.0572085 187.442944,8.25106673 C187.371144,9.09470903 187.442944,9.77321284 187.468073,10.2327287 C186.818289,10.2327287 185.138185,10.3296578 183.651938,10.6419849 C183.605269,11.6579456 183.558599,12.5985171 183.48321,13.4924189 C183.364741,15.0396948 183.318071,16.65877 183.318071,17.3336839 C183.318071,18.5901724 184.226333,19.6276729 185.61924,19.6994723 C186.987018,19.7748616 186.843419,18.7122313 186.606481,18.0121877 L187.636802,17.9619281 L189.148178,17.8901288 C189.650774,19.9184603 189.076379,21.6344646 186.125426,21.706264 C183.221142,21.7816533 181.397439,20.2092476 181.207171,17.864999 C181.131781,16.9746871 180.869714,10.9076425 180.869714,10.2327287 C180.19839,10.2075989 179.358337,10.2327287 177.897221,10.4481267 C177.821831,9.79834261 177.96543,8.879311 177.9403,8.22593696 C179.1214,8.0572085 180.054791,8.01053893 181.085112,7.88848004 C181.156911,7.31049531 181.397439,5.809889 181.207171,4.45647135 C182.33442,4.33800243 183.292942,4.45647135 183.845796,4.43493155" id="Fill-88"></path>
                </g>
                <g id="Group-37" transform="translate(0.000000, 7.800000)">
                    <g id="Group-19" transform="translate(0.763835, 0.834090)">
                        <mask id="mask-2" fill="white">
                            <use xlink:href="#path-1"></use>
                        </mask>
                        <g id="Clip-18"></g>
                        <path d="M4.97224447,3.70278205 C4.93426693,2.82983333 4.41664714,1.71855128 3.40250618,1.68047436 C2.00155697,1.6240641 1.16464453,2.11765385 0.976163411,3.53214103 C0.665310221,5.7815 2.01984245,6.7390641 2.81033789,6.79547436 C4.89628939,6.93791026 5.01866146,4.86060256 4.97224447,3.70278205 M5.90199089,2.00342308 C6.18330599,2.61124359 6.4013252,4.57573077 5.91183691,5.85624359 C5.50814974,6.90970513 4.35194466,8.01111538 2.55574772,7.59367949 C1.11822754,7.26085897 0.309446615,5.99867949 0.139250977,5.28791026 C-0.0393841146,4.54752564 -0.0576695964,3.31355128 0.149097005,2.55483333 C0.440258138,1.52957692 1.27717057,0.456371795 3.34624316,0.381628205 C4.73593978,0.333679487 5.45188672,1.01765385 5.90199089,2.00342308" id="Fill-17" fill="#231815" mask="url(#mask-2)"></path>
                    </g>
                    <path d="M8.85980202,1.52837179 C9.15096315,1.60452564 9.48010182,1.70888462 9.69671445,1.7935 C9.65029746,2.13619231 9.31975221,3.28414103 9.47166237,3.69170513 C9.66717637,3.8059359 11.3325618,4.25157692 12.007718,4.2135 C12.1216507,3.86234615 12.3185712,1.6510641 12.3945263,1.14901282 C12.4226578,1.14901282 13.0246721,1.27170513 13.0246721,1.31965385 C13.0246721,1.37747436 13.1090667,3.89196154 13.1090667,4.22337179 C13.6998284,4.27132051 13.9642646,4.28965385 14.1991627,4.36580769 C14.2554257,4.39401282 14.2272942,4.77337179 14.2272942,4.81144872 C14.2272942,4.8410641 13.2033072,4.86926923 13.1653297,4.86926923 C13.1273521,4.86926923 13.2497242,7.99157692 13.4002278,8.44708974 C12.9768486,8.55003846 11.8206435,8.5035 11.6602939,8.44708974 C11.6602939,8.0959359 11.838929,5.3910641 11.914884,4.79311538 C11.1722122,4.67888462 8.06930658,4.52657692 8.14526165,4.33760256 C8.17339316,4.23324359 8.2113707,3.50273077 8.2577877,2.79055128 C8.28591921,2.37311538 8.30420469,1.90773077 8.33374277,1.39580769 L8.85980202,1.52837179 Z" id="Fill-20" fill="#231815"></path>
                </g>
            </g>
        </g>
    </g>
</svg>