<?xml version="1.0" encoding="UTF-8"?>
<svg width="144px" height="50px" viewBox="0 0 144 50" version="1.1" xmlns="http://www.w3.org/2000/svg" xmlns:xlink="http://www.w3.org/1999/xlink">
    <!-- Generator: Sketch 52.3 (67297) - http://www.bohemiancoding.com/sketch -->
    <title>txt-product5</title>
    <desc>Created with Sketch.</desc>
    <defs>
        <polygon id="path-1" points="0 0.0570134148 6.20204176 0.0570134148 6.20204176 7.362053 0 7.362053"></polygon>
    </defs>
    <g id="Page-1" stroke="none" stroke-width="1" fill="none" fill-rule="evenodd">
        <g id="0top" transform="translate(-777.000000, -1890.000000)">
            <g id="Group-44" transform="translate(777.000000, 1889.000000)">
                <g id="Group-26" transform="translate(31.000000, 32.800000)" fill="#000000">
                    <path d="M8.58528144,5.86134372 C8.6011772,5.64530185 8.50580266,5.56923077 8.34684511,5.56923077 C6.69368657,5.66355891 4.59809617,5.86134372 2.81777158,6.08042843 C2.92904187,7.83310613 3.0244164,9.65881207 3.13568668,11.3384615 C4.66167919,11.1893622 6.39166722,11.0615628 7.8540767,10.9155063 C8.1719918,9.23585686 8.4581154,7.23062317 8.58528144,5.86134372 Z M0.644580496,4.64410126 C1.87190417,4.78484997 2.52759764,5.25987684 2.56122295,5.55603558 C4.4778654,5.38303196 6.4421437,5.22468967 8.12340901,5.04582152 C8.40922411,5.02822793 8.57735064,4.94025999 8.79591513,4.74966279 C9.04810493,4.53853973 9.14898084,4.41538462 9.30029472,4.41538462 C9.40117064,4.41538462 9.68698574,4.52094614 10.1885632,4.94025999 C10.7770061,5.39769329 10.8946947,5.55603558 10.8946947,5.80234581 C10.8946947,5.99880755 10.7938187,6.10436907 10.5416289,6.27737269 C10.2754286,6.45330857 10.1885632,6.61458313 10.0708747,7.12186492 C9.88873758,7.91357639 9.46842125,9.63774802 9.09854289,11.0100479 C9.75423636,11.2006451 10.0568641,11.4850748 10.0708747,11.8164207 C10.0708747,12.1331053 9.88873758,12.2562604 9.55248452,12.2562604 C9.21623146,12.2562604 8.69503921,12.1506989 8.14022166,12.1155117 C7.85440656,12.1008504 7.53496615,12.0803245 7.18190043,12.0803245 C5.98820207,12.0803245 4.44424009,12.185886 3.03197723,12.3266347 C3.08241519,13.2942821 2.93110131,13.6461538 2.51078499,13.6461538 C2.22496989,13.6461538 1.87190417,13.4174372 1.82146621,12.7166259 C1.80465356,12.484977 1.78784091,12.273854 1.77102825,11.9043886 C1.70377764,10.4441208 1.55246376,8.54694556 1.31708662,6.45330857 C1.2162107,5.55603558 1.09852213,5.29213176 0.510079271,4.94025999 L0.644580496,4.64410126 Z" id="Fill-164"></path>
                    <path d="M15.8164478,7.08307692 C16.4462052,7.83076923 16.7185328,7.99692308 17.7057201,7.97615385 C20.2389337,7.93461538 22.4345746,7.83076923 24.9337472,7.72692308 C26.2783645,7.64384615 27.163429,7.54 27.586104,7.39461538 C28.1307591,7.45346154 28.5562709,7.56076923 28.8626394,7.72692308 C29.1519875,7.88961538 29.3562331,8.10076923 29.3562331,8.43307692 C29.3562331,8.95230769 29.0498646,9.16 28.0314731,9.16 L26.1762416,9.16 C24.3380307,9.13923077 21.4644077,9.24307692 18.6900708,9.45076923 C18.3837023,9.46807692 18.0262724,9.55461538 17.8560676,9.61346154 C17.7057201,9.67923077 17.5326787,9.82461538 17.3114125,9.82461538 C17.005044,9.82461538 16.5993895,9.53384615 16.1228163,8.76192308 C15.7653863,8.20461538 15.6122021,7.76846154 15.5100793,7.27 L15.8164478,7.08307692 Z" id="Fill-166"></path>
                    <path d="M43.2710683,0.0890384615 C43.9418558,0.234423077 44.5599877,0.500961538 45.0132844,0.982115385 C45.3704273,1.3525 45.5100793,1.76788462 45.5100793,2.18326923 C45.5100793,2.68173077 45.3017459,2.9725 45.0544932,2.9725 C44.8919474,2.9725 44.7408485,2.84788462 44.507332,2.22480769 C44.2303174,1.54288462 43.7381012,0.836730769 43.202387,0.421346154 L43.2710683,0.0890384615 Z M40.9962331,1.14769231 C41.61931,1.31384615 42.3116177,1.69115385 42.7270023,2.18615385 C42.9900793,2.49769231 43.1839254,2.93384615 43.1839254,3.41153846 C43.1839254,3.93076923 42.9900793,4.22153846 42.7270023,4.22153846 C42.4500793,4.22153846 42.33931,3.91 42.1039254,3.31115385 C41.8685408,2.72961538 41.43931,1.93692308 40.9131562,1.48 L40.9962331,1.14769231 Z M32.5714112,3.71103902 C32.7363177,3.86375395 32.9177149,4.00494323 33.1815654,4.14325109 C33.3602142,4.24698199 33.5910834,4.28155895 33.9071543,4.28155895 C34.1545141,4.26427047 34.6794666,4.24698199 35.0587517,4.21240502 C36.0317004,4.14325109 37.581822,3.98477333 38.9010744,3.8320584 C39.3463221,3.78019295 39.4782473,3.71103902 39.7723307,3.43442329 C39.9042559,3.29611543 40.0691625,3.26153846 40.1708548,3.26153846 C40.3165223,3.26153846 40.6133541,3.38255784 40.9926392,3.71103902 C41.4543775,4.10579271 41.5698121,4.29884743 41.5698121,4.48902075 C41.5698121,4.66190558 41.4708682,4.76563647 41.1740364,4.88665585 C40.9101859,4.99038675 40.6958074,5.18056006 40.4814288,5.50904124 C39.805312,6.52618031 39.016509,7.6499317 38.2084669,8.60079826 C40.0361811,9.30962606 41.5863027,10.2950696 42.5922327,11.2805131 C42.9880084,11.6752668 43.202387,12.0901904 43.202387,12.5396909 C43.202387,12.9200376 42.9385365,13.3176727 42.5262701,13.3176727 C42.2624196,13.3176727 41.9655878,13.1966533 41.668756,12.7125758 C40.7287887,11.2805131 39.3105923,9.89743447 37.8291818,9.05029881 C35.9822284,11.0874584 33.7917197,12.6952873 30.6584952,13.6461538 L30.5100793,13.2658072 C33.0991122,12.0239179 35.0120282,10.4679544 36.9057051,8.18587467 C37.5983126,7.34162042 38.53828,6.04210279 39.2473781,4.81750192 C39.277611,4.78292496 39.277611,4.76563647 39.277611,4.72817809 C39.277611,4.69648254 39.2308875,4.66190558 39.1456858,4.66190558 C37.4169154,4.90394434 36.1966069,5.09123623 35.3226022,5.21225561 C34.7949012,5.30157944 34.3853833,5.38802186 34.1022937,5.50904124 C33.9566262,5.57531375 33.8219525,5.61277213 33.706518,5.61277213 C33.4948879,5.61277213 33.2145467,5.40531034 32.9012243,5.05954068 C32.6043925,4.71088961 32.4559766,4.41986681 32.390014,4.21240502 C32.3570327,4.09138564 32.3075607,3.93578929 32.3075607,3.8320584 L32.5714112,3.71103902 Z" id="Fill-168"></path>
                </g>
                <g id="Group-17" transform="translate(31.000000, 0.641406)" fill="#000000">
                    <path d="M11.6482233,8.93028966 L12.3222068,10.010553 C12.7001415,10.6026506 13.1442148,11.3648189 13.3520788,11.8939275 C13.9221303,13.2954353 14.9740485,15.6039863 15.5409506,16.8574697 C16.4039014,15.4780081 18.1927923,10.6908354 18.6967052,8.80116197 L19.8997973,9.03422169 C20.5517346,9.16019992 21.2257181,9.35231672 21.4776746,9.45939822 C20.7186558,10.8357104 19.9816831,12.4261855 19.4777702,13.5064488 C18.9707078,14.6308045 17.1188279,18.2337819 16.5519259,18.7628904 C15.8779423,18.9109148 14.866967,19.0589392 14.0260624,18.9109148 L13.05603,17.1314723 C12.5300709,16.1771873 11.9222259,15.096924 11.6482233,14.523723 C11.5222451,14.2906633 10.2782101,12.2970578 10.0073569,11.5789819 C9.56328361,12.9552941 9.0593707,13.991465 8.57435452,15.1788098 C8.08933833,16.3661546 7.56337923,17.405475 7.0815125,18.1487465 C6.40752898,18.296771 5.41545043,18.5518769 4.59659194,18.1487465 L3.60451339,16.5362252 C3.04076082,15.6260325 2.44866314,14.523723 2.04868226,13.6544732 C1.64870139,12.8072696 0.870785825,11.4907972 0.281837606,9.39325965 C0.848739635,8.93028966 2.72266579,8.46417021 3.16673904,8.46417021 L3.71159488,10.2215665 C4.00764372,11.1758516 4.36353222,12.2750116 4.63753487,12.8482126 C5.31151839,14.3127095 5.50048573,15.0528316 6.21541218,16.3252117 C7.41535481,13.3584244 8.28145513,10.4766724 9.22629185,8.67518374 C10.0892427,8.52715932 10.9112507,8.67518374 11.6482233,8.93028966" id="Fill-90"></path>
                    <path d="M26.3039005,6.89416653 C26.3039005,9.09878554 26.3889358,13.082847 26.6219956,17.3220144 C25.1480503,17.5960171 24.8299553,17.6180633 24.2000641,17.6810524 C24.0299935,16.1756125 23.674105,11.769524 24.1181783,7.12722626 L26.3039005,6.89416653 Z M25.988955,0.809418083 C26.7259276,1.13066257 26.8330091,2.06290146 26.7259276,2.84711593 C26.6219956,3.63133041 25.4629959,3.84234394 24.8740476,3.84234394 C24.5559526,3.84234394 24.28195,3.4612598 24.0520397,3.05812947 C23.9260615,2.82506974 23.8000832,2.56996383 23.6961512,2.27391499 C23.6300126,1.51174671 23.7402436,-0.160614278 25.988955,0.809418083 Z" id="Fill-92"></path>
                    <path d="M34.5189408,4.13839278 C34.4528023,5.64698207 34.4528023,6.81228068 34.3709164,7.48626421 C35.2968564,7.38233217 36.8967799,7.31934306 37.6746955,7.48626421 C37.6117064,8.22953576 37.6746955,8.82163343 37.6967417,9.22476377 C37.1266902,9.22476377 35.6527449,9.31294853 34.3488702,9.58380172 C34.3079273,10.4782471 34.2669844,11.3002551 34.2008458,12.0844696 C34.0969138,13.441885 34.0559709,14.8622895 34.0559709,15.4575366 C34.0559709,16.5566967 34.8527831,17.4668894 36.074772,17.533028 C37.2747146,17.5960171 37.1487364,16.6669276 36.9408723,16.0496343 L37.8447661,16.0086914 L39.1706869,15.9425528 C39.6116107,17.7219953 39.1076978,19.2274351 36.5188452,19.2935737 C33.9709355,19.3565628 32.371012,17.9802507 32.2040909,15.9205066 C32.1379523,15.1394416 31.908042,9.8200109 31.908042,9.22476377 C31.3190938,9.20271758 30.5821212,9.22476377 29.3002927,9.41688056 C29.2341541,8.84367962 29.3601324,8.03741896 29.3380862,7.46736747 C30.3742571,7.31934306 31.1899661,7.27525068 32.0970094,7.17131864 C32.1599985,6.66110681 32.371012,5.34778377 32.2040909,4.16043897 C33.19302,4.05650693 34.0339247,4.16043897 34.5189408,4.13839278" id="Fill-94"></path>
                    <path d="M41.6143496,1.5766255 C42.3103793,1.34356577 43.2772623,1.40340543 43.8032214,1.34356577 C43.8032214,2.25375848 43.9953382,3.94816565 44.0173843,6.38584438 C44.0173843,7.02203444 44.0362811,8.06135482 44.0362811,8.29441455 C44.6913679,7.93537659 45.4031449,7.69916742 46.0550822,7.551143 C47.1920357,7.31808327 49.7840378,7.6361783 51.0438201,8.88651222 C52.791768,10.6029656 51.5508824,18.3821212 51.4658471,19.5033275 L50.0359942,19.6293057 C50.0958339,18.8072977 50.1399263,18.0010371 50.1619725,17.2388688 C50.2218121,15.9633392 50.2060648,14.4610488 50.0359942,13.8028126 C49.695853,12.4674434 48.3321387,9.35263167 44.7512075,10.9840497 C44.0551778,11.3021448 43.8473137,12.7225493 43.8252675,13.1036334 C43.6772431,15.7523257 43.9103029,17.2577655 44.0173843,18.8072977 C43.1733302,19.037208 42.4143114,18.9962651 42.0143305,19.0183113 C41.7844202,17.5538144 41.6993849,16.0074316 41.5954529,14.483095 C41.5104176,13.059541 41.5513605,10.0329141 41.5513605,8.67549869 C41.5513605,7.38422184 41.5104176,3.77809504 41.6143496,1.5766255" id="Fill-96"></path>
                    <path d="M66.6355693,4.39381364 L66.191496,8.05978009 C66.550534,7.65664976 66.9914578,7.29761181 67.5615092,6.95747059 C68.4874492,6.4094653 69.9173021,5.85516109 71.920356,5.81421817 C76.0870859,5.70713667 75.4131024,9.65025523 75.4949882,11.514733 C74.5501515,11.6218145 73.1202986,11.4517439 72.3581303,11.4517439 C72.2762445,11.4517439 73.2021844,8.61093485 70.0023374,8.44086424 C66.8654795,8.27079363 66.9694116,11.6816542 66.8654795,13.5492814 C66.7615475,15.2436886 66.9536643,17.278237 67.0135039,18.1474868 L64.1726949,18.1474868 C64.1286025,18.1474868 64.2766269,14.755523 64.4466975,11.30057 L64.7836893,4.45995221 L66.6355693,4.39381364 Z" id="Fill-98"></path>
                    <path d="M81.2049514,10.6895756 C80.1750794,11.1336489 78.8491585,13.8894226 80.2569652,15.5397374 C81.1010194,16.497172 83.4599617,15.8609819 84.0457605,15.2657348 C84.5118799,14.7996153 85.0976787,13.7823411 84.5717196,12.4280752 C84.0898529,11.196638 82.0899485,10.3273882 81.2049514,10.6895756 M80.9970873,18.1474868 C78.9089982,18.0435547 77.9232186,15.4358054 78.0491968,12.9792299 C78.1972212,9.62820904 80.8711091,8.37787512 81.9639702,8.37787512 C84.3418093,8.37787512 87.2046646,9.96835026 87.2046646,14.3114497 C87.2046646,16.1538813 85.7118226,18.3805465 80.9970873,18.1474868" id="Fill-100"></path>
                    <path d="M97.1673378,9.35168683 C96.5783896,8.3155159 96.1563626,7.846247 95.060352,7.65727965 C93.8194664,7.42421993 91.8825511,8.48558651 91.9864832,9.09973037 C92.1565538,10.0319693 93.8194664,10.0099231 94.8713846,10.1138551 C96.5342972,10.2870752 99.4601416,10.2429828 99.8601225,12.1924959 C100.323092,14.5041964 98.6790766,17.7229401 95.4603328,18.0000922 C93.671442,18.1701628 91.5455594,17.9371031 89.9676821,17.2599701 C90.0275217,17.0269104 90.1566494,16.0064868 90.5566303,15.2222723 C91.7786191,16.0064868 95.0005123,17.2158778 96.9122319,16.028533 C98.4271201,15.0742479 98.0712316,12.2145421 95.7563817,11.9814824 C95.1422378,11.9153438 93.0384014,11.6822841 92.282532,11.5563058 C91.397535,11.4082814 89.0858345,11.3862352 89.3157447,9.94378451 C89.8196577,6.87306518 93.8383631,6.40694573 95.5863111,6.40694573 C97.3752019,6.40694573 98.723169,7.25414932 99.3751063,8.37535556 L97.1673378,9.35168683 Z" id="Fill-102"></path>
                    <path d="M108.307278,8.73974758 C107.063243,8.73974758 106.496341,10.5380868 106.370362,11.0073557 L108.515142,10.9632633 C109.589106,10.9412171 110.644174,10.8813775 110.663071,10.8813775 C110.663071,10.8372851 110.077272,8.73974758 108.307278,8.73974758 M108.389164,12.978915 C107.970286,12.9568688 106.140452,12.764752 105.485365,12.764752 C105.485365,13.2529176 105.088534,16.5566967 107.989183,16.6448814 C108.58128,16.6669276 108.896226,16.496857 109.041101,16.3047402 C109.129286,16.1976587 109.167079,16.0937267 109.189125,15.9425528 L109.56706,15.9866452 C109.822166,16.0086914 110.159158,16.0716805 110.644174,16.0937267 C111.485078,16.1535663 111.696092,16.1346696 111.970095,16.1535663 C111.907106,16.2637973 111.255168,18.0211936 107.422281,17.8700197 C103.044537,17.6810524 102.288668,13.7851756 102.3926,12.4277602 C102.644556,9.16177465 105.40033,6.28002267 110.285136,7.46736747 C112.685021,8.05946515 112.474008,12.3616217 112.392122,13.0009612 C111.463032,13.1048932 110.496149,13.0608008 108.389164,12.978915" id="Fill-104"></path>
                </g>
                <g id="Group-36" transform="translate(0.000000, 6.400000)">
                    <g id="Group-24" transform="translate(0.763835, 0.757167)">
                        <mask id="mask-2" fill="white">
                            <use xlink:href="#path-1"></use>
                        </mask>
                        <g id="Clip-23"></g>
                        <path d="M4.97224447,3.38053846 C4.93426693,2.50758974 4.41664714,1.39630769 3.40250618,1.35823077 C2.00155697,1.30182051 1.16464453,1.79541026 0.976163411,3.20989744 C0.665310221,5.45925641 2.01984245,6.41682051 2.81033789,6.47323077 C4.89628939,6.61566667 5.01866146,4.53835897 4.97224447,3.38053846 M5.90199089,1.68117949 C6.18330599,2.289 6.4013252,4.25348718 5.91183691,5.534 C5.50814974,6.58746154 4.35194466,7.68887179 2.55574772,7.2714359 C1.11822754,6.93861538 0.309446615,5.6764359 0.139250977,4.96566667 C-0.0393841146,4.22528205 -0.0576695964,2.99130769 0.149097005,2.23258974 C0.440258138,1.20733333 1.27717057,0.134128205 3.34624316,0.0593846154 C4.73593978,0.0114358974 5.45188672,0.695410256 5.90199089,1.68117949" id="Fill-22" fill="#231815" mask="url(#mask-2)"></path>
                    </g>
                    <path d="M14.6028499,2.40111538 L12.5633154,2.33483333 C11.5379218,2.29675641 10.5139348,2.28688462 10.4858033,2.28688462 C10.4393863,2.31508974 10.4112548,3.89034615 10.4112548,3.85226923 C10.4112548,3.81419231 14.4059293,3.79585897 14.7730455,4.35573077 C15.3272363,5.20047436 14.6126959,7.28765385 13.9080016,8.04778205 C13.2117467,8.79662821 8.26763372,8.57803846 8.19167865,8.57803846 C8.12697617,8.57803846 8.32389674,7.43008974 8.32389674,7.34547436 C8.32389674,7.24957692 8.45611484,7.71496154 10.5617584,7.61060256 C12.6575559,7.50624359 13.2694163,6.39637179 13.3059872,5.12432051 C13.3425582,3.86214103 9.37601523,4.46008974 9.30990618,4.52637179 C9.27333522,4.54611538 9.35772975,3.74932051 9.48010182,2.92291026 L9.71499993,1.28137179 L14.744914,1.18688462 L14.6028499,2.40111538 Z" id="Fill-25" fill="#231815"></path>
                </g>
            </g>
        </g>
    </g>
</svg>