<?xml version="1.0" encoding="UTF-8"?>
<svg width="165px" height="50px" viewBox="0 0 165 50" version="1.1" xmlns="http://www.w3.org/2000/svg" xmlns:xlink="http://www.w3.org/1999/xlink">
    <!-- Generator: Sketch 52.3 (67297) - http://www.bohemiancoding.com/sketch -->
    <title>txt-product6</title>
    <desc>Created with Sketch.</desc>
    <defs>
        <polygon id="path-1" points="0 0.735474953 6.20204176 0.735474953 6.20204176 8.04051454 0 8.04051454"></polygon>
    </defs>
    <g id="Page-1" stroke="none" stroke-width="1" fill="none" fill-rule="evenodd">
        <g id="0top" transform="translate(-777.000000, -1981.000000)">
            <g id="Group-54" transform="translate(777.000000, 1981.000000)">
                <g id="Group-8" transform="translate(32.510079, 33.558594)" fill="#000000">
                    <path d="M10.6382979,6.51269209 C8.59207981,9.13938782 5.80016288,10.8418758 3.03878652,12.2335922 C2.74865112,12.3795197 2.580678,12.4443764 2.44324544,12.5740898 C2.35162374,12.6713748 2.24473175,12.7659574 2.09202891,12.7659574 C1.95459636,12.7659574 1.69500153,12.5740898 1.32851471,12.2011638 C0.977298178,11.8444521 0.87040619,11.620156 0.87040619,11.4553119 C0.87040619,11.3580269 0.900946758,11.1958852 0.931487326,11.082386 C0.977298178,10.9040301 0.992568462,10.7283766 0.992568462,10.3041058 L0.992568462,4.87776317 C0.992568462,4.56699155 0.962027894,4.26162466 0.885676474,4.11299476 C0.778784485,3.92112707 0.534459941,3.74277118 0,3.6779145 L0,3.32120273 C0.397027385,3.2239177 0.778784485,3.19148936 1.00783875,3.19148936 C1.26743357,3.19148936 1.71027181,3.3374169 2.1072992,3.61305781 C2.36689402,3.7914137 2.56540772,3.98328139 2.56540772,4.14812546 C2.56540772,4.31026717 2.50432658,4.4075522 2.38216431,4.56699155 C2.21419118,4.76426397 2.18365062,5.10476156 2.16838033,5.54254418 C2.12256948,6.75590466 2.09202891,8.7016052 2.09202891,10.7283766 C2.09202891,10.9688868 2.13783976,11.082386 2.26000204,11.082386 C2.30581289,11.082386 2.38216431,11.0688742 2.45851573,11.0337435 C5.12827039,9.94739402 7.75475924,8.57189183 10.378703,6.22353937 L10.6382979,6.51269209 Z" id="Fill-193"></path>
                    <path d="M18.4978723,5.31914894 C19.5702128,5.8455178 19.9531915,6.89523041 19.9531915,7.54865383 C19.9531915,8.18392659 19.7361702,8.5106383 19.4042553,8.5106383 C19.1234043,8.5106383 18.9957447,8.25652919 18.9446809,7.65755773 C18.8553191,6.78632651 18.7276596,6.20853081 18.3446809,5.53393163 L18.4978723,5.31914894 Z M17.0212766,13.487198 C18.5419985,12.6397404 19.647073,11.6815208 20.6749915,10.4141981 C21.4838861,9.45855443 22.2430026,8.20668693 22.7806064,6.76935758 C22.900074,6.47828551 22.9448743,6.2902478 22.9448743,6.16918242 C22.9448743,6.0764515 22.9299408,5.99659987 22.8104733,5.92189995 C22.6760724,5.82916903 22.4670042,5.7364381 22.2753584,5.68749678 L22.3027364,5.34748339 C22.4520708,5.33202823 22.5864717,5.31914894 22.7208727,5.31914894 C22.8552736,5.31914894 22.9896746,5.33202823 23.1091421,5.34748339 C23.3032768,5.36293854 23.4974115,5.44021431 23.6168791,5.52006594 C23.8707475,5.68749678 24.0648822,5.86007934 24.259017,6.0764515 C24.4083513,6.24388233 24.4680851,6.35206841 24.4680851,6.49374066 C24.4680851,6.6611715 24.3784845,6.75390243 24.2440835,6.8311782 C24.0648822,6.92648498 23.9454147,7.07846067 23.885681,7.2021019 C23.0942087,8.80943795 22.3798925,9.98145381 21.4838861,10.9705837 C20.2742775,12.3023028 18.9750683,13.1806708 17.2129224,13.8297872 L17.0212766,13.487198 Z M16.3329787,6.38297872 C17.3648936,6.70460168 17.862766,7.31073726 17.862766,7.86739238 C17.862766,8.32508659 17.6074468,8.5106383 17.2882979,8.5106383 C17.0861702,8.5106383 16.9308511,8.36219693 16.8797872,8.01583375 C16.7797872,7.40969817 16.537234,6.94169553 16.1797872,6.5437902 L16.3329787,6.38297872 Z" id="Fill-195"></path>
                    <path d="M36.2651976,0.264893617 C37.1960486,0.39893617 38.0477457,0.64787234 38.6746454,1.08829787 C39.1685664,1.43297872 39.3617021,1.81595745 39.3617021,2.19893617 C39.3617021,2.65851064 39.0735816,2.92659574 38.7316363,2.92659574 C38.5068389,2.92659574 38.2978723,2.81170213 37.974924,2.23723404 C37.5918186,1.60531915 36.9110942,0.954255319 36.1702128,0.574468085 L36.2651976,0.264893617 Z M35.2468085,1.24255319 C36.1085106,1.39574468 37.0659574,1.74042553 37.6404255,2.2 C38.0042553,2.48723404 38.2723404,2.8893617 38.2723404,3.32978723 C38.2723404,3.80851064 38.0042553,4.07659574 37.6404255,4.07659574 C37.2574468,4.07659574 37.1042553,3.78617021 36.7787234,3.23404255 C36.4531915,2.69787234 35.8595745,1.97021277 35.1319149,1.54893617 L35.2468085,1.24255319 Z M29.787234,1.1929963 C30.0526494,1.11226723 30.4273534,1.06382979 30.6459307,1.06382979 C30.8957334,1.06382979 31.2235994,1.1929963 31.6451414,1.46747515 C32.0510708,1.72580819 32.3320988,2.03257867 32.3320988,2.25862007 C32.3320988,2.38778659 32.2696481,2.51695311 32.1889827,2.61382799 C32.0042328,2.82372358 31.9573948,3.0659108 31.9573948,3.40497291 C31.9417821,4.09924294 31.9261694,5.01955438 31.9261694,6.17936206 C32.8317041,6.2627821 33.8153021,6.4376951 34.6089461,6.76061139 C35.6862201,7.19654838 36.1702128,7.74550608 36.1702128,8.35904704 C36.1702128,8.82727566 35.8735721,9.15019196 35.5144807,9.15019196 C35.1710021,9.15019196 34.9368121,8.92415055 34.6870094,8.58508844 C33.9844394,7.69706864 33.063292,7.03509024 31.9261694,6.69602813 C31.9261694,8.79498403 31.9573948,11.0688529 31.9573948,12.9902049 C31.9573948,13.4718883 31.7544301,13.8297872 31.3953388,13.8297872 C31.1923741,13.8297872 31.0518601,13.765204 30.8801207,13.5230168 C30.6771561,13.2458469 30.6771561,12.8771842 30.6771561,12.5058304 C30.6771561,12.1667683 30.7708321,10.9235406 30.7864447,8.89185892 C30.8020574,6.16321625 30.8176701,4.40332245 30.7708321,2.59768218 C30.7708321,2.24247426 30.7396067,2.01643285 30.5990927,1.87112052 C30.4585787,1.70966237 30.2556141,1.59664167 29.787234,1.5159126 L29.787234,1.1929963 Z" id="Fill-197"></path>
                    <path d="M50.5010638,3.71542553 C50.5010638,4.36329787 51.0180851,4.88031915 51.65,4.88031915 C52.3010638,4.88031915 52.8180851,4.36329787 52.8180851,3.71542553 C52.8180851,3.10265957 52.3010638,2.56648936 51.65,2.56648936 C51.0180851,2.56648936 50.5010638,3.10265957 50.5010638,3.71542553 Z M53.1914894,3.71650821 C53.1914894,4.60747715 52.489083,5.31914894 51.585989,5.31914894 C50.6996191,5.31914894 50,4.60747715 50,3.71650821 C50,2.83933136 50.6996191,2.12765957 51.585989,2.12765957 C52.489083,2.12765957 53.1914894,2.83933136 53.1914894,3.71650821 Z M41.5715351,7.72140468 C41.7030126,7.74075542 41.8344901,7.75734176 41.9495329,7.75734176 C42.3110959,7.75734176 42.5740509,7.64123734 42.9684833,7.37309142 C43.7737829,6.87826544 44.6941252,6.217576 45.529555,5.6370539 C45.9075528,5.38825871 46.2198118,5.31914894 46.417028,5.31914894 C46.5978096,5.31914894 46.8443298,5.36890797 47.3702397,5.6674622 C49.44101,6.84509275 51.4433024,8.03930964 53.4455949,9.21694019 C53.9578092,9.51549441 54.4015457,9.71176617 54.6617615,9.86380767 C54.9904552,10.0434931 55.3191489,10.5410835 55.3191489,11.0580246 C55.3191489,11.5058559 55.1383674,11.7021277 54.7275003,11.7021277 C54.4508498,11.7021277 54.1550254,11.5362642 53.7277236,11.23771 C51.3282597,9.44638464 49.4054015,8.08906868 47.2058929,6.71240198 C46.729287,6.41384776 46.4827668,6.33368042 46.3019852,6.33368042 C46.1376384,6.33368042 45.9732915,6.39726141 45.6610325,6.68199368 C44.905037,7.34268312 44.2996928,7.95361352 43.9189559,8.35445021 C43.6888703,8.58665905 43.560132,8.75252251 43.4587848,8.89903523 C43.343742,9.06766308 43.1985689,9.1505948 43.0835261,9.1505948 C42.935614,9.1505948 42.7383977,9.10083577 42.4425734,8.89903523 C42.048141,8.65024004 41.7194473,8.32127752 41.4893617,7.97296426 L41.5715351,7.72140468 Z" id="Fill-199"></path>
                    <path d="M61.0510638,5.31914894 C62.1234043,5.8455178 62.506383,6.89523041 62.506383,7.54865383 C62.506383,8.18392659 62.2893617,8.5106383 61.9574468,8.5106383 C61.6765957,8.5106383 61.5489362,8.25652919 61.4978723,7.65755773 C61.4085106,6.78632651 61.2808511,6.20853081 60.8978723,5.53393163 L61.0510638,5.31914894 Z M59.5744681,13.487198 C61.09519,12.6397404 62.2002645,11.6815208 63.228183,10.4141981 C64.0370776,9.45855443 64.7961941,8.20668693 65.3337979,6.76935758 C65.4532654,6.47828551 65.4980658,6.2902478 65.4980658,6.16918242 C65.4980658,6.0764515 65.4831323,5.99659987 65.3636648,5.92189995 C65.2292639,5.82916903 65.0201957,5.7364381 64.8285499,5.68749678 L64.8559279,5.34748339 C65.0052623,5.33202823 65.1396632,5.31914894 65.2740642,5.31914894 C65.4084651,5.31914894 65.5428661,5.33202823 65.6623336,5.34748339 C65.8564683,5.36293854 66.050603,5.44021431 66.1700705,5.52006594 C66.423939,5.68749678 66.6180737,5.86007934 66.8122084,6.0764515 C66.9615428,6.24388233 67.0212766,6.35206841 67.0212766,6.49374066 C67.0212766,6.6611715 66.931676,6.75390243 66.797275,6.8311782 C66.6180737,6.92648498 66.4986062,7.07846067 66.4388725,7.2021019 C65.6474002,8.80943795 64.933084,9.98145381 64.0370776,10.9705837 C62.827469,12.3023028 61.5282598,13.1806708 59.7661139,13.8297872 L59.5744681,13.487198 Z M58.8861702,6.38297872 C59.9180851,6.70460168 60.4159574,7.31073726 60.4159574,7.86739238 C60.4159574,8.32508659 60.1606383,8.5106383 59.8414894,8.5106383 C59.6393617,8.5106383 59.4840426,8.36219693 59.4329787,8.01583375 C59.3329787,7.40969817 59.0904255,6.94169553 58.7329787,6.5437902 L58.8861702,6.38297872 Z" id="Fill-201"></path>
                    <path d="M81.3269507,2.62524125 C81.3269507,3.27600125 81.8437307,3.79278125 82.4753507,3.79278125 C83.1229207,3.79278125 83.6428907,3.27600125 83.6428907,2.62524125 C83.6428907,2.01595125 83.1229207,1.48003125 82.4753507,1.48003125 C81.8437307,1.48003125 81.3269507,2.01595125 81.3269507,2.62524125 Z M84.0425532,2.64992001 C84.0425532,3.54364736 83.3407597,4.25531915 82.4384538,4.25531915 C81.5528573,4.25531915 80.8510638,3.54364736 80.8510638,2.64992001 C80.8510638,1.77550157 81.5528573,1.06382979 82.4384538,1.06382979 C83.3407597,1.06382979 84.0425532,1.77550157 84.0425532,2.64992001 Z M78.9159611,4.25531915 C81.1127363,5.03840868 82.5772531,6.12248159 83.5698701,7.46492079 C83.8926062,7.91240052 84.0553303,8.31459956 84.0417699,8.77539714 C84.0417699,9.23885829 83.7000493,9.57446809 83.3095115,9.57446809 C83.0328806,9.57446809 82.7399772,9.35072822 82.4958911,8.8233414 C81.6334534,7.01744106 80.3153883,5.65902045 78.7234043,4.59092895 L78.9159611,4.25531915 Z M74.2030623,4.27421968 C74.4273763,4.25531915 74.6068275,4.25531915 74.7563701,4.25531915 C74.9956383,4.27421968 75.3246322,4.35522195 75.8480314,4.77643374 C76.3265679,5.14904417 76.5957447,5.50275408 76.5957447,5.79706232 C76.5957447,6.0535695 76.5060191,6.16697268 76.3116136,6.28037585 C76.1471167,6.38027865 75.9975741,6.52338265 75.8928942,6.65298628 C74.2205089,8.66184253 72.5157227,9.84447565 70.3772629,10.6382979 L70.212766,10.2818879 C72.1867289,9.14785614 73.5151661,7.77081758 74.6815988,6.08597041 C74.8909585,5.79706232 74.9806841,5.53785506 74.9806841,5.32724916 C74.9806841,5.06804191 74.6990454,4.77643374 74.1581995,4.54962739 L74.2030623,4.27421968 Z" id="Fill-203"></path>
                    <path d="M87.51651,6.71489362 C88.0971374,7.40744681 88.3482195,7.5606383 89.2583923,7.54148936 C91.5939793,7.5 93.618329,7.40744681 95.9225307,7.31170213 C97.1622488,7.23191489 97.9782657,7.1393617 98.3679661,7.00531915 C98.8701304,7.05957447 99.2624462,7.15851064 99.5449136,7.31170213 C99.8116884,7.46170213 100,7.65319149 100,7.96276596 C100,8.43829787 99.7175326,8.63297872 98.77859,8.63297872 L97.068093,8.63297872 C95.3732885,8.6106383 92.7238489,8.70638298 90.1659496,8.89787234 C89.8834822,8.91702128 89.5539369,8.99361702 89.3970106,9.05106383 C89.2583923,9.10851064 89.0988505,9.24255319 88.8948463,9.24255319 C88.6123789,9.24255319 88.2383711,8.97446809 87.7989774,8.26595745 C87.4694321,7.74893617 87.3281984,7.34680851 87.2340426,6.89042553 L87.51651,6.71489362 Z" id="Fill-205"></path>
                </g>
                <g id="Group-16" transform="translate(32.000000, 0.000000)" fill="#000000">
                    <path d="M3.13087423,3.57256301 L2.66684559,7.40326755 C3.04201768,6.98202169 3.50275534,6.60684959 4.09842331,6.2514234 C5.0659724,5.67879231 6.56007881,5.09957925 8.65314418,5.05679647 C13.0071151,4.94490303 12.3028446,9.0652141 12.3884102,11.0134762 C11.4011152,11.1253696 9.90700881,10.9476565 9.11059085,10.9476565 C9.02502529,10.9476565 9.99257437,7.97918962 6.64893536,7.80147652 C3.37111601,7.62376343 3.47971846,11.1878983 3.37111601,13.1394514 C3.26251356,14.9100004 3.46326354,17.0359756 3.52579222,17.944287 L0.557325301,17.944287 C0.511251535,17.944287 0.665927749,14.399898 0.843640847,10.7896893 L1.19577606,3.64167365 L3.13087423,3.57256301 Z" id="Fill-106"></path>
                    <path d="M20.9515487,8.11379084 C19.6516103,8.11379084 19.0592333,9.99294229 18.927594,10.4832988 L21.1687536,10.437225 C22.2909789,10.4141882 23.3934583,10.3516595 23.4132042,10.3516595 C23.4132042,10.3055857 22.8010813,8.11379084 20.9515487,8.11379084 M21.0371143,12.5434543 C20.5994135,12.5204175 18.6873522,12.3196675 18.0028277,12.3196675 C18.0028277,12.8297699 17.5881638,16.2820113 20.6191594,16.3741589 C21.2378642,16.3971958 21.5669626,16.2194827 21.7183478,16.0187327 C21.8104953,15.9068393 21.8499871,15.7982368 21.873024,15.6402696 L22.267942,15.6863434 C22.5345117,15.7093803 22.8866469,15.7751999 23.3934583,15.7982368 C24.2721508,15.8607655 24.4926467,15.8410196 24.7789623,15.8607655 C24.7131426,15.9759499 24.0319091,17.8123186 20.0267824,17.6543514 C15.4523156,17.4568924 14.6624797,13.3859461 14.7710821,11.9675323 C15.0343608,8.5547826 17.9139711,5.54353289 23.0182862,6.78423359 C25.5260155,7.40293845 25.3055196,11.8984216 25.219954,12.5664912 C24.249114,12.6750937 23.2387821,12.6290199 21.0371143,12.5434543" id="Fill-108"></path>
                    <path d="M32.4153599,10.1288599 C31.5564132,10.1288599 29.1605774,11.280704 29.6213151,13.9134907 C29.9734503,15.9539003 32.0665156,16.2369249 33.0307737,15.8847897 C33.7350442,15.6412569 34.3734949,14.6013062 34.4162777,13.4264252 C34.5051343,11.2576672 33.1426672,10.1288599 32.4153599,10.1288599 Z M37.8290274,0.430332167 C37.9376298,2.35555739 37.8915561,5.76501607 37.8915561,7.16039298 C37.8915561,10.4612492 37.3649987,18.4122648 37.3649987,18.5866869 C37.1247569,18.5866869 35.9794948,18.5866869 35.7589989,18.5439042 L35.7787448,16.417929 C35.4299006,16.7042445 35.0316916,16.9708141 34.6137367,17.2143469 C33.8897204,17.6355928 32.8793885,18.0535476 31.799946,18.188478 C29.6443519,18.4517566 27.4887579,16.3948921 27.4887579,12.8505031 C27.4887579,9.28636818 30.414442,7.62442162 32.2837205,7.89099127 C33.2282327,8.0226306 33.9785769,8.48995023 34.5051343,8.93423297 C34.8144867,9.19751163 35.0777653,9.48711816 35.3180071,9.77343371 C35.3180071,8.71044611 35.3838268,6.49561436 35.4957202,5.49844642 C35.5615399,4.76784813 35.6931792,3.52714744 35.7787448,2.48719672 L35.9564579,0.585008381 L37.8290274,0.430332167 Z" id="Fill-110"></path>
                    <path d="M59.6495629,14.5575361 C60.4854727,14.4884255 63.1676241,13.402401 62.4633536,10.8123971 C61.9367963,8.79831536 59.432358,8.5547826 58.7280876,8.72920471 C56.9674116,9.19652434 55.8451863,10.5491185 55.8451863,12.5664912 C55.8451863,14.7582861 58.9452925,14.6233558 59.6495629,14.5575361 Z M53.8014856,22.8606869 C53.5151701,20.9782445 53.4460594,19.8066544 53.337457,18.3882406 C53.0741783,15.0873844 52.942539,6.0536353 52.942539,6.11945497 C53.5579529,6.03059842 54.5913216,6.0536353 55.4502683,6.11945497 L55.2297724,9.11095877 C56.1545387,7.89329496 57.3656205,6.73815982 59.3402105,6.49791804 C61.4990955,6.25438528 64.7078042,7.24826223 64.7078042,11.3455364 C64.7078042,14.8668885 60.7487513,16.8809703 58.8366901,16.950081 C57.1418337,17.0159006 56.286178,16.8579334 55.3844486,16.4169417 L55.3844486,19.6059045 C55.3844486,20.3825765 55.4272314,21.070392 55.493051,21.66606 C55.5160879,21.9984493 55.5588707,22.3275476 55.6049445,22.6171542 L53.8014856,22.8606869 Z" id="Fill-112"></path>
                    <path d="M72.9194657,8.11379084 C71.6195273,8.11379084 71.0271503,9.99294229 70.895511,10.4832988 L73.1366706,10.437225 C74.2588959,10.4141882 75.3613753,10.3516595 75.3811212,10.3516595 C75.3811212,10.3055857 74.7689983,8.11379084 72.9194657,8.11379084 M73.0050313,12.5434543 C72.5673305,12.5204175 70.6552692,12.3196675 69.9707447,12.3196675 C69.9707447,12.8297699 69.5560808,16.2820113 72.5870764,16.3741589 C73.2057813,16.3971958 73.5348796,16.2194827 73.6862648,16.0187327 C73.7784124,15.9068393 73.8179042,15.7982368 73.840941,15.6402696 L74.235859,15.6863434 C74.5024287,15.7093803 74.8545639,15.7751999 75.3613753,15.7982368 C76.2400679,15.8607655 76.4605637,15.8410196 76.7468793,15.8607655 C76.6810596,15.9759499 75.9998261,17.8123186 71.9946994,17.6543514 C67.4202327,17.4568924 66.6303967,13.3859461 66.7389991,11.9675323 C67.0022778,8.5547826 69.8818882,5.54353289 74.9862032,6.78423359 C77.4939325,7.40293845 77.2734366,11.8984216 77.187871,12.5664912 C76.217031,12.6750937 75.2066991,12.6290199 73.0050313,12.5434543" id="Fill-114"></path>
                    <path d="M86.318046,14.5575361 C87.1539557,14.4884255 89.8361071,13.402401 89.1318367,10.8123971 C88.6052793,8.79831536 86.1008411,8.5547826 85.3965706,8.72920471 C83.6358946,9.19652434 82.5136693,10.5491185 82.5136693,12.5664912 C82.5136693,14.7582861 85.6137755,14.6233558 86.318046,14.5575361 Z M80.4699687,22.8606869 C80.1836531,20.9782445 80.1145425,19.8066544 80.00594,18.3882406 C79.7426614,15.0873844 79.611022,6.0536353 79.611022,6.11945497 C80.2264359,6.03059842 81.2598047,6.0536353 82.1187513,6.11945497 L81.8982554,9.11095877 C82.8230217,7.89329496 84.0341036,6.73815982 86.0086935,6.49791804 C88.1675786,6.25438528 91.3762873,7.24826223 91.3762873,11.3455364 C91.3762873,14.8668885 87.4172344,16.8809703 85.5051731,16.950081 C83.8103167,17.0159006 82.954661,16.8579334 82.0529316,16.4169417 L82.0529316,19.6059045 C82.0529316,20.3825765 82.0957144,21.070392 82.1615341,21.66606 C82.184571,21.9984493 82.2273537,22.3275476 82.2734275,22.6171542 L80.4699687,22.8606869 Z" id="Fill-116"></path>
                    <path d="M100.378772,14.5575361 C101.214682,14.4884255 103.896833,13.402401 103.192563,10.8123971 C102.666005,8.79831536 100.161567,8.5547826 99.4572967,8.72920471 C97.6966207,9.19652434 96.5743954,10.5491185 96.5743954,12.5664912 C96.5743954,14.7582861 99.6745016,14.6233558 100.378772,14.5575361 Z M94.5306947,22.8606869 C94.2443792,20.9782445 94.1752685,19.8066544 94.0666661,18.3882406 C93.8033874,15.0873844 93.6717481,6.0536353 93.6717481,6.11945497 C94.287162,6.03059842 95.3205307,6.0536353 96.1794774,6.11945497 L95.9589815,9.11095877 C96.8837478,7.89329496 98.0915387,6.73815982 100.06942,6.49791804 C102.228305,6.25438528 105.437013,7.24826223 105.437013,11.3455364 C105.437013,14.8668885 101.47796,16.8809703 99.5658992,16.950081 C97.8710428,17.0159006 97.0153871,16.8579334 96.1136577,16.4169417 L96.1136577,19.6059045 C96.1136577,20.3825765 96.1564405,21.070392 96.2222601,21.66606 C96.245297,21.9984493 96.2880798,22.3275476 96.3341536,22.6171542 L94.5306947,22.8606869 Z" id="Fill-118"></path>
                    <path d="M113.648675,8.11379084 C112.348736,8.11379084 111.756359,9.99294229 111.62472,10.4832988 L113.86588,10.437225 C114.988105,10.4141882 116.090584,10.3516595 116.11033,10.3516595 C116.11033,10.3055857 115.498207,8.11379084 113.648675,8.11379084 M113.73424,12.5434543 C113.29654,12.5204175 111.384478,12.3196675 110.699954,12.3196675 C110.699954,12.8297699 110.28529,16.2820113 113.316286,16.3741589 C113.93499,16.3971958 114.264089,16.2194827 114.415474,16.0187327 C114.507621,15.9068393 114.547113,15.7982368 114.57015,15.6402696 L114.968359,15.6863434 C115.231638,15.7093803 115.583773,15.7751999 116.090584,15.7982368 C116.969277,15.8607655 117.189773,15.8410196 117.476088,15.8607655 C117.410269,15.9759499 116.729035,17.8123186 112.723909,17.6543514 C108.149442,17.4568924 107.359606,13.3859461 107.468208,11.9675323 C107.731487,8.5547826 110.611097,5.54353289 115.715412,6.78423359 C118.223142,7.40293845 118.002646,11.8984216 117.91708,12.5664912 C116.94624,12.6750937 115.935908,12.6290199 113.73424,12.5434543" id="Fill-120"></path>
                    <path d="M123.727311,3.57256301 L123.263282,7.40326755 C123.638455,6.98202169 124.099192,6.60684959 124.69486,6.2514234 C125.662409,5.67879231 127.156516,5.09957925 129.249581,5.05679647 C133.603552,4.94490303 132.899282,9.0652141 132.984847,11.0134762 C131.997552,11.1253696 130.503446,10.9476565 129.707028,10.9476565 C129.621462,10.9476565 130.589011,7.97918962 127.245372,7.80147652 C123.967553,7.62376343 124.076155,11.1878983 123.967553,13.1394514 C123.85895,14.9100004 124.0597,17.0359756 124.122229,17.944287 L121.153762,17.944287 C121.107688,17.944287 121.262365,14.399898 121.440078,10.7896893 L121.792213,3.64167365 L123.727311,3.57256301 Z" id="Fill-122"></path>
                </g>
                <g id="Group-35" transform="translate(0.000000, 2.000000)">
                    <g id="Group-29" transform="translate(0.763835, 0.680244)">
                        <mask id="mask-2" fill="white">
                            <use xlink:href="#path-1"></use>
                        </mask>
                        <g id="Clip-28"></g>
                        <path d="M4.97224447,4.059 C4.93426693,3.18605128 4.41664714,2.07476923 3.40250618,2.03669231 C2.00155697,1.98028205 1.16464453,2.47387179 0.976163411,3.88835897 C0.665310221,6.13771795 2.01984245,7.09528205 2.81033789,7.15169231 C4.89628939,7.29412821 5.01866146,5.21682051 4.97224447,4.059 M5.90199089,2.35964103 C6.18330599,2.96746154 6.4013252,4.93194872 5.91183691,6.21246154 C5.50814974,7.26592308 4.35194466,8.36733333 2.55574772,7.94989744 C1.11822754,7.61707692 0.309446615,6.35489744 0.139250977,5.64412821 C-0.0393841146,4.90374359 -0.0576695964,3.66976923 0.149097005,2.91105128 C0.440258138,1.88579487 1.27717057,0.814 3.34624316,0.737846154 C4.73593978,0.689897436 5.45188672,1.37387179 5.90199089,2.35964103" id="Fill-27" fill="#231815" mask="url(#mask-2)"></path>
                    </g>
                    <path d="M11.3034457,6.21 C10.9194506,6.28615385 9.98689098,6.67538462 10.3638532,7.38615385 C10.6085974,7.83179487 11.4455098,8.06025641 11.971569,7.83179487 C12.4976283,7.60474359 12.6382858,7.30153846 12.6382858,7.04487179 C12.6382858,5.83064103 11.6804079,6.13384615 11.3034457,6.21 Z M13.3162552,3.12576923 C12.892876,3.14410256 12.4413653,3.18358974 12.4132338,3.18358974 C12.3288392,3.21179487 12.7705039,2.53769231 12.5257598,2.36564103 C12.2810157,2.195 11.0488555,2.28102564 10.5227963,2.79435897 C9.73370739,3.54320513 9.38628324,5.67833333 9.71542191,6.39051282 C10.0164291,6.18038462 11.0587015,5.5175641 11.6044528,5.39346154 C13.5314613,4.93794872 14.0012575,6.30448718 13.9646866,6.93064103 C13.9351485,7.54833333 13.3429802,8.74282051 10.9461755,8.74282051 C8.5493708,8.74282051 8.21179268,6.12397436 8.24836364,5.27923077 C8.2849346,4.43589744 9.18795609,1.53217949 11.915306,1.53217949 C13.2684317,1.53217949 13.8324685,1.92987179 14.0575205,2.31910256 C14.1897386,2.54615385 14.2277162,2.80282051 14.1616071,3.0975641 L13.3162552,3.12576923 Z" id="Fill-30" fill="#231815"></path>
                </g>
            </g>
        </g>
    </g>
</svg>